<svg width="78" height="78" viewBox="0 0 78 78" fill="none" xmlns="http://www.w3.org/2000/svg">
<circle cx="39" cy="39" r="39" fill="#F3A132"/>
<path d="M52.9729 30.6369C52.8612 30.7329 52.726 30.7958 52.5797 30.8178C49.4178 31.2992 47.1384 30.5488 45.3105 29.9448C44.1858 29.5751 43.2168 29.2542 42.2368 29.2542C40.5835 29.2542 39.303 30.0958 38.065 30.9091C37.7771 31.0978 37.4971 31.2819 37.2202 31.4502L33.1208 35.5496C32.5593 36.1112 32.4208 36.9654 32.7763 37.6748C33.0894 38.3025 33.7202 38.6926 34.4218 38.6926H35.051C35.4789 38.6926 35.88 38.551 36.2103 38.2836C36.5108 38.0382 36.8569 37.7503 37.2265 37.4404C39.2416 35.7557 40.8698 34.4327 41.9599 34.0237C42.0511 33.9891 42.1424 33.9734 42.2368 33.9734C42.4224 33.9734 42.6064 34.0395 42.7512 34.1653L54.1197 44.0174L58.754 42.1801V27.0315L52.9729 30.6369Z" fill="white"/>
<path d="M28.535 47.4467L29.3939 46.1584C29.5622 45.9067 29.6519 45.6094 29.6519 45.3058V44.9487C29.6519 44.0992 28.9644 43.4118 28.115 43.4118C27.6006 43.4118 27.1208 43.6682 26.8361 44.0961L25.9772 45.3844C25.8089 45.6361 25.7192 45.9334 25.7192 46.237V46.5941C25.7192 47.4436 26.4066 48.131 27.2561 48.131C27.7705 48.131 28.2503 47.8746 28.535 47.4467Z" fill="white"/>
<path d="M32.798 46.8316V46.5217C32.798 45.6723 32.1106 44.9849 31.2611 44.9849H31.2076C30.7231 44.9849 30.2685 45.213 29.9775 45.5999L28.3871 47.722C28.1873 47.9878 28.0788 48.3103 28.0788 48.6438V48.9537C28.0788 49.8032 28.7662 50.4906 29.6157 50.4906H29.6692C30.1537 50.4906 30.6083 50.2625 30.8993 49.8755L32.4897 47.7535C32.6895 47.4876 32.798 47.1651 32.798 46.8316Z" fill="white"/>
<path d="M35.9445 48.4047V48.0948C35.9445 47.2454 35.2571 46.5579 34.4076 46.5579H34.3541C33.8696 46.5579 33.415 46.786 33.124 47.173L31.5336 49.2951C31.3338 49.5609 31.2253 49.8834 31.2253 50.2169V50.5268C31.2253 51.3762 31.9127 52.0637 32.7622 52.0637H32.8157C33.3002 52.0637 33.7548 51.8356 34.0458 51.4486L35.6362 49.3265C35.8359 49.0607 35.9445 48.7382 35.9445 48.4047Z" fill="white"/>
<path d="M39.0899 49.6679C39.0899 48.8184 38.4025 48.131 37.553 48.131H37.4996C37.0151 48.131 36.5604 48.3591 36.2694 48.7461L34.679 50.8681C34.4793 51.134 34.3707 51.4565 34.3707 51.7899V52.0998C34.3707 52.9493 35.0582 53.6367 35.9076 53.6367H35.9611C36.4456 53.6367 36.9002 53.4086 37.1912 53.0217L38.7816 50.8996C38.9814 50.6337 39.0884 50.3097 39.0884 49.9778V49.6679H39.0899Z" fill="white"/>
<path d="M40.1614 51.6122C40.1142 51.6861 40.0922 51.7742 40.0403 51.845L39.0288 53.1931L40.0875 54.1747C40.4241 54.5098 40.9212 54.4909 41.2185 54.1936C41.6102 53.8019 41.7659 53.0516 41.585 52.825L40.1614 51.6122Z" fill="white"/>
<path d="M42.1058 35.6896C41.0975 36.2528 39.4678 37.6151 38.2361 38.6454C37.8617 38.96 37.5109 39.2526 37.2057 39.5012C36.5907 40.003 35.8466 40.2657 35.0522 40.2657H34.423C33.1205 40.2657 31.9517 39.5421 31.3697 38.378C30.709 37.0629 30.9654 35.4804 32.0083 34.4375L36.4003 30.1068C36.6253 29.9699 36.8534 29.8205 37.0846 29.6695C34.618 29.1661 31.8148 29.1315 28.6829 29.6239C27.0988 29.8803 25.4958 29.4351 24.2767 28.4205L21 27V42.1785L25.09 43.879L25.5273 43.223C26.103 42.3578 27.0705 41.8387 28.115 41.8387C29.2869 41.8387 30.2968 42.4979 30.8269 43.4574C30.9528 43.4401 31.0771 43.4118 31.2061 43.4118C32.4157 43.4118 33.4367 44.0709 33.9699 45.0305C34.0989 45.0132 34.2232 44.9849 34.3522 44.9849C35.5619 44.9849 36.5828 45.644 37.1161 46.6036C37.2435 46.5878 37.3678 46.5579 37.4983 46.5579H37.5534C39.268 46.5579 40.6633 47.9532 40.6633 49.6679V49.9746L42.6375 51.6531C42.6391 51.6562 42.6422 51.6578 42.6454 51.661L43.3973 52.2996C43.8346 52.6488 44.4072 52.8502 44.9908 52.8502C45.6405 52.8502 46.1691 52.3217 46.1691 51.672C46.1691 51.3212 46.0133 50.9924 45.7443 50.7675L38.5853 44.8024C38.2518 44.524 38.2062 44.0284 38.4846 43.695C38.7631 43.363 39.2586 43.3158 39.5936 43.5958L48.4374 50.9657C48.6812 51.167 48.9864 51.2771 49.3026 51.2771H49.5339C50.2811 51.2771 50.8867 50.6699 50.8867 49.9243C50.8867 49.531 50.7215 49.1629 50.4289 48.905L41.7314 41.6578C41.398 41.3794 41.3523 40.8839 41.6323 40.5488C41.9123 40.2138 42.4079 40.1729 42.7398 40.4481L51.4089 47.6717C51.4231 47.6827 51.4373 47.6953 51.4498 47.7063L51.5788 47.8132C51.8242 48.0193 52.1357 48.131 52.455 48.131H52.6658C53.4193 48.131 54.0344 47.5159 54.0344 46.7624C54.0344 46.3582 53.8629 45.9822 53.5609 45.7195L42.1058 35.6896Z" fill="white"/>
</svg>
