<svg width="78" height="78" viewBox="0 0 78 78" fill="none" xmlns="http://www.w3.org/2000/svg">
<circle cx="39" cy="39" r="39" fill="#F3A132"/>
<path d="M38.0065 23.0157C32.641 23.3447 28.2691 27.818 28.0041 33.1465C27.9379 35.6463 28.6665 38.0803 30.1901 39.988C31.9786 42.2247 32.906 44.856 32.906 47.5532V47.8163C32.906 48.5399 33.5021 49.132 34.2308 49.132H43.107C43.8357 49.132 44.4319 48.5399 44.4319 47.8163V47.5532C44.4319 44.856 45.3592 42.2247 47.1477 39.9222C48.605 38.0803 49.3337 35.8436 49.3337 33.4754C49.3337 27.5548 44.1669 22.6868 38.0065 23.0157Z" fill="white"/>
<path d="M42.0472 51H35.2906C34.562 51 33.9658 51.5921 33.9658 52.3157C33.9658 53.0393 34.562 53.6314 35.2906 53.6314H42.1134C42.8421 53.6314 43.4383 53.0393 43.4383 52.3157C43.372 51.5921 42.7759 51 42.0472 51Z" fill="white"/>
</svg>
