<svg width="78" height="78" viewBox="0 0 78 78" fill="none" xmlns="http://www.w3.org/2000/svg">
<circle cx="39" cy="39" r="39" fill="#F3A132"/>
<path d="M40.3738 26.2396C40.3691 25.9718 40.2794 25.7124 40.1175 25.4991C39.9557 25.2857 39.7301 25.1294 39.4735 25.0527C39.2169 24.9761 38.9425 24.9831 38.6902 25.0728C38.4378 25.1625 38.2206 25.3301 38.0698 25.5515C31.5333 35.1009 40.8221 35.5388 40.8221 40.1467C40.8221 40.5938 40.7334 41.0364 40.561 41.449C40.3887 41.8615 40.1361 42.2357 39.8181 42.5499C39.5 42.8641 39.1227 43.1121 38.708 43.2793C38.2934 43.4466 37.8497 43.5299 37.4026 43.5244C36.5076 43.5052 35.656 43.1348 35.0318 42.493C34.4076 41.8513 34.0609 40.9898 34.0666 40.0945V35.6117C34.0688 35.3569 33.9937 35.1074 33.8513 34.8961C33.7089 34.6848 33.5059 34.5215 33.2689 34.4279C33.0319 34.3342 32.7721 34.3145 32.5237 34.3714C32.2753 34.4282 32.05 34.559 31.8773 34.7465C30.0586 36.6747 29.0316 39.2164 29 41.8668C29 44.5543 30.0676 47.1317 31.9679 49.0321C33.8683 50.9324 36.4457 52 39.1332 52C41.8207 52 44.3981 50.9324 46.2985 49.0321C48.1988 47.1317 49.2664 44.5543 49.2664 41.8668C49.2456 32.8804 40.3738 31.6815 40.3738 26.2396Z" fill="white"/>
</svg>
