<svg width="36" height="24" viewBox="0 0 36 24" fill="none" xmlns="http://www.w3.org/2000/svg">
<path fill-rule="evenodd" clip-rule="evenodd" d="M27.0317 0.570841C26.8841 0.654519 26.7501 0.777159 26.6373 0.931736C26.5242 1.08592 26.4345 1.26909 26.3733 1.47075C26.312 1.6724 26.2805 1.88859 26.2805 2.10691C26.2805 2.32524 26.312 2.54143 26.3733 2.74308C26.4345 2.94474 26.5242 3.12791 26.6373 3.28209L31.8514 10.406H2.0274C1.70532 10.406 1.39643 10.5809 1.16868 10.8922C0.940935 11.2035 0.812988 11.6258 0.812988 12.066C0.812988 12.5063 0.940935 12.9285 1.16868 13.2399C1.39643 13.5512 1.70532 13.7261 2.0274 13.7261H31.8514L26.6373 20.85C26.4093 21.1617 26.2812 21.5844 26.2812 22.0252C26.2812 22.466 26.4093 22.8887 26.6373 23.2004C26.8653 23.512 27.1746 23.6871 27.4971 23.6871C27.8196 23.6871 28.1289 23.512 28.3569 23.2004L35.6433 13.2412C35.7564 13.087 35.8462 12.9039 35.9074 12.7022C35.9686 12.5006 36.0001 12.2844 36.0001 12.0661C36.0001 11.8477 35.9686 11.6315 35.9074 11.4299C35.8462 11.2282 35.7564 11.0451 35.6433 10.8909L28.3569 0.931736C28.2441 0.777159 28.1101 0.654519 27.9625 0.570841C27.815 0.487163 27.6568 0.444092 27.4971 0.444092C27.3374 0.444092 27.1792 0.487163 27.0317 0.570841Z" fill="#EA5289"/>
</svg>
