<svg width="22" height="16" viewBox="0 0 22 16" fill="none" xmlns="http://www.w3.org/2000/svg">
<path opacity="0.3" fill-rule="evenodd" clip-rule="evenodd" d="M5.50113 1.01476C5.59163 1.06608 5.67383 1.14131 5.74303 1.23612C5.8124 1.33069 5.86744 1.44304 5.90499 1.56673C5.94254 1.69042 5.96187 1.82303 5.96187 1.95694C5.96187 2.09086 5.94254 2.22346 5.90499 2.34715C5.86744 2.47084 5.8124 2.58319 5.74303 2.67777L2.54469 7.04752H20.8381C21.0357 7.04752 21.2251 7.15478 21.3648 7.34571C21.5045 7.53664 21.583 7.79559 21.583 8.06561C21.583 8.33562 21.5045 8.59457 21.3648 8.7855C21.2251 8.97643 21.0357 9.08369 20.8381 9.08369H2.54469L5.74303 13.4535C5.8829 13.6446 5.96148 13.9039 5.96148 14.1743C5.96148 14.4446 5.8829 14.7039 5.74303 14.8951C5.60316 15.0863 5.41345 15.1937 5.21564 15.1937C5.01783 15.1937 4.82812 15.0863 4.68825 14.8951L0.218847 8.78643C0.149477 8.69186 0.0944405 8.57951 0.0568886 8.45582C0.0193348 8.33213 3.8147e-06 8.19953 3.8147e-06 8.06561C3.8147e-06 7.93169 0.0193348 7.79909 0.0568886 7.6754C0.0944405 7.55171 0.149477 7.43936 0.218847 7.34479L4.68825 1.23612C4.75744 1.14131 4.83965 1.06608 4.93014 1.01476C5.02064 0.96343 5.11766 0.937012 5.21564 0.937012C5.31362 0.937012 5.41063 0.96343 5.50113 1.01476Z" fill="black"/>
</svg>
