<svg width="22" height="16" xmlns="http://www.w3.org/2000/svg">

 <g>
  <title>background</title>
  <rect fill="none" id="canvas_background" height="26" width="38" y="-1" x="-1"/>
 </g>
 <g>
  <title>Layer 1</title>
  <path transform="rotate(180 10.791501998901367,8.065356254577637) " id="svg_1" fill="black" d="m5.50113,1.01476c0.0905,0.05132 0.1727,0.12655 0.2419,0.22136c0.06937,0.09457 0.12441,0.20692 0.16196,0.33061c0.03755,0.12369 0.05688,0.2563 0.05688,0.39021c0,0.13392 -0.01933,0.26652 -0.05688,0.39021c-0.03755,0.12369 -0.09259,0.23604 -0.16196,0.33062l-3.19834,4.36975l18.29341,0c0.1976,0 0.387,0.10726 0.5267,0.29819c0.1397,0.19093 0.2182,0.44988 0.2182,0.7199c0,0.27001 -0.0785,0.52896 -0.2182,0.71989c-0.1397,0.19093 -0.3291,0.29819 -0.5267,0.29819l-18.29341,0l3.19834,4.36981c0.13987,0.1911 0.21845,0.4504 0.21845,0.7208c0,0.2703 -0.07858,0.5296 -0.21845,0.7208c-0.13987,0.1912 -0.32958,0.2986 -0.52739,0.2986c-0.19781,0 -0.38752,-0.1074 -0.52739,-0.2986l-4.469403,-6.10867c-0.06937,-0.09457 -0.124406,-0.20692 -0.161958,-0.33061c-0.037554,-0.12369 -0.056885,-0.25629 -0.056885,-0.39021c0,-0.13392 0.019331,-0.26652 0.056885,-0.39021c0.037552,-0.12369 0.092588,-0.23604 0.161958,-0.33061l4.469403,-6.10867c0.06919,-0.09481 0.1514,-0.17004 0.24189,-0.22136c0.0905,-0.05133 0.18752,-0.077748 0.2855,-0.077748c0.09798,0 0.19499,0.026418 0.28549,0.077748z" clip-rule="evenodd" fill-rule="evenodd" opacity="0.3"/>
 </g>
</svg>