<svg width="600" height="518" viewBox="0 0 600 518" fill="none" xmlns="http://www.w3.org/2000/svg">
<g filter="url(#filter0_d)">
<rect x="40" y="39" width="469" height="407" rx="20" fill="white"/>
</g>
<g filter="url(#filter1_d)">
<rect x="56" y="22" width="504" height="438" rx="20" fill="white"/>
</g>
<circle cx="319.5" cy="260.344" r="85.5" stroke="#F1F7FD" stroke-width="32"/>
<mask id="mask0" mask-type="alpha" maskUnits="userSpaceOnUse" x="218" y="158" width="203" height="204">
<circle cx="319.5" cy="260.344" r="85.5" stroke="#E4D6E7" stroke-width="32"/>
</mask>
<g mask="url(#mask0)">
<path d="M263.061 219.38L234.386 203.45L254.226 174.718L283.95 207.64L263.061 219.38Z" fill="#BF4984"/>
<path d="M251.682 246.69L212.911 232.378L233.02 202.54L264.426 219.836L251.682 246.69Z" fill="#773288"/>
</g>
<path d="M180.674 256.469C180.41 256.784 180.093 257.037 179.724 257.228C179.359 257.42 178.958 257.515 178.521 257.515C177.946 257.515 177.445 257.374 177.017 257.092C176.593 256.809 176.265 256.413 176.032 255.902C175.8 255.387 175.684 254.82 175.684 254.2C175.684 253.535 175.809 252.935 176.06 252.402C176.315 251.869 176.675 251.461 177.14 251.178C177.604 250.896 178.147 250.755 178.767 250.755C179.751 250.755 180.526 251.124 181.091 251.862C181.66 252.596 181.945 253.598 181.945 254.87V255.239C181.945 257.176 181.562 258.591 180.797 259.484C180.031 260.373 178.876 260.829 177.331 260.851H177.085V259.785H177.352C178.395 259.767 179.197 259.496 179.758 258.971C180.318 258.443 180.624 257.609 180.674 256.469ZM178.726 256.469C179.149 256.469 179.539 256.34 179.895 256.08C180.255 255.82 180.517 255.499 180.681 255.116V254.61C180.681 253.781 180.501 253.106 180.141 252.587C179.781 252.067 179.325 251.807 178.773 251.807C178.217 251.807 177.771 252.022 177.434 252.45C177.096 252.874 176.928 253.434 176.928 254.132C176.928 254.811 177.09 255.371 177.413 255.813C177.741 256.251 178.179 256.469 178.726 256.469ZM189.93 256.599C189.93 258.08 189.677 259.181 189.171 259.901C188.665 260.621 187.874 260.981 186.799 260.981C185.737 260.981 184.951 260.63 184.44 259.928C183.93 259.222 183.666 258.169 183.647 256.77V255.082C183.647 253.619 183.9 252.532 184.406 251.821C184.912 251.11 185.705 250.755 186.785 250.755C187.856 250.755 188.645 251.099 189.15 251.787C189.656 252.47 189.916 253.528 189.93 254.959V256.599ZM188.665 254.87C188.665 253.799 188.515 253.02 188.214 252.532C187.913 252.04 187.437 251.794 186.785 251.794C186.138 251.794 185.666 252.038 185.37 252.525C185.074 253.013 184.921 253.762 184.912 254.774V256.798C184.912 257.873 185.067 258.668 185.377 259.183C185.691 259.694 186.165 259.949 186.799 259.949C187.423 259.949 187.886 259.707 188.187 259.224C188.492 258.741 188.651 257.98 188.665 256.941V254.87ZM191.44 252.805C191.44 252.208 191.63 251.716 192.008 251.329C192.391 250.941 192.881 250.748 193.478 250.748C194.084 250.748 194.574 250.944 194.947 251.336C195.326 251.723 195.515 252.227 195.515 252.846V253.332C195.515 253.933 195.323 254.426 194.94 254.808C194.562 255.187 194.079 255.376 193.491 255.376C192.899 255.376 192.409 255.187 192.021 254.808C191.634 254.426 191.44 253.917 191.44 253.284V252.805ZM192.384 253.332C192.384 253.687 192.484 253.981 192.685 254.214C192.885 254.441 193.154 254.555 193.491 254.555C193.815 254.555 194.075 254.444 194.271 254.22C194.471 253.997 194.571 253.692 194.571 253.304V252.805C194.571 252.45 194.473 252.156 194.277 251.924C194.081 251.691 193.815 251.575 193.478 251.575C193.14 251.575 192.874 251.691 192.678 251.924C192.482 252.156 192.384 252.459 192.384 252.833V253.332ZM196.287 258.404C196.287 257.807 196.476 257.317 196.854 256.934C197.237 256.547 197.727 256.353 198.324 256.353C198.921 256.353 199.411 256.545 199.794 256.927C200.177 257.31 200.368 257.818 200.368 258.452V258.937C200.368 259.534 200.177 260.026 199.794 260.414C199.416 260.797 198.93 260.988 198.338 260.988C197.745 260.988 197.256 260.799 196.868 260.421C196.481 260.038 196.287 259.53 196.287 258.896V258.404ZM197.23 258.937C197.23 259.297 197.331 259.594 197.531 259.826C197.732 260.054 198.001 260.168 198.338 260.168C198.666 260.168 198.928 260.056 199.124 259.833C199.32 259.605 199.418 259.297 199.418 258.91V258.404C199.418 258.044 199.318 257.75 199.117 257.522C198.921 257.294 198.657 257.18 198.324 257.18C198.001 257.18 197.736 257.294 197.531 257.522C197.331 257.746 197.23 258.049 197.23 258.431V258.937ZM193.778 260.093L193.061 259.641L197.921 251.862L198.639 252.313L193.778 260.093Z" fill="#BFA7C5"/>
<path d="M192.408 206.854L192.914 201.891H198.014V203.06H193.987L193.687 205.774C194.174 205.487 194.728 205.344 195.348 205.344C196.255 205.344 196.975 205.644 197.508 206.246C198.041 206.843 198.308 207.652 198.308 208.673C198.308 209.698 198.03 210.507 197.474 211.099C196.922 211.687 196.15 211.981 195.156 211.981C194.277 211.981 193.559 211.737 193.003 211.25C192.447 210.762 192.13 210.088 192.053 209.226H193.249C193.326 209.796 193.529 210.227 193.857 210.518C194.186 210.805 194.618 210.949 195.156 210.949C195.744 210.949 196.204 210.748 196.537 210.347C196.874 209.946 197.043 209.393 197.043 208.686C197.043 208.021 196.861 207.488 196.496 207.087C196.136 206.681 195.655 206.478 195.054 206.478C194.502 206.478 194.069 206.599 193.755 206.841L193.42 207.114L192.408 206.854ZM199.579 203.805C199.579 203.208 199.768 202.716 200.146 202.329C200.529 201.941 201.019 201.748 201.616 201.748C202.222 201.748 202.712 201.944 203.086 202.336C203.464 202.723 203.653 203.227 203.653 203.846V204.332C203.653 204.933 203.462 205.426 203.079 205.808C202.701 206.187 202.218 206.376 201.63 206.376C201.037 206.376 200.548 206.187 200.16 205.808C199.773 205.426 199.579 204.917 199.579 204.284V203.805ZM200.522 204.332C200.522 204.687 200.623 204.981 200.823 205.214C201.024 205.441 201.293 205.555 201.63 205.555C201.953 205.555 202.213 205.444 202.409 205.22C202.61 204.997 202.71 204.692 202.71 204.304V203.805C202.71 203.45 202.612 203.156 202.416 202.924C202.22 202.691 201.953 202.575 201.616 202.575C201.279 202.575 201.012 202.691 200.816 202.924C200.62 203.156 200.522 203.459 200.522 203.833V204.332ZM204.426 209.404C204.426 208.807 204.615 208.317 204.993 207.934C205.376 207.547 205.866 207.353 206.463 207.353C207.06 207.353 207.55 207.545 207.933 207.927C208.315 208.31 208.507 208.818 208.507 209.452V209.937C208.507 210.534 208.315 211.026 207.933 211.414C207.554 211.797 207.069 211.988 206.477 211.988C205.884 211.988 205.394 211.799 205.007 211.421C204.619 211.038 204.426 210.53 204.426 209.896V209.404ZM205.369 209.937C205.369 210.297 205.469 210.594 205.67 210.826C205.87 211.054 206.139 211.168 206.477 211.168C206.805 211.168 207.067 211.056 207.263 210.833C207.459 210.605 207.557 210.297 207.557 209.91V209.404C207.557 209.044 207.456 208.75 207.256 208.522C207.06 208.294 206.796 208.18 206.463 208.18C206.139 208.18 205.875 208.294 205.67 208.522C205.469 208.746 205.369 209.049 205.369 209.431V209.937ZM201.917 211.093L201.199 210.641L206.06 202.862L206.777 203.313L201.917 211.093Z" fill="#BFA7C5"/>
<path d="M210.408 178.854L210.914 173.891H216.014V175.06H211.987L211.687 177.774C212.174 177.487 212.728 177.344 213.348 177.344C214.255 177.344 214.975 177.644 215.508 178.246C216.041 178.843 216.308 179.652 216.308 180.673C216.308 181.698 216.03 182.507 215.474 183.099C214.922 183.687 214.15 183.981 213.156 183.981C212.277 183.981 211.559 183.737 211.003 183.25C210.447 182.762 210.13 182.088 210.053 181.226H211.249C211.326 181.796 211.529 182.227 211.857 182.518C212.186 182.805 212.618 182.949 213.156 182.949C213.744 182.949 214.204 182.748 214.537 182.347C214.874 181.946 215.043 181.393 215.043 180.686C215.043 180.021 214.861 179.488 214.496 179.087C214.136 178.681 213.655 178.478 213.054 178.478C212.502 178.478 212.069 178.599 211.755 178.841L211.42 179.114L210.408 178.854ZM217.579 175.805C217.579 175.208 217.768 174.716 218.146 174.329C218.529 173.941 219.019 173.748 219.616 173.748C220.222 173.748 220.712 173.944 221.086 174.336C221.464 174.723 221.653 175.227 221.653 175.846V176.332C221.653 176.933 221.462 177.426 221.079 177.808C220.701 178.187 220.218 178.376 219.63 178.376C219.037 178.376 218.548 178.187 218.16 177.808C217.773 177.426 217.579 176.917 217.579 176.284V175.805ZM218.522 176.332C218.522 176.687 218.623 176.981 218.823 177.214C219.024 177.441 219.293 177.555 219.63 177.555C219.953 177.555 220.213 177.444 220.409 177.22C220.61 176.997 220.71 176.692 220.71 176.304V175.805C220.71 175.45 220.612 175.156 220.416 174.924C220.22 174.691 219.953 174.575 219.616 174.575C219.279 174.575 219.012 174.691 218.816 174.924C218.62 175.156 218.522 175.459 218.522 175.833V176.332ZM222.426 181.404C222.426 180.807 222.615 180.317 222.993 179.934C223.376 179.547 223.866 179.353 224.463 179.353C225.06 179.353 225.55 179.545 225.933 179.927C226.315 180.31 226.507 180.818 226.507 181.452V181.937C226.507 182.534 226.315 183.026 225.933 183.414C225.554 183.797 225.069 183.988 224.477 183.988C223.884 183.988 223.394 183.799 223.007 183.421C222.619 183.038 222.426 182.53 222.426 181.896V181.404ZM223.369 181.937C223.369 182.297 223.469 182.594 223.67 182.826C223.87 183.054 224.139 183.168 224.477 183.168C224.805 183.168 225.067 183.056 225.263 182.833C225.459 182.605 225.557 182.297 225.557 181.91V181.404C225.557 181.044 225.456 180.75 225.256 180.522C225.06 180.294 224.796 180.18 224.463 180.18C224.139 180.18 223.875 180.294 223.67 180.522C223.469 180.746 223.369 181.049 223.369 181.431V181.937ZM219.917 183.093L219.199 182.641L224.06 174.862L224.777 175.313L219.917 183.093Z" fill="#BFA7C5"/>
<path d="M245.766 190.732L241.766 178.732" stroke="#BFA7C5" stroke-width="0.5"/>
<path d="M227.2 217.744L223.2 205.744" stroke="#BFA7C5" stroke-width="0.5"/>
<line x1="242" y1="178.895" x2="232" y2="178.895" stroke="#BFA7C5" stroke-width="0.5"/>
<line x1="223.4" y1="205.895" x2="213.4" y2="205.895" stroke="#BFA7C5" stroke-width="0.5"/>
<path d="M217.6 254.895H204.6" stroke="#BFA7C5" stroke-width="0.5"/>
<circle cx="232" cy="178.844" r="1" fill="#BFA7C5"/>
<circle cx="214" cy="205.844" r="1" fill="#BFA7C5"/>
<circle cx="205" cy="254.844" r="1" fill="#BFA7C5"/>
<path d="M362.482 414.313V415.976H363.764V416.884H362.482V421.143C362.482 421.418 362.539 421.626 362.653 421.765C362.768 421.901 362.962 421.969 363.237 421.969C363.373 421.969 363.559 421.943 363.796 421.892V422.844C363.487 422.929 363.187 422.971 362.895 422.971C362.37 422.971 361.974 422.813 361.708 422.495C361.441 422.178 361.308 421.727 361.308 421.143V416.884H360.057V415.976H361.308V414.313H362.482ZM369.382 422.844C369.314 422.709 369.259 422.468 369.217 422.121C368.671 422.688 368.019 422.971 367.262 422.971C366.585 422.971 366.028 422.781 365.592 422.4C365.161 422.015 364.945 421.528 364.945 420.94C364.945 420.225 365.216 419.671 365.757 419.277C366.303 418.879 367.069 418.68 368.055 418.68H369.198V418.141C369.198 417.73 369.075 417.405 368.83 417.163C368.584 416.918 368.222 416.795 367.744 416.795C367.325 416.795 366.974 416.901 366.69 417.113C366.407 417.324 366.265 417.58 366.265 417.881H365.084C365.084 417.538 365.205 417.208 365.446 416.89C365.692 416.569 366.022 416.315 366.437 416.129C366.855 415.942 367.315 415.849 367.814 415.849C368.605 415.849 369.225 416.048 369.674 416.446C370.122 416.84 370.355 417.383 370.372 418.077V421.239C370.372 421.869 370.452 422.371 370.613 422.743V422.844H369.382ZM367.433 421.949C367.801 421.949 368.15 421.854 368.48 421.664C368.811 421.473 369.05 421.226 369.198 420.921V419.512H368.277C366.839 419.512 366.119 419.933 366.119 420.775C366.119 421.143 366.242 421.431 366.487 421.638C366.733 421.846 367.048 421.949 367.433 421.949ZM378.027 419.487C378.027 420.536 377.786 421.38 377.304 422.019C376.821 422.654 376.174 422.971 375.361 422.971C374.494 422.971 373.823 422.665 373.349 422.051L373.292 422.844H372.213V413.094H373.387V416.732C373.861 416.143 374.515 415.849 375.349 415.849C376.182 415.849 376.836 416.165 377.31 416.795C377.788 417.426 378.027 418.289 378.027 419.385V419.487ZM376.853 419.353C376.853 418.553 376.699 417.936 376.39 417.5C376.081 417.064 375.636 416.846 375.057 416.846C374.282 416.846 373.726 417.206 373.387 417.925V420.896C373.747 421.615 374.308 421.975 375.069 421.975C375.632 421.975 376.07 421.757 376.383 421.321C376.696 420.885 376.853 420.229 376.853 419.353ZM380.789 422.844H379.614V413.094H380.789V422.844ZM385.524 422.971C384.593 422.971 383.835 422.667 383.251 422.057C382.667 421.444 382.375 420.625 382.375 419.601V419.385C382.375 418.704 382.505 418.096 382.763 417.563C383.025 417.026 383.389 416.607 383.854 416.306C384.324 416.002 384.832 415.849 385.378 415.849C386.271 415.849 386.965 416.143 387.46 416.732C387.955 417.32 388.203 418.162 388.203 419.258V419.747H383.55C383.567 420.424 383.764 420.972 384.14 421.391C384.521 421.806 385.003 422.013 385.587 422.013C386.002 422.013 386.353 421.928 386.641 421.759C386.929 421.59 387.181 421.365 387.396 421.086L388.114 421.645C387.538 422.529 386.675 422.971 385.524 422.971ZM385.378 416.814C384.904 416.814 384.506 416.988 384.185 417.335C383.863 417.677 383.664 418.16 383.588 418.782H387.028V418.693C386.994 418.096 386.834 417.635 386.546 417.309C386.258 416.979 385.869 416.814 385.378 416.814ZM391.161 414.313V415.976H392.443V416.884H391.161V421.143C391.161 421.418 391.218 421.626 391.332 421.765C391.446 421.901 391.641 421.969 391.916 421.969C392.051 421.969 392.238 421.943 392.475 421.892V422.844C392.166 422.929 391.865 422.971 391.573 422.971C391.049 422.971 390.653 422.813 390.386 422.495C390.12 422.178 389.986 421.727 389.986 421.143V416.884H388.736V415.976H389.986V414.313H391.161Z" fill="#BFA7C5"/>
<path d="M246.993 415.972L247.025 416.734C247.528 416.141 248.208 415.845 249.062 415.845C250.023 415.845 250.677 416.213 251.024 416.949C251.252 416.619 251.549 416.353 251.913 416.15C252.281 415.946 252.715 415.845 253.214 415.845C254.72 415.845 255.486 416.643 255.512 418.238V422.84H254.337V418.308C254.337 417.817 254.225 417.451 254.001 417.21C253.777 416.964 253.4 416.841 252.871 416.841C252.435 416.841 252.073 416.973 251.786 417.235C251.498 417.493 251.331 417.842 251.284 418.282V422.84H250.104V418.34C250.104 417.341 249.615 416.841 248.637 416.841C247.867 416.841 247.34 417.169 247.057 417.825V422.84H245.882V415.972H246.993ZM256.978 419.342C256.978 418.67 257.109 418.064 257.372 417.527C257.638 416.99 258.006 416.575 258.476 416.283C258.95 415.991 259.49 415.845 260.095 415.845C261.03 415.845 261.785 416.169 262.361 416.816C262.941 417.464 263.23 418.325 263.23 419.4V419.482C263.23 420.151 263.101 420.752 262.843 421.285C262.589 421.814 262.223 422.226 261.745 422.523C261.271 422.819 260.725 422.967 260.107 422.967C259.176 422.967 258.421 422.643 257.841 421.996C257.266 421.348 256.978 420.491 256.978 419.425V419.342ZM258.159 419.482C258.159 420.244 258.334 420.855 258.686 421.317C259.041 421.778 259.515 422.008 260.107 422.008C260.704 422.008 261.178 421.776 261.529 421.31C261.881 420.84 262.056 420.185 262.056 419.342C262.056 418.589 261.876 417.98 261.517 417.514C261.161 417.045 260.687 416.81 260.095 416.81C259.515 416.81 259.047 417.04 258.692 417.502C258.336 417.963 258.159 418.623 258.159 419.482ZM270.518 419.482C270.518 420.532 270.276 421.376 269.794 422.015C269.312 422.65 268.664 422.967 267.852 422.967C266.984 422.967 266.313 422.66 265.839 422.047L265.782 422.84H264.703V413.09H265.877V416.727C266.351 416.139 267.005 415.845 267.839 415.845C268.673 415.845 269.326 416.16 269.8 416.791C270.278 417.421 270.518 418.284 270.518 419.381V419.482ZM269.343 419.349C269.343 418.549 269.189 417.931 268.88 417.495C268.571 417.059 268.127 416.841 267.547 416.841C266.772 416.841 266.216 417.201 265.877 417.921V420.891C266.237 421.611 266.798 421.97 267.56 421.97C268.122 421.97 268.56 421.752 268.874 421.317C269.187 420.881 269.343 420.225 269.343 419.349ZM273.279 422.84H272.104V415.972H273.279V422.84ZM272.009 414.15C272.009 413.96 272.066 413.799 272.181 413.668C272.299 413.536 272.473 413.471 272.701 413.471C272.93 413.471 273.103 413.536 273.222 413.668C273.34 413.799 273.399 413.96 273.399 414.15C273.399 414.34 273.34 414.499 273.222 414.626C273.103 414.753 272.93 414.817 272.701 414.817C272.473 414.817 272.299 414.753 272.181 414.626C272.066 414.499 272.009 414.34 272.009 414.15ZM276.44 422.84H275.266V413.09H276.44V422.84ZM281.175 422.967C280.244 422.967 279.487 422.662 278.903 422.053C278.319 421.439 278.027 420.62 278.027 419.596V419.381C278.027 418.699 278.156 418.092 278.414 417.559C278.676 417.021 279.04 416.602 279.506 416.302C279.976 415.997 280.483 415.845 281.029 415.845C281.922 415.845 282.616 416.139 283.111 416.727C283.606 417.315 283.854 418.158 283.854 419.254V419.742H279.201C279.218 420.419 279.415 420.967 279.792 421.386C280.172 421.801 280.655 422.008 281.239 422.008C281.653 422.008 282.005 421.924 282.292 421.755C282.58 421.585 282.832 421.361 283.048 421.082L283.765 421.64C283.19 422.525 282.326 422.967 281.175 422.967ZM281.029 416.81C280.555 416.81 280.158 416.983 279.836 417.33C279.514 417.673 279.315 418.155 279.239 418.777H282.68V418.689C282.646 418.092 282.485 417.631 282.197 417.305C281.91 416.975 281.52 416.81 281.029 416.81Z" fill="#BFA7C5"/>
<path d="M299.603 419.349C299.603 418.295 299.853 417.449 300.352 416.81C300.851 416.166 301.505 415.845 302.313 415.845C303.118 415.845 303.754 416.12 304.224 416.67V413.09H305.398V422.84H304.319L304.262 422.104C303.792 422.679 303.139 422.967 302.301 422.967C301.505 422.967 300.856 422.641 300.352 421.989C299.853 421.338 299.603 420.487 299.603 419.438V419.349ZM300.777 419.482C300.777 420.261 300.938 420.87 301.26 421.31C301.581 421.75 302.026 421.97 302.593 421.97C303.338 421.97 303.881 421.636 304.224 420.967V417.813C303.873 417.165 303.333 416.841 302.605 416.841C302.03 416.841 301.581 417.064 301.26 417.508C300.938 417.952 300.777 418.61 300.777 419.482ZM310.077 422.967C309.146 422.967 308.388 422.662 307.804 422.053C307.22 421.439 306.928 420.62 306.928 419.596V419.381C306.928 418.699 307.057 418.092 307.315 417.559C307.578 417.021 307.942 416.602 308.407 416.302C308.877 415.997 309.385 415.845 309.931 415.845C310.824 415.845 311.518 416.139 312.013 416.727C312.508 417.315 312.755 418.158 312.755 419.254V419.742H308.103C308.119 420.419 308.316 420.967 308.693 421.386C309.074 421.801 309.556 422.008 310.14 422.008C310.555 422.008 310.906 421.924 311.194 421.755C311.482 421.585 311.733 421.361 311.949 421.082L312.667 421.64C312.091 422.525 311.228 422.967 310.077 422.967ZM309.931 416.81C309.457 416.81 309.059 416.983 308.737 417.33C308.416 417.673 308.217 418.155 308.141 418.777H311.581V418.689C311.547 418.092 311.386 417.631 311.099 417.305C310.811 416.975 310.422 416.81 309.931 416.81ZM318.119 421.018C318.119 420.701 317.999 420.455 317.757 420.282C317.52 420.104 317.104 419.952 316.507 419.825C315.914 419.698 315.443 419.546 315.091 419.368C314.744 419.19 314.486 418.979 314.317 418.733C314.152 418.488 314.069 418.196 314.069 417.857C314.069 417.294 314.306 416.818 314.78 416.429C315.258 416.04 315.868 415.845 316.608 415.845C317.387 415.845 318.018 416.046 318.5 416.448C318.987 416.85 319.23 417.364 319.23 417.99H318.049C318.049 417.669 317.912 417.392 317.637 417.159C317.366 416.926 317.023 416.81 316.608 416.81C316.181 416.81 315.847 416.903 315.605 417.089C315.364 417.275 315.244 417.519 315.244 417.819C315.244 418.103 315.356 418.316 315.58 418.46C315.804 418.604 316.208 418.742 316.792 418.873C317.381 419.004 317.857 419.16 318.221 419.342C318.585 419.524 318.853 419.744 319.027 420.003C319.205 420.257 319.293 420.568 319.293 420.936C319.293 421.549 319.048 422.042 318.557 422.415C318.066 422.783 317.429 422.967 316.646 422.967C316.096 422.967 315.61 422.87 315.187 422.675C314.763 422.48 314.431 422.209 314.19 421.862C313.953 421.511 313.834 421.132 313.834 420.726H315.009C315.03 421.12 315.187 421.433 315.479 421.666C315.775 421.894 316.164 422.008 316.646 422.008C317.091 422.008 317.446 421.92 317.713 421.742C317.984 421.56 318.119 421.319 318.119 421.018ZM322.74 419.66L322.004 420.428V422.84H320.83V413.09H322.004V418.987L322.632 418.232L324.771 415.972H326.2L323.527 418.841L326.511 422.84H325.133L322.74 419.66ZM329.005 414.309V415.972H330.288V416.88H329.005V421.139C329.005 421.414 329.062 421.621 329.177 421.761C329.291 421.896 329.486 421.964 329.761 421.964C329.896 421.964 330.082 421.939 330.319 421.888V422.84C330.01 422.925 329.71 422.967 329.418 422.967C328.893 422.967 328.498 422.808 328.231 422.491C327.964 422.173 327.831 421.723 327.831 421.139V416.88H326.581V415.972H327.831V414.309H329.005ZM331.227 419.342C331.227 418.67 331.358 418.064 331.621 417.527C331.887 416.99 332.255 416.575 332.725 416.283C333.199 415.991 333.739 415.845 334.344 415.845C335.279 415.845 336.034 416.169 336.61 416.816C337.19 417.464 337.479 418.325 337.479 419.4V419.482C337.479 420.151 337.35 420.752 337.092 421.285C336.838 421.814 336.472 422.226 335.994 422.523C335.52 422.819 334.974 422.967 334.356 422.967C333.425 422.967 332.67 422.643 332.09 421.996C331.515 421.348 331.227 420.491 331.227 419.425V419.342ZM332.408 419.482C332.408 420.244 332.583 420.855 332.935 421.317C333.29 421.778 333.764 422.008 334.356 422.008C334.953 422.008 335.427 421.776 335.778 421.31C336.13 420.84 336.305 420.185 336.305 419.342C336.305 418.589 336.125 417.98 335.766 417.514C335.41 417.045 334.936 416.81 334.344 416.81C333.764 416.81 333.296 417.04 332.941 417.502C332.585 417.963 332.408 418.623 332.408 419.482ZM344.754 419.482C344.754 420.527 344.515 421.369 344.037 422.008C343.558 422.647 342.911 422.967 342.094 422.967C341.261 422.967 340.605 422.702 340.126 422.173V425.481H338.952V415.972H340.025L340.082 416.734C340.56 416.141 341.225 415.845 342.075 415.845C342.9 415.845 343.552 416.156 344.03 416.778C344.513 417.4 344.754 418.265 344.754 419.374V419.482ZM343.58 419.349C343.58 418.574 343.415 417.963 343.084 417.514C342.754 417.066 342.302 416.841 341.726 416.841C341.015 416.841 340.482 417.157 340.126 417.787V421.069C340.478 421.695 341.015 422.008 341.739 422.008C342.302 422.008 342.748 421.786 343.078 421.342C343.412 420.893 343.58 420.229 343.58 419.349Z" fill="#BFA7C5"/>
<rect x="257" y="384.844" width="16" height="16" rx="4" fill="#E6EFF9"/>
<rect x="314" y="385" width="16" height="16" rx="4" fill="#773288"/>
<rect x="369" y="384.844" width="16" height="16" rx="4" fill="#BF4984"/>
<path d="M164.309 90H170.917V75.524H176.657V70.4H158.569V75.524H164.309V90ZM190.105 90H197.161L193.045 83.952C195.397 82.748 196.741 80.62 196.741 77.792C196.741 73.256 193.269 70.4 187.809 70.4H178.373V90H184.981V85.072H186.773L190.105 90ZM190.077 77.792C190.077 79.22 189.209 80.088 187.389 80.088H184.981V75.496H187.389C189.209 75.496 190.077 76.364 190.077 77.792ZM213.909 90H220.741L212.173 70.4H205.677L197.109 90H203.829L205.145 86.584H212.593L213.909 90ZM206.965 81.824L208.869 76.896L210.773 81.824H206.965ZM237.727 75.384V70.4H221.795V90H228.403V83.728H236.579V78.744H228.403V75.384H237.727ZM255.747 75.384V70.4H239.815V90H246.423V83.728H254.599V78.744H246.423V75.384H255.747ZM257.834 90H264.442V70.4H257.834V90ZM277.759 90.448C281.595 90.448 284.619 89.048 286.551 86.528L282.379 82.804C281.231 84.26 279.859 85.1 278.095 85.1C275.351 85.1 273.503 83.196 273.503 80.2C273.503 77.204 275.351 75.3 278.095 75.3C279.859 75.3 281.231 76.14 282.379 77.596L286.551 73.872C284.619 71.352 281.595 69.952 277.759 69.952C271.459 69.952 266.839 74.18 266.839 80.2C266.839 86.22 271.459 90.448 277.759 90.448ZM312.534 79.752C314.326 78.856 315.25 77.344 315.25 75.524C315.25 72.556 312.73 70.4 307.326 70.4H296.854V90H307.886C313.29 90 316.174 88.012 316.174 84.596C316.174 82.272 314.83 80.592 312.534 79.752ZM306.43 75.02C307.914 75.02 308.586 75.524 308.586 76.476C308.586 77.428 307.914 77.932 306.43 77.932H303.35V75.02H306.43ZM307.326 85.38H303.35V82.3H307.326C308.782 82.3 309.51 82.832 309.51 83.84C309.51 84.848 308.782 85.38 307.326 85.38ZM337.14 70.4H330.756L326.724 77.176L322.72 70.4H315.748L323.14 82.804V90H329.748V82.888L337.14 70.4ZM346.373 90H356.033C362.585 90 367.093 86.276 367.093 80.2C367.093 74.124 362.585 70.4 356.033 70.4H346.373V90ZM352.981 84.848V75.552H355.753C358.525 75.552 360.429 77.204 360.429 80.2C360.429 83.196 358.525 84.848 355.753 84.848H352.981ZM376.002 85.016V82.44H384.29V77.68H376.002V75.384H385.438V70.4H369.506V90H385.802V85.016H376.002ZM402.521 70.4L397.733 81.852L393.057 70.4H385.945L394.233 90H400.729L409.017 70.4H402.521ZM409.674 90H416.282V70.4H409.674V90ZM429.599 90.448C433.435 90.448 436.459 89.048 438.391 86.528L434.219 82.804C433.071 84.26 431.699 85.1 429.935 85.1C427.191 85.1 425.343 83.196 425.343 80.2C425.343 77.204 427.191 75.3 429.935 75.3C431.699 75.3 433.071 76.14 434.219 77.596L438.391 73.872C436.459 71.352 433.435 69.952 429.599 69.952C423.299 69.952 418.679 74.18 418.679 80.2C418.679 86.22 423.299 90.448 429.599 90.448ZM446.795 85.016V82.44H455.083V77.68H446.795V75.384H456.231V70.4H440.299V90H456.595V85.016H446.795Z" fill="#1F1F1F"/>
<defs>
<filter id="filter0_d" x="0" y="17" width="549" height="487" filterUnits="userSpaceOnUse" color-interpolation-filters="sRGB">
<feFlood flood-opacity="0" result="BackgroundImageFix"/>
<feColorMatrix in="SourceAlpha" type="matrix" values="0 0 0 0 0 0 0 0 0 0 0 0 0 0 0 0 0 0 127 0"/>
<feOffset dy="18"/>
<feGaussianBlur stdDeviation="20"/>
<feColorMatrix type="matrix" values="0 0 0 0 0.894118 0 0 0 0 0.839216 0 0 0 0 0.905882 0 0 0 0.46 0"/>
<feBlend mode="normal" in2="BackgroundImageFix" result="effect1_dropShadow"/>
<feBlend mode="normal" in="SourceGraphic" in2="effect1_dropShadow" result="shape"/>
</filter>
<filter id="filter1_d" x="16" y="0" width="584" height="518" filterUnits="userSpaceOnUse" color-interpolation-filters="sRGB">
<feFlood flood-opacity="0" result="BackgroundImageFix"/>
<feColorMatrix in="SourceAlpha" type="matrix" values="0 0 0 0 0 0 0 0 0 0 0 0 0 0 0 0 0 0 127 0"/>
<feOffset dy="18"/>
<feGaussianBlur stdDeviation="20"/>
<feColorMatrix type="matrix" values="0 0 0 0 0.894118 0 0 0 0 0.839216 0 0 0 0 0.905882 0 0 0 0.51 0"/>
<feBlend mode="normal" in2="BackgroundImageFix" result="effect1_dropShadow"/>
<feBlend mode="normal" in="SourceGraphic" in2="effect1_dropShadow" result="shape"/>
</filter>
</defs>
</svg>
