<svg width="78" height="78" viewBox="0 0 78 78" fill="none" xmlns="http://www.w3.org/2000/svg">
<circle cx="39" cy="39" r="39" fill="#F3A132"/>
<path d="M37.8398 38.8144C37.752 38.9025 37.6843 39.0084 37.6413 39.125C37.6304 39.1675 37.6304 39.212 37.6413 39.2545C37.5899 39.4143 37.5899 39.5863 37.6413 39.7462C37.6304 39.7887 37.6304 39.8332 37.6413 39.8756C37.6843 39.9923 37.752 40.0982 37.8398 40.1862C37.9335 40.2689 38.038 40.3386 38.1504 40.3933C38.196 40.4012 38.2427 40.4012 38.2884 40.3933C38.4443 40.4507 38.6156 40.4507 38.7715 40.3933C38.8172 40.4012 38.8639 40.4012 38.9096 40.3933C39.022 40.3386 39.1264 40.2689 39.2202 40.1862C39.3582 40.0511 39.4525 39.8777 39.491 39.6884C39.5294 39.4991 39.5103 39.3026 39.436 39.1243C39.3617 38.946 39.2357 38.794 39.0742 38.688C38.9127 38.5821 38.7231 38.5269 38.53 38.5297C38.4017 38.5281 38.2743 38.5524 38.1557 38.6014C38.0371 38.6503 37.9296 38.7228 37.8398 38.8144Z" fill="white"/>
<path d="M38.5297 26.9083C41.5298 26.9053 44.4304 27.9835 46.7001 29.9452L47.5629 29.0825C47.6534 28.9917 47.761 28.9197 47.8794 28.8705C47.9979 28.8214 48.1249 28.7961 48.2531 28.7961C48.3813 28.7961 48.5083 28.8214 48.6267 28.8705C48.7452 28.9197 48.8527 28.9917 48.9433 29.0825C49.0338 29.1723 49.1057 29.2792 49.1547 29.3969C49.2037 29.5146 49.2289 29.6409 49.2289 29.7684C49.2289 29.8959 49.2037 30.0222 49.1547 30.1399C49.1057 30.2576 49.0338 30.3645 48.9433 30.4543L48.0805 31.317C49.8231 33.3391 50.8696 35.8677 51.0657 38.5297H54.0595C54.0595 34.411 52.4233 30.4609 49.5109 27.5486C46.5985 24.6362 42.6485 23 38.5297 23C34.411 23 30.4609 24.6362 27.5486 27.5486C24.6362 30.4609 23 34.411 23 38.5297H25.9938C26.2351 35.3697 27.6603 32.4171 29.9845 30.2625C32.3086 28.1079 35.3605 26.91 38.5297 26.9083Z" fill="white"/>
<path d="M49.1757 39.5047C49.1909 37.014 48.3158 34.5999 46.7082 32.6975L41.1175 38.2537C41.3117 38.642 41.4122 39.0705 41.4109 39.5047C41.4108 40.0829 41.2389 40.648 40.9169 41.1283C40.5949 41.6086 40.1374 41.9823 39.6026 42.202C39.0677 42.4216 38.4796 42.4773 37.913 42.362C37.3464 42.2466 36.8269 41.9655 36.4205 41.5542C36.014 41.1429 35.7391 40.6201 35.6305 40.0521C35.5219 39.4842 35.5846 38.8968 35.8106 38.3646C36.0366 37.8324 36.4157 37.3794 36.8998 37.0631C37.3839 36.7469 37.9511 36.5817 38.5292 36.5885C38.9611 36.5832 39.3877 36.6839 39.7716 36.8819L45.3364 31.317C43.7823 30.0201 41.8903 29.1935 39.8827 28.9343C37.8752 28.6751 35.8353 28.994 34.0027 29.8537C32.1701 30.7134 30.6208 32.0781 29.5368 33.7876C28.4527 35.4971 27.8789 37.4804 27.8827 39.5047C27.8805 39.7617 27.7767 40.0075 27.5942 40.1885C27.4116 40.3694 27.1649 40.471 26.9078 40.471H23.1289C23.6149 44.2117 25.4458 47.6478 28.2798 50.1374C31.1138 52.627 34.757 54 38.5292 54C42.3014 54 45.9447 52.627 48.7787 50.1374C51.6127 47.6478 53.4436 44.2117 53.9296 40.471H50.1507C49.8936 40.471 49.6469 40.3694 49.4643 40.1885C49.2817 40.0075 49.178 39.7617 49.1757 39.5047Z" fill="white"/>
</svg>
