<svg width="600" height="518" viewBox="0 0 600 518" fill="none" xmlns="http://www.w3.org/2000/svg">
<g filter="url(#filter0_d)">
<rect x="40" y="39" width="469" height="407" rx="20" fill="white"/>
</g>
<g filter="url(#filter1_d)">
<rect x="56" y="22" width="504" height="438" rx="20" fill="white"/>
</g>
<circle cx="319.5" cy="260.344" r="85.5" stroke="#F1F7FD" stroke-width="32"/>
<mask id="mask0" mask-type="alpha" maskUnits="userSpaceOnUse" x="218" y="158" width="203" height="204">
<circle cx="319.5" cy="260.344" r="85.5" stroke="#E4D6E7" stroke-width="32"/>
</mask>
<g mask="url(#mask0)">
<path d="M319.955 192.795V158.844L279.901 157.024L294.466 198.898L319.955 192.795Z" fill="#E4D6E7"/>
<path d="M263.061 219.38L234.386 203.45L254.226 174.718L283.95 207.64L263.061 219.38Z" fill="#BF4984"/>
<path d="M251.682 246.69L212.911 232.378L233.02 202.54L264.426 219.836L251.682 246.69Z" fill="#773288"/>
<path d="M253.13 260.8L213.449 260.8L218.91 231.215L255.226 238.952L253.13 260.8Z" fill="#3B2F4E"/>
<path d="M281.449 205.525L257.143 178.166L280.017 158.603L297.676 199.762L281.449 205.525Z" fill="#EA5289"/>
</g>
<path d="M184.253 275.602L180.131 284.844H178.805L182.913 275.93H177.526V274.891H184.253V275.602ZM186.27 279.854L186.775 274.891H191.875V276.06H187.849L187.548 278.774C188.035 278.487 188.589 278.344 189.209 278.344C190.116 278.344 190.836 278.644 191.369 279.246C191.902 279.843 192.169 280.652 192.169 281.673C192.169 282.698 191.891 283.507 191.335 284.099C190.784 284.687 190.011 284.981 189.018 284.981C188.138 284.981 187.42 284.737 186.864 284.25C186.308 283.762 185.992 283.088 185.914 282.226H187.11C187.188 282.796 187.391 283.227 187.719 283.518C188.047 283.805 188.48 283.949 189.018 283.949C189.605 283.949 190.066 283.748 190.398 283.347C190.736 282.946 190.904 282.393 190.904 281.686C190.904 281.021 190.722 280.488 190.357 280.087C189.997 279.681 189.517 279.478 188.915 279.478C188.364 279.478 187.931 279.599 187.616 279.841L187.281 280.114L186.27 279.854ZM193.44 276.805C193.44 276.208 193.63 275.716 194.008 275.329C194.391 274.941 194.881 274.748 195.478 274.748C196.084 274.748 196.574 274.944 196.947 275.336C197.326 275.723 197.515 276.227 197.515 276.846V277.332C197.515 277.933 197.323 278.426 196.94 278.808C196.562 279.187 196.079 279.376 195.491 279.376C194.899 279.376 194.409 279.187 194.021 278.808C193.634 278.426 193.44 277.917 193.44 277.284V276.805ZM194.384 277.332C194.384 277.687 194.484 277.981 194.685 278.214C194.885 278.441 195.154 278.555 195.491 278.555C195.815 278.555 196.075 278.444 196.271 278.22C196.471 277.997 196.571 277.692 196.571 277.304V276.805C196.571 276.45 196.473 276.156 196.277 275.924C196.081 275.691 195.815 275.575 195.478 275.575C195.14 275.575 194.874 275.691 194.678 275.924C194.482 276.156 194.384 276.459 194.384 276.833V277.332ZM198.287 282.404C198.287 281.807 198.476 281.317 198.854 280.934C199.237 280.547 199.727 280.353 200.324 280.353C200.921 280.353 201.411 280.545 201.794 280.927C202.177 281.31 202.368 281.818 202.368 282.452V282.937C202.368 283.534 202.177 284.026 201.794 284.414C201.416 284.797 200.93 284.988 200.338 284.988C199.745 284.988 199.256 284.799 198.868 284.421C198.481 284.038 198.287 283.53 198.287 282.896V282.404ZM199.23 282.937C199.23 283.297 199.331 283.594 199.531 283.826C199.732 284.054 200.001 284.168 200.338 284.168C200.666 284.168 200.928 284.056 201.124 283.833C201.32 283.605 201.418 283.297 201.418 282.91V282.404C201.418 282.044 201.318 281.75 201.117 281.522C200.921 281.294 200.657 281.18 200.324 281.18C200.001 281.18 199.736 281.294 199.531 281.522C199.331 281.746 199.23 282.049 199.23 282.431V282.937ZM195.778 284.093L195.061 283.641L199.921 275.862L200.639 276.313L195.778 284.093Z" fill="#BFA7C5"/>
<path d="M183.408 236.854L183.914 231.891H189.014V233.06H184.987L184.687 235.774C185.174 235.487 185.728 235.344 186.348 235.344C187.255 235.344 187.975 235.644 188.508 236.246C189.041 236.843 189.308 237.652 189.308 238.673C189.308 239.698 189.03 240.507 188.474 241.099C187.922 241.687 187.15 241.981 186.156 241.981C185.277 241.981 184.559 241.737 184.003 241.25C183.447 240.762 183.13 240.088 183.053 239.226H184.249C184.326 239.796 184.529 240.227 184.857 240.518C185.186 240.805 185.618 240.949 186.156 240.949C186.744 240.949 187.204 240.748 187.537 240.347C187.874 239.946 188.043 239.393 188.043 238.686C188.043 238.021 187.861 237.488 187.496 237.087C187.136 236.681 186.655 236.478 186.054 236.478C185.502 236.478 185.069 236.599 184.755 236.841L184.42 237.114L183.408 236.854ZM190.579 233.805C190.579 233.208 190.768 232.716 191.146 232.329C191.529 231.941 192.019 231.748 192.616 231.748C193.222 231.748 193.712 231.944 194.086 232.336C194.464 232.723 194.653 233.227 194.653 233.846V234.332C194.653 234.933 194.462 235.426 194.079 235.808C193.701 236.187 193.218 236.376 192.63 236.376C192.037 236.376 191.548 236.187 191.16 235.808C190.773 235.426 190.579 234.917 190.579 234.284V233.805ZM191.522 234.332C191.522 234.687 191.623 234.981 191.823 235.214C192.024 235.441 192.293 235.555 192.63 235.555C192.953 235.555 193.213 235.444 193.409 235.22C193.61 234.997 193.71 234.692 193.71 234.304V233.805C193.71 233.45 193.612 233.156 193.416 232.924C193.22 232.691 192.953 232.575 192.616 232.575C192.279 232.575 192.012 232.691 191.816 232.924C191.62 233.156 191.522 233.459 191.522 233.833V234.332ZM195.426 239.404C195.426 238.807 195.615 238.317 195.993 237.934C196.376 237.547 196.866 237.353 197.463 237.353C198.06 237.353 198.55 237.545 198.933 237.927C199.315 238.31 199.507 238.818 199.507 239.452V239.937C199.507 240.534 199.315 241.026 198.933 241.414C198.554 241.797 198.069 241.988 197.477 241.988C196.884 241.988 196.394 241.799 196.007 241.421C195.619 241.038 195.426 240.53 195.426 239.896V239.404ZM196.369 239.937C196.369 240.297 196.469 240.594 196.67 240.826C196.87 241.054 197.139 241.168 197.477 241.168C197.805 241.168 198.067 241.056 198.263 240.833C198.459 240.605 198.557 240.297 198.557 239.91V239.404C198.557 239.044 198.456 238.75 198.256 238.522C198.06 238.294 197.796 238.18 197.463 238.18C197.139 238.18 196.875 238.294 196.67 238.522C196.469 238.746 196.369 239.049 196.369 239.431V239.937ZM192.917 241.093L192.199 240.641L197.06 232.862L197.777 233.313L192.917 241.093Z" fill="#BFA7C5"/>
<path d="M192.408 206.854L192.914 201.891H198.014V203.06H193.987L193.687 205.774C194.174 205.487 194.728 205.344 195.348 205.344C196.255 205.344 196.975 205.644 197.508 206.246C198.041 206.843 198.308 207.652 198.308 208.673C198.308 209.698 198.03 210.507 197.474 211.099C196.922 211.687 196.15 211.981 195.156 211.981C194.277 211.981 193.559 211.737 193.003 211.25C192.447 210.762 192.13 210.088 192.053 209.226H193.249C193.326 209.796 193.529 210.227 193.857 210.518C194.186 210.805 194.618 210.949 195.156 210.949C195.744 210.949 196.204 210.748 196.537 210.347C196.874 209.946 197.043 209.393 197.043 208.686C197.043 208.021 196.861 207.488 196.496 207.087C196.136 206.681 195.655 206.478 195.054 206.478C194.502 206.478 194.069 206.599 193.755 206.841L193.42 207.114L192.408 206.854ZM199.579 203.805C199.579 203.208 199.768 202.716 200.146 202.329C200.529 201.941 201.019 201.748 201.616 201.748C202.222 201.748 202.712 201.944 203.086 202.336C203.464 202.723 203.653 203.227 203.653 203.846V204.332C203.653 204.933 203.462 205.426 203.079 205.808C202.701 206.187 202.218 206.376 201.63 206.376C201.037 206.376 200.548 206.187 200.16 205.808C199.773 205.426 199.579 204.917 199.579 204.284V203.805ZM200.522 204.332C200.522 204.687 200.623 204.981 200.823 205.214C201.024 205.441 201.293 205.555 201.63 205.555C201.953 205.555 202.213 205.444 202.409 205.22C202.61 204.997 202.71 204.692 202.71 204.304V203.805C202.71 203.45 202.612 203.156 202.416 202.924C202.22 202.691 201.953 202.575 201.616 202.575C201.279 202.575 201.012 202.691 200.816 202.924C200.62 203.156 200.522 203.459 200.522 203.833V204.332ZM204.426 209.404C204.426 208.807 204.615 208.317 204.993 207.934C205.376 207.547 205.866 207.353 206.463 207.353C207.06 207.353 207.55 207.545 207.933 207.927C208.315 208.31 208.507 208.818 208.507 209.452V209.937C208.507 210.534 208.315 211.026 207.933 211.414C207.554 211.797 207.069 211.988 206.477 211.988C205.884 211.988 205.394 211.799 205.007 211.421C204.619 211.038 204.426 210.53 204.426 209.896V209.404ZM205.369 209.937C205.369 210.297 205.469 210.594 205.67 210.826C205.87 211.054 206.139 211.168 206.477 211.168C206.805 211.168 207.067 211.056 207.263 210.833C207.459 210.605 207.557 210.297 207.557 209.91V209.404C207.557 209.044 207.456 208.75 207.256 208.522C207.06 208.294 206.796 208.18 206.463 208.18C206.139 208.18 205.875 208.294 205.67 208.522C205.469 208.746 205.369 209.049 205.369 209.431V209.937ZM201.917 211.093L201.199 210.641L206.06 202.862L206.777 203.313L201.917 211.093Z" fill="#BFA7C5"/>
<path d="M210.408 178.854L210.914 173.891H216.014V175.06H211.987L211.687 177.774C212.174 177.487 212.728 177.344 213.348 177.344C214.255 177.344 214.975 177.644 215.508 178.246C216.041 178.843 216.308 179.652 216.308 180.673C216.308 181.698 216.03 182.507 215.474 183.099C214.922 183.687 214.15 183.981 213.156 183.981C212.277 183.981 211.559 183.737 211.003 183.25C210.447 182.762 210.13 182.088 210.053 181.226H211.249C211.326 181.796 211.529 182.227 211.857 182.518C212.186 182.805 212.618 182.949 213.156 182.949C213.744 182.949 214.204 182.748 214.537 182.347C214.874 181.946 215.043 181.393 215.043 180.686C215.043 180.021 214.861 179.488 214.496 179.087C214.136 178.681 213.655 178.478 213.054 178.478C212.502 178.478 212.069 178.599 211.755 178.841L211.42 179.114L210.408 178.854ZM217.579 175.805C217.579 175.208 217.768 174.716 218.146 174.329C218.529 173.941 219.019 173.748 219.616 173.748C220.222 173.748 220.712 173.944 221.086 174.336C221.464 174.723 221.653 175.227 221.653 175.846V176.332C221.653 176.933 221.462 177.426 221.079 177.808C220.701 178.187 220.218 178.376 219.63 178.376C219.037 178.376 218.548 178.187 218.16 177.808C217.773 177.426 217.579 176.917 217.579 176.284V175.805ZM218.522 176.332C218.522 176.687 218.623 176.981 218.823 177.214C219.024 177.441 219.293 177.555 219.63 177.555C219.953 177.555 220.213 177.444 220.409 177.22C220.61 176.997 220.71 176.692 220.71 176.304V175.805C220.71 175.45 220.612 175.156 220.416 174.924C220.22 174.691 219.953 174.575 219.616 174.575C219.279 174.575 219.012 174.691 218.816 174.924C218.62 175.156 218.522 175.459 218.522 175.833V176.332ZM222.426 181.404C222.426 180.807 222.615 180.317 222.993 179.934C223.376 179.547 223.866 179.353 224.463 179.353C225.06 179.353 225.55 179.545 225.933 179.927C226.315 180.31 226.507 180.818 226.507 181.452V181.937C226.507 182.534 226.315 183.026 225.933 183.414C225.554 183.797 225.069 183.988 224.477 183.988C223.884 183.988 223.394 183.799 223.007 183.421C222.619 183.038 222.426 182.53 222.426 181.896V181.404ZM223.369 181.937C223.369 182.297 223.469 182.594 223.67 182.826C223.87 183.054 224.139 183.168 224.477 183.168C224.805 183.168 225.067 183.056 225.263 182.833C225.459 182.605 225.557 182.297 225.557 181.91V181.404C225.557 181.044 225.456 180.75 225.256 180.522C225.06 180.294 224.796 180.18 224.463 180.18C224.139 180.18 223.875 180.294 223.67 180.522C223.469 180.746 223.369 181.049 223.369 181.431V181.937ZM219.917 183.093L219.199 182.641L224.06 174.862L224.777 175.313L219.917 183.093Z" fill="#BFA7C5"/>
<path d="M239.166 161.502H240.547V162.534H239.166V164.844H237.895V162.534H233.362V161.789L237.819 154.891H239.166V161.502ZM234.798 161.502H237.895V156.621L237.744 156.894L234.798 161.502ZM241.579 156.805C241.579 156.208 241.768 155.716 242.146 155.329C242.529 154.941 243.019 154.748 243.616 154.748C244.222 154.748 244.712 154.944 245.086 155.336C245.464 155.723 245.653 156.227 245.653 156.846V157.332C245.653 157.933 245.462 158.426 245.079 158.808C244.701 159.187 244.218 159.376 243.63 159.376C243.037 159.376 242.548 159.187 242.16 158.808C241.773 158.426 241.579 157.917 241.579 157.284V156.805ZM242.522 157.332C242.522 157.687 242.623 157.981 242.823 158.214C243.024 158.441 243.293 158.555 243.63 158.555C243.953 158.555 244.213 158.444 244.409 158.22C244.61 157.997 244.71 157.692 244.71 157.304V156.805C244.71 156.45 244.612 156.156 244.416 155.924C244.22 155.691 243.953 155.575 243.616 155.575C243.279 155.575 243.012 155.691 242.816 155.924C242.62 156.156 242.522 156.459 242.522 156.833V157.332ZM246.426 162.404C246.426 161.807 246.615 161.317 246.993 160.934C247.376 160.547 247.866 160.353 248.463 160.353C249.06 160.353 249.55 160.545 249.933 160.927C250.315 161.31 250.507 161.818 250.507 162.452V162.937C250.507 163.534 250.315 164.026 249.933 164.414C249.554 164.797 249.069 164.988 248.477 164.988C247.884 164.988 247.394 164.799 247.007 164.421C246.619 164.038 246.426 163.53 246.426 162.896V162.404ZM247.369 162.937C247.369 163.297 247.469 163.594 247.67 163.826C247.87 164.054 248.139 164.168 248.477 164.168C248.805 164.168 249.067 164.056 249.263 163.833C249.459 163.605 249.557 163.297 249.557 162.91V162.404C249.557 162.044 249.456 161.75 249.256 161.522C249.06 161.294 248.796 161.18 248.463 161.18C248.139 161.18 247.875 161.294 247.67 161.522C247.469 161.746 247.369 162.049 247.369 162.431V162.937ZM243.917 164.093L243.199 163.641L248.06 155.862L248.777 156.313L243.917 164.093Z" fill="#BFA7C5"/>
<path d="M268.79 143.885V144.958H268.558C267.573 144.976 266.789 145.268 266.206 145.833C265.623 146.398 265.285 147.193 265.194 148.219C265.718 147.617 266.434 147.316 267.341 147.316C268.207 147.316 268.897 147.622 269.412 148.232C269.932 148.843 270.191 149.631 270.191 150.597C270.191 151.623 269.911 152.443 269.351 153.058C268.795 153.674 268.047 153.981 267.108 153.981C266.156 153.981 265.383 153.617 264.791 152.887C264.199 152.154 263.902 151.21 263.902 150.057V149.572C263.902 147.74 264.292 146.341 265.071 145.375C265.855 144.404 267.02 143.907 268.564 143.885H268.79ZM267.129 148.369C266.696 148.369 266.297 148.499 265.933 148.759C265.568 149.018 265.315 149.344 265.174 149.736V150.201C265.174 151.021 265.358 151.682 265.728 152.183C266.097 152.685 266.557 152.935 267.108 152.935C267.678 152.935 268.125 152.726 268.448 152.306C268.776 151.887 268.94 151.338 268.94 150.659C268.94 149.975 268.774 149.424 268.441 149.005C268.113 148.581 267.676 148.369 267.129 148.369ZM271.579 145.805C271.579 145.208 271.768 144.716 272.146 144.329C272.529 143.941 273.019 143.748 273.616 143.748C274.222 143.748 274.712 143.944 275.086 144.336C275.464 144.723 275.653 145.227 275.653 145.846V146.332C275.653 146.933 275.462 147.426 275.079 147.808C274.701 148.187 274.218 148.376 273.63 148.376C273.037 148.376 272.548 148.187 272.16 147.808C271.773 147.426 271.579 146.917 271.579 146.284V145.805ZM272.522 146.332C272.522 146.687 272.623 146.981 272.823 147.214C273.024 147.441 273.293 147.555 273.63 147.555C273.953 147.555 274.213 147.444 274.409 147.22C274.61 146.997 274.71 146.692 274.71 146.304V145.805C274.71 145.45 274.612 145.156 274.416 144.924C274.22 144.691 273.953 144.575 273.616 144.575C273.279 144.575 273.012 144.691 272.816 144.924C272.62 145.156 272.522 145.459 272.522 145.833V146.332ZM276.426 151.404C276.426 150.807 276.615 150.317 276.993 149.934C277.376 149.547 277.866 149.353 278.463 149.353C279.06 149.353 279.55 149.545 279.933 149.927C280.315 150.31 280.507 150.818 280.507 151.452V151.937C280.507 152.534 280.315 153.026 279.933 153.414C279.554 153.797 279.069 153.988 278.477 153.988C277.884 153.988 277.394 153.799 277.007 153.421C276.619 153.038 276.426 152.53 276.426 151.896V151.404ZM277.369 151.937C277.369 152.297 277.469 152.594 277.67 152.826C277.87 153.054 278.139 153.168 278.477 153.168C278.805 153.168 279.067 153.056 279.263 152.833C279.459 152.605 279.557 152.297 279.557 151.91V151.404C279.557 151.044 279.456 150.75 279.256 150.522C279.06 150.294 278.796 150.18 278.463 150.18C278.139 150.18 277.875 150.294 277.67 150.522C277.469 150.746 277.369 151.049 277.369 151.431V151.937ZM273.917 153.093L273.199 152.641L278.06 144.862L278.777 145.313L273.917 153.093Z" fill="#BFA7C5"/>
<path d="M269.766 171.932L265.766 159.932" stroke="#BFA7C5" stroke-width="0.5"/>
<path d="M245.766 190.732L241.766 178.732" stroke="#BFA7C5" stroke-width="0.5"/>
<path d="M227.2 217.744L223.2 205.744" stroke="#BFA7C5" stroke-width="0.5"/>
<path d="M218.6 247.744L214.6 235.744" stroke="#BFA7C5" stroke-width="0.5"/>
<path d="M299.766 160.732L295.766 148.732" stroke="#BFA7C5" stroke-width="0.5"/>
<line x1="266" y1="160.094" x2="256" y2="160.094" stroke="#BFA7C5" stroke-width="0.5"/>
<line x1="242" y1="178.895" x2="232" y2="178.895" stroke="#BFA7C5" stroke-width="0.5"/>
<line x1="223.4" y1="205.895" x2="213.4" y2="205.895" stroke="#BFA7C5" stroke-width="0.5"/>
<line x1="214.8" y1="235.895" x2="204.8" y2="235.895" stroke="#BFA7C5" stroke-width="0.5"/>
<path d="M219.6 278.895H206.6" stroke="#BFA7C5" stroke-width="0.5"/>
<line x1="296" y1="148.895" x2="286" y2="148.895" stroke="#BFA7C5" stroke-width="0.5"/>
<circle cx="256" cy="160.044" r="1" fill="#BFA7C5"/>
<circle cx="232" cy="178.844" r="1" fill="#BFA7C5"/>
<circle cx="214" cy="205.844" r="1" fill="#BFA7C5"/>
<circle cx="205.2" cy="235.844" r="1" fill="#BFA7C5"/>
<circle cx="207" cy="278.844" r="1" fill="#BFA7C5"/>
<circle cx="286" cy="148.844" r="1" fill="#BFA7C5"/>
<path d="M135.538 79.752C137.33 78.856 138.254 77.344 138.254 75.524C138.254 72.556 135.734 70.4 130.33 70.4H119.858V90H130.89C136.294 90 139.178 88.012 139.178 84.596C139.178 82.272 137.834 80.592 135.538 79.752ZM129.434 75.02C130.918 75.02 131.59 75.524 131.59 76.476C131.59 77.428 130.918 77.932 129.434 77.932H126.354V75.02H129.434ZM130.33 85.38H126.354V82.3H130.33C131.786 82.3 132.514 82.832 132.514 83.84C132.514 84.848 131.786 85.38 130.33 85.38ZM148.01 85.016V82.44H156.298V77.68H148.01V75.384H157.446V70.4H141.514V90H157.81V85.016H148.01ZM167.662 90.448C173.738 90.448 176.79 87.424 176.79 83.84C176.79 76.616 165.954 78.576 165.954 76.224C165.954 75.552 166.57 74.992 168.502 74.992C170.21 74.992 172.03 75.468 173.962 76.448L175.95 71.66C173.906 70.512 171.19 69.952 168.558 69.952C162.482 69.952 159.43 72.92 159.43 76.56C159.43 83.868 170.266 81.88 170.266 84.344C170.266 85.016 169.594 85.408 167.718 85.408C165.562 85.408 163.098 84.708 161.25 83.616L159.122 88.432C161.082 89.636 164.386 90.448 167.662 90.448ZM182.739 90H189.347V75.524H195.087V70.4H176.999V75.524H182.739V90ZM214.634 70.4H205.198V90H211.806V85.184H214.634C220.094 85.184 223.566 82.328 223.566 77.792C223.566 73.256 220.094 70.4 214.634 70.4ZM214.214 80.088H211.806V75.496H214.214C216.034 75.496 216.902 76.364 216.902 77.792C216.902 79.22 216.034 80.088 214.214 80.088ZM232.229 85.016V82.44H240.517V77.68H232.229V75.384H241.665V70.4H225.733V90H242.029V85.016H232.229ZM256.305 90H263.361L259.245 83.952C261.597 82.748 262.941 80.62 262.941 77.792C262.941 73.256 259.469 70.4 254.009 70.4H244.573V90H251.181V85.072H252.973L256.305 90ZM256.277 77.792C256.277 79.22 255.409 80.088 253.589 80.088H251.181V75.496H253.589C255.409 75.496 256.277 76.364 256.277 77.792ZM281.368 75.384V70.4H265.436V90H272.044V83.728H280.22V78.744H272.044V75.384H281.368ZM293.595 90.448C299.979 90.448 304.655 86.136 304.655 80.2C304.655 74.264 299.979 69.952 293.595 69.952C287.211 69.952 282.535 74.264 282.535 80.2C282.535 86.136 287.211 90.448 293.595 90.448ZM293.595 85.1C291.159 85.1 289.199 83.252 289.199 80.2C289.199 77.148 291.159 75.3 293.595 75.3C296.031 75.3 297.991 77.148 297.991 80.2C297.991 83.252 296.031 85.1 293.595 85.1ZM318.785 90H325.841L321.725 83.952C324.077 82.748 325.421 80.62 325.421 77.792C325.421 73.256 321.949 70.4 316.489 70.4H307.053V90H313.661V85.072H315.453L318.785 90ZM318.757 77.792C318.757 79.22 317.889 80.088 316.069 80.088H313.661V75.496H316.069C317.889 75.496 318.757 76.364 318.757 77.792ZM351.436 90L351.38 70.4H345.948L339.732 80.844L333.348 70.4H327.916V90H333.936V81.376L338.192 88.236H341.104L345.36 81.068L345.416 90H351.436ZM354.631 90H361.239V70.4H354.631V90ZM377.3 70.4V79.304L369.852 70.4H364.42V90H370.86V81.096L378.308 90H383.74V70.4H377.3ZM399.888 84.624C399.076 84.96 398.292 85.1 397.48 85.1C394.652 85.1 392.804 83.14 392.804 80.2C392.804 77.176 394.652 75.3 397.564 75.3C399.3 75.3 400.728 76.028 401.96 77.456L406.188 73.732C404.2 71.296 401.092 69.952 397.228 69.952C390.76 69.952 386.14 74.18 386.14 80.2C386.14 86.22 390.76 90.448 397.088 90.448C399.972 90.448 403.248 89.58 405.628 87.956V79.668H399.888V84.624ZM429.802 84.624C428.99 84.96 428.206 85.1 427.394 85.1C424.566 85.1 422.718 83.14 422.718 80.2C422.718 77.176 424.566 75.3 427.478 75.3C429.214 75.3 430.642 76.028 431.874 77.456L436.102 73.732C434.114 71.296 431.006 69.952 427.142 69.952C420.674 69.952 416.054 74.18 416.054 80.2C416.054 86.22 420.674 90.448 427.002 90.448C429.886 90.448 433.162 89.58 435.542 87.956V79.668H429.802V84.624ZM444.854 85.016V82.44H453.142V77.68H444.854V75.384H454.29V70.4H438.358V90H454.654V85.016H444.854ZM467.474 90.448C473.858 90.448 478.534 86.136 478.534 80.2C478.534 74.264 473.858 69.952 467.474 69.952C461.09 69.952 456.414 74.264 456.414 80.2C456.414 86.136 461.09 90.448 467.474 90.448ZM467.474 85.1C465.038 85.1 463.078 83.252 463.078 80.2C463.078 77.148 465.038 75.3 467.474 75.3C469.91 75.3 471.87 77.148 471.87 80.2C471.87 83.252 469.91 85.1 467.474 85.1ZM488.24 90.448C494.316 90.448 497.368 87.424 497.368 83.84C497.368 76.616 486.532 78.576 486.532 76.224C486.532 75.552 487.148 74.992 489.08 74.992C490.788 74.992 492.608 75.468 494.54 76.448L496.528 71.66C494.484 70.512 491.768 69.952 489.136 69.952C483.06 69.952 480.008 72.92 480.008 76.56C480.008 83.868 490.844 81.88 490.844 84.344C490.844 85.016 490.172 85.408 488.296 85.408C486.14 85.408 483.676 84.708 481.828 83.616L479.7 88.432C481.66 89.636 484.964 90.448 488.24 90.448Z" fill="#1F1F1F"/>
<path d="M224.579 413.602V419.886C224.575 420.758 224.3 421.471 223.754 422.026C223.212 422.58 222.476 422.891 221.545 422.959L221.221 422.971C220.21 422.971 219.404 422.698 218.803 422.153C218.202 421.607 217.897 420.856 217.889 419.899V413.602H219.095V419.861C219.095 420.53 219.279 421.05 219.647 421.423C220.015 421.791 220.54 421.975 221.221 421.975C221.911 421.975 222.438 421.791 222.802 421.423C223.17 421.054 223.354 420.536 223.354 419.867V413.602H224.579ZM229.226 418.725C228.18 418.424 227.419 418.056 226.94 417.62C226.466 417.18 226.229 416.639 226.229 415.995C226.229 415.267 226.519 414.667 227.099 414.193C227.683 413.714 228.441 413.475 229.372 413.475C230.006 413.475 230.571 413.598 231.066 413.844C231.566 414.089 231.951 414.427 232.222 414.859C232.497 415.291 232.634 415.763 232.634 416.275H231.409C231.409 415.716 231.231 415.278 230.876 414.961C230.521 414.639 230.019 414.478 229.372 414.478C228.771 414.478 228.301 414.612 227.962 414.878C227.628 415.141 227.461 415.507 227.461 415.976C227.461 416.353 227.62 416.672 227.937 416.935C228.259 417.193 228.802 417.43 229.568 417.646C230.339 417.862 230.939 418.101 231.371 418.363C231.807 418.621 232.129 418.924 232.336 419.271C232.548 419.618 232.653 420.026 232.653 420.496C232.653 421.245 232.361 421.846 231.777 422.299C231.193 422.747 230.413 422.971 229.435 422.971C228.8 422.971 228.208 422.851 227.658 422.61C227.108 422.364 226.682 422.03 226.382 421.607C226.086 421.184 225.938 420.703 225.938 420.166H227.163C227.163 420.724 227.368 421.167 227.778 421.492C228.193 421.814 228.745 421.975 229.435 421.975C230.078 421.975 230.571 421.844 230.914 421.581C231.257 421.319 231.428 420.961 231.428 420.509C231.428 420.056 231.27 419.707 230.952 419.461C230.635 419.212 230.059 418.966 229.226 418.725Z" fill="#BFA7C5"/>
<path d="M259.176 420.432H255.304L254.435 422.844H253.178L256.707 413.602H257.773L261.309 422.844H260.059L259.176 420.432ZM255.672 419.429H258.814L257.24 415.107L255.672 419.429ZM268.945 413.602V419.886C268.941 420.758 268.666 421.471 268.12 422.026C267.578 422.58 266.842 422.891 265.911 422.959L265.587 422.971C264.576 422.971 263.77 422.698 263.169 422.153C262.568 421.607 262.263 420.856 262.255 419.899V413.602H263.461V419.861C263.461 420.53 263.645 421.05 264.013 421.423C264.381 421.791 264.906 421.975 265.587 421.975C266.277 421.975 266.804 421.791 267.168 421.423C267.536 421.054 267.72 420.536 267.72 419.867V413.602H268.945Z" fill="#BFA7C5"/>
<path d="M296.871 419.912C296.757 420.889 296.395 421.645 295.786 422.178C295.181 422.707 294.374 422.971 293.367 422.971C292.275 422.971 291.399 422.58 290.739 421.797C290.083 421.014 289.755 419.967 289.755 418.655V417.766C289.755 416.907 289.908 416.152 290.212 415.5C290.521 414.849 290.957 414.349 291.52 414.002C292.083 413.651 292.735 413.475 293.475 413.475C294.457 413.475 295.244 413.75 295.836 414.301C296.429 414.846 296.774 415.604 296.871 416.573H295.646C295.54 415.837 295.31 415.303 294.954 414.973C294.603 414.643 294.11 414.478 293.475 414.478C292.696 414.478 292.085 414.766 291.641 415.342C291.201 415.917 290.98 416.736 290.98 417.798V418.693C290.98 419.696 291.19 420.494 291.609 421.086C292.028 421.679 292.614 421.975 293.367 421.975C294.044 421.975 294.563 421.823 294.922 421.518C295.286 421.209 295.528 420.674 295.646 419.912H296.871ZM303.644 420.432H299.772L298.902 422.844H297.646L301.175 413.602H302.241L305.777 422.844H304.526L303.644 420.432ZM300.14 419.429H303.282L301.708 415.107L300.14 419.429Z" fill="#BFA7C5"/>
<path d="M332.579 413.602V419.886C332.575 420.758 332.3 421.471 331.754 422.026C331.212 422.58 330.476 422.891 329.545 422.959L329.221 422.971C328.21 422.971 327.404 422.698 326.803 422.153C326.202 421.607 325.897 420.856 325.889 419.899V413.602H327.095V419.861C327.095 420.53 327.279 421.05 327.647 421.423C328.015 421.791 328.54 421.975 329.221 421.975C329.911 421.975 330.438 421.791 330.802 421.423C331.17 421.054 331.354 420.536 331.354 419.867V413.602H332.579ZM336.851 418.547L335.721 419.721V422.844H334.502V413.602H335.721V418.173L339.828 413.602H341.301L337.664 417.684L341.586 422.844H340.126L336.851 418.547Z" fill="#BFA7C5"/>
<path d="M369.176 422.844H367.951L363.298 415.722V422.844H362.073V413.602H363.298L367.963 420.756V413.602H369.176V422.844ZM372.254 421.848H377.542V422.844H370.813V421.93L375.879 414.605H370.896V413.602H377.339V414.497L372.254 421.848Z" fill="#BFA7C5"/>
<path d="M391.578 419.347C391.578 418.674 391.709 418.069 391.971 417.531C392.238 416.994 392.606 416.579 393.076 416.287C393.55 415.995 394.089 415.849 394.694 415.849C395.63 415.849 396.385 416.173 396.96 416.821C397.54 417.468 397.83 418.329 397.83 419.404V419.487C397.83 420.155 397.701 420.756 397.443 421.289C397.189 421.818 396.823 422.231 396.345 422.527C395.871 422.823 395.325 422.971 394.707 422.971C393.776 422.971 393.021 422.648 392.441 422C391.865 421.353 391.578 420.496 391.578 419.429V419.347ZM392.758 419.487C392.758 420.248 392.934 420.86 393.285 421.321C393.641 421.782 394.115 422.013 394.707 422.013C395.304 422.013 395.778 421.78 396.129 421.315C396.48 420.845 396.656 420.189 396.656 419.347C396.656 418.594 396.476 417.984 396.116 417.519C395.761 417.049 395.287 416.814 394.694 416.814C394.115 416.814 393.647 417.045 393.292 417.506C392.936 417.967 392.758 418.628 392.758 419.487ZM400.896 414.313V415.976H402.178V416.884H400.896V421.143C400.896 421.418 400.953 421.626 401.067 421.765C401.182 421.901 401.376 421.969 401.651 421.969C401.787 421.969 401.973 421.943 402.21 421.892V422.844C401.901 422.929 401.601 422.971 401.309 422.971C400.784 422.971 400.388 422.813 400.122 422.495C399.855 422.178 399.722 421.727 399.722 421.143V416.884H398.471V415.976H399.722V414.313H400.896ZM404.73 416.808C405.25 416.169 405.928 415.849 406.761 415.849C408.213 415.849 408.945 416.668 408.958 418.306V422.844H407.783V418.3C407.779 417.804 407.665 417.438 407.44 417.201C407.22 416.964 406.875 416.846 406.406 416.846C406.025 416.846 405.691 416.948 405.403 417.151C405.115 417.354 404.891 417.62 404.73 417.95V422.844H403.556V413.094H404.73V416.808ZM413.566 422.971C412.635 422.971 411.877 422.667 411.293 422.057C410.709 421.444 410.417 420.625 410.417 419.601V419.385C410.417 418.704 410.547 418.096 410.805 417.563C411.067 417.026 411.431 416.607 411.896 416.306C412.366 416.002 412.874 415.849 413.42 415.849C414.313 415.849 415.007 416.143 415.502 416.732C415.997 417.32 416.245 418.162 416.245 419.258V419.747H411.592C411.609 420.424 411.806 420.972 412.182 421.391C412.563 421.806 413.045 422.013 413.629 422.013C414.044 422.013 414.395 421.928 414.683 421.759C414.971 421.59 415.223 421.365 415.438 421.086L416.156 421.645C415.58 422.529 414.717 422.971 413.566 422.971ZM413.42 416.814C412.946 416.814 412.548 416.988 412.227 417.335C411.905 417.677 411.706 418.16 411.63 418.782H415.07V418.693C415.036 418.096 414.876 417.635 414.588 417.309C414.3 416.979 413.911 416.814 413.42 416.814ZM420.929 417.03C420.751 417 420.559 416.986 420.352 416.986C419.581 416.986 419.059 417.314 418.784 417.969V422.844H417.609V415.976H418.752L418.771 416.77C419.156 416.156 419.702 415.849 420.409 415.849C420.637 415.849 420.811 415.879 420.929 415.938V417.03Z" fill="#BFA7C5"/>
<rect x="218" y="384.844" width="16" height="16" rx="4" fill="#E6EFF9"/>
<rect x="254" y="384.844" width="16" height="16" rx="4" fill="#3B2F4E"/>
<rect x="290" y="384.844" width="16" height="16" rx="4" fill="#773288"/>
<rect x="362" y="384.844" width="16" height="16" rx="4" fill="#EA5289"/>
<rect x="326" y="384.844" width="16" height="16" rx="4" fill="#BF4984"/>
<rect x="399" y="384.844" width="16" height="16" rx="4" fill="#E4D6E7"/>
<defs>
<filter id="filter0_d" x="0" y="17" width="549" height="487" filterUnits="userSpaceOnUse" color-interpolation-filters="sRGB">
<feFlood flood-opacity="0" result="BackgroundImageFix"/>
<feColorMatrix in="SourceAlpha" type="matrix" values="0 0 0 0 0 0 0 0 0 0 0 0 0 0 0 0 0 0 127 0"/>
<feOffset dy="18"/>
<feGaussianBlur stdDeviation="20"/>
<feColorMatrix type="matrix" values="0 0 0 0 0.894118 0 0 0 0 0.839216 0 0 0 0 0.905882 0 0 0 0.46 0"/>
<feBlend mode="normal" in2="BackgroundImageFix" result="effect1_dropShadow"/>
<feBlend mode="normal" in="SourceGraphic" in2="effect1_dropShadow" result="shape"/>
</filter>
<filter id="filter1_d" x="16" y="0" width="584" height="518" filterUnits="userSpaceOnUse" color-interpolation-filters="sRGB">
<feFlood flood-opacity="0" result="BackgroundImageFix"/>
<feColorMatrix in="SourceAlpha" type="matrix" values="0 0 0 0 0 0 0 0 0 0 0 0 0 0 0 0 0 0 127 0"/>
<feOffset dy="18"/>
<feGaussianBlur stdDeviation="20"/>
<feColorMatrix type="matrix" values="0 0 0 0 0.894118 0 0 0 0 0.839216 0 0 0 0 0.905882 0 0 0 0.51 0"/>
<feBlend mode="normal" in2="BackgroundImageFix" result="effect1_dropShadow"/>
<feBlend mode="normal" in="SourceGraphic" in2="effect1_dropShadow" result="shape"/>
</filter>
</defs>
</svg>
