<svg width="600" height="518" viewBox="0 0 600 518" fill="none" xmlns="http://www.w3.org/2000/svg">
<g filter="url(#filter0_d)">
<rect x="40" y="39" width="469" height="407" rx="20" fill="white"/>
</g>
<g filter="url(#filter1_d)">
<rect x="56" y="22" width="504" height="438" rx="20" fill="white"/>
</g>
<circle cx="319.5" cy="260.344" r="85.5" stroke="#F1F7FD" stroke-width="32"/>
<mask id="mask0" mask-type="alpha" maskUnits="userSpaceOnUse" x="218" y="158" width="203" height="204">
<circle cx="319.5" cy="260.344" r="85.5" stroke="#E4D6E7" stroke-width="32"/>
</mask>
<g mask="url(#mask0)">
<path d="M319.955 192.795V158.844L279.901 157.024L294.466 198.898L319.955 192.795Z" fill="#E4D6E7"/>
<path d="M263.061 219.38L234.386 203.45L254.226 174.718L283.95 207.64L263.061 219.38Z" fill="#BF4984"/>
<path d="M251.682 246.69L212.911 232.378L233.02 202.54L264.426 219.836L251.682 246.69Z" fill="#773288"/>
<path d="M253.13 260.8L213.449 260.8L218.91 231.215L255.226 238.952L253.13 260.8Z" fill="#3B2F4E"/>
<path d="M281.449 205.525L257.143 178.166L280.017 158.603L297.676 199.762L281.449 205.525Z" fill="#EA5289"/>
</g>
<path d="M184.253 275.602L180.131 284.844H178.805L182.913 275.93H177.526V274.891H184.253V275.602ZM186.27 279.854L186.775 274.891H191.875V276.06H187.849L187.548 278.774C188.035 278.487 188.589 278.344 189.209 278.344C190.116 278.344 190.836 278.644 191.369 279.246C191.902 279.843 192.169 280.652 192.169 281.673C192.169 282.698 191.891 283.507 191.335 284.099C190.784 284.687 190.011 284.981 189.018 284.981C188.138 284.981 187.42 284.737 186.864 284.25C186.308 283.762 185.992 283.088 185.914 282.226H187.11C187.188 282.796 187.391 283.227 187.719 283.518C188.047 283.805 188.48 283.949 189.018 283.949C189.605 283.949 190.066 283.748 190.398 283.347C190.736 282.946 190.904 282.393 190.904 281.686C190.904 281.021 190.722 280.488 190.357 280.087C189.997 279.681 189.517 279.478 188.915 279.478C188.364 279.478 187.931 279.599 187.616 279.841L187.281 280.114L186.27 279.854ZM193.44 276.805C193.44 276.208 193.63 275.716 194.008 275.329C194.391 274.941 194.881 274.748 195.478 274.748C196.084 274.748 196.574 274.944 196.947 275.336C197.326 275.723 197.515 276.227 197.515 276.846V277.332C197.515 277.933 197.323 278.426 196.94 278.808C196.562 279.187 196.079 279.376 195.491 279.376C194.899 279.376 194.409 279.187 194.021 278.808C193.634 278.426 193.44 277.917 193.44 277.284V276.805ZM194.384 277.332C194.384 277.687 194.484 277.981 194.685 278.214C194.885 278.441 195.154 278.555 195.491 278.555C195.815 278.555 196.075 278.444 196.271 278.22C196.471 277.997 196.571 277.692 196.571 277.304V276.805C196.571 276.45 196.473 276.156 196.277 275.924C196.081 275.691 195.815 275.575 195.478 275.575C195.14 275.575 194.874 275.691 194.678 275.924C194.482 276.156 194.384 276.459 194.384 276.833V277.332ZM198.287 282.404C198.287 281.807 198.476 281.317 198.854 280.934C199.237 280.547 199.727 280.353 200.324 280.353C200.921 280.353 201.411 280.545 201.794 280.927C202.177 281.31 202.368 281.818 202.368 282.452V282.937C202.368 283.534 202.177 284.026 201.794 284.414C201.416 284.797 200.93 284.988 200.338 284.988C199.745 284.988 199.256 284.799 198.868 284.421C198.481 284.038 198.287 283.53 198.287 282.896V282.404ZM199.23 282.937C199.23 283.297 199.331 283.594 199.531 283.826C199.732 284.054 200.001 284.168 200.338 284.168C200.666 284.168 200.928 284.056 201.124 283.833C201.32 283.605 201.418 283.297 201.418 282.91V282.404C201.418 282.044 201.318 281.75 201.117 281.522C200.921 281.294 200.657 281.18 200.324 281.18C200.001 281.18 199.736 281.294 199.531 281.522C199.331 281.746 199.23 282.049 199.23 282.431V282.937ZM195.778 284.093L195.061 283.641L199.921 275.862L200.639 276.313L195.778 284.093Z" fill="#BFA7C5"/>
<path d="M183.408 236.854L183.914 231.891H189.014V233.06H184.987L184.687 235.774C185.174 235.487 185.728 235.344 186.348 235.344C187.255 235.344 187.975 235.644 188.508 236.246C189.041 236.843 189.308 237.652 189.308 238.673C189.308 239.698 189.03 240.507 188.474 241.099C187.922 241.687 187.15 241.981 186.156 241.981C185.277 241.981 184.559 241.737 184.003 241.25C183.447 240.762 183.13 240.088 183.053 239.226H184.249C184.326 239.796 184.529 240.227 184.857 240.518C185.186 240.805 185.618 240.949 186.156 240.949C186.744 240.949 187.204 240.748 187.537 240.347C187.874 239.946 188.043 239.393 188.043 238.686C188.043 238.021 187.861 237.488 187.496 237.087C187.136 236.681 186.655 236.478 186.054 236.478C185.502 236.478 185.069 236.599 184.755 236.841L184.42 237.114L183.408 236.854ZM190.579 233.805C190.579 233.208 190.768 232.716 191.146 232.329C191.529 231.941 192.019 231.748 192.616 231.748C193.222 231.748 193.712 231.944 194.086 232.336C194.464 232.723 194.653 233.227 194.653 233.846V234.332C194.653 234.933 194.462 235.426 194.079 235.808C193.701 236.187 193.218 236.376 192.63 236.376C192.037 236.376 191.548 236.187 191.16 235.808C190.773 235.426 190.579 234.917 190.579 234.284V233.805ZM191.522 234.332C191.522 234.687 191.623 234.981 191.823 235.214C192.024 235.441 192.293 235.555 192.63 235.555C192.953 235.555 193.213 235.444 193.409 235.22C193.61 234.997 193.71 234.692 193.71 234.304V233.805C193.71 233.45 193.612 233.156 193.416 232.924C193.22 232.691 192.953 232.575 192.616 232.575C192.279 232.575 192.012 232.691 191.816 232.924C191.62 233.156 191.522 233.459 191.522 233.833V234.332ZM195.426 239.404C195.426 238.807 195.615 238.317 195.993 237.934C196.376 237.547 196.866 237.353 197.463 237.353C198.06 237.353 198.55 237.545 198.933 237.927C199.315 238.31 199.507 238.818 199.507 239.452V239.937C199.507 240.534 199.315 241.026 198.933 241.414C198.554 241.797 198.069 241.988 197.477 241.988C196.884 241.988 196.394 241.799 196.007 241.421C195.619 241.038 195.426 240.53 195.426 239.896V239.404ZM196.369 239.937C196.369 240.297 196.469 240.594 196.67 240.826C196.87 241.054 197.139 241.168 197.477 241.168C197.805 241.168 198.067 241.056 198.263 240.833C198.459 240.605 198.557 240.297 198.557 239.91V239.404C198.557 239.044 198.456 238.75 198.256 238.522C198.06 238.294 197.796 238.18 197.463 238.18C197.139 238.18 196.875 238.294 196.67 238.522C196.469 238.746 196.369 239.049 196.369 239.431V239.937ZM192.917 241.093L192.199 240.641L197.06 232.862L197.777 233.313L192.917 241.093Z" fill="#BFA7C5"/>
<path d="M192.408 206.854L192.914 201.891H198.014V203.06H193.987L193.687 205.774C194.174 205.487 194.728 205.344 195.348 205.344C196.255 205.344 196.975 205.644 197.508 206.246C198.041 206.843 198.308 207.652 198.308 208.673C198.308 209.698 198.03 210.507 197.474 211.099C196.922 211.687 196.15 211.981 195.156 211.981C194.277 211.981 193.559 211.737 193.003 211.25C192.447 210.762 192.13 210.088 192.053 209.226H193.249C193.326 209.796 193.529 210.227 193.857 210.518C194.186 210.805 194.618 210.949 195.156 210.949C195.744 210.949 196.204 210.748 196.537 210.347C196.874 209.946 197.043 209.393 197.043 208.686C197.043 208.021 196.861 207.488 196.496 207.087C196.136 206.681 195.655 206.478 195.054 206.478C194.502 206.478 194.069 206.599 193.755 206.841L193.42 207.114L192.408 206.854ZM199.579 203.805C199.579 203.208 199.768 202.716 200.146 202.329C200.529 201.941 201.019 201.748 201.616 201.748C202.222 201.748 202.712 201.944 203.086 202.336C203.464 202.723 203.653 203.227 203.653 203.846V204.332C203.653 204.933 203.462 205.426 203.079 205.808C202.701 206.187 202.218 206.376 201.63 206.376C201.037 206.376 200.548 206.187 200.16 205.808C199.773 205.426 199.579 204.917 199.579 204.284V203.805ZM200.522 204.332C200.522 204.687 200.623 204.981 200.823 205.214C201.024 205.441 201.293 205.555 201.63 205.555C201.953 205.555 202.213 205.444 202.409 205.22C202.61 204.997 202.71 204.692 202.71 204.304V203.805C202.71 203.45 202.612 203.156 202.416 202.924C202.22 202.691 201.953 202.575 201.616 202.575C201.279 202.575 201.012 202.691 200.816 202.924C200.62 203.156 200.522 203.459 200.522 203.833V204.332ZM204.426 209.404C204.426 208.807 204.615 208.317 204.993 207.934C205.376 207.547 205.866 207.353 206.463 207.353C207.06 207.353 207.55 207.545 207.933 207.927C208.315 208.31 208.507 208.818 208.507 209.452V209.937C208.507 210.534 208.315 211.026 207.933 211.414C207.554 211.797 207.069 211.988 206.477 211.988C205.884 211.988 205.394 211.799 205.007 211.421C204.619 211.038 204.426 210.53 204.426 209.896V209.404ZM205.369 209.937C205.369 210.297 205.469 210.594 205.67 210.826C205.87 211.054 206.139 211.168 206.477 211.168C206.805 211.168 207.067 211.056 207.263 210.833C207.459 210.605 207.557 210.297 207.557 209.91V209.404C207.557 209.044 207.456 208.75 207.256 208.522C207.06 208.294 206.796 208.18 206.463 208.18C206.139 208.18 205.875 208.294 205.67 208.522C205.469 208.746 205.369 209.049 205.369 209.431V209.937ZM201.917 211.093L201.199 210.641L206.06 202.862L206.777 203.313L201.917 211.093Z" fill="#BFA7C5"/>
<path d="M210.408 178.854L210.914 173.891H216.014V175.06H211.987L211.687 177.774C212.174 177.487 212.728 177.344 213.348 177.344C214.255 177.344 214.975 177.644 215.508 178.246C216.041 178.843 216.308 179.652 216.308 180.673C216.308 181.698 216.03 182.507 215.474 183.099C214.922 183.687 214.15 183.981 213.156 183.981C212.277 183.981 211.559 183.737 211.003 183.25C210.447 182.762 210.13 182.088 210.053 181.226H211.249C211.326 181.796 211.529 182.227 211.857 182.518C212.186 182.805 212.618 182.949 213.156 182.949C213.744 182.949 214.204 182.748 214.537 182.347C214.874 181.946 215.043 181.393 215.043 180.686C215.043 180.021 214.861 179.488 214.496 179.087C214.136 178.681 213.655 178.478 213.054 178.478C212.502 178.478 212.069 178.599 211.755 178.841L211.42 179.114L210.408 178.854ZM217.579 175.805C217.579 175.208 217.768 174.716 218.146 174.329C218.529 173.941 219.019 173.748 219.616 173.748C220.222 173.748 220.712 173.944 221.086 174.336C221.464 174.723 221.653 175.227 221.653 175.846V176.332C221.653 176.933 221.462 177.426 221.079 177.808C220.701 178.187 220.218 178.376 219.63 178.376C219.037 178.376 218.548 178.187 218.16 177.808C217.773 177.426 217.579 176.917 217.579 176.284V175.805ZM218.522 176.332C218.522 176.687 218.623 176.981 218.823 177.214C219.024 177.441 219.293 177.555 219.63 177.555C219.953 177.555 220.213 177.444 220.409 177.22C220.61 176.997 220.71 176.692 220.71 176.304V175.805C220.71 175.45 220.612 175.156 220.416 174.924C220.22 174.691 219.953 174.575 219.616 174.575C219.279 174.575 219.012 174.691 218.816 174.924C218.62 175.156 218.522 175.459 218.522 175.833V176.332ZM222.426 181.404C222.426 180.807 222.615 180.317 222.993 179.934C223.376 179.547 223.866 179.353 224.463 179.353C225.06 179.353 225.55 179.545 225.933 179.927C226.315 180.31 226.507 180.818 226.507 181.452V181.937C226.507 182.534 226.315 183.026 225.933 183.414C225.554 183.797 225.069 183.988 224.477 183.988C223.884 183.988 223.394 183.799 223.007 183.421C222.619 183.038 222.426 182.53 222.426 181.896V181.404ZM223.369 181.937C223.369 182.297 223.469 182.594 223.67 182.826C223.87 183.054 224.139 183.168 224.477 183.168C224.805 183.168 225.067 183.056 225.263 182.833C225.459 182.605 225.557 182.297 225.557 181.91V181.404C225.557 181.044 225.456 180.75 225.256 180.522C225.06 180.294 224.796 180.18 224.463 180.18C224.139 180.18 223.875 180.294 223.67 180.522C223.469 180.746 223.369 181.049 223.369 181.431V181.937ZM219.917 183.093L219.199 182.641L224.06 174.862L224.777 175.313L219.917 183.093Z" fill="#BFA7C5"/>
<path d="M239.166 161.502H240.547V162.534H239.166V164.844H237.895V162.534H233.362V161.789L237.819 154.891H239.166V161.502ZM234.798 161.502H237.895V156.621L237.744 156.894L234.798 161.502ZM241.579 156.805C241.579 156.208 241.768 155.716 242.146 155.329C242.529 154.941 243.019 154.748 243.616 154.748C244.222 154.748 244.712 154.944 245.086 155.336C245.464 155.723 245.653 156.227 245.653 156.846V157.332C245.653 157.933 245.462 158.426 245.079 158.808C244.701 159.187 244.218 159.376 243.63 159.376C243.037 159.376 242.548 159.187 242.16 158.808C241.773 158.426 241.579 157.917 241.579 157.284V156.805ZM242.522 157.332C242.522 157.687 242.623 157.981 242.823 158.214C243.024 158.441 243.293 158.555 243.63 158.555C243.953 158.555 244.213 158.444 244.409 158.22C244.61 157.997 244.71 157.692 244.71 157.304V156.805C244.71 156.45 244.612 156.156 244.416 155.924C244.22 155.691 243.953 155.575 243.616 155.575C243.279 155.575 243.012 155.691 242.816 155.924C242.62 156.156 242.522 156.459 242.522 156.833V157.332ZM246.426 162.404C246.426 161.807 246.615 161.317 246.993 160.934C247.376 160.547 247.866 160.353 248.463 160.353C249.06 160.353 249.55 160.545 249.933 160.927C250.315 161.31 250.507 161.818 250.507 162.452V162.937C250.507 163.534 250.315 164.026 249.933 164.414C249.554 164.797 249.069 164.988 248.477 164.988C247.884 164.988 247.394 164.799 247.007 164.421C246.619 164.038 246.426 163.53 246.426 162.896V162.404ZM247.369 162.937C247.369 163.297 247.469 163.594 247.67 163.826C247.87 164.054 248.139 164.168 248.477 164.168C248.805 164.168 249.067 164.056 249.263 163.833C249.459 163.605 249.557 163.297 249.557 162.91V162.404C249.557 162.044 249.456 161.75 249.256 161.522C249.06 161.294 248.796 161.18 248.463 161.18C248.139 161.18 247.875 161.294 247.67 161.522C247.469 161.746 247.369 162.049 247.369 162.431V162.937ZM243.917 164.093L243.199 163.641L248.06 155.862L248.777 156.313L243.917 164.093Z" fill="#BFA7C5"/>
<path d="M268.79 143.885V144.958H268.558C267.573 144.976 266.789 145.268 266.206 145.833C265.623 146.398 265.285 147.193 265.194 148.219C265.718 147.617 266.434 147.316 267.341 147.316C268.207 147.316 268.897 147.622 269.412 148.232C269.932 148.843 270.191 149.631 270.191 150.597C270.191 151.623 269.911 152.443 269.351 153.058C268.795 153.674 268.047 153.981 267.108 153.981C266.156 153.981 265.383 153.617 264.791 152.887C264.199 152.154 263.902 151.21 263.902 150.057V149.572C263.902 147.74 264.292 146.341 265.071 145.375C265.855 144.404 267.02 143.907 268.564 143.885H268.79ZM267.129 148.369C266.696 148.369 266.297 148.499 265.933 148.759C265.568 149.018 265.315 149.344 265.174 149.736V150.201C265.174 151.021 265.358 151.682 265.728 152.183C266.097 152.685 266.557 152.935 267.108 152.935C267.678 152.935 268.125 152.726 268.448 152.306C268.776 151.887 268.94 151.338 268.94 150.659C268.94 149.975 268.774 149.424 268.441 149.005C268.113 148.581 267.676 148.369 267.129 148.369ZM271.579 145.805C271.579 145.208 271.768 144.716 272.146 144.329C272.529 143.941 273.019 143.748 273.616 143.748C274.222 143.748 274.712 143.944 275.086 144.336C275.464 144.723 275.653 145.227 275.653 145.846V146.332C275.653 146.933 275.462 147.426 275.079 147.808C274.701 148.187 274.218 148.376 273.63 148.376C273.037 148.376 272.548 148.187 272.16 147.808C271.773 147.426 271.579 146.917 271.579 146.284V145.805ZM272.522 146.332C272.522 146.687 272.623 146.981 272.823 147.214C273.024 147.441 273.293 147.555 273.63 147.555C273.953 147.555 274.213 147.444 274.409 147.22C274.61 146.997 274.71 146.692 274.71 146.304V145.805C274.71 145.45 274.612 145.156 274.416 144.924C274.22 144.691 273.953 144.575 273.616 144.575C273.279 144.575 273.012 144.691 272.816 144.924C272.62 145.156 272.522 145.459 272.522 145.833V146.332ZM276.426 151.404C276.426 150.807 276.615 150.317 276.993 149.934C277.376 149.547 277.866 149.353 278.463 149.353C279.06 149.353 279.55 149.545 279.933 149.927C280.315 150.31 280.507 150.818 280.507 151.452V151.937C280.507 152.534 280.315 153.026 279.933 153.414C279.554 153.797 279.069 153.988 278.477 153.988C277.884 153.988 277.394 153.799 277.007 153.421C276.619 153.038 276.426 152.53 276.426 151.896V151.404ZM277.369 151.937C277.369 152.297 277.469 152.594 277.67 152.826C277.87 153.054 278.139 153.168 278.477 153.168C278.805 153.168 279.067 153.056 279.263 152.833C279.459 152.605 279.557 152.297 279.557 151.91V151.404C279.557 151.044 279.456 150.75 279.256 150.522C279.06 150.294 278.796 150.18 278.463 150.18C278.139 150.18 277.875 150.294 277.67 150.522C277.469 150.746 277.369 151.049 277.369 151.431V151.937ZM273.917 153.093L273.199 152.641L278.06 144.862L278.777 145.313L273.917 153.093Z" fill="#BFA7C5"/>
<path d="M269.766 171.932L265.766 159.932" stroke="#BFA7C5" stroke-width="0.5"/>
<path d="M245.766 190.732L241.766 178.732" stroke="#BFA7C5" stroke-width="0.5"/>
<path d="M227.2 217.744L223.2 205.744" stroke="#BFA7C5" stroke-width="0.5"/>
<path d="M218.6 247.744L214.6 235.744" stroke="#BFA7C5" stroke-width="0.5"/>
<path d="M299.766 160.732L295.766 148.732" stroke="#BFA7C5" stroke-width="0.5"/>
<line x1="266" y1="160.094" x2="256" y2="160.094" stroke="#BFA7C5" stroke-width="0.5"/>
<line x1="242" y1="178.895" x2="232" y2="178.895" stroke="#BFA7C5" stroke-width="0.5"/>
<line x1="223.4" y1="205.895" x2="213.4" y2="205.895" stroke="#BFA7C5" stroke-width="0.5"/>
<line x1="214.8" y1="235.895" x2="204.8" y2="235.895" stroke="#BFA7C5" stroke-width="0.5"/>
<path d="M219.6 278.895H206.6" stroke="#BFA7C5" stroke-width="0.5"/>
<line x1="296" y1="148.895" x2="286" y2="148.895" stroke="#BFA7C5" stroke-width="0.5"/>
<circle cx="256" cy="160.044" r="1" fill="#BFA7C5"/>
<circle cx="232" cy="178.844" r="1" fill="#BFA7C5"/>
<circle cx="214" cy="205.844" r="1" fill="#BFA7C5"/>
<circle cx="205.2" cy="235.844" r="1" fill="#BFA7C5"/>
<circle cx="207" cy="278.844" r="1" fill="#BFA7C5"/>
<circle cx="286" cy="148.844" r="1" fill="#BFA7C5"/>
<defs>
<filter id="filter0_d" x="0" y="17" width="549" height="487" filterUnits="userSpaceOnUse" color-interpolation-filters="sRGB">
<feFlood flood-opacity="0" result="BackgroundImageFix"/>
<feColorMatrix in="SourceAlpha" type="matrix" values="0 0 0 0 0 0 0 0 0 0 0 0 0 0 0 0 0 0 127 0"/>
<feOffset dy="18"/>
<feGaussianBlur stdDeviation="20"/>
<feColorMatrix type="matrix" values="0 0 0 0 0.894118 0 0 0 0 0.839216 0 0 0 0 0.905882 0 0 0 0.46 0"/>
<feBlend mode="normal" in2="BackgroundImageFix" result="effect1_dropShadow"/>
<feBlend mode="normal" in="SourceGraphic" in2="effect1_dropShadow" result="shape"/>
</filter>
<filter id="filter1_d" x="16" y="0" width="584" height="518" filterUnits="userSpaceOnUse" color-interpolation-filters="sRGB">
<feFlood flood-opacity="0" result="BackgroundImageFix"/>
<feColorMatrix in="SourceAlpha" type="matrix" values="0 0 0 0 0 0 0 0 0 0 0 0 0 0 0 0 0 0 127 0"/>
<feOffset dy="18"/>
<feGaussianBlur stdDeviation="20"/>
<feColorMatrix type="matrix" values="0 0 0 0 0.894118 0 0 0 0 0.839216 0 0 0 0 0.905882 0 0 0 0.51 0"/>
<feBlend mode="normal" in2="BackgroundImageFix" result="effect1_dropShadow"/>
<feBlend mode="normal" in="SourceGraphic" in2="effect1_dropShadow" result="shape"/>
</filter>
</defs>
</svg>
