<svg width="86" height="86" viewBox="0 0 86 86" fill="none" xmlns="http://www.w3.org/2000/svg">
<path d="M38.1757 54.3796H32.2886L35.9908 31.6809H41.8778L38.1757 54.3796Z" fill="#005CA9"/>
<path d="M27.3116 31.6809L21.6673 47.2786L20.9997 43.9406L18.9969 33.7444C18.9969 33.7444 18.7541 31.6809 16.2051 31.6809H6.91923L6.79785 32.0451C6.79785 32.0451 9.65036 32.652 12.9884 34.6548L18.1472 54.3796H24.277L33.6842 31.6809H27.3116Z" fill="#005CA9"/>
<path d="M73.8018 54.3796H79.2034L74.4694 31.6809H69.7355C67.5506 31.6809 67.0044 33.3803 67.0044 33.3803L58.2041 54.3796H64.334L65.5478 50.9808H73.0735L73.8018 54.3796ZM67.3078 46.3076L70.4031 37.8108L72.1632 46.3076H67.3078Z" fill="#005CA9"/>
<path d="M58.629 37.1433L59.4786 32.288C59.4786 32.288 56.8689 31.3169 54.1378 31.3169C51.2246 31.3169 44.245 32.5914 44.245 38.8427C44.245 44.7297 52.4384 44.7904 52.4384 47.8857C52.4384 50.981 45.0947 50.4347 42.6671 48.4926L41.8174 53.5907C41.8174 53.5907 44.4271 54.8652 48.4935 54.8652C52.4991 54.8652 58.629 52.8017 58.629 47.0967C58.629 41.2096 50.3749 40.6634 50.3749 38.0537C50.3749 35.3832 56.1406 35.7474 58.629 37.1433Z" fill="#005CA9"/>
<path d="M20.9997 43.9406L18.9969 33.7444C18.9969 33.7444 18.7541 31.6809 16.2051 31.6809H6.91923L6.79785 32.0451C6.79785 32.0451 11.289 32.9554 15.5374 36.4755C19.6645 39.7529 20.9997 43.9406 20.9997 43.9406Z" fill="#F7A823"/>
</svg>
