<svg width="135" height="151" viewBox="0 0 135 151" fill="none" xmlns="http://www.w3.org/2000/svg">
<path d="M62.9906 69.2241C63.6061 69.0181 64.2781 69.3405 64.4986 69.9554C64.7238 70.5781 64.4005 71.2662 63.7778 71.4915C62.2978 72.0257 60.7768 72.6548 59.2572 73.3636C58.6681 73.6419 57.943 73.3847 57.6624 72.7826C57.3822 72.1815 57.6423 71.4681 58.2434 71.1878C59.8282 70.4499 61.4155 69.7922 62.9634 69.2342C62.972 69.2314 62.9811 69.2272 62.9906 69.2241ZM67.7741 67.7785C67.8064 67.7677 67.8389 67.7579 67.874 67.7493C69.592 67.3337 71.3008 67.0361 72.9532 66.8629C73.6125 66.7941 74.2034 67.2713 74.2722 67.9305C74.3409 68.5898 73.8644 69.1795 73.2036 69.2498C71.6561 69.4122 70.0532 69.6923 68.4386 70.0828C67.7946 70.2381 67.1466 69.8423 66.9902 69.1986C66.8419 68.5882 67.19 67.974 67.7741 67.7785ZM53.9247 73.4206C54.4605 73.2413 55.0648 73.462 55.3515 73.9724C55.6757 74.5504 55.4691 75.2817 54.8911 75.6059C53.5005 76.3854 52.081 77.2421 50.6742 78.1525C50.1155 78.5155 49.3738 78.3535 49.0149 77.7977C48.6547 77.2412 48.8142 76.4982 49.3697 76.1383C50.8198 75.1997 52.2829 74.3158 53.7183 73.5128C53.7853 73.4735 53.8545 73.4441 53.9247 73.4206ZM77.688 66.7813C77.8274 66.7346 77.9782 66.7126 78.1329 66.721C79.8909 66.8161 81.6244 67.0649 83.2857 67.4602C83.9307 67.6134 84.3286 68.2606 84.1753 68.9056C84.0221 69.5506 83.3723 69.9472 82.7309 69.7949C81.2091 69.432 79.6179 69.2052 78.0034 69.1169C77.3418 69.081 76.8343 68.5158 76.8693 67.8545C76.8971 67.3485 77.2347 66.9329 77.688 66.7813ZM45.5192 78.8439C46.0028 78.6821 46.553 78.8418 46.8697 79.2747C47.2599 79.8106 47.1428 80.5605 46.6072 80.9516C45.2991 81.905 43.9819 82.9193 42.6903 83.9663C42.1738 84.3827 41.4189 84.3042 41.0021 83.7898C40.5851 83.2745 40.6642 82.5183 41.1786 82.1016C42.5017 81.0293 43.8518 79.9903 45.1937 79.0119C45.2954 78.9378 45.4054 78.882 45.5192 78.8439ZM37.743 85.1429C38.184 84.9953 38.6882 85.1124 39.0188 85.4795C39.4611 85.9726 39.4199 86.7319 38.9268 87.1742C36.6841 89.1858 35.3775 90.553 35.3639 90.566C34.9081 91.0444 34.1463 91.0651 33.667 90.6065C33.1874 90.1501 33.1682 89.3899 33.6256 88.91C33.6799 88.8518 35.004 87.4671 37.3237 85.3865C37.4488 85.2751 37.5932 85.193 37.743 85.1429ZM87.3498 69.0962C87.6258 69.0038 87.936 69.0107 88.2217 69.1398C89.7803 69.8394 91.3064 70.6975 92.7552 71.69C93.3011 72.0642 93.4414 72.8112 93.0677 73.3581C92.6942 73.9059 91.9468 74.0453 91.3996 73.6705C90.0672 72.7581 88.667 71.9708 87.2388 71.3298C86.6345 71.0585 86.3634 70.3489 86.6353 69.7433C86.7794 69.4241 87.0435 69.1986 87.3498 69.0962ZM95.5762 74.6815C95.983 74.5454 96.4486 74.6321 96.7817 74.9467C97.9837 76.0809 99.1615 77.3508 100.281 78.7214C100.701 79.2348 100.625 79.9909 100.112 80.4093C99.5977 80.8292 98.8428 80.7538 98.4229 80.2395C97.3677 78.9486 96.2609 77.7551 95.1351 76.6913C94.653 76.2368 94.6306 75.4766 95.0851 74.9945C95.2257 74.8473 95.3941 74.7424 95.5762 74.6815ZM101.915 82.377C102.419 82.2082 102.994 82.3913 103.299 82.8586C104.182 84.2101 105.049 85.6676 105.871 87.1934C106.186 87.7768 105.968 88.5044 105.384 88.82C104.795 89.1394 104.073 88.916 103.758 88.3339C102.967 86.8672 102.136 85.4676 101.289 84.1733C100.926 83.6187 101.083 82.8747 101.636 82.5124C101.726 82.4528 101.82 82.4087 101.915 82.377Z" fill="#E4D6E7"/>
<path d="M107.189 76.487C107.356 76.4311 107.537 76.4116 107.724 76.4358C108.382 76.5214 108.845 77.1236 108.759 77.7808L107.322 88.7979C107.205 89.7018 106.721 90.448 105.995 90.8448C105.269 91.2406 104.379 91.2463 103.555 90.8558L93.4663 86.0874C92.8664 85.8041 92.6104 85.0894 92.8937 84.4896C93.1773 83.8906 93.8907 83.634 94.4916 83.9169L104.58 88.6853C104.741 88.7623 104.826 88.7432 104.844 88.7381C104.863 88.7276 104.92 88.6599 104.943 88.4869L106.379 77.4698C106.441 76.9989 106.767 76.6282 107.189 76.487Z" fill="#E4D6E7"/>
</svg>
