<svg width="77" height="33" viewBox="0 0 77 33" fill="none" xmlns="http://www.w3.org/2000/svg">
<g clip-path="url(#clip0)">
<path d="M12.8098 15.8701H11.5798C11.5374 15.8701 11.4967 15.8869 11.4667 15.917C11.4367 15.947 11.4198 15.9877 11.4198 16.0301V20.1001C11.4198 20.1224 11.4154 20.1445 11.4069 20.1651C11.3984 20.1858 11.3858 20.2045 11.3701 20.2203C11.3543 20.2361 11.3355 20.2486 11.3149 20.2571C11.2943 20.2657 11.2722 20.2701 11.2498 20.2701H8.75984C8.73752 20.2701 8.71541 20.2657 8.69479 20.2571C8.67416 20.2486 8.65542 20.2361 8.63964 20.2203C8.62385 20.2045 8.61133 20.1858 8.60278 20.1651C8.59424 20.1445 8.58984 20.1224 8.58984 20.1001V8.76009C8.58984 8.715 8.60775 8.67176 8.63964 8.63988C8.67152 8.608 8.71476 8.59009 8.75984 8.59009H12.8798C15.4398 8.59009 17.4498 9.52009 17.4498 12.1901C17.4498 14.8601 15.2598 15.8701 12.8098 15.8701ZM12.6398 10.8701H11.5798C11.5374 10.8701 11.4967 10.8869 11.4667 10.917C11.4367 10.947 11.4198 10.9877 11.4198 11.0301V13.4601C11.4198 13.5025 11.4367 13.5432 11.4667 13.5732C11.4967 13.6032 11.5374 13.6201 11.5798 13.6201H12.5798C13.6398 13.6201 14.5798 13.3101 14.5798 12.2001C14.5798 11.0901 13.6598 10.8701 12.6498 10.8701H12.6398Z" fill="#202020"/>
<path d="M28.3598 20.1701L27.5298 18.0801C27.5178 18.0503 27.497 18.0248 27.4703 18.007C27.4435 17.9891 27.412 17.9798 27.3798 17.9801H23.0798C23.0477 17.9798 23.0162 17.9891 22.9894 18.007C22.9627 18.0248 22.9419 18.0503 22.9298 18.0801L22.1498 20.1701C22.1378 20.1999 22.117 20.2254 22.0903 20.2432C22.0635 20.2611 22.032 20.2704 21.9998 20.2701H19.2798C19.2535 20.2704 19.2275 20.2641 19.2041 20.252C19.1808 20.2398 19.1608 20.222 19.146 20.2002C19.1311 20.1785 19.1219 20.1534 19.1191 20.1272C19.1163 20.101 19.12 20.0745 19.1298 20.0501L23.8998 8.6901C23.9119 8.66028 23.9327 8.6348 23.9594 8.61696C23.9862 8.59912 24.0177 8.58976 24.0498 8.5901H26.5798C26.612 8.58976 26.6435 8.59912 26.6703 8.61696C26.697 8.6348 26.7178 8.66028 26.7298 8.6901L31.4498 20.0601C31.4597 20.0845 31.4634 20.111 31.4606 20.1372C31.4578 20.1634 31.4486 20.1885 31.4337 20.2102C31.4189 20.232 31.3989 20.2498 31.3755 20.262C31.3522 20.2741 31.3262 20.2804 31.2998 20.2801H28.5098C28.4765 20.2797 28.4441 20.2689 28.4172 20.2491C28.3903 20.2294 28.3703 20.2018 28.3598 20.1701ZM25.1098 12.1101L23.8598 15.5001C23.852 15.524 23.8499 15.5494 23.8537 15.5742C23.8574 15.5991 23.867 15.6227 23.8816 15.6431C23.8962 15.6636 23.9155 15.6803 23.9377 15.6919C23.96 15.7036 23.9847 15.7098 24.0098 15.7101H26.4898C26.515 15.7098 26.5397 15.7036 26.562 15.6919C26.5842 15.6803 26.6034 15.6636 26.6181 15.6431C26.6327 15.6227 26.6423 15.5991 26.646 15.5742C26.6498 15.5494 26.6477 15.524 26.6398 15.5001L25.4098 12.1101C25.3975 12.0798 25.3762 12.054 25.3487 12.0363C25.3213 12.0185 25.289 12.0095 25.2564 12.0106C25.2237 12.0117 25.1921 12.0228 25.1659 12.0424C25.1397 12.0619 25.1201 12.0891 25.1098 12.1201V12.1101Z" fill="#202020"/>
<path d="M41.8198 20.2001L39.4498 16.3701C39.4353 16.3474 39.4154 16.3287 39.3918 16.3157C39.3682 16.3028 39.3417 16.296 39.3148 16.296C39.2879 16.296 39.2614 16.3028 39.2378 16.3157C39.2142 16.3287 39.1942 16.3474 39.1798 16.3701L36.8998 20.2001C36.8856 20.2246 36.8652 20.245 36.8406 20.259C36.816 20.2731 36.7881 20.2803 36.7598 20.2801H33.7598C33.7309 20.2797 33.7026 20.2715 33.678 20.2563C33.6535 20.2411 33.6334 20.2196 33.6201 20.1939C33.6068 20.1683 33.6006 20.1395 33.6023 20.1107C33.604 20.0818 33.6135 20.054 33.6298 20.0301L37.4998 14.1901C37.5178 14.1636 37.5275 14.1322 37.5275 14.1001C37.5275 14.068 37.5178 14.0366 37.4998 14.0101L33.9998 8.84009C33.9835 8.81621 33.974 8.78836 33.9723 8.75951C33.9706 8.73067 33.9768 8.7019 33.9901 8.67626C34.0034 8.65062 34.0235 8.62908 34.048 8.6139C34.0726 8.59873 34.1009 8.59051 34.1298 8.59009H37.1298C37.1581 8.58984 37.186 8.59711 37.2106 8.61117C37.2352 8.62522 37.2556 8.64556 37.2698 8.67009L39.2698 11.9901C39.2842 12.0128 39.3042 12.0315 39.3278 12.0445C39.3514 12.0574 39.3779 12.0642 39.4048 12.0642C39.4317 12.0642 39.4582 12.0574 39.4818 12.0445C39.5054 12.0315 39.5253 12.0128 39.5398 11.9901L41.5398 8.67009C41.5539 8.64556 41.5744 8.62522 41.599 8.61117C41.6236 8.59711 41.6514 8.58984 41.6798 8.59009H44.5698C44.5987 8.59051 44.6269 8.59873 44.6515 8.6139C44.6761 8.62908 44.6961 8.65062 44.7095 8.67626C44.7228 8.7019 44.7289 8.73067 44.7272 8.75951C44.7255 8.78836 44.716 8.81621 44.6998 8.84009L41.1898 14.0001C41.1717 14.0266 41.1621 14.058 41.1621 14.0901C41.1621 14.1222 41.1717 14.1536 41.1898 14.1801L45.1898 20.0101C45.206 20.034 45.2155 20.0618 45.2172 20.0907C45.2189 20.1195 45.2128 20.1483 45.1995 20.1739C45.1861 20.1996 45.1661 20.2211 45.1415 20.2363C45.1169 20.2515 45.0887 20.2597 45.0598 20.2601H41.9998C41.9673 20.2706 41.9323 20.2704 41.8999 20.2597C41.8675 20.2489 41.8395 20.228 41.8198 20.2001Z" fill="#202020"/>
<path d="M53.6099 20.5901C50.5399 20.5901 48.6099 18.6701 48.6099 15.8701V8.75006C48.6099 8.70763 48.6267 8.66693 48.6567 8.63693C48.6867 8.60692 48.7274 8.59006 48.7699 8.59006H51.2499C51.2923 8.59006 51.333 8.60692 51.363 8.63693C51.393 8.66693 51.4099 8.70763 51.4099 8.75006V15.6301C51.3896 15.9308 51.4312 16.2324 51.5324 16.5164C51.6335 16.8003 51.7919 17.0604 51.9977 17.2806C52.2035 17.5008 52.4523 17.6763 52.7288 17.7964C53.0053 17.9164 53.3035 17.9783 53.6049 17.9783C53.9063 17.9783 54.2044 17.9164 54.4809 17.7964C54.7574 17.6763 55.0062 17.5008 55.2121 17.2806C55.4179 17.0604 55.5762 16.8003 55.6774 16.5164C55.7785 16.2324 55.8202 15.9308 55.7999 15.6301V8.75006C55.7991 8.72522 55.8041 8.70053 55.8145 8.67796C55.8249 8.65539 55.8404 8.63555 55.8598 8.62002C55.8792 8.60449 55.902 8.5937 55.9263 8.5885C55.9506 8.5833 55.9758 8.58384 55.9999 8.59006H58.4999C58.5423 8.59006 58.583 8.60692 58.613 8.63693C58.643 8.66693 58.6599 8.70763 58.6599 8.75006V15.8701C58.6399 18.6701 56.6599 20.5901 53.6099 20.5901Z" fill="#202020"/>
<path d="M74 20.2701C73.9549 20.2701 73.9117 20.2522 73.8798 20.2203C73.8479 20.1884 73.83 20.1452 73.83 20.1001L73.9 12.0001L70.9 20.1601C70.8877 20.1926 70.8658 20.2205 70.8372 20.2402C70.8086 20.2598 70.7747 20.2703 70.74 20.2701H69C68.9653 20.2703 68.9313 20.2598 68.9027 20.2402C68.8741 20.2205 68.8522 20.1926 68.84 20.1601L65.88 12.0001L65.94 20.1001C65.94 20.1224 65.9356 20.1445 65.927 20.1651C65.9185 20.1858 65.906 20.2045 65.8902 20.2203C65.8744 20.2361 65.8557 20.2486 65.835 20.2571C65.8144 20.2657 65.7923 20.2701 65.77 20.2701H63.4C63.3777 20.2701 63.3556 20.2657 63.3349 20.2571C63.3143 20.2486 63.2956 20.2361 63.2798 20.2203C63.264 20.2045 63.2515 20.1858 63.2429 20.1651C63.2344 20.1445 63.23 20.1224 63.23 20.1001V8.76009C63.23 8.715 63.2479 8.67176 63.2798 8.63988C63.3117 8.608 63.3549 8.59009 63.4 8.59009H67.12C67.1547 8.5899 67.1886 8.60034 67.2172 8.62C67.2458 8.63966 67.2677 8.66761 67.28 8.70009L69.9 16.0801H70L72.5 8.70009C72.5122 8.66761 72.5341 8.63966 72.5627 8.62C72.5913 8.60034 72.6253 8.5899 72.66 8.59009H76.45C76.4951 8.59009 76.5383 8.608 76.5702 8.63988C76.6021 8.67176 76.62 8.715 76.62 8.76009V20.1101C76.62 20.1552 76.6021 20.1984 76.5702 20.2303C76.5383 20.2622 76.4951 20.2801 76.45 20.2801L74 20.2701Z" fill="#202020"/>
<path d="M0 10H3.05C3.06309 8.16079 3.79952 6.40063 5.10008 5.10008C6.40063 3.79952 8.16079 3.06309 10 3.05V0C7.34784 0 4.8043 1.05357 2.92893 2.92893C1.05357 4.8043 0 7.34784 0 10H0Z" fill="#FF5252"/>
<path opacity="0.33" d="M8.58984 26.6501H10.0498C11.0498 26.6501 11.7398 27.0101 11.7398 27.9501C11.7398 28.8901 10.9998 29.2701 9.99984 29.2701H9.38984V31.1201H8.58984V26.6501ZM9.93984 28.6501C10.4598 28.6501 10.9398 28.5201 10.9398 27.9901C10.9398 27.4601 10.4698 27.3601 9.93984 27.3601H9.38984V28.6001L9.93984 28.6501Z" fill="#202020"/>
<path opacity="0.33" d="M14.4198 30.7402C14.315 30.8902 14.1737 31.0112 14.0093 31.0916C13.8449 31.1721 13.6627 31.2095 13.4798 31.2002C13.3422 31.2198 13.202 31.2105 13.0681 31.1729C12.9342 31.1353 12.8097 31.0702 12.7024 30.9817C12.5951 30.8933 12.5075 30.7834 12.4451 30.6592C12.3826 30.5349 12.3468 30.399 12.3398 30.2602C12.3398 29.3502 13.4798 29.2602 14.4298 29.2602V29.1802C14.4298 28.8102 14.1098 28.6202 13.7298 28.6202C13.4187 28.6267 13.1217 28.7519 12.8998 28.9702L12.5098 28.5102C12.8562 28.1899 13.3082 28.0084 13.7798 28.0002C13.9572 27.9735 14.1383 27.9876 14.3094 28.0414C14.4805 28.0953 14.637 28.1874 14.7672 28.3108C14.8973 28.4342 14.9976 28.5856 15.0605 28.7536C15.1233 28.9216 15.147 29.1017 15.1298 29.2802V31.1302H14.4198V30.7402ZM14.4198 29.7402H14.2498C13.7698 29.7402 13.0898 29.8002 13.0898 30.2502C13.0898 30.5402 13.3598 30.6302 13.6198 30.6302C13.7262 30.6425 13.8339 30.631 13.9352 30.5964C14.0365 30.5619 14.1288 30.5052 14.2054 30.4305C14.282 30.3558 14.341 30.2649 14.3781 30.1645C14.4152 30.0642 14.4295 29.9568 14.4198 29.8502V29.7402Z" fill="#202020"/>
<path opacity="0.33" d="M16 28.0901H16.84L17.69 30.3001L18.44 28.0901H19.23L17.79 31.7801C17.7352 32.0393 17.5887 32.27 17.3774 32.4298C17.1662 32.5896 16.9043 32.6679 16.64 32.6501C16.5104 32.6651 16.3796 32.6651 16.25 32.6501L16.31 31.9901C16.4029 32.0032 16.4971 32.0032 16.59 31.9901C16.91 31.9901 17 31.8301 17.13 31.5101L17.28 31.1201L16 28.0901Z" fill="#202020"/>
<path opacity="0.33" d="M21.79 26.6501H22.66L23.53 29.9401L24.53 26.6501H25.35L26.35 29.9401L27.24 26.6501H28.09L26.78 31.1301H26L24.95 27.7701L23.9 31.1301H23.1L21.79 26.6501Z" fill="#202020"/>
<path opacity="0.33" d="M29.4297 26.6002C29.5197 26.6041 29.6066 26.6344 29.6796 26.6873C29.7526 26.7401 29.8084 26.8133 29.8402 26.8976C29.8719 26.9819 29.8782 27.0737 29.8583 27.1616C29.8384 27.2495 29.793 27.3295 29.728 27.3919C29.6629 27.4542 29.581 27.4961 29.4923 27.5123C29.4037 27.5285 29.3123 27.5183 29.2294 27.4829C29.1465 27.4476 29.0758 27.3887 29.0261 27.3136C28.9763 27.2384 28.9498 27.1503 28.9497 27.0602C28.951 26.9985 28.9645 26.9376 28.9893 26.8811C29.0141 26.8246 29.0498 26.7735 29.0944 26.7308C29.139 26.688 29.1915 26.6545 29.2491 26.6321C29.3066 26.6097 29.368 26.5989 29.4297 26.6002ZM29.0597 28.0902H29.8197V31.0902H29.0597V28.0902Z" fill="#202020"/>
<path opacity="0.33" d="M30.7798 28.7002V28.0902H31.3098V27.2102H32.0598V28.0902H32.8198V28.7002H32.0598V30.1102C32.0598 30.3802 32.1198 30.5802 32.4598 30.5802C32.5695 30.5826 32.6784 30.5622 32.7798 30.5202V31.1202C32.6154 31.1748 32.443 31.2019 32.2698 31.2002C31.4698 31.2002 31.2698 30.7102 31.2698 30.1202V28.7002H30.7798Z" fill="#202020"/>
<path opacity="0.33" d="M36.6599 29.2301V31.1301H35.8999V29.4601C35.8999 29.1001 35.8199 28.6601 35.3399 28.6601C35.2373 28.6623 35.1362 28.6857 35.0432 28.7291C34.9502 28.7724 34.8672 28.8346 34.7994 28.9117C34.7317 28.9888 34.6808 29.0791 34.6499 29.177C34.619 29.2749 34.6087 29.3781 34.6199 29.4801V31.1401H33.8599V26.3401H34.6199V28.5101C34.7099 28.3496 34.8425 28.217 35.0031 28.127C35.1637 28.037 35.3459 27.9931 35.5299 28.0001C35.688 27.9963 35.8451 28.0264 35.9906 28.0882C36.1362 28.1501 36.2668 28.2423 36.3738 28.3588C36.4808 28.4753 36.5617 28.6133 36.611 28.7635C36.6604 28.9138 36.677 29.0729 36.6599 29.2301Z" fill="#202020"/>
<path opacity="0.33" d="M40.1299 26.6501H43.1299V27.3501H40.9199V28.4901H42.9999V29.1601H40.9199V30.4301H43.2099V31.1401H40.1299V26.6501Z" fill="#202020"/>
<path opacity="0.33" d="M46.3197 30.74C46.2149 30.89 46.0736 31.011 45.9092 31.0915C45.7448 31.1719 45.5626 31.2093 45.3797 31.2C45.2421 31.2196 45.1019 31.2103 44.968 31.1727C44.8341 31.1351 44.7096 31.07 44.6023 30.9816C44.495 30.8931 44.4074 30.7832 44.345 30.659C44.2825 30.5348 44.2467 30.3989 44.2397 30.26C44.2397 29.35 45.3797 29.26 46.3297 29.26V29.18C46.3297 28.81 46.0097 28.62 45.6297 28.62C45.3186 28.6265 45.0216 28.7517 44.7997 28.97L44.4097 28.51C44.7535 28.192 45.2016 28.0107 45.6697 28C45.8456 27.9767 46.0244 27.9933 46.1929 28.0486C46.3615 28.1039 46.5154 28.1965 46.6432 28.3195C46.771 28.4425 46.8694 28.5928 46.9311 28.759C46.9929 28.9253 47.0163 29.1034 46.9997 29.28V31.13H46.2897L46.3197 30.74ZM46.3197 29.74H46.1497C45.6697 29.74 44.9897 29.8 44.9897 30.25C44.9897 30.54 45.2597 30.63 45.5197 30.63C45.6261 30.6423 45.7338 30.6308 45.8351 30.5962C45.9364 30.5617 46.0287 30.505 46.1053 30.4303C46.1819 30.3556 46.2409 30.2647 46.278 30.1644C46.3151 30.064 46.3294 29.9566 46.3197 29.85V29.74Z" fill="#202020"/>
<path opacity="0.33" d="M50.0598 28.9002C49.9812 28.7996 49.8812 28.7179 49.767 28.6608C49.6528 28.6037 49.5274 28.5728 49.3998 28.5702C49.1598 28.5702 48.9098 28.6602 48.9098 28.9002C48.9098 29.1402 49.1398 29.2002 49.5698 29.3002C49.9998 29.4002 50.5698 29.6102 50.5698 30.2102C50.5698 30.8102 49.9698 31.2102 49.2998 31.2102C49.0685 31.2158 48.8384 31.1743 48.6235 31.0884C48.4087 31.0024 48.2135 30.8738 48.0498 30.7102L48.5498 30.2402C48.6429 30.358 48.7614 30.4534 48.8964 30.5192C49.0315 30.585 49.1796 30.6195 49.3298 30.6202C49.5498 30.6202 49.8198 30.5302 49.8198 30.2602C49.8198 29.9902 49.5898 29.9302 49.1198 29.8202C48.6498 29.7102 48.2198 29.5302 48.2198 28.9602C48.2198 28.3902 48.8298 27.9602 49.4298 27.9602C49.6418 27.95 49.8534 27.9859 50.0502 28.0653C50.247 28.1447 50.4242 28.2658 50.5698 28.4202L50.0598 28.9002Z" fill="#202020"/>
<path opacity="0.33" d="M54.5697 29.85H52.2597C52.2846 30.0612 52.3878 30.2554 52.5488 30.3942C52.7099 30.533 52.9171 30.6065 53.1297 30.6C53.2851 30.608 53.4401 30.5764 53.58 30.5082C53.7199 30.44 53.8402 30.3374 53.9297 30.21L54.4397 30.62C54.2252 30.8802 53.9367 31.0689 53.6124 31.161C53.2881 31.2531 52.9434 31.2443 52.6242 31.1357C52.305 31.0272 52.0265 30.824 51.8256 30.5532C51.6247 30.2825 51.511 29.957 51.4997 29.62C51.4898 29.4055 51.5246 29.1913 51.6019 28.9909C51.6792 28.7906 51.7973 28.6085 51.9486 28.4562C52.1 28.3039 52.2814 28.1847 52.4812 28.1061C52.6811 28.0276 52.8951 27.9915 53.1097 28C53.3203 27.9933 53.5299 28.033 53.7235 28.1162C53.9172 28.1994 54.0902 28.324 54.2304 28.4814C54.3706 28.6387 54.4745 28.825 54.5349 29.0269C54.5952 29.2288 54.6105 29.4415 54.5797 29.65C54.5797 29.72 54.5797 29.78 54.5697 29.85ZM53.8197 29.31C53.827 29.2131 53.8135 29.1158 53.78 29.0246C53.7466 28.9334 53.694 28.8504 53.6258 28.7812C53.5575 28.712 53.4753 28.6583 53.3845 28.6236C53.2938 28.5889 53.1967 28.574 53.0997 28.58C52.8929 28.5713 52.6907 28.6422 52.5345 28.7779C52.3783 28.9137 52.2799 29.104 52.2597 29.31H53.8197Z" fill="#202020"/>
</g>
<defs>
<clipPath id="clip0">
<rect width="76.59" height="32.65" fill="white"/>
</clipPath>
</defs>
</svg>
