<svg width="64" height="50" viewBox="0 0 64 50" fill="none" xmlns="http://www.w3.org/2000/svg">
<path d="M11.6351 49.7516V46.4422C11.6351 45.1736 10.8668 44.3462 9.54962 44.3462C8.89104 44.3462 8.17759 44.5669 7.68366 45.2839C7.29949 44.6772 6.75068 44.3462 5.92746 44.3462C5.37865 44.3462 4.82984 44.5117 4.39079 45.1184V44.4566H3.23828V49.7516H4.39079V46.8283C4.39079 45.8906 4.88472 45.4494 5.65305 45.4494C6.42139 45.4494 6.80556 45.9458 6.80556 46.8283V49.7516H7.95806V46.8283C7.95806 45.8906 8.50688 45.4494 9.22033 45.4494C9.98867 45.4494 10.3728 45.9458 10.3728 46.8283V49.7516H11.6351ZM28.7032 44.4566H26.8372V42.857H25.6847V44.4566H24.6419V45.5045H25.6847V47.9315C25.6847 49.1449 26.1786 49.8619 27.4958 49.8619C27.9897 49.8619 28.5385 49.6965 28.9227 49.4758L28.5934 48.483C28.2641 48.7036 27.8799 48.7588 27.6055 48.7588C27.0567 48.7588 26.8372 48.4279 26.8372 47.8763V45.5045H28.7032V44.4566ZM38.472 44.3462C37.8134 44.3462 37.3744 44.6772 37.1 45.1184V44.4566H35.9475V49.7516H37.1V46.7732C37.1 45.8906 37.4841 45.3942 38.1976 45.3942C38.4171 45.3942 38.6915 45.4494 38.9111 45.5045L39.2403 44.4014C39.0208 44.3462 38.6915 44.3462 38.472 44.3462ZM23.709 44.8978C23.1602 44.5117 22.3918 44.3462 21.5686 44.3462C20.2514 44.3462 19.3734 45.0081 19.3734 46.0561C19.3734 46.9386 20.0319 47.435 21.1844 47.6005L21.7332 47.6557C22.3369 47.766 22.6662 47.9315 22.6662 48.2072C22.6662 48.5933 22.2272 48.8691 21.4588 48.8691C20.6905 48.8691 20.0868 48.5933 19.7026 48.3175L19.1538 49.2001C19.7575 49.6413 20.5807 49.8619 21.404 49.8619C22.9406 49.8619 23.8187 49.1449 23.8187 48.1521C23.8187 47.2144 23.1053 46.718 22.0076 46.5525L21.4588 46.4974C20.9649 46.4422 20.5807 46.3319 20.5807 46.001C20.5807 45.6149 20.9649 45.3942 21.5686 45.3942C22.2272 45.3942 22.8857 45.67 23.215 45.8355L23.709 44.8978ZM54.3327 44.3462C53.6741 44.3462 53.235 44.6772 52.9606 45.1184V44.4566H51.8081V49.7516H52.9606V46.7732C52.9606 45.8906 53.3448 45.3942 54.0583 45.3942C54.2778 45.3942 54.5522 45.4494 54.7717 45.5045L55.101 44.4014C54.8815 44.3462 54.5522 44.3462 54.3327 44.3462ZM39.6245 47.1041C39.6245 48.7036 40.7221 49.8619 42.4235 49.8619C43.1918 49.8619 43.7406 49.6965 44.2894 49.2552L43.7406 48.3175C43.3015 48.6485 42.8625 48.814 42.3686 48.814C41.4356 48.814 40.777 48.1521 40.777 47.1041C40.777 46.1113 41.4356 45.4494 42.3686 45.3942C42.8625 45.3942 43.3015 45.5597 43.7406 45.8906L44.2894 44.953C43.7406 44.5117 43.1918 44.3462 42.4235 44.3462C40.7221 44.3462 39.6245 45.5045 39.6245 47.1041ZM50.2715 47.1041V44.4566H49.119V45.1184C48.7348 44.622 48.186 44.3462 47.4725 44.3462C45.9907 44.3462 44.8382 45.5045 44.8382 47.1041C44.8382 48.7036 45.9907 49.8619 47.4725 49.8619C48.2409 49.8619 48.7897 49.5862 49.119 49.0897V49.7516H50.2715V47.1041ZM46.0456 47.1041C46.0456 46.1664 46.6493 45.3942 47.6372 45.3942C48.5701 45.3942 49.2287 46.1113 49.2287 47.1041C49.2287 48.0418 48.5701 48.814 47.6372 48.814C46.6493 48.7588 46.0456 48.0418 46.0456 47.1041ZM32.2704 44.3462C30.7338 44.3462 29.6361 45.4494 29.6361 47.1041C29.6361 48.7588 30.7338 49.8619 32.3253 49.8619C33.0936 49.8619 33.862 49.6413 34.4657 49.1449L33.9169 48.3175C33.4778 48.6485 32.929 48.8691 32.3802 48.8691C31.6667 48.8691 30.9533 48.5382 30.7886 47.6005H34.6852V47.1593C34.7401 45.4494 33.7522 44.3462 32.2704 44.3462ZM32.2704 45.3391C32.9839 45.3391 33.4778 45.7803 33.5876 46.6077H30.8435C30.9533 45.8906 31.4472 45.3391 32.2704 45.3391ZM60.8635 47.1041V42.3606H59.711V45.1184C59.3269 44.622 58.778 44.3462 58.0646 44.3462C56.5828 44.3462 55.4303 45.5045 55.4303 47.1041C55.4303 48.7036 56.5828 49.8619 58.0646 49.8619C58.8329 49.8619 59.3817 49.5862 59.711 49.0897V49.7516H60.8635V47.1041ZM56.6377 47.1041C56.6377 46.1664 57.2414 45.3942 58.2292 45.3942C59.1622 45.3942 59.8208 46.1113 59.8208 47.1041C59.8208 48.0418 59.1622 48.814 58.2292 48.814C57.2414 48.7588 56.6377 48.0418 56.6377 47.1041ZM18.1111 47.1041V44.4566H16.9586V45.1184C16.5744 44.622 16.0256 44.3462 15.3121 44.3462C13.8304 44.3462 12.6778 45.5045 12.6778 47.1041C12.6778 48.7036 13.8304 49.8619 15.3121 49.8619C16.0805 49.8619 16.6293 49.5862 16.9586 49.0897V49.7516H18.1111V47.1041ZM13.8304 47.1041C13.8304 46.1664 14.434 45.3942 15.4219 45.3942C16.3549 45.3942 17.0135 46.1113 17.0135 47.1041C17.0135 48.0418 16.3549 48.814 15.4219 48.814C14.434 48.7588 13.8304 48.0418 13.8304 47.1041Z" fill="black"/>
<path d="M40.6118 4.24707H23.3242V35.4659H40.6118V4.24707Z" fill="#FF5F00"/>
<path d="M24.4221 19.8565C24.4221 13.5135 27.3857 7.88745 31.9409 4.24709C28.5931 1.59955 24.3672 0 19.7572 0C8.83587 0 0 8.88027 0 19.8565C0 30.8327 8.83587 39.713 19.7572 39.713C24.3672 39.713 28.5931 38.1135 31.9409 35.4659C27.3857 31.8807 24.4221 26.1996 24.4221 19.8565Z" fill="#EB001B"/>
<path d="M63.9374 19.8565C63.9374 30.8327 55.1016 39.713 44.1802 39.713C39.5702 39.713 35.3443 38.1135 31.9966 35.4659C36.6066 31.8256 39.5153 26.1996 39.5153 19.8565C39.5153 13.5135 36.5517 7.88745 31.9966 4.24709C35.3443 1.59955 39.5702 0 44.1802 0C55.1016 0 63.9374 8.93543 63.9374 19.8565Z" fill="#F79E1B"/>
</svg>
