<svg width="142" height="46" viewBox="0 0 142 46" fill="none" xmlns="http://www.w3.org/2000/svg">
<path d="M112.695 36.5488V19.6181C112.695 16.8128 112.056 14.303 109.792 12.0387C108.364 10.6113 105.953 9.77469 103.443 9.77469C100.391 9.77469 98.275 10.5621 95.9618 12.5799C94.2386 10.6113 92.1227 9.77469 89.5139 9.77469C87.3978 9.77469 84.9863 10.6113 83.3622 12.2353V10.0702H75.4875V36.5488H83.5587V20.7011C83.5587 17.6494 85.7247 17.0592 86.8069 17.0592C87.8898 17.0592 90.0558 17.6494 90.0558 20.7011V36.5488H98.1269V20.7011C98.1269 17.6494 100.293 17.0592 101.375 17.0592C102.458 17.0592 104.624 17.6494 104.624 20.7011V36.5488H112.695Z" fill="#BA90C2"/>
<path fill-rule="evenodd" clip-rule="evenodd" d="M126.919 20.7041L123.465 10.0703H115L123.064 31.7925L126.919 20.7041Z" fill="#BA90C2"/>
<path d="M141.111 10.0703H132.646C130.112 17.3607 127.64 24.7057 125.047 31.9704C123.348 36.1167 120.853 37.6309 118.563 37.6941L118.613 45.4953C126.999 45.4104 130.814 39.2023 133.023 32.0656L141.111 10.0704V10.0703Z" fill="#BA90C2"/>
<path fill-rule="evenodd" clip-rule="evenodd" d="M70.4761 16.339V10.1376H66.0463V8.41551C66.0463 7.38116 66.5881 6.79137 67.6706 6.79137H70.476V0.00012207H66.1944C60.341 0.00012207 57.9747 4.1858 57.9747 7.82501V10.1377H55.5634V16.3391H57.9747V36.549H66.0462V16.3391H70.476L70.4761 16.339Z" fill="#BA90C2"/>
<path fill-rule="evenodd" clip-rule="evenodd" d="M22.5378 10.0643L30.8614 10.0458L30.8641 22.7493C28.7746 16.053 27.2475 12.9312 22.5378 10.0643Z" fill="#BA90C2"/>
<path fill-rule="evenodd" clip-rule="evenodd" d="M30.8403 36.516L23.2477 36.4864C22.7797 31.2667 22.2769 28.0506 20.7398 23.8975C18.9172 19.4788 16.2535 17.9225 13.8425 17.9185C9.46115 17.9118 6.0514 23.4355 9.75002 27.6773C11.0579 28.9309 12.5696 29.4366 14.0271 29.3883C17.0324 29.2859 18.8035 27.2865 19.4995 25.1216C20.3172 28.0492 21.2819 31.4012 21.4933 35.294C14.2778 39.8727 6.41508 36.8509 2.63822 31.7886C0.791494 29.2187 -0.569083 25.3455 0.237222 20.9833C1.49152 14.1993 7.70015 9.6427 14.126 9.77448C17.9678 9.85384 22.0462 11.3986 25.1746 15.5376C26.8072 17.6986 28.0615 20.7115 29.1494 24.2855C29.9129 26.7914 30.9808 33.7235 30.8403 36.516Z" fill="#BA90C2"/>
<path fill-rule="evenodd" clip-rule="evenodd" d="M50.6774 16.339V10.1376H46.2477V8.41551C46.2477 7.38116 46.7894 6.79137 47.8719 6.79137H50.6773V0.00012207H46.3957C40.5424 0.00012207 38.176 4.1858 38.176 7.82501V10.1377H35.7648V16.3391H38.176V36.549H46.2475V16.3391H50.6773L50.6774 16.339Z" fill="#BA90C2"/>
</svg>
