<svg width="1440" height="651" viewBox="0 0 1440 740" fill="none" xmlns="http://www.w3.org/2000/svg">
<path d="M78 621C8.39999 598.6 -92 610.5 -122.5 621L-178.5 644L-179 6.5H1544V406C1531.5 440 1479.09 514.784 1352 529C1204.5 545.5 1165 493 1031.5 481.5C917.5 471.68 945.5 527.5 766.5 558.5C587.5 589.5 537 555.5 424 629.5C311 703.5 165 649 78 621Z" fill="url(#paint0_linear)" fill-opacity="0.3"/>
<path d="M71 615.5C1.39999 593.1 -78 623.588 -106.5 630.5C-114.591 633.458 -128.774 634.869 -142.013 635.525C-187.082 638.358 -233 630.5 -233 630.5L-218 0H1544V384C1531.5 418 1479.09 490.284 1352 504.5C1204.5 521 1184.5 491.5 1051 480C937 470.18 931.5 533.5 752.5 564.5C573.5 595.5 537 533.5 424 607.5C311 681.5 158 643.5 71 615.5Z" fill="url(#paint1_linear)"/>
<g opacity="0.7">
<path d="M1188.56 425.22L1212.95 447.616C1213.08 447.741 1213.08 447.928 1212.95 448.115C1212.83 448.24 1212.64 448.24 1212.45 448.178L1187.31 426.655C1186.94 426.343 1186.88 425.719 1187.25 425.345C1187.63 424.908 1188.19 424.908 1188.56 425.22Z" fill="url(#paint2_linear)" fill-opacity="0.7"/>
<path d="M1197.67 433.829L1212.58 447.554C1212.64 447.616 1212.64 447.741 1212.58 447.866C1212.52 447.928 1212.39 447.928 1212.27 447.866L1196.86 434.703C1196.61 434.515 1196.61 434.141 1196.8 433.892C1197.05 433.642 1197.42 433.58 1197.67 433.829Z" fill="url(#paint3_linear)" fill-opacity="0.7"/>
</g>
<g opacity="0.35">
<path opacity="0.35" d="M1289.51 252.214L1313.31 274.114C1313.41 274.214 1313.41 274.414 1313.31 274.614C1313.21 274.714 1313.01 274.714 1312.81 274.614L1288.31 253.614C1287.91 253.314 1287.91 252.714 1288.21 252.314C1288.61 251.914 1289.11 251.914 1289.51 252.214Z" fill="url(#paint4_linear)"/>
<path opacity="0.35" d="M1298.41 260.614L1313.01 274.014C1313.11 274.114 1313.11 274.214 1313.01 274.314C1312.91 274.414 1312.81 274.414 1312.71 274.314L1297.71 261.414C1297.51 261.214 1297.41 260.914 1297.61 260.614C1297.81 260.414 1298.21 260.414 1298.41 260.614Z" fill="url(#paint5_linear)"/>
</g>
<path d="M1073.51 66.2139L1097.31 88.1138C1097.41 88.2138 1097.41 88.4138 1097.31 88.6138C1097.21 88.7138 1097.01 88.7138 1096.81 88.6138L1072.31 67.6138C1071.91 67.3138 1071.91 66.7138 1072.21 66.3138C1072.61 65.9138 1073.11 65.9139 1073.51 66.2139Z" fill="url(#paint6_linear)"/>
<path d="M1082.41 74.6139L1097.01 88.0139C1097.11 88.1139 1097.11 88.2139 1097.01 88.3139C1096.91 88.4139 1096.81 88.4139 1096.71 88.3139L1081.71 75.4139C1081.51 75.2139 1081.41 74.9139 1081.61 74.6139C1081.81 74.4139 1082.21 74.3139 1082.41 74.6139Z" fill="url(#paint7_linear)"/>
<path d="M218.068 310.292L250.587 340.214C250.723 340.351 250.723 340.624 250.587 340.898C250.45 341.034 250.177 341.034 249.903 340.898L216.429 312.205C215.882 311.795 215.882 310.975 216.292 310.429C216.839 309.882 217.522 309.882 218.068 310.292Z" fill="url(#paint8_linear)" fill-opacity="0.2"/>
<path d="M230.229 321.769L250.177 340.078C250.313 340.214 250.313 340.351 250.177 340.488C250.04 340.624 249.903 340.624 249.767 340.488L229.272 322.862C228.999 322.589 228.862 322.179 229.136 321.769C229.409 321.496 229.955 321.359 230.229 321.769Z" fill="url(#paint9_linear)" fill-opacity="0.3"/>
<path d="M141.068 100.292L173.587 130.214C173.723 130.351 173.723 130.624 173.587 130.898C173.45 131.034 173.177 131.034 172.903 130.898L139.429 102.205C138.882 101.795 138.882 100.975 139.292 100.429C139.839 99.8823 140.522 99.8823 141.068 100.292Z" fill="url(#paint10_linear)" fill-opacity="0.5"/>
<path d="M153.229 111.769L173.177 130.078C173.313 130.214 173.313 130.351 173.177 130.488C173.04 130.624 172.903 130.624 172.767 130.488L152.272 112.862C151.999 112.589 151.862 112.179 152.136 111.769C152.409 111.496 152.955 111.359 153.229 111.769Z" fill="url(#paint11_linear)" fill-opacity="0.5"/>
<path d="M783.514 59.2139L807.314 81.1138C807.414 81.2138 807.414 81.4138 807.314 81.6138C807.214 81.7138 807.014 81.7138 806.814 81.6138L782.314 60.6138C781.914 60.3138 781.914 59.7138 782.214 59.3138C782.614 58.9138 783.114 58.9139 783.514 59.2139Z" fill="url(#paint12_linear)"/>
<path d="M554.514 411.214L578.314 433.114C578.414 433.214 578.414 433.414 578.314 433.614C578.214 433.714 578.014 433.714 577.814 433.614L553.314 412.614C552.914 412.314 552.914 411.714 553.214 411.314C553.614 410.914 554.114 410.914 554.514 411.214Z" fill="url(#paint13_linear)"/>
<path d="M484.909 124.189L499.509 137.589C499.609 137.689 499.609 137.789 499.509 137.889C499.409 137.989 499.309 137.989 499.209 137.889L484.209 124.989C484.009 124.789 483.909 124.489 484.109 124.189C484.309 123.989 484.709 123.889 484.909 124.189Z" fill="url(#paint14_linear)"/>
<path d="M1079.85 5.386L1081.57 7.4651L1083.92 8.24359L1082.01 9.94132L1081.09 12.4845L1079.53 10.3764L1076.99 9.46184L1079.1 7.90019L1079.85 5.386Z" fill="#FEA7AF" fill-opacity="0.5"/>
<path d="M1077.72 138.766L1078.81 140.106L1080.44 140.671L1079.1 141.757L1078.54 143.388L1077.45 142.047L1075.82 141.483L1077.16 140.397L1077.72 138.766Z" fill="#FEA7AF" fill-opacity="0.6"/>
<path d="M871.431 386.199L872.489 387.375L874.119 387.939L872.779 389.026L872.214 390.656L871.128 389.316L869.497 388.751L870.838 387.665L871.431 386.199Z" fill="#FEA7AF" fill-opacity="0.4"/>
<path d="M759.1 474.978L759.992 476.183L761.623 476.747L760.282 477.834L759.883 479.435L758.797 478.095L757.166 477.53L758.507 476.444L759.1 474.978Z" fill="#FEA7AF" fill-opacity="0.5"/>
<path opacity="0.29" d="M727.543 74.9018L728.63 76.2425L730.26 76.8068L728.92 77.8933L728.355 79.5241L727.269 78.1834L725.638 77.619L726.979 76.5326L727.543 74.9018Z" fill="white"/>
<path opacity="0.29" d="M695.74 397.522L696.797 398.698L698.428 399.262L697.087 400.349L696.523 401.98L695.437 400.639L693.806 400.075L695.146 398.988L695.74 397.522Z" fill="white"/>
<path opacity="0.29" d="M666.868 175.42L667.926 176.595L669.556 177.16L668.216 178.246L667.651 179.877L666.565 178.536L664.934 177.972L666.275 176.886L666.868 175.42Z" fill="white"/>
<path opacity="0.29" d="M870.305 108.2L871.391 109.541L872.857 110.134L871.681 111.191L871.117 112.822L870.031 111.481L868.4 110.917L869.74 109.831L870.305 108.2Z" fill="white"/>
<path opacity="0.29" d="M815.151 509.804L817.295 512.32L820.392 513.478L817.875 515.622L816.718 518.718L814.574 516.202L811.477 515.044L813.994 512.9L815.151 509.804Z" fill="#FEA7AF"/>
<path opacity="0.29" d="M665.157 55.9127L667.165 58.6231L670.427 59.7518L667.716 61.7596L666.753 64.9922L664.58 62.3108L661.347 61.3471L664.029 59.1742L665.157 55.9127Z" fill="white"/>
<path opacity="0.29" d="M1322.8 69.0122L1324.97 71.6937L1328.04 72.6863L1325.52 74.8302L1324.39 78.0917L1322.22 75.4103L1319.12 74.2526L1321.67 72.2738L1322.8 69.0122Z" fill="white"/>
<path opacity="0.29" d="M1348.01 289.04L1350.02 291.75L1353.25 292.714L1350.57 294.887L1349.61 298.119L1347.43 295.438L1344.17 294.309L1346.88 292.301L1348.01 289.04Z" fill="white"/>
<path opacity="0.29" d="M724.375 341.609L725.267 342.814L726.898 343.378L725.528 344.3L725.129 345.901L724.043 344.561L722.606 344.132L723.782 343.075L724.375 341.609Z" fill="white"/>
<path opacity="0.29" d="M1300.9 410.239L1301.99 411.58L1303.43 412.008L1302.25 413.066L1301.66 414.531L1300.77 413.327L1299.13 412.762L1300.5 411.841L1300.9 410.239Z" fill="#FEA7AF"/>
<path opacity="0.29" d="M1196.11 63.7045L1197.19 65.0452L1198.63 65.4735L1197.45 66.5309L1196.86 67.9966L1195.97 66.792L1194.34 66.2276L1195.71 65.3062L1196.11 63.7045Z" fill="#FEA7AF"/>
<path opacity="0.29" d="M1305.97 180.538L1307.03 181.714L1308.5 182.307L1307.29 183.2L1306.73 184.83L1305.81 183.461L1304.21 183.061L1305.55 181.975L1305.97 180.538Z" fill="white"/>
<path opacity="0.29" d="M1220.55 4.27355L1221.44 5.47819L1223.07 6.04254L1221.7 6.96391L1221.3 8.56565L1220.22 7.22496L1218.78 6.7967L1219.95 5.73924L1220.55 4.27355Z" fill="white"/>
<path opacity="0.29" d="M881.13 235.243L882.886 237.487L885.594 238.373L883.379 240.294L882.493 243.002L880.572 240.787L877.835 239.736L880.079 237.981L881.13 235.243Z" fill="#FEA7AF"/>
<path d="M937.94 298.979L940.53 302.098L944.345 303.47L941.197 305.895L939.825 309.71L937.4 306.562L933.614 305.355L936.733 302.765L937.94 298.979Z" fill="white" fill-opacity="0.5"/>
<path d="M1236.36 248.247L1237.25 249.452L1238.52 249.909L1237.48 250.772L1237.02 252.044L1236.16 251.004L1234.89 250.547L1235.93 249.684L1236.36 248.247Z" fill="white" fill-opacity="0.5"/>
<path d="M928.136 28.9969L929.028 30.2016L930.299 30.6588L929.26 31.5222L928.803 32.7938L927.939 31.7542L926.503 31.326L927.707 30.4336L928.136 28.9969Z" fill="white" fill-opacity="0.6"/>
<path opacity="0.33" d="M781.273 193.771L782.806 195.714L785.349 196.629L783.241 198.191L782.463 200.54L780.93 198.597L778.581 197.818L780.495 196.121L781.273 193.771Z" fill="#FEA7AF"/>
<path opacity="0.33" d="M1162.31 266.533L1163.4 267.873L1165.22 268.574L1163.72 269.689L1163.15 271.32L1162.07 269.979L1160.27 269.444L1161.75 268.163L1162.31 266.533Z" fill="#FEA7AF"/>
<path opacity="0.33" d="M1210.84 307.357L1211.95 308.862L1213.58 309.427L1212.24 310.513L1211.71 312.309L1210.43 310.832L1208.8 310.268L1210.14 309.182L1210.84 307.357Z" fill="#FEA7AF"/>
<path opacity="0.33" d="M1178.98 137.219L1180.1 138.725L1181.9 139.26L1180.39 140.376L1179.85 142.171L1178.74 140.666L1177.11 140.101L1178.45 139.015L1178.98 137.219Z" fill="#FEA7AF"/>
<path opacity="0.33" d="M1049.31 191.941L1050.43 193.447L1052.23 193.982L1050.72 195.098L1050.18 196.894L1049.07 195.388L1047.44 194.823L1048.78 193.737L1049.31 191.941Z" fill="#FEA7AF"/>
<path d="M429.163 406.603L426.815 407.942L425.641 410.12L424.301 407.941L421.956 406.598L424.303 405.426L425.645 403.081L426.817 405.428L429.163 406.603Z" fill="#FEA7AF" fill-opacity="0.5"/>
<path d="M458.131 514.789L456.622 515.626L455.783 517.134L454.946 515.625L453.438 514.786L454.947 513.949L455.786 512.441L456.623 513.95L458.131 514.789Z" fill="#FEA7AF" fill-opacity="0.4"/>
<path d="M207.541 206.684L206.199 207.353L205.36 208.861L204.523 207.352L203.015 206.681L204.524 205.844L205.363 204.336L206.2 205.845L207.541 206.684Z" fill="#FEA7AF" fill-opacity="0.7"/>
<path opacity="0.29" d="M474.237 147.344L472.728 148.181L471.889 149.689L471.052 148.18L469.544 147.341L471.053 146.504L471.891 144.996L472.729 146.505L474.237 147.344Z" fill="white"/>
<path opacity="0.29" d="M443.611 71.4005L442.27 72.2377L441.431 73.7457L440.593 72.2367L439.085 71.3978L440.594 70.5606L441.433 69.0526L442.271 70.5616L443.611 71.4005Z" fill="white"/>
<path opacity="0.29" d="M593.302 521.498L591.793 522.335L590.955 523.676L590.117 522.334L588.609 521.495L590.118 520.658L590.957 519.15L591.794 520.659L593.302 521.498Z" fill="white"/>
<path opacity="0.29" d="M342.051 334.312L339.201 335.987L337.523 338.835L335.849 335.984L333 334.307L335.851 332.632L337.529 329.784L339.203 332.634L342.051 334.312Z" fill="#FEA7AF"/>
<path opacity="0.29" d="M279.331 127.992L276.313 129.499L274.635 132.515L273.129 129.497L270.113 127.987L273.131 126.313L274.641 123.296L276.315 126.314L279.331 127.992Z" fill="white"/>
<path opacity="0.29" d="M376.672 734.576L373.654 736.25L372.144 739.099L370.47 736.248L367.454 734.57L370.472 732.896L372.149 730.048L373.656 732.898L376.672 734.576Z" fill="white"/>
<path opacity="0.29" d="M155.608 721.202L152.59 722.709L151.08 725.725L149.406 722.707L146.39 721.197L149.408 719.522L151.086 716.506L152.592 719.524L155.608 721.202Z" fill="white"/>
<path opacity="0.29" d="M72.8129 190.353L71.4716 191.022L70.6326 192.53L69.9631 191.021L68.455 190.35L69.964 189.513L70.6352 188.172L71.4725 189.514L72.8129 190.353Z" fill="white"/>
<path opacity="0.29" d="M229.197 425.925L227.856 426.594L227.017 428.102L226.347 426.593L224.839 425.922L226.348 425.085L227.02 423.745L227.857 425.086L229.197 425.925Z" fill="#FEA7AF"/>
<path opacity="0.29" d="M57.8041 353.41L56.2951 354.247L55.6239 355.588L54.7866 354.246L53.4463 353.407L54.7875 352.738L55.6265 351.23L56.296 352.739L57.8041 353.41Z" fill="#FEA7AF"/>
<path opacity="0.29" d="M403.899 610.732L402.39 611.569L401.719 612.91L400.882 611.568L399.541 610.729L400.882 610.06L401.721 608.552L402.391 610.061L403.899 610.732Z" fill="#FEA7AF"/>
<path opacity="0.29" d="M269.762 698.644L268.42 699.482L267.581 700.822L266.912 699.481L265.404 698.642L266.913 697.972L267.584 696.464L268.421 697.973L269.762 698.644Z" fill="white"/>
<path opacity="0.29" d="M458.183 645.123L456.841 645.793L456.002 647.301L455.333 645.792L453.825 645.121L455.334 644.284L456.005 642.943L456.842 644.284L458.183 645.123Z" fill="white"/>
<path opacity="0.29" d="M356.722 464.216L354.207 465.555L352.865 468.069L351.358 465.554L348.844 464.211L351.36 462.704L352.87 460.191L354.209 462.706L356.722 464.216Z" fill="#FEA7AF"/>
<path d="M215.17 618.328L213.829 618.997L213.158 620.17L212.488 618.996L211.315 618.325L212.489 617.656L213.16 616.483L213.83 617.656L215.17 618.328Z" fill="white"/>
<path d="M350.742 653.606L349.401 654.276L348.73 655.449L348.06 654.275L346.887 653.604L348.061 652.934L348.732 651.594L349.402 652.935L350.742 653.606Z" fill="white" fill-opacity="0.6"/>
<path opacity="0.33" d="M347.843 179.616L345.663 180.788L344.321 183.134L343.149 180.787L340.971 179.612L343.15 178.44L344.325 176.262L345.665 178.442L347.843 179.616Z" fill="#FEA7AF"/>
<path opacity="0.33" d="M65.5874 533.193L64.0784 534.03L63.0717 535.706L62.2346 534.029L60.7267 533.19L62.2357 532.353L63.0747 530.677L64.0794 532.354L65.5874 533.193Z" fill="#FEA7AF"/>
<path opacity="0.33" d="M161.39 582.93L159.713 583.767L158.875 585.275L158.037 583.766L156.362 582.927L158.038 581.922L158.877 580.415L159.715 581.923L161.39 582.93Z" fill="#FEA7AF"/>
<path opacity="0.33" d="M339.893 578.01L338.217 578.847L337.378 580.523L336.541 578.846L334.865 578.007L336.542 577.17L337.38 575.662L338.218 577.171L339.893 578.01Z" fill="#FEA7AF"/>
<path opacity="0.33" d="M303.1 443.903L301.424 444.74L300.585 446.416L299.748 444.739L298.072 443.9L299.749 443.063L300.588 441.555L301.425 443.064L303.1 443.903Z" fill="#FEA7AF"/>
<path opacity="0.33" d="M682.426 628.889L680.917 629.727L680.078 631.235L679.073 629.725L677.565 628.886L679.074 627.882L680.081 626.374L680.918 627.883L682.426 628.889Z" fill="#FEA7AF"/>
<circle cx="175" cy="500" r="36" fill="#8E40A1" fill-opacity="0.4"/>
<circle cx="1049.5" cy="390.5" r="23.5" fill="#8E40A1" fill-opacity="0.2"/>
<circle cx="415" cy="78.9988" r="28" fill="#8E40A2" fill-opacity="0.3"/>
<circle cx="1348.5" cy="362.5" r="23.5" fill="#8E40A2" fill-opacity="0.28"/>
<path d="M1117 335.5C1117 340.194 1113.19 344 1108.5 344C1103.81 344 1100 340.194 1100 335.5C1100 330.806 1103.81 327 1108.5 327C1113.19 327 1117 330.806 1117 335.5Z" fill="#8E40A2" fill-opacity="0.4"/>
<path d="M96 496.499C96 501.745 91.7467 505.999 86.5 505.999C81.2533 505.999 77 501.745 77 496.499C77 491.252 81.2533 486.999 86.5 486.999C91.7467 486.999 96 491.252 96 496.499Z" fill="#8E40A1" fill-opacity="0.2"/>
<path d="M60 125.499C60 130.745 55.7467 134.999 50.5 134.999C45.2533 134.999 41 130.745 41 125.499C41 120.252 45.2533 115.999 50.5 115.999C55.7467 115.999 60 120.252 60 125.499Z" fill="#8E40A1" fill-opacity="0.8"/>
<path d="M1309 69.4988C1309 74.7455 1304.75 78.9988 1299.5 78.9988C1294.25 78.9988 1290 74.7455 1290 69.4988C1290 64.2521 1294.25 59.9988 1299.5 59.9988C1304.75 59.9988 1309 64.2521 1309 69.4988Z" fill="#8E40A1" fill-opacity="0.3"/>
<path d="M169 49C169 56.732 162.732 63 155 63C147.268 63 141 56.732 141 49C141 41.268 147.268 35 155 35C162.732 35 169 41.268 169 49Z" fill="#8E40A1" fill-opacity="0.3"/>
<defs>
<linearGradient id="paint0_linear" x1="1777" y1="-306.998" x2="586.999" y2="603.002" gradientUnits="userSpaceOnUse">
<stop stop-color="#AA3E87"/>
<stop offset="0.0001" stop-color="#3B2F4E"/>
<stop offset="1" stop-color="#763187"/>
</linearGradient>
<linearGradient id="paint1_linear" x1="1777" y1="-328.993" x2="586.998" y2="581.009" gradientUnits="userSpaceOnUse">
<stop stop-color="#AA3E87"/>
<stop offset="0.0001" stop-color="#3B2F4E"/>
<stop offset="1" stop-color="#763187"/>
</linearGradient>
<linearGradient id="paint2_linear" x1="1212.93" y1="448.111" x2="1187.26" y2="425.309" gradientUnits="userSpaceOnUse">
<stop offset="0.00537634" stop-color="#FEA7AF"/>
<stop offset="0.9946" stop-color="#EA47AC" stop-opacity="0"/>
</linearGradient>
<linearGradient id="paint3_linear" x1="1212.6" y1="447.817" x2="1196.87" y2="433.844" gradientUnits="userSpaceOnUse">
<stop offset="0.00537634" stop-color="#FEA7AF"/>
<stop offset="0.9946" stop-color="#EA47AC" stop-opacity="0"/>
</linearGradient>
<linearGradient id="paint4_linear" x1="1313.32" y1="274.584" x2="1288.26" y2="252.317" gradientUnits="userSpaceOnUse">
<stop offset="0.00537634" stop-color="#FEA7AF"/>
<stop offset="0.9946" stop-color="#EA47AC" stop-opacity="0"/>
</linearGradient>
<linearGradient id="paint5_linear" x1="1313" y1="274.297" x2="1297.64" y2="260.652" gradientUnits="userSpaceOnUse">
<stop offset="0.00537634" stop-color="#FEA7AF"/>
<stop offset="0.9946" stop-color="#EA47AC" stop-opacity="0"/>
</linearGradient>
<linearGradient id="paint6_linear" x1="1097.3" y1="88.5356" x2="1072.24" y2="66.269" gradientUnits="userSpaceOnUse">
<stop offset="0.00537634" stop-color="#FEA7AF"/>
<stop offset="0.9946" stop-color="#EA47AC" stop-opacity="0"/>
</linearGradient>
<linearGradient id="paint7_linear" x1="1096.98" y1="88.2486" x2="1081.62" y2="74.6037" gradientUnits="userSpaceOnUse">
<stop offset="0.00537634" stop-color="#FEA7AF"/>
<stop offset="0.9946" stop-color="#EA47AC" stop-opacity="0"/>
</linearGradient>
<linearGradient id="paint8_linear" x1="250.573" y1="340.791" x2="216.325" y2="310.368" gradientUnits="userSpaceOnUse">
<stop offset="0.00537634" stop-color="#FEA7AF"/>
<stop offset="0.9946" stop-color="#EA47AC" stop-opacity="0"/>
</linearGradient>
<linearGradient id="paint9_linear" x1="250.132" y1="340.398" x2="229.145" y2="321.755" gradientUnits="userSpaceOnUse">
<stop offset="0.00537634" stop-color="#FEA7AF"/>
<stop offset="0.9946" stop-color="#EA47AC" stop-opacity="0"/>
</linearGradient>
<linearGradient id="paint10_linear" x1="173.573" y1="130.791" x2="139.325" y2="100.368" gradientUnits="userSpaceOnUse">
<stop offset="0.00537634" stop-color="#FEA7AF"/>
<stop offset="0.9946" stop-color="#EA47AC" stop-opacity="0"/>
</linearGradient>
<linearGradient id="paint11_linear" x1="173.132" y1="130.398" x2="152.145" y2="111.755" gradientUnits="userSpaceOnUse">
<stop offset="0.00537634" stop-color="#FEA7AF"/>
<stop offset="0.9946" stop-color="#EA47AC" stop-opacity="0"/>
</linearGradient>
<linearGradient id="paint12_linear" x1="807.304" y1="81.5356" x2="782.238" y2="59.269" gradientUnits="userSpaceOnUse">
<stop offset="0.00537634" stop-color="#FEA7AF"/>
<stop offset="0.9946" stop-color="#EA47AC" stop-opacity="0"/>
</linearGradient>
<linearGradient id="paint13_linear" x1="578.304" y1="433.536" x2="553.238" y2="411.269" gradientUnits="userSpaceOnUse">
<stop offset="0.00537634" stop-color="#FEA7AF"/>
<stop offset="0.9946" stop-color="#EA47AC" stop-opacity="0"/>
</linearGradient>
<linearGradient id="paint14_linear" x1="499.477" y1="137.824" x2="484.116" y2="124.179" gradientUnits="userSpaceOnUse">
<stop offset="0.00537634" stop-color="#FEA7AF"/>
<stop offset="0.9946" stop-color="#EA47AC" stop-opacity="0"/>
</linearGradient>
</defs>
</svg>
