<svg width="1440" height="778" viewBox="0 0 1440 778" fill="none" xmlns="http://www.w3.org/2000/svg">
<rect x="-2" y="83" width="1460" height="564" fill="#202020"/>
<path d="M1144.64 1.27533L1146.37 3.47384L1148.72 4.29704L1146.81 6.09227L1145.89 8.78151L1144.33 6.55235L1141.79 5.58525L1143.89 3.93392L1144.64 1.27533Z" fill="#FEA7AF" fill-opacity="0.5"/>
<path d="M1142.52 142.315L1143.61 143.733L1145.24 144.329L1143.9 145.478L1143.33 147.203L1142.25 145.785L1140.62 145.188L1141.96 144.039L1142.52 142.315Z" fill="#FEA7AF" fill-opacity="0.6"/>
<path d="M936.228 403.958L937.286 405.201L938.916 405.798L937.576 406.947L937.011 408.671L935.925 407.254L934.294 406.657L935.635 405.508L936.228 403.958Z" fill="#FEA7AF" fill-opacity="0.4"/>
<path d="M823.897 497.836L824.789 499.11L826.42 499.706L825.08 500.855L824.68 502.549L823.594 501.131L821.963 500.534L823.304 499.386L823.897 497.836Z" fill="#FEA7AF" fill-opacity="0.5"/>
<path opacity="0.29" d="M792.34 74.7832L793.427 76.201L795.058 76.7977L793.717 77.9466L793.153 79.671L792.066 78.2533L790.435 77.6565L791.776 76.5077L792.34 74.7832Z" fill="white"/>
<path opacity="0.29" d="M760.537 415.931L761.594 417.175L763.225 417.771L761.884 418.92L761.32 420.645L760.233 419.227L758.603 418.63L759.943 417.481L760.537 415.931Z" fill="white"/>
<path opacity="0.29" d="M731.666 181.074L732.723 182.317L734.354 182.914L733.013 184.063L732.449 185.787L731.362 184.37L729.732 183.773L731.072 182.624L731.666 181.074Z" fill="white"/>
<path opacity="0.29" d="M935.102 109.993L936.189 111.411L937.654 112.039L936.479 113.157L935.914 114.881L934.828 113.463L933.197 112.867L934.538 111.718L935.102 109.993Z" fill="white"/>
<path opacity="0.29" d="M879.948 534.661L882.092 537.322L885.189 538.546L882.672 540.813L881.515 544.087L879.371 541.427L876.274 540.202L878.791 537.935L879.948 534.661Z" fill="#FEA7AF"/>
<path opacity="0.29" d="M729.954 54.7037L731.962 57.5698L735.224 58.7633L732.513 60.8864L731.55 64.3046L729.377 61.4692L726.144 60.4502L728.826 58.1525L729.954 54.7037Z" fill="white"/>
<path opacity="0.29" d="M1387.59 68.5554L1389.77 71.3908L1392.83 72.4405L1390.32 74.7075L1389.19 78.1563L1387.02 75.3209L1383.92 74.0967L1386.46 72.0042L1387.59 68.5554Z" fill="white"/>
<path opacity="0.29" d="M1412.81 301.219L1414.82 304.085L1418.05 305.104L1415.37 307.402L1414.41 310.82L1412.23 307.985L1408.97 306.791L1411.68 304.668L1412.81 301.219Z" fill="white"/>
<path opacity="0.29" d="M789.172 356.807L790.065 358.081L791.696 358.678L790.326 359.652L789.927 361.346L788.84 359.928L787.403 359.475L788.579 358.357L789.172 356.807Z" fill="white"/>
<path opacity="0.29" d="M1365.7 429.379L1366.79 430.797L1368.22 431.249L1367.05 432.368L1366.45 433.917L1365.56 432.644L1363.93 432.047L1365.3 431.073L1365.7 429.379Z" fill="#FEA7AF"/>
<path opacity="0.29" d="M1260.9 62.9428L1261.99 64.3605L1263.43 64.8134L1262.25 65.9316L1261.66 67.4814L1260.76 66.2076L1259.13 65.6109L1260.5 64.6366L1260.9 62.9428Z" fill="#FEA7AF"/>
<path opacity="0.29" d="M1370.77 186.486L1371.83 187.729L1373.3 188.357L1372.09 189.3L1371.53 191.025L1370.6 189.576L1369 189.154L1370.34 188.005L1370.77 186.486Z" fill="white"/>
<path opacity="0.29" d="M1285.35 0.0988197L1286.24 1.37264L1287.87 1.9694L1286.5 2.94369L1286.1 4.63742L1285.01 3.21973L1283.58 2.76687L1284.75 1.64868L1285.35 0.0988197Z" fill="white"/>
<path opacity="0.29" d="M945.927 244.333L947.683 246.706L950.391 247.642L948.176 249.674L947.29 252.537L945.369 250.195L942.632 249.084L944.876 247.227L945.927 244.333Z" fill="#FEA7AF"/>
<path d="M1002.74 311.729L1005.33 315.027L1009.14 316.478L1005.99 319.042L1004.62 323.076L1002.2 319.748L998.411 318.472L1001.53 315.733L1002.74 311.729Z" fill="white" fill-opacity="0.2"/>
<path d="M1301.15 258.084L1302.05 259.357L1303.32 259.841L1302.28 260.754L1301.82 262.098L1300.96 260.999L1299.69 260.516L1300.73 259.603L1301.15 258.084Z" fill="white" fill-opacity="0.5"/>
<path d="M992.933 26.242L993.826 27.5159L995.097 27.9994L994.058 28.9124L993.6 30.257L992.737 29.1577L991.3 28.7049L992.505 27.7613L992.933 26.242Z" fill="white" fill-opacity="0.6"/>
<path opacity="0.33" d="M846.071 200.48L847.604 202.534L850.147 203.501L848.039 205.153L847.26 207.637L845.728 205.582L843.379 204.759L845.293 202.964L846.071 200.48Z" fill="#FEA7AF"/>
<path opacity="0.33" d="M1227.11 277.419L1228.2 278.837L1230.02 279.578L1228.52 280.757L1227.95 282.482L1226.86 281.064L1225.07 280.498L1226.55 279.144L1227.11 277.419Z" fill="#FEA7AF"/>
<path opacity="0.33" d="M1275.63 320.588L1276.75 322.18L1278.38 322.777L1277.04 323.926L1276.5 325.825L1275.22 324.263L1273.59 323.667L1274.93 322.518L1275.63 320.588Z" fill="#FEA7AF"/>
<path opacity="0.33" d="M1243.78 140.679L1244.9 142.271L1246.69 142.838L1245.19 144.017L1244.65 145.916L1243.54 144.324L1241.91 143.727L1243.25 142.578L1243.78 140.679Z" fill="#FEA7AF"/>
<path opacity="0.33" d="M1114.11 198.544L1115.23 200.136L1117.02 200.702L1115.52 201.882L1114.98 203.781L1113.87 202.189L1112.24 201.592L1113.58 200.443L1114.11 198.544Z" fill="#FEA7AF"/>
<path d="M493.96 425.533L491.612 426.95L490.438 429.253L489.098 426.948L486.753 425.529L489.1 424.29L490.442 421.809L491.614 424.291L493.96 425.533Z" fill="#FEA7AF" fill-opacity="0.5"/>
<path d="M522.928 539.933L521.419 540.818L520.58 542.413L519.743 540.817L518.235 539.93L519.744 539.045L520.583 537.45L521.42 539.046L522.928 539.933Z" fill="#FEA7AF" fill-opacity="0.4"/>
<path d="M272.337 214.133L270.996 214.841L270.157 216.436L269.32 214.84L267.812 214.13L269.321 213.245L270.16 211.65L270.997 213.246L272.337 214.133Z" fill="#FEA7AF" fill-opacity="0.7"/>
<path opacity="0.29" d="M539.034 151.386L537.525 152.271L536.686 153.866L535.849 152.27L534.341 151.383L535.85 150.498L536.689 148.903L537.526 150.499L539.034 151.386Z" fill="white"/>
<path opacity="0.29" d="M508.409 71.0809L507.067 71.9662L506.228 73.5608L505.391 71.9652L503.883 71.078L505.392 70.1928L506.231 68.5982L507.068 70.1939L508.409 71.0809Z" fill="white"/>
<path opacity="0.29" d="M658.1 547.027L656.591 547.913L655.752 549.33L654.915 547.911L653.407 547.024L654.916 546.139L655.755 544.544L656.592 546.14L658.1 547.027Z" fill="white"/>
<path opacity="0.29" d="M406.849 349.091L403.998 350.862L402.321 353.874L400.646 350.86L397.798 349.085L400.648 347.315L402.326 344.303L404.001 347.317L406.849 349.091Z" fill="#FEA7AF"/>
<path opacity="0.29" d="M344.129 130.923L341.111 132.516L339.433 135.705L337.927 132.514L334.91 130.917L337.928 129.147L339.439 125.957L341.113 129.149L344.129 130.923Z" fill="white"/>
<path opacity="0.29" d="M441.47 772.342L438.452 774.113L436.942 777.125L435.267 774.11L432.251 772.336L435.269 770.566L436.947 767.554L438.454 770.568L441.47 772.342Z" fill="white"/>
<path opacity="0.29" d="M220.405 758.2L217.387 759.793L215.877 762.983L214.203 759.791L211.187 758.194L214.205 756.424L215.883 753.235L217.389 756.426L220.405 758.2Z" fill="white"/>
<path opacity="0.29" d="M137.61 196.864L136.269 197.572L135.43 199.167L134.76 197.571L133.252 196.861L134.761 195.976L135.432 194.559L136.27 195.977L137.61 196.864Z" fill="white"/>
<path opacity="0.29" d="M293.995 445.965L292.654 446.673L291.815 448.268L291.145 446.672L289.637 445.962L291.146 445.077L291.817 443.66L292.654 445.078L293.995 445.965Z" fill="#FEA7AF"/>
<path opacity="0.29" d="M122.601 369.286L121.092 370.171L120.421 371.589L119.584 370.17L118.243 369.283L119.585 368.575L120.424 366.981L121.093 368.576L122.601 369.286Z" fill="#FEA7AF"/>
<path opacity="0.29" d="M468.696 641.386L467.187 642.271L466.516 643.688L465.678 642.27L464.338 641.383L465.679 640.675L466.518 639.08L467.188 640.676L468.696 641.386Z" fill="#FEA7AF"/>
<path opacity="0.29" d="M334.559 734.347L333.218 735.232L332.379 736.649L331.709 735.231L330.201 734.344L331.71 733.636L332.382 732.041L333.219 733.637L334.559 734.347Z" fill="white"/>
<path opacity="0.29" d="M522.98 677.752L521.639 678.46L520.8 680.055L520.13 678.459L518.622 677.749L520.131 676.864L520.803 675.447L521.64 676.865L522.98 677.752Z" fill="white"/>
<path opacity="0.29" d="M421.519 486.455L419.004 487.872L417.662 490.529L416.155 487.87L413.641 486.45L416.156 484.857L417.666 482.199L419.006 484.859L421.519 486.455Z" fill="#FEA7AF"/>
<path d="M279.968 649.417L278.626 650.125L277.955 651.366L277.285 650.125L276.113 649.415L277.286 648.707L277.957 647.466L278.627 648.708L279.968 649.417Z" fill="white"/>
<path d="M415.54 686.722L414.198 687.43L413.527 688.67L412.858 687.429L411.685 686.719L412.858 686.011L413.53 684.594L414.199 686.012L415.54 686.722Z" fill="white" fill-opacity="0.6"/>
<path opacity="0.33" d="M412.641 185.512L410.461 186.751L409.119 189.231L407.947 186.749L405.769 185.507L407.948 184.268L409.123 181.965L410.462 184.269L412.641 185.512Z" fill="#FEA7AF"/>
<path opacity="0.33" d="M130.385 559.394L128.876 560.279L127.87 562.051L127.032 560.278L125.525 559.391L127.034 558.505L127.873 556.734L128.877 558.507L130.385 559.394Z" fill="#FEA7AF"/>
<path opacity="0.33" d="M226.188 611.987L224.511 612.872L223.672 614.467L222.835 612.871L221.16 611.984L222.836 610.922L223.675 609.327L224.512 610.923L226.188 611.987Z" fill="#FEA7AF"/>
<path opacity="0.33" d="M404.691 606.785L403.014 607.67L402.175 609.441L401.338 607.669L399.663 606.781L401.339 605.896L402.178 604.302L403.015 605.897L404.691 606.785Z" fill="#FEA7AF"/>
<path opacity="0.33" d="M367.898 464.976L366.221 465.861L365.382 467.633L364.545 465.86L362.87 464.973L364.546 464.088L365.385 462.493L366.222 464.089L367.898 464.976Z" fill="#FEA7AF"/>
<path opacity="0.33" d="M747.223 660.586L745.714 661.471L744.875 663.066L743.87 661.47L742.362 660.583L743.871 659.52L744.878 657.926L745.715 659.521L747.223 660.586Z" fill="#FEA7AF"/>
</svg>
