<svg width="1440" height="1141" viewBox="0 0 1440 1141" fill="none" xmlns="http://www.w3.org/2000/svg">
<path d="M-100 0C-100 0 372.836 46.2665 724.045 46.2665C1075.25 46.2665 1518 0 1518 0V1140.82C1518 1140.82 1073.25 1100 722.045 1100C370.836 1100 -100 1140.82 -100 1140.82V0Z" fill="#763289"/>
<mask id="mask0" mask-type="alpha" maskUnits="userSpaceOnUse" x="-46" y="12" width="1650" height="1000">
<path d="M-45.9999 12.5237C-45.9999 12.5237 422.845 35 781 35C1139.16 35 1591.68 12.5237 1591.68 12.5237L1604 1012C1604 1012 1151.48 983.695 793.323 983.695C435.168 983.695 -46 1012 -46 1012L-45.9999 12.5237Z" fill="#773288"/>
</mask>
<g mask="url(#mask0)">
<circle cx="79" cy="679" r="125" fill="url(#paint0_linear)" fill-opacity="0.3"/>
<circle cx="1397.99" cy="190" r="87" fill="#8E40A2" fill-opacity="0.2"/>
<circle cx="1282.5" cy="817.5" r="28.5" fill="url(#paint1_linear)" fill-opacity="0.4"/>
</g>
<defs>
<linearGradient id="paint0_linear" x1="185" y1="585.5" x2="44.5" y2="679" gradientUnits="userSpaceOnUse">
<stop stop-color="#8E40A2"/>
<stop offset="1" stop-color="#8E40A2" stop-opacity="0"/>
</linearGradient>
<linearGradient id="paint1_linear" x1="1282.5" y1="789" x2="1311" y2="856.5" gradientUnits="userSpaceOnUse">
<stop stop-color="#8E40A2"/>
<stop offset="1" stop-color="#8E40A2" stop-opacity="0"/>
</linearGradient>
</defs>
</svg>
