<svg width="656" height="478" viewBox="0 0 656 478" fill="none" xmlns="http://www.w3.org/2000/svg">
<path d="M-10.1905 76.2608C21.043 87.7473 81.5791 115.714 196.518 69.7684C311.457 23.8225 400.531 33.5824 446.386 60.7789C495.224 89.7447 531 159.163 531 222.588C531 321.892 427.782 444.725 243.652 435.337C168.124 431.487 131.78 406.372 47.1655 420.854C8.40593 427.489 -5.72744 430.77 -10.1905 432.521V434.661C-9.50472 434.867 -9.11836 435.045 -10.1905 435.337V434.661C-11.4075 434.297 -13.5677 433.847 -10.1905 432.521V76.2608Z" fill="#F1F7FD"/>
<path d="M221.099 95.5567C215.438 95.5567 209.673 93.8797 204.851 90.8401C200.449 88.0102 197.514 84.3417 196.78 80.5684C195.732 75.3278 198.877 71.0305 201.916 66.838C204.851 62.8551 207.577 59.1866 206.319 55.0989C204.956 50.8016 199.82 48.6005 195.418 46.8187C191.015 45.0369 186.822 43.2551 186.613 39.6915C186.403 36.6519 189.128 34.6604 192.063 32.5642C195.313 30.1535 199.086 27.5332 199.715 22.8166C200.03 20.4059 199.401 18.5193 198.772 16.6326C198.038 14.4316 197.2 12.0209 198.248 8.77167C199.715 4.57916 203.279 1.22514 207.577 0.281828C214.39 -1.18555 221.204 3.3214 222.252 8.14279C222.881 10.9727 221.518 13.069 220.26 14.9556C219.107 16.6326 218.164 17.9952 218.583 19.777C219.317 22.7118 223.929 23.9695 228.331 25.1225C233.048 26.3802 237.975 27.7428 239.023 31.4112C239.757 34.0316 238.185 36.023 236.403 38.1193C234.725 40.2155 233.048 42.3118 233.153 45.3513C233.363 49.0198 236.298 51.0112 239.547 53.3171C242.587 55.4134 246.046 57.8241 247.618 61.9118C249.505 66.838 248.457 73.8604 244.998 80.254C240.91 87.9054 234.201 93.2508 226.654 94.9278C224.977 95.3471 222.986 95.5567 221.099 95.5567ZM207.786 1.64439C204.013 2.4829 200.868 5.41766 199.61 9.19092C198.667 12.0209 199.296 13.9075 200.135 16.1086C200.763 17.9952 201.497 20.0915 201.183 22.9214C200.449 28.2669 196.256 31.3064 192.902 33.7171C190.177 35.7086 187.87 37.3856 188.08 39.5866C188.29 42.3118 191.854 43.7792 195.942 45.4562C200.763 47.4476 206.109 49.6487 207.682 54.6797C209.149 59.5011 206.109 63.6936 203.07 67.7813C200.239 71.6594 197.2 75.7471 198.143 80.254C198.877 83.608 201.602 86.962 205.585 89.5824C211.665 93.5652 219.631 95.0326 226.445 93.4604C233.572 91.8882 239.967 86.7524 243.845 79.5203C247.094 73.4412 248.038 66.838 246.361 62.331C244.998 58.6626 241.853 56.4615 238.813 54.3652C235.354 51.9546 232 49.6487 231.79 45.3513C231.581 41.7877 233.572 39.2722 235.354 37.0711C236.927 35.1845 238.185 33.5075 237.66 31.6209C236.822 28.6861 232.315 27.5332 228.017 26.3802C223.195 25.1225 218.269 23.7599 217.22 19.9866C216.591 17.6808 217.849 15.7941 219.002 14.0123C220.155 12.2305 221.308 10.5535 220.784 8.35242C219.841 4.26472 213.656 0.38664 207.786 1.64439Z" fill="#DA648E"/>
<path d="M226.654 112.641L225.187 112.432C231.686 74.4893 210.931 31.6209 210.721 31.2016L211.979 30.5728C212.189 30.992 233.153 74.1749 226.654 112.641Z" fill="#EA5289"/>
<path d="M377.911 77.3192C377.492 75.4326 377.072 73.546 376.653 71.6593L378.12 71.3449C378.54 73.2315 378.959 75.1182 379.378 77.1096L377.911 77.3192ZM375.185 65.9995C374.661 64.1128 374.032 62.2262 373.404 60.4444L374.766 59.9203C375.395 61.7021 376.024 63.5888 376.548 65.4754L375.185 65.9995ZM371.307 55.0989C370.573 53.3171 369.735 51.5353 369.001 49.7535L370.364 49.1246C371.202 50.9064 371.936 52.6882 372.775 54.47L371.307 55.0989ZM366.381 44.6176C365.437 42.9406 364.389 41.2636 363.446 39.6914L364.703 38.8529C365.752 40.4251 366.8 42.2069 367.743 43.8839L366.381 44.6176ZM360.091 34.9749C358.938 33.4027 357.68 31.9353 356.423 30.5727L357.471 29.6294C358.729 31.0968 359.986 32.5642 361.244 34.1364L360.091 34.9749ZM261.979 27.4283L261.14 26.2754C262.713 25.1225 264.39 23.9695 265.962 22.9214L266.801 24.1791C265.228 25.1224 263.551 26.2754 261.979 27.4283ZM352.335 26.485C350.972 25.2273 349.4 23.9695 347.932 22.8166L348.771 21.6636C350.343 22.8166 351.81 24.1791 353.278 25.4369L352.335 26.485ZM271.727 21.1396L270.993 19.8818C272.671 18.9385 274.453 17.9952 276.235 17.1567L276.863 18.5192C275.186 19.3577 273.404 20.1962 271.727 21.1396ZM343.215 19.4626C341.643 18.4144 339.861 17.4711 338.184 16.6326L338.813 15.3749C340.595 16.2134 342.272 17.2615 343.949 18.2048L343.215 19.4626ZM282.209 16.2134L281.685 14.8508C283.467 14.1171 285.354 13.4882 287.241 12.8594L287.66 14.2219C285.773 14.746 283.991 15.4797 282.209 16.2134ZM332.943 14.3267C331.161 13.6979 329.274 13.069 327.492 12.5449L327.911 11.1823C329.798 11.7064 331.685 12.3353 333.572 12.9642L332.943 14.3267ZM293.216 12.6497L292.901 11.1823C294.788 10.6583 296.779 10.3438 298.666 10.0294L298.876 11.4968C296.989 11.7064 295.102 12.1257 293.216 12.6497ZM321.832 11.2872C319.945 10.9727 318.058 10.7631 316.066 10.5535L316.171 9.08609C318.163 9.1909 320.154 9.50534 322.041 9.81978L321.832 11.2872ZM304.536 10.6583L304.431 9.1909C306.423 8.98128 308.415 8.87646 310.301 8.87646V10.3438C308.415 10.4487 306.528 10.5535 304.536 10.6583Z" fill="#E4D6E7"/>
<path d="M499.917 355.621C498.919 357.333 497.921 359.046 496.923 360.758L498.348 361.53C499.346 359.818 500.344 358.105 501.374 356.29L499.917 355.621ZM493.711 365.83C492.604 367.509 491.389 369.155 490.205 370.699L491.459 371.643C492.643 370.099 493.858 368.453 494.965 366.774L493.711 365.83ZM486.436 375.264C485.144 376.774 483.743 378.251 482.451 379.762L483.673 380.808C485.074 379.331 486.367 377.82 487.768 376.343L486.436 375.264ZM478.202 383.956C476.724 385.297 475.137 386.606 473.691 387.845L474.742 389.063C476.297 387.857 477.915 386.446 479.393 385.105L478.202 383.956ZM468.808 391.396C467.144 392.569 465.403 393.606 463.693 394.541L464.496 395.795C466.237 394.758 467.978 393.721 469.751 392.581L468.808 391.396ZM364.979 367.724L363.766 368.586C365.049 370.211 366.441 371.87 367.755 373.392L368.999 372.428C367.654 371.007 366.262 369.349 364.979 367.724ZM458.239 397.245C456.452 398.044 454.448 398.776 452.584 399.439L453.107 400.832C455.08 400.202 457.007 399.334 458.902 398.568L458.239 397.245ZM373.191 376.96L372.055 377.958C373.509 379.411 375.072 380.898 376.666 382.282L377.725 381.148C376.239 379.797 374.645 378.413 373.191 376.96ZM446.698 401.227C444.757 401.754 442.63 402.113 440.643 402.402L440.918 403.831C443.013 403.575 445.063 403.081 447.081 402.689L446.698 401.227ZM382.569 385.096L381.619 386.263C383.245 387.544 385.01 388.756 386.775 389.969L387.617 388.769C385.82 387.659 384.195 386.377 382.569 385.096ZM434.527 402.999C432.495 403.05 430.353 403.068 428.352 403.016L428.378 404.482C430.488 404.566 432.63 404.548 434.771 404.53L434.527 402.999ZM392.898 392.065L392.134 393.4C393.93 394.51 395.898 395.448 397.757 396.353L398.413 394.984C396.523 394.182 394.695 393.174 392.898 392.065ZM422.116 402.455C420.068 402.165 418.052 401.773 415.928 401.348L415.598 402.816C417.691 403.344 419.847 403.667 421.894 403.956L422.116 402.455ZM404.022 397.596L403.475 398.998C405.474 399.833 407.505 400.566 409.458 401.163L409.897 399.728C407.975 399.028 406.053 398.328 404.022 397.596Z" fill="#E4D6E7"/>
<path d="M631.368 72.7075C636.819 79.8348 636.609 89.2679 633.15 93.0412C629.796 96.6048 625.393 92.8316 621.724 95.976C615.854 100.902 623.297 112.956 618.685 119.768C613.863 126.896 603.171 117.987 594.261 123.542C583.36 130.355 592.27 148.068 582.626 157.396C573.402 166.305 550.027 164.733 537.658 148.382C526.757 133.918 528.119 112.641 537.134 105.514C547.721 97.2337 564.073 111.908 572.983 102.684C580.949 94.5086 571.934 78.3674 580.53 73.3364C587.762 69.1439 596.253 79.1011 606.001 74.1749C612.395 70.9257 612.29 64.8466 618.58 65.0562C622.877 65.161 628.014 68.2006 631.368 72.7075Z" fill="#E4D6E7"/>
<path d="M521.725 169.555H521.62C521.201 169.45 520.991 169.135 521.096 168.716C523.297 158.235 540.383 140.312 571.934 115.366C595.309 96.9193 618.475 81.3021 618.685 81.0925C618.999 80.8829 619.523 80.9877 619.733 81.3022C619.942 81.6166 619.838 82.1407 619.523 82.3503C618.58 82.9792 527.595 144.609 522.564 169.03C522.354 169.345 522.144 169.555 521.725 169.555Z" fill="white"/>
<path d="M575.394 141.36H575.289L547.721 136.434C547.406 136.329 547.092 136.014 547.092 135.7L547.301 113.585C547.301 113.165 547.616 112.851 548.035 112.851C548.454 112.851 548.769 113.165 548.769 113.585L548.559 135.071L575.498 139.893C575.918 139.997 576.127 140.312 576.127 140.731C576.022 141.045 575.708 141.36 575.394 141.36Z" fill="white"/>
<path d="M608.831 109.602C608.727 109.602 608.622 109.602 608.622 109.602L590.173 102.894C589.859 102.789 589.754 102.579 589.649 102.265L588.706 82.1407C588.706 81.7214 589.02 81.407 589.439 81.407C589.859 81.407 590.173 81.7214 590.173 82.1407L591.012 101.741L609.041 108.239C609.46 108.344 609.565 108.763 609.46 109.182C609.355 109.392 609.041 109.602 608.831 109.602Z" fill="white"/>
<path d="M646.567 171.546C646.567 165.257 641.116 159.702 636.399 159.597C631.368 159.493 630.11 165.886 625.812 165.676C618.789 165.467 616.903 148.697 609.984 148.278C605.163 148.068 604.114 155.929 597.72 156.977C590.173 158.235 586.924 147.649 578.119 146.391C567.637 144.924 551.285 157.187 551.285 173.328C551.285 186.429 562.081 198.902 571.201 198.797C581.263 198.588 584.723 183.18 594.052 184.019C603.381 184.752 606.735 200.894 613.339 199.845C618.999 198.902 618.056 186.639 626.861 183.39C632.206 181.398 635.666 184.857 640.697 181.818C643.946 179.931 646.567 175.948 646.567 171.546Z" fill="#E4D6E7"/>
<path d="M533.78 178.883C533.465 178.883 533.256 178.673 533.151 178.464C533.046 178.044 533.151 177.625 533.57 177.52C569.628 162.742 616.378 173.747 616.903 173.852C617.322 173.957 617.531 174.376 617.427 174.69C617.322 175.11 616.903 175.319 616.588 175.214C616.169 175.11 569.838 164.209 534.199 178.778C533.989 178.883 533.884 178.883 533.78 178.883Z" fill="white"/>
<path d="M543.004 165.781C542.899 165.781 542.794 165.781 542.689 165.676C542.375 165.467 542.165 165.048 542.375 164.733C546.987 156.558 562.815 147.858 589.544 138.844C609.355 132.241 628.118 127.839 628.223 127.839C628.642 127.734 628.957 127.944 629.062 128.363C629.167 128.782 628.957 129.097 628.538 129.202C627.804 129.411 554.115 146.496 543.528 165.362C543.528 165.572 543.318 165.781 543.004 165.781Z" fill="#773288"/>
<path d="M641.85 132.765C634.722 132.765 628.118 129.411 628.014 129.411C627.804 129.306 627.699 129.097 627.594 128.887C627.594 128.678 627.594 128.468 627.804 128.258C639.439 115.89 655.372 124.275 655.477 124.38C655.686 124.485 655.791 124.59 655.791 124.799C655.791 125.009 655.791 125.219 655.686 125.324C652.332 131.088 646.881 132.765 641.85 132.765ZM629.586 128.468C633.255 130.04 647.196 135.281 654.114 125.219C651.074 123.856 639.125 119.244 629.586 128.468Z" fill="#773288"/>
<path d="M615.854 152.575C604.219 152.575 597.406 137.377 597.301 137.167C597.196 136.958 597.196 136.748 597.301 136.539C597.406 136.329 597.615 136.224 597.825 136.119C614.492 132.975 621.829 150.269 621.829 150.374C621.934 150.583 621.934 150.793 621.829 150.898C621.724 151.107 621.619 151.212 621.41 151.317C619.523 152.156 617.636 152.575 615.854 152.575ZM599.083 137.377C600.865 140.941 608.622 154.357 620.257 150.269C619.628 148.906 617.951 145.867 615.225 143.037C610.613 138.425 605.163 136.539 599.083 137.377Z" fill="#773288"/>
<path d="M597.93 137.587C597.825 137.587 597.72 137.587 597.511 137.482C597.301 137.377 597.196 137.167 597.196 136.958C595.414 120.083 612.186 113.48 612.395 113.48C612.605 113.375 612.814 113.375 613.024 113.48C613.234 113.584 613.339 113.689 613.443 113.899C618.265 129.306 598.454 137.482 598.244 137.587C598.14 137.587 598.035 137.587 597.93 137.587ZM612.186 115.157C609.146 116.519 597.72 122.598 598.559 135.805C602.228 134.023 615.33 127.001 612.186 115.157Z" fill="#773288"/>
<path d="M583.045 162.218C572.458 162.218 563.863 150.059 563.758 149.85C563.653 149.64 563.549 149.43 563.653 149.221C563.758 149.011 563.863 148.802 564.073 148.802C580.006 143.037 590.697 158.864 590.802 158.968C590.907 159.178 590.907 159.388 590.907 159.492C590.907 159.702 590.697 159.807 590.593 159.912C587.972 161.589 585.456 162.218 583.045 162.218ZM565.54 149.85C568.056 153.099 578.328 165.048 589.23 159.178C587.029 156.453 578.119 145.972 565.54 149.85Z" fill="#773288"/>
<path d="M564.282 150.269C564.178 150.269 564.073 150.269 564.073 150.269C563.863 150.164 563.654 149.955 563.654 149.745C559.146 133.394 574.031 123.332 574.136 123.227C574.345 123.122 574.555 123.122 574.765 123.122C574.974 123.227 575.184 123.332 575.184 123.542C582.521 137.901 564.911 150.164 564.702 150.269C564.597 150.164 564.492 150.269 564.282 150.269ZM574.24 124.799C571.515 126.896 561.872 135.49 564.702 148.173C567.951 145.762 579.167 136.014 574.24 124.799Z" fill="#773288"/>
<path d="M272.775 11.1824C272.775 11.1824 307.366 76.6904 285.04 112.222C262.713 147.753 235.878 156.977 235.878 156.977C235.878 156.977 213.447 120.397 225.187 80.254C236.927 40.1107 249.191 32.1449 249.191 32.1449L256.004 41.054L258.729 20.6155C258.625 20.5107 262.608 14.6412 272.775 11.1824Z" fill="#E4D6E7"/>
<path d="M235.774 157.606C235.669 157.606 235.459 157.606 235.354 157.501C235.04 157.291 234.935 156.872 235.145 156.453C252.964 128.887 271.727 12.1257 271.937 10.9727C272.042 10.5535 272.356 10.3439 272.775 10.3439C273.195 10.4487 273.404 10.7631 273.404 11.1824C273.404 11.4968 268.583 41.054 261.769 73.546C252.545 117.358 243.95 145.448 236.403 157.187C236.298 157.501 236.088 157.606 235.774 157.606Z" fill="white"/>
<path d="M255.061 100.902C254.956 100.902 254.956 100.902 254.851 100.902C250.239 99.5396 246.57 89.2679 243.74 69.4583C241.644 55.0989 240.91 40.8444 240.91 40.7396C240.91 40.3203 241.224 40.0059 241.644 40.0059C242.063 40.0059 242.377 40.3203 242.377 40.7396C243.216 56.3567 247.304 97.3385 255.27 99.6444C255.69 99.7492 255.899 100.168 255.794 100.588C255.69 100.692 255.375 100.902 255.061 100.902Z" fill="white"/>
<path d="M252.335 118.196C252.231 118.196 252.231 118.196 252.231 118.196C251.811 118.196 251.497 117.882 251.497 117.463C251.497 117.043 251.811 116.729 252.231 116.729C252.335 116.729 268.163 116.834 292.272 88.7439C292.482 88.4294 293.006 88.4295 293.32 88.6391C293.635 88.8487 293.635 89.3728 293.425 89.6872C269.631 117.358 253.908 118.196 252.335 118.196Z" fill="white"/>
<path d="M261.35 72.9171C261.036 72.9171 260.721 72.7075 260.616 72.3931C260.511 71.9738 260.721 71.5546 261.14 71.5546C277.073 67.4669 286.507 46.7139 286.507 46.5043C286.717 46.085 287.136 45.9802 287.45 46.085C287.87 46.2947 287.974 46.7139 287.87 47.0284C287.765 47.238 285.459 52.4786 281.056 58.3481C276.968 63.7984 270.26 70.716 261.56 72.9171C261.455 72.9171 261.455 72.9171 261.35 72.9171Z" fill="white"/>
<path d="M261.979 80.3589C261.245 80.3589 260.407 80.254 259.673 80.1492C259.254 80.0444 259.044 79.73 259.149 79.3107C259.254 78.8915 259.568 78.6819 259.987 78.7867C272.671 81.5118 288.394 56.5663 288.603 56.2519C288.813 55.9375 289.232 55.8327 289.652 56.0423C289.966 56.2519 290.071 56.6712 289.861 57.0904C289.861 57.1952 285.773 63.5888 280.113 69.668C273.3 76.6904 267.22 80.3589 261.979 80.3589Z" fill="white"/>
<path d="M246.046 128.573C245.941 128.573 245.941 128.573 245.836 128.573C239.862 127.105 234.097 120.607 228.855 109.392C224.977 101.112 222.776 93.146 222.776 93.0412C222.671 92.622 222.881 92.2027 223.3 92.0979C223.719 91.9931 224.139 92.2027 224.243 92.6219C224.348 92.9364 232.943 123.856 246.361 127.105C246.78 127.21 246.99 127.629 246.885 127.944C246.675 128.363 246.361 128.573 246.046 128.573Z" fill="white"/>
<path d="M244.998 136.643C244.893 136.643 244.788 136.643 244.788 136.643C224.767 128.992 221.728 114.318 221.623 113.689C221.518 113.27 221.833 112.956 222.252 112.851C222.671 112.746 222.986 113.06 223.09 113.375C223.09 113.48 226.13 127.839 245.312 135.281C245.732 135.386 245.836 135.805 245.732 136.224C245.627 136.434 245.312 136.643 244.998 136.643Z" fill="white"/>
<path d="M569.772 338.177L568.816 337.005C570.385 335.801 571.84 334.503 573.305 333.309L574.25 334.376C572.795 335.674 571.341 336.973 569.772 338.177ZM578.613 330.481L577.564 329.424C579.018 328.125 580.359 326.733 581.699 325.34L582.748 326.397C581.408 327.79 580.068 329.183 578.613 330.481ZM586.769 322.219L585.729 321.267C587.06 319.77 588.285 318.283 589.521 316.9L590.665 317.843C589.429 319.226 588.099 320.723 586.769 322.219ZM594.208 313.079L593.074 312.241C594.186 310.66 595.297 309.078 596.304 307.507L597.542 308.336C596.525 309.803 595.319 311.498 594.208 313.079ZM600.523 303.205L599.295 302.481C600.188 300.815 601.071 299.046 601.849 297.286L603.171 297.896C602.393 299.655 601.51 301.425 600.523 303.205ZM605.392 292.522L603.975 292.027C604.639 290.173 605.199 288.329 605.758 286.485L607.165 286.876C606.71 288.71 606.16 290.658 605.392 292.522ZM608.511 281.166L607.114 280.879C607.455 278.951 607.691 277.033 607.823 275.125L609.304 275.193C609.078 277.215 608.841 279.133 608.511 281.166ZM609.378 269.394L607.907 269.431C607.901 268.273 607.79 267.125 607.68 265.978C607.61 265.247 607.529 264.413 607.459 263.682L608.91 263.437C608.99 264.272 609.165 264.992 609.245 265.827C609.251 266.985 609.267 268.247 609.378 269.394ZM606.28 258.005C605.787 256.157 605.188 254.319 604.59 252.481L605.906 251.933C606.609 253.761 607.217 255.703 607.711 257.551L606.28 258.005ZM602.294 247.227C601.393 245.524 600.492 243.82 599.496 242.231L600.688 241.485C601.798 243.168 602.699 244.871 603.6 246.575L602.294 247.227ZM596.103 237.609C594.909 236.145 593.61 234.69 592.322 233.34L593.379 232.291C594.782 233.735 596.08 235.189 597.284 236.758L596.103 237.609ZM588.049 229.434C586.562 228.209 584.981 227.097 583.41 226.09L584.238 224.852C585.924 225.953 587.505 227.065 589.002 228.395L588.049 229.434ZM578.393 223.204C576.623 222.321 574.874 221.647 573.124 220.973L573.619 219.557C575.473 220.221 577.327 220.885 579.107 221.871L578.393 223.204ZM550.958 221.528L550.305 220.222C552.113 219.311 553.941 218.609 555.903 218.209L556.253 219.65C554.395 220.039 552.567 220.742 550.958 221.528ZM567.507 219.514C565.579 219.173 563.671 219.041 561.877 219.003L561.841 217.532C563.739 217.56 565.751 217.682 567.784 218.013L567.507 219.514Z" fill="#F3A132"/>
<path d="M137.932 222.192C136.411 221.626 134.803 221.075 133.268 220.422L133.713 219.276C135.248 219.929 136.769 220.494 138.276 220.972L137.932 222.192ZM128.737 218.362C127.275 217.607 125.814 216.853 124.338 216.012L124.971 214.926C126.346 215.694 127.821 216.535 129.269 217.202L128.737 218.362ZM120.087 213.459C118.699 212.604 117.297 211.661 115.968 210.617L116.703 209.604C118.017 210.561 119.332 211.518 120.72 212.373L120.087 213.459ZM112.098 207.646C110.857 206.588 109.616 205.53 108.361 204.385L109.196 203.446C110.35 204.518 111.605 205.663 112.92 206.619L112.098 207.646ZM104.857 200.907C103.69 199.748 102.595 198.488 101.501 197.227L102.452 196.45C103.546 197.71 104.626 198.883 105.794 200.042L104.857 200.907ZM98.3194 193.52C97.3123 192.246 96.2915 190.884 95.3579 189.509L96.4094 188.805C97.3292 190.093 98.35 191.454 99.3571 192.728L98.3194 193.52ZM92.6444 185.369C91.7981 183.979 90.9379 182.503 90.1789 181.1L91.2443 180.483C92.0033 181.886 92.8635 183.363 93.7098 184.752L92.6444 185.369ZM87.9475 176.614C87.2619 175.11 86.5763 173.606 85.978 172.088L87.1584 171.632C87.7567 173.15 88.355 174.668 89.0406 176.172L87.9475 176.614ZM84.3299 167.331C83.805 165.711 83.3812 164.166 83.0309 162.519L84.239 162.238C84.5755 163.797 84.9992 165.343 85.5241 166.963L84.3299 167.331ZM82.0949 157.739L82.0672 157.564C81.818 155.99 81.6561 154.403 81.4942 152.816L82.7299 152.71C82.878 154.21 83.0399 155.797 83.2891 157.37L83.3168 157.545L82.0949 157.739ZM82.4921 147.819L81.2425 147.838C81.2413 146.136 81.3412 144.507 81.5284 142.864L82.7046 142.947C82.6047 144.576 82.5047 146.204 82.4921 147.819ZM83.4684 138.166L82.2645 137.909C82.539 136.253 83.0019 134.656 83.4647 133.06L84.6824 133.404C84.1184 134.927 83.7429 136.51 83.4684 138.166ZM86.2871 128.849L85.1429 128.403C85.7942 126.866 86.5466 125.403 87.299 123.94L88.3836 124.574C87.6174 125.95 86.865 127.414 86.2871 128.849ZM90.9442 120.406L89.933 119.67C90.8876 118.354 91.9295 117.024 92.9853 115.781L93.9231 116.618C92.8535 117.773 91.8988 119.089 90.9442 120.406ZM97.2927 113.038L96.4421 112.187C97.6129 111.106 98.8709 110.01 100.216 108.901L100.993 109.853C99.6341 110.875 98.4634 111.957 97.2927 113.038ZM104.938 107.078L104.234 106.025C105.607 105.09 106.994 104.244 108.482 103.47L109.098 104.538C107.61 105.311 106.223 106.158 104.938 107.078ZM113.401 102.333L112.872 101.252C114.374 100.566 115.876 99.8799 117.391 99.2814L117.847 100.464C116.318 100.975 114.816 101.661 113.401 102.333ZM122.481 98.6544L122.113 97.4583C123.642 96.9473 125.259 96.4224 126.803 95.9987L127.171 97.1948C125.554 97.7197 123.937 98.2446 122.481 98.6544ZM151.756 93.1217L151.232 93.2047L151.126 91.9671L151.663 91.9716L151.756 93.1217ZM131.829 96.0987L131.547 94.8888C133.105 94.5525 134.749 94.2025 136.394 93.8524L136.587 95.0762C135.03 95.4124 133.386 95.7625 131.829 96.0987ZM146.303 93.7166C144.631 93.8918 143.06 94.1406 141.475 94.302L141.281 93.0783C142.852 92.8295 144.524 92.6542 146.196 92.479L146.303 93.7166Z" fill="#F3A132"/>
<path d="M83.6241 153.485C89.6448 153.485 94.5255 148.605 94.5255 142.584C94.5255 136.564 89.6448 131.684 83.6241 131.684C77.6034 131.684 72.7227 136.564 72.7227 142.584C72.7227 148.605 77.6034 153.485 83.6241 153.485Z" fill="#F3A132"/>
<path d="M84.1482 147.301C83.9386 147.301 83.7289 147.196 83.6241 146.987L79.012 141.432C78.8023 141.117 78.8023 140.698 79.1168 140.383C79.4313 140.174 79.8506 140.174 80.165 140.488L84.1482 145.414L87.0832 141.536C87.2928 141.222 87.8169 141.117 88.1314 141.432C88.4459 141.641 88.5507 142.165 88.2362 142.48L84.7771 147.196C84.5675 147.196 84.3579 147.301 84.1482 147.301Z" fill="white"/>
<path d="M592.791 39.2559L584.344 33.597L578.685 42.0437L587.132 47.7025L592.791 39.2559Z" fill="#F3A132"/>
<path d="M326.117 46.3878L317.67 40.7289L312.011 49.1755L320.458 54.8344L326.117 46.3878Z" fill="#F3A132"/>
<path d="M82.9508 276.651L74.9204 270.415L68.6846 278.445L76.715 284.68L82.9508 276.651Z" fill="#EA5289"/>
<path d="M265.937 477.174C292.335 477.174 313.735 473.889 313.735 469.837C313.735 465.785 292.335 462.5 265.937 462.5C239.539 462.5 218.139 465.785 218.139 469.837C218.139 473.889 239.539 477.174 265.937 477.174Z" fill="#F1F0F4"/>
<path d="M574.188 467.772C600.586 467.772 621.986 464.487 621.986 460.435C621.986 456.383 600.586 453.098 574.188 453.098C547.79 453.098 526.389 456.383 526.389 460.435C526.389 464.487 547.79 467.772 574.188 467.772Z" fill="#F1F0F4"/>
<path d="M281.161 300.983C281.161 300.983 284.725 307.901 280.218 311.884C275.71 315.867 272.88 305.49 272.88 305.49L277.702 297.839L281.161 300.983Z" fill="#3B2F4E"/>
<path d="M292.272 287.987C292.272 287.987 288.603 302.66 284.096 302.87C279.694 303.08 271.308 295.114 271.308 295.114L281.266 281.698L292.272 287.987Z" fill="#FFBD9B"/>
<path d="M269.84 327.396C269.84 327.396 267.954 339.974 270.26 342.489C272.566 345.005 295.731 337.982 295.731 337.982L294.578 333.79C294.578 333.79 276.235 337.353 275.501 336.62C274.767 335.886 279.065 324.671 279.065 324.671L269.84 327.396Z" fill="#FFBD9B"/>
<path d="M273.614 295.219C273.614 295.219 267.01 304.861 265.438 305.49C265.228 305.595 266.696 310.102 271.308 311.045C277.702 312.408 278.436 308.32 278.436 308.32C278.436 308.32 276.863 306.748 276.863 306.643C276.235 304.757 279.17 298.887 279.17 298.887L273.614 295.219Z" fill="#FFBD9B"/>
<path d="M266.067 305.385C266.067 305.385 270.26 310.626 274.243 310.626C276.444 310.626 276.863 306.643 276.863 306.643C276.863 306.643 277.912 307.691 280.218 310.521C283.887 315.028 287.45 321.317 282.314 324.881C280.742 325.929 282.419 346.472 282.419 346.472H259.149C259.149 346.472 253.908 327.815 255.69 319.954C258.625 307.062 262.817 305.385 266.067 305.385Z" fill="#F3A132"/>
<path d="M255.27 327.291C255.27 327.291 255.27 340.079 258.205 341.965C261.036 343.852 281.79 332.008 281.79 332.008L280.113 328.339C280.113 328.339 263.027 335.572 262.189 335.048C261.35 334.523 263.551 322.47 263.551 322.47L255.27 327.291Z" fill="#FFBD9B"/>
<path d="M262.503 306.329C265.438 308.006 264.704 314.923 263.132 326.453C263.132 326.662 262.922 326.872 262.713 326.872L254.746 328.235C254.537 328.235 254.327 328.13 254.327 327.92C254.327 325.614 253.803 312.827 256.423 309.368C257.472 307.901 260.826 305.385 262.503 306.329Z" fill="#F3A132"/>
<path d="M291.014 280.754C288.289 281.069 288.813 274.78 280.427 274.78C274.557 274.78 271.203 276.667 268.792 283.899C267.639 287.253 262.713 288.511 258.625 292.389C256.633 294.275 257.891 298.468 255.899 299.516C244.893 305.385 247.828 316.391 253.593 317.544C255.166 317.858 260.197 316.076 263.132 312.827C265.019 310.836 264.495 307.167 266.801 306.643C269.945 306.014 271.098 300.564 273.09 298.887C277.912 294.904 278.541 293.122 278.96 292.389C278.96 292.389 280.113 290.083 280.532 290.083C286.088 290.292 291.643 288.301 291.643 288.301C291.643 288.301 291.538 291.76 293.53 291.655C295.522 291.55 295.836 287.253 295.731 285.366C295.731 283.48 293.74 280.44 291.014 280.754Z" fill="#3B2F4E"/>
<path d="M280.951 332.637C278.331 333.895 276.968 329.912 279.798 328.339C281.161 327.606 283.677 323.623 289.756 326.453C290.176 326.662 290.071 328.549 290.071 329.388C290.071 329.597 289.861 329.807 289.652 329.807C289.652 329.807 283.782 328.759 284.515 329.807C284.62 329.912 288.813 330.855 285.04 331.274C281.161 331.693 281.895 332.113 280.951 332.637Z" fill="#FFBD9B"/>
<path d="M299.505 338.192H284.201C283.886 338.192 283.782 337.877 283.991 337.668L303.278 318.906C303.383 318.802 303.383 318.802 303.488 318.802H318.792C319.106 318.802 319.211 319.116 319.001 319.326L299.714 338.192C299.714 338.192 299.61 338.192 299.505 338.192Z" fill="#3B2F4E"/>
<path d="M304.012 334.419C304.327 333.79 303.593 332.322 303.593 332.322C303.593 332.218 303.383 332.218 303.174 332.427C302.44 332.951 300.763 334.209 300.763 334.523C300.553 335.781 300.763 337.249 301.077 337.144C301.811 336.934 303.802 334.943 304.012 334.419Z" fill="#FFBD9B"/>
<path d="M274.243 462.5V467.741C274.243 468.369 274.662 468.893 275.186 468.893H292.377V468.265C292.377 467.741 292.062 467.321 291.538 467.112C289.442 466.483 284.096 464.806 281.371 462.395C277.073 458.517 274.243 462.5 274.243 462.5Z" fill="#3B2F4E"/>
<path d="M236.717 453.905L234.201 458.412C233.887 458.936 233.992 459.67 234.516 459.88L249.505 468.16L249.82 467.636C250.029 467.217 250.029 466.588 249.61 466.273C248.038 464.806 244.264 460.823 243.006 457.469C241.224 451.809 236.717 453.905 236.717 453.905Z" fill="#3B2F4E"/>
<path d="M282.314 346.367H271.203C271.203 346.367 263.342 352.342 264.39 363.871C265.228 372.885 274.348 462.5 274.348 462.5H281.476L282.314 346.367Z" fill="#F25E94"/>
<path d="M278.121 346.367C278.121 395.839 243.111 457.469 243.111 457.469L236.717 454.115C236.717 454.115 261.245 385.567 255.166 365.967C251.916 355.591 259.358 346.472 259.358 346.472" fill="#EA5289"/>
<path d="M280.847 290.921C280.952 290.712 280.952 290.502 280.742 290.292C280.323 289.663 279.274 288.511 277.912 289.559C276.549 290.712 277.388 293.018 278.541 293.961C278.855 294.17 279.274 294.066 279.484 293.751L280.847 290.921Z" fill="#FFBD9B"/>
<path d="M570.842 283.721L531.324 252.906C531.324 252.906 525.559 244.626 522.624 246.093C522.624 246.093 518.327 242.32 517.698 242.529C516.964 242.739 520.528 246.303 520.528 246.303C520.528 246.303 516.65 249.342 518.327 251.334C520.004 253.325 525.559 257.413 526.608 257.203C527.656 256.889 565.706 294.621 565.706 294.621L570.842 283.721Z" fill="#FFBD9B"/>
<path d="M580.905 254.687C580.905 254.687 569.479 263.072 574.511 275.335C574.93 276.279 582.582 276.593 582.582 276.593C582.582 276.593 583.63 281.729 582.896 284.035C582.582 284.873 579.961 287.179 580.276 288.018C581.114 291.057 597.362 292.105 594.532 286.236C592.121 281.205 591.806 277.117 591.806 277.117C591.806 277.117 592.854 254.687 580.905 254.687Z" fill="#FFBD9B"/>
<path d="M604.804 452.05V458.863C604.804 459.701 604.28 460.435 603.546 460.435H580.695V459.596C580.695 458.863 581.114 458.338 581.848 458.129C584.574 457.395 591.806 455.089 595.37 451.84C601.24 446.599 604.804 452.05 604.804 452.05Z" fill="#1D1D1D"/>
<path d="M560.674 452.05V458.863C560.674 459.701 560.15 460.435 559.417 460.435H536.566V459.596C536.566 458.863 536.985 458.338 537.719 458.129C540.444 457.395 547.677 455.089 551.24 451.84C557.006 446.599 560.674 452.05 560.674 452.05Z" fill="#1D1D1D"/>
<path d="M580.695 242.529C579.542 244.206 573.567 252.067 578.599 256.888C578.599 256.888 580.066 254.897 582.477 255.421C587.194 256.469 590.339 265.273 590.339 265.273C589.815 268.418 589.815 272.296 591.806 276.593C591.806 276.593 601.135 275.335 601.135 264.016C601.135 252.801 588.242 249.132 585.936 248.294C583.945 247.56 581.743 243.682 581.114 242.529C581.01 242.424 580.8 242.319 580.695 242.529Z" fill="#3B2F4E"/>
<path d="M604.804 338.328V451.84H595.37L584.783 363.483L598.515 332.144L604.804 338.328Z" fill="#3B2F4E"/>
<path d="M604.49 338.852C587.404 364.112 560.674 449.534 560.674 452.574L551.136 451.945C551.136 451.945 561.513 360.863 569.794 334.45C569.689 334.555 604.804 338.328 604.49 338.852Z" fill="#514269"/>
<path d="M580.486 288.437C580.486 288.437 574.406 284.664 570.842 283.091L565.182 294.411L574.72 302.587L580.486 288.437Z" fill="#F25E94"/>
<path d="M593.483 283.72C593.483 283.72 602.288 291.896 604.909 310.238C608.158 332.773 605.747 337.699 604.49 338.852C603.337 340.005 568.955 339.69 568.326 339.376C565.811 338.118 573.253 289.066 581.848 285.397C582.582 285.083 586.46 289.799 593.483 283.72Z" fill="#EA5289"/>
<path d="M588.242 263.911C588.242 263.701 588.452 263.491 588.662 263.387C589.5 263.072 591.387 262.548 591.911 264.54C592.54 266.636 590.129 268.418 588.347 268.522C587.928 268.522 587.509 268.103 587.613 267.684L588.242 263.911Z" fill="#FFBD9B"/>
<path d="M582.372 310.238C582.372 310.238 577.97 346.294 572.31 360.234C571.261 362.749 567.278 369.352 569.899 371.449C569.899 371.449 574.72 374.383 575.873 372.078C577.026 369.667 577.026 363.064 577.76 362.225C585.307 353.421 594.322 310.552 594.322 310.552L582.372 310.238Z" fill="#FFBD9B"/>
<path d="M594.532 312.649C594.532 312.649 598.41 293.153 591.177 292.629C583.945 292.105 581.639 310.238 581.639 310.238C581.639 310.238 589.815 313.382 594.532 312.649Z" fill="#EA5289"/>
</svg>
