<svg width="1440" height="772" viewBox="0 0 1440 772" fill="none" xmlns="http://www.w3.org/2000/svg">
<rect x="-30" y="1" width="1472" height="722" fill="#202020"/>
<path d="M1124.64 2.26266L1126.37 4.43943L1128.72 5.2545L1126.81 7.03199L1125.89 9.69465L1124.33 7.48752L1121.79 6.52997L1123.89 4.89496L1124.64 2.26266Z" fill="#FEA7AF" fill-opacity="0.5"/>
<path d="M1122.52 141.908L1123.61 143.312L1125.24 143.903L1123.9 145.04L1123.33 146.748L1122.25 145.344L1120.62 144.753L1121.96 143.616L1122.52 141.908Z" fill="#FEA7AF" fill-opacity="0.6"/>
<path d="M916.229 400.966L917.286 402.197L918.917 402.787L917.576 403.925L917.012 405.632L915.925 404.229L914.295 403.638L915.635 402.5L916.229 400.966Z" fill="#FEA7AF" fill-opacity="0.4"/>
<path d="M803.897 493.916L804.789 495.177L806.42 495.768L805.08 496.905L804.68 498.582L803.594 497.178L801.963 496.588L803.304 495.45L803.897 493.916Z" fill="#FEA7AF" fill-opacity="0.5"/>
<path opacity="0.29" d="M772.34 75.0442L773.427 76.4479L775.058 77.0388L773.717 78.1763L773.153 79.8836L772.066 78.48L770.435 77.8891L771.776 76.7516L772.34 75.0442Z" fill="white"/>
<path opacity="0.29" d="M740.537 412.821L741.595 414.052L743.225 414.642L741.885 415.78L741.32 417.487L740.234 416.084L738.603 415.493L739.944 414.355L740.537 412.821Z" fill="white"/>
<path opacity="0.29" d="M711.665 180.284L712.723 181.515L714.353 182.106L713.013 183.244L712.448 184.951L711.362 183.547L709.731 182.956L711.072 181.819L711.665 180.284Z" fill="white"/>
<path opacity="0.29" d="M915.102 109.906L916.189 111.31L917.654 111.931L916.479 113.038L915.914 114.746L914.828 113.342L913.197 112.751L914.538 111.614L915.102 109.906Z" fill="white"/>
<path opacity="0.29" d="M859.948 530.377L862.092 533.012L865.189 534.224L862.672 536.468L861.515 539.71L859.371 537.076L856.274 535.864L858.791 533.619L859.948 530.377Z" fill="#FEA7AF"/>
<path opacity="0.29" d="M709.954 55.1631L711.962 58.0009L715.224 59.1826L712.513 61.2847L711.55 64.6691L709.377 61.8617L706.144 60.8529L708.826 58.5779L709.954 55.1631Z" fill="white"/>
<path opacity="0.29" d="M1367.59 68.8779L1369.77 71.6853L1372.83 72.7246L1370.32 74.9692L1369.19 78.3839L1367.02 75.5766L1363.92 74.3645L1366.46 72.2927L1367.59 68.8779Z" fill="white"/>
<path opacity="0.29" d="M1392.81 299.242L1394.82 302.08L1398.05 303.089L1395.37 305.364L1394.41 308.748L1392.23 305.941L1388.97 304.759L1391.68 302.657L1392.81 299.242Z" fill="white"/>
<path opacity="0.29" d="M769.172 354.281L770.065 355.542L771.696 356.133L770.326 357.098L769.927 358.775L768.84 357.371L767.403 356.923L768.579 355.816L769.172 354.281Z" fill="white"/>
<path opacity="0.29" d="M1345.7 426.135L1346.79 427.539L1348.22 427.987L1347.05 429.094L1346.45 430.629L1345.56 429.368L1343.93 428.777L1345.3 427.812L1345.7 426.135Z" fill="#FEA7AF"/>
<path opacity="0.29" d="M1240.9 63.3207L1241.99 64.7244L1243.43 65.1728L1242.25 66.2799L1241.66 67.8144L1240.76 66.5532L1239.13 65.9623L1240.5 64.9977L1240.9 63.3207Z" fill="#FEA7AF"/>
<path opacity="0.29" d="M1350.77 185.643L1351.83 186.874L1353.3 187.495L1352.09 188.429L1351.53 190.137L1350.6 188.703L1349 188.285L1350.34 187.147L1350.77 185.643Z" fill="white"/>
<path opacity="0.29" d="M1265.34 1.09788L1266.24 2.35911L1267.87 2.94997L1266.5 3.91463L1266.1 5.59162L1265.01 4.18794L1263.58 3.73956L1264.75 2.63242L1265.34 1.09788Z" fill="white"/>
<path opacity="0.29" d="M925.927 242.918L927.683 245.268L930.391 246.195L928.176 248.206L927.29 251.041L925.369 248.722L922.632 247.622L924.876 245.784L925.927 242.918Z" fill="#FEA7AF"/>
<path d="M982.737 309.648L985.327 312.914L989.142 314.35L985.994 316.889L984.623 320.883L982.198 317.587L978.412 316.324L981.53 313.612L982.737 309.648Z" fill="white" fill-opacity="0.2"/>
<path d="M1281.16 256.533L1282.05 257.794L1283.32 258.273L1282.28 259.177L1281.82 260.508L1280.96 259.42L1279.69 258.941L1280.73 258.037L1281.16 256.533Z" fill="white" fill-opacity="0.5"/>
<path d="M972.933 26.9826L973.825 28.2439L975.097 28.7226L974.057 29.6265L973.6 30.9579L972.736 29.8695L971.3 29.4211L972.504 28.4868L972.933 26.9826Z" fill="white" fill-opacity="0.6"/>
<path opacity="0.33" d="M826.071 199.498L827.603 201.532L830.147 202.49L828.038 204.125L827.26 206.584L825.727 204.55L823.378 203.735L825.292 201.958L826.071 199.498Z" fill="#FEA7AF"/>
<path opacity="0.33" d="M1207.11 275.677L1208.2 277.081L1210.02 277.814L1208.52 278.982L1207.95 280.69L1206.86 279.286L1205.07 278.726L1206.55 277.385L1207.11 275.677Z" fill="#FEA7AF"/>
<path opacity="0.33" d="M1255.63 318.419L1256.75 319.996L1258.38 320.587L1257.04 321.724L1256.5 323.605L1255.22 322.058L1253.59 321.468L1254.93 320.33L1255.63 318.419Z" fill="#FEA7AF"/>
<path opacity="0.33" d="M1223.78 140.289L1224.9 141.865L1226.69 142.426L1225.19 143.594L1224.65 145.474L1223.54 143.897L1221.91 143.306L1223.25 142.169L1223.78 140.289Z" fill="#FEA7AF"/>
<path opacity="0.33" d="M1094.11 197.582L1095.23 199.158L1097.02 199.719L1095.52 200.887L1094.98 202.767L1093.87 201.19L1092.24 200.599L1093.58 199.462L1094.11 197.582Z" fill="#FEA7AF"/>
<path d="M473.96 422.328L471.613 423.73L470.438 426.011L469.099 423.728L466.753 422.323L469.1 421.096L470.443 418.64L471.614 421.098L473.96 422.328Z" fill="#FEA7AF" fill-opacity="0.5"/>
<path d="M502.928 535.597L501.419 536.473L500.58 538.052L499.743 536.472L498.235 535.594L499.744 534.717L500.583 533.138L501.42 534.718L502.928 535.597Z" fill="#FEA7AF" fill-opacity="0.4"/>
<path d="M252.338 213.017L250.997 213.718L250.158 215.297L249.321 213.717L247.812 213.014L249.321 212.138L250.16 210.559L250.998 212.139L252.338 213.017Z" fill="#FEA7AF" fill-opacity="0.7"/>
<path opacity="0.29" d="M519.034 150.89L517.525 151.766L516.686 153.345L515.849 151.765L514.341 150.887L515.85 150.01L516.689 148.431L517.526 150.011L519.034 150.89Z" fill="white"/>
<path opacity="0.29" d="M488.408 71.3784L487.067 72.255L486.228 73.8338L485.391 72.2539L483.883 71.3756L485.392 70.4991L486.231 68.9203L487.068 70.5001L488.408 71.3784Z" fill="white"/>
<path opacity="0.29" d="M638.1 542.621L636.591 543.497L635.752 544.901L634.915 543.496L633.407 542.618L634.916 541.741L635.755 540.162L636.592 541.742L638.1 542.621Z" fill="white"/>
<path opacity="0.29" d="M386.848 346.641L383.998 348.394L382.32 351.376L380.646 348.392L377.797 346.635L380.648 344.882L382.326 341.9L384 344.884L386.848 346.641Z" fill="#FEA7AF"/>
<path opacity="0.29" d="M324.129 130.629L321.111 132.206L319.433 135.364L317.926 132.204L314.91 130.623L317.928 128.87L319.438 125.712L321.113 128.872L324.129 130.629Z" fill="white"/>
<path opacity="0.29" d="M421.469 765.709L418.451 767.462L416.941 770.444L415.267 767.46L412.251 765.703L415.269 763.95L416.947 760.968L418.453 763.952L421.469 765.709Z" fill="white"/>
<path opacity="0.29" d="M200.406 751.707L197.388 753.284L195.878 756.442L194.203 753.282L191.187 751.701L194.205 749.948L195.883 746.79L197.39 749.95L200.406 751.707Z" fill="white"/>
<path opacity="0.29" d="M117.61 195.918L116.269 196.62L115.43 198.198L114.76 196.619L113.252 195.916L114.761 195.039L115.432 193.636L116.27 195.04L117.61 195.918Z" fill="white"/>
<path opacity="0.29" d="M273.995 442.558L272.654 443.259L271.815 444.838L271.145 443.258L269.637 442.555L271.146 441.678L271.817 440.275L272.654 441.679L273.995 442.558Z" fill="#FEA7AF"/>
<path opacity="0.29" d="M102.601 366.636L101.092 367.513L100.421 368.916L99.5838 367.512L98.2434 366.633L99.5847 365.932L100.424 364.353L101.093 365.933L102.601 366.636Z" fill="#FEA7AF"/>
<path opacity="0.29" d="M448.696 636.047L447.187 636.923L446.516 638.326L445.679 636.922L444.339 636.044L445.68 635.343L446.519 633.764L447.188 635.344L448.696 636.047Z" fill="#FEA7AF"/>
<path opacity="0.29" d="M314.559 728.089L313.218 728.966L312.379 730.369L311.709 728.965L310.201 728.086L311.71 727.385L312.382 725.806L313.219 727.386L314.559 728.089Z" fill="white"/>
<path opacity="0.29" d="M502.98 672.054L501.639 672.755L500.8 674.333L500.13 672.754L498.622 672.051L500.131 671.174L500.803 669.771L501.64 671.175L502.98 672.054Z" fill="white"/>
<path opacity="0.29" d="M401.52 482.648L399.005 484.05L397.662 486.681L396.155 484.048L393.642 482.643L396.157 481.065L397.667 478.434L399.006 481.067L401.52 482.648Z" fill="#FEA7AF"/>
<path d="M259.968 643.999L258.626 644.7L257.955 645.928L257.285 644.699L256.113 643.997L257.286 643.295L257.957 642.068L258.627 643.296L259.968 643.999Z" fill="white"/>
<path d="M395.539 680.935L394.198 681.636L393.527 682.864L392.857 681.635L391.684 680.932L392.858 680.231L393.529 678.828L394.199 680.232L395.539 680.935Z" fill="white" fill-opacity="0.6"/>
<path opacity="0.33" d="M392.64 184.678L390.46 185.905L389.118 188.361L387.946 185.903L385.768 184.674L387.948 183.447L389.122 181.166L390.462 183.448L392.64 184.678Z" fill="#FEA7AF"/>
<path opacity="0.33" d="M110.385 554.865L108.876 555.742L107.869 557.496L107.032 555.74L105.524 554.862L107.033 553.986L107.872 552.231L108.877 553.987L110.385 554.865Z" fill="#FEA7AF"/>
<path opacity="0.33" d="M206.187 606.939L204.511 607.815L203.672 609.394L202.835 607.814L201.159 606.936L202.836 605.884L203.675 604.305L204.512 605.885L206.187 606.939Z" fill="#FEA7AF"/>
<path opacity="0.33" d="M384.69 601.787L383.014 602.664L382.175 604.418L381.338 602.663L379.662 601.784L381.339 600.908L382.178 599.329L383.015 600.909L384.69 601.787Z" fill="#FEA7AF"/>
<path opacity="0.33" d="M347.898 461.38L346.221 462.257L345.382 464.011L344.545 462.256L342.869 461.377L344.546 460.501L345.385 458.922L346.222 460.502L347.898 461.38Z" fill="#FEA7AF"/>
<path opacity="0.33" d="M727.223 655.057L725.714 655.934L724.875 657.512L723.87 655.932L722.362 655.054L723.871 654.002L724.878 652.423L725.715 654.003L727.223 655.057Z" fill="#FEA7AF"/>
</svg>
