<svg width="19" height="18" viewBox="0 0 19 18" fill="none" xmlns="http://www.w3.org/2000/svg">
<path d="M18.1888 14.3433L15.1328 11.4363C15.7962 10.3053 16.1462 9.02186 16.1474 7.71505C16.1136 5.63658 15.2448 3.65641 13.732 2.20989C12.2191 0.763362 10.1861 -0.0311079 8.07982 0.00113996C7.03587 -0.0164284 5.99866 0.169219 5.02746 0.54747C4.05627 0.92572 3.17015 1.48916 2.41976 2.20556C1.66937 2.92197 1.06942 3.7773 0.654225 4.72266C0.239026 5.66802 0.0167144 6.68486 0 7.71505C0.0167144 8.74525 0.239026 9.76209 0.654225 10.7074C1.06942 11.6528 1.66937 12.5081 2.41976 13.2245C3.17015 13.941 4.05627 14.5044 5.02746 14.8826C5.99866 15.2609 7.03587 15.4465 8.07982 15.429C9.43967 15.4301 10.7789 15.1007 11.9792 14.47L15.0351 17.371C15.4618 17.7747 16.03 18 16.6211 18C17.2122 18 17.7804 17.7747 18.2071 17.371C18.4142 17.1748 18.5786 16.9391 18.6903 16.6781C18.8021 16.4172 18.8588 16.1366 18.8571 15.8533C18.8554 15.57 18.7952 15.2901 18.6803 15.0305C18.5654 14.7709 18.3982 14.5371 18.1888 14.3433ZM8.07982 13.2879C6.55758 13.3105 5.08836 12.7365 3.99424 11.6919C2.90012 10.6473 2.27037 9.21715 2.24304 7.71505C2.26876 6.21244 2.89801 4.78139 3.99248 3.73641C5.08696 2.69143 6.55711 2.11802 8.07982 2.14222C9.60148 2.11964 11.0701 2.69376 12.1632 3.73857C13.2564 4.78338 13.8848 6.21351 13.9105 7.71505C13.8832 9.21609 13.2542 10.6453 12.1614 11.6898C11.0687 12.7342 9.60101 13.3089 8.07982 13.2879Z" fill="white"/>
</svg>
