<svg width="18" height="23" viewBox="0 0 18 23" fill="none" xmlns="http://www.w3.org/2000/svg">
<path d="M16.92 1.34766H15.1523V3.89241C15.1523 4.7247 14.5195 5.39032 13.725 5.39032H13.275C12.4805 5.39032 11.8477 4.72505 11.8477 3.89241V1.34766H6.43359V3.89241C6.43359 4.7247 5.78883 5.39032 4.995 5.39032H4.545C3.75117 5.39032 3.09375 4.72505 3.09375 3.89241V1.34766H1.08C0.485859 1.34766 0 1.87072 0 2.49343V17.0243C0 17.647 0.485859 18.1566 1.08 18.1566H16.92C17.5141 18.1566 18 17.647 18 17.0243V2.49343C18 1.87072 17.5141 1.34766 16.92 1.34766ZM5.625 15.1867C5.625 15.2972 5.58148 15.4032 5.50401 15.4813C5.42654 15.5595 5.32147 15.6034 5.21191 15.6034H2.87402C2.76447 15.6034 2.6594 15.5595 2.58193 15.4813C2.50446 15.4032 2.46094 15.2972 2.46094 15.1867V13.3249C2.46094 13.2144 2.50446 13.1084 2.58193 13.0303C2.6594 12.9522 2.76447 12.9083 2.87402 12.9083H5.21191C5.32147 12.9083 5.42654 12.9522 5.50401 13.0303C5.58148 13.1084 5.625 13.2144 5.625 13.3249V15.1867ZM5.625 10.683C5.625 10.7935 5.58148 10.8995 5.50401 10.9777C5.42654 11.0558 5.32147 11.0997 5.21191 11.0997H2.87402C2.76447 11.0997 2.6594 11.0558 2.58193 10.9777C2.50446 10.8995 2.46094 10.7935 2.46094 10.683V8.82126C2.46094 8.71075 2.50446 8.60477 2.58193 8.52663C2.6594 8.44849 2.76447 8.40459 2.87402 8.40459H5.21191C5.32147 8.40459 5.42654 8.44849 5.50401 8.52663C5.58148 8.60477 5.625 8.71075 5.625 8.82126V10.683ZM10.582 15.1867C10.582 15.2972 10.5385 15.4032 10.461 15.4813C10.3836 15.5595 10.2785 15.6034 10.1689 15.6034H7.83105C7.7215 15.6034 7.61643 15.5595 7.53896 15.4813C7.46149 15.4032 7.41797 15.2972 7.41797 15.1867V13.3249C7.41797 13.2144 7.46149 13.1084 7.53896 13.0303C7.61643 12.9522 7.7215 12.9083 7.83105 12.9083H10.1689C10.2785 12.9083 10.3836 12.9522 10.461 13.0303C10.5385 13.1084 10.582 13.2144 10.582 13.3249V15.1867ZM10.582 10.683C10.582 10.7935 10.5385 10.8995 10.461 10.9777C10.3836 11.0558 10.2785 11.0997 10.1689 11.0997H7.83105C7.7215 11.0997 7.61643 11.0558 7.53896 10.9777C7.46149 10.8995 7.41797 10.7935 7.41797 10.683V8.82126C7.41797 8.71075 7.46149 8.60477 7.53896 8.52663C7.61643 8.44849 7.7215 8.40459 7.83105 8.40459H10.1689C10.2785 8.40459 10.3836 8.44849 10.461 8.52663C10.5385 8.60477 10.582 8.71075 10.582 8.82126V10.683ZM15.6445 15.1867C15.6445 15.2972 15.601 15.4032 15.5235 15.4813C15.4461 15.5595 15.341 15.6034 15.2314 15.6034H12.8936C12.784 15.6034 12.6789 15.5595 12.6015 15.4813C12.524 15.4032 12.4805 15.2972 12.4805 15.1867V13.3249C12.4805 13.2144 12.524 13.1084 12.6015 13.0303C12.6789 12.9522 12.784 12.9083 12.8936 12.9083H15.2314C15.341 12.9083 15.4461 12.9522 15.5235 13.0303C15.601 13.1084 15.6445 13.2144 15.6445 13.3249V15.1867ZM15.6445 10.683C15.6445 10.7935 15.601 10.8995 15.5235 10.9777C15.4461 11.0558 15.341 11.0997 15.2314 11.0997H12.8936C12.784 11.0997 12.6789 11.0558 12.6015 10.9777C12.524 10.8995 12.4805 10.7935 12.4805 10.683V8.82126C12.4805 8.71075 12.524 8.60477 12.6015 8.52663C12.6789 8.44849 12.784 8.40459 12.8936 8.40459H15.2314C15.341 8.40459 15.4461 8.44849 15.5235 8.52663C15.601 8.60477 15.6445 8.71075 15.6445 8.82126V10.683Z" fill="#F3A132"/>
<path d="M4.995 4.7519C5.44148 4.7519 5.80078 4.36182 5.80078 3.8923V0.849314C5.80078 0.380861 5.44148 0 4.995 0H4.545C4.09852 0 3.72656 0.380861 3.72656 0.849314V3.89266C3.72656 4.36182 4.09852 4.7519 4.545 4.7519H4.995Z" fill="#F3A132"/>
<path d="M13.725 4.7519C14.1715 4.7519 14.5195 4.36182 14.5195 3.8923V0.848959C14.5195 0.380861 14.1715 0 13.725 0H13.275C12.8285 0 12.4805 0.380861 12.4805 0.848959V3.8923C12.4805 4.36182 12.8285 4.7519 13.275 4.7519H13.725Z" fill="#F3A132"/>
</svg>
