<svg width="121" height="37" viewBox="0 0 121 37" fill="none" xmlns="http://www.w3.org/2000/svg">
<path d="M57.6397 20.225C57.6397 20.3 57.6144 20.35 57.5891 20.4C57.5638 20.45 57.4879 20.5 57.4119 20.525C57.336 20.55 57.2094 20.6 57.0575 20.6C56.9056 20.625 56.7284 20.625 56.5006 20.625C56.2728 20.625 56.0703 20.625 55.9184 20.6C55.7665 20.575 55.6399 20.55 55.564 20.525C55.4627 20.5 55.4121 20.45 55.3868 20.4C55.3615 20.35 55.3362 20.275 55.3362 20.225V12.625C55.3362 12.1 55.2855 11.625 55.1843 11.175C55.083 10.75 54.9312 10.375 54.7286 10.05C54.5261 9.72502 54.2477 9.50002 53.9439 9.32502C53.6148 9.15002 53.2604 9.07502 52.8301 9.07502C52.2985 9.07502 51.7669 9.27502 51.21 9.67502C50.6784 10.075 50.0709 10.675 49.4381 11.475V20.2C49.4381 20.275 49.4127 20.325 49.3874 20.375C49.3621 20.425 49.2862 20.475 49.2102 20.5C49.109 20.525 49.0077 20.575 48.8558 20.575C48.704 20.6 48.5268 20.6 48.2989 20.6C48.0711 20.6 47.8939 20.6 47.742 20.575C47.5901 20.55 47.4636 20.525 47.3876 20.5C47.2864 20.475 47.2358 20.425 47.2104 20.375C47.1851 20.325 47.1598 20.25 47.1598 20.2V12.625C47.1598 12.1 47.1092 11.625 47.0079 11.175C46.9067 10.75 46.7548 10.375 46.5523 10.05C46.3498 9.72502 46.0966 9.50002 45.7676 9.32502C45.4638 9.15002 45.0841 9.07502 44.6537 9.07502C44.1222 9.07502 43.5906 9.27502 43.0337 9.67502C42.5021 10.075 41.8945 10.675 41.2617 11.475V20.2C41.2617 20.275 41.2364 20.325 41.2111 20.375C41.1857 20.425 41.1098 20.475 41.0339 20.5C40.9579 20.525 40.8314 20.575 40.6795 20.575C40.5276 20.6 40.3251 20.6 40.0973 20.6C39.8694 20.6 39.6922 20.6 39.5403 20.575C39.3885 20.55 39.2619 20.525 39.186 20.5C39.0847 20.475 39.0341 20.425 39.0088 20.375C38.9834 20.325 38.9581 20.25 38.9581 20.2V7.70002C38.9581 7.62502 38.9834 7.57502 39.0088 7.52502C39.0341 7.47502 39.0847 7.42502 39.186 7.37502C39.2619 7.32502 39.3885 7.30002 39.515 7.30002C39.6416 7.27502 39.8188 7.27502 40.0466 7.27502C40.2491 7.27502 40.4263 7.27502 40.5529 7.30002C40.6795 7.32502 40.806 7.35002 40.8567 7.37502C40.9326 7.42502 40.9832 7.47502 41.0086 7.52502C41.0339 7.57502 41.0592 7.65002 41.0592 7.70002V9.35002C41.768 8.57502 42.4514 7.97502 43.1349 7.62502C43.7931 7.25002 44.4765 7.07502 45.16 7.07502C45.6916 7.07502 46.1473 7.12502 46.5776 7.25002C46.9826 7.37502 47.3623 7.55002 47.6914 7.75002C48.0205 7.97502 48.2736 8.22502 48.5014 8.52502C48.7293 8.82502 48.9065 9.15002 49.0583 9.52502C49.4887 9.07502 49.8684 8.67502 50.2481 8.37502C50.6278 8.05002 50.9822 7.80002 51.3366 7.60002C51.691 7.40002 52.0201 7.27502 52.3745 7.17502C52.7035 7.07502 53.0326 7.05002 53.387 7.05002C54.1971 7.05002 54.8805 7.20002 55.4374 7.47502C55.9943 7.75002 56.45 8.12502 56.7791 8.60002C57.1335 9.07502 57.3613 9.62502 57.5132 10.25C57.665 10.875 57.741 11.55 57.741 12.25V20.225H57.6397Z" fill="black"/>
<path d="M65.183 3.52502C65.183 4.05002 65.0818 4.42502 64.8793 4.62502C64.6768 4.82502 64.297 4.92502 63.7401 4.92502C63.2086 4.92502 62.8288 4.82502 62.6263 4.65002C62.4238 4.45002 62.3226 4.10002 62.3226 3.57502C62.3226 3.05002 62.4238 2.67502 62.6263 2.47502C62.8288 2.27502 63.2086 2.17502 63.7655 2.17502C64.297 2.17502 64.6768 2.27502 64.8793 2.45002C65.0818 2.62502 65.183 3.00002 65.183 3.52502ZM64.9299 20.225C64.9299 20.3 64.9046 20.35 64.8793 20.4C64.8539 20.45 64.778 20.5 64.7021 20.525C64.6261 20.55 64.4996 20.6 64.3477 20.6C64.1958 20.625 63.9933 20.625 63.7655 20.625C63.5376 20.625 63.3604 20.625 63.2086 20.6C63.0567 20.575 62.9301 20.55 62.8542 20.525C62.7529 20.5 62.7023 20.45 62.677 20.4C62.6517 20.35 62.6263 20.275 62.6263 20.225V7.72502C62.6263 7.65002 62.6517 7.60002 62.677 7.55002C62.7023 7.50002 62.7782 7.45002 62.8542 7.40002C62.9554 7.37502 63.0567 7.32502 63.2086 7.32502C63.3604 7.30002 63.5376 7.30002 63.7655 7.30002C63.9933 7.30002 64.1958 7.30002 64.3477 7.32502C64.4996 7.35002 64.6261 7.37502 64.7021 7.40002C64.778 7.42502 64.8539 7.47502 64.8793 7.55002C64.9046 7.60002 64.9299 7.67502 64.9299 7.72502V20.225Z" fill="black"/>
<path d="M77.3084 8.55C77.3084 8.75 77.3084 8.925 77.2831 9.075C77.2831 9.225 77.2578 9.325 77.2325 9.4C77.2071 9.475 77.1818 9.55 77.1312 9.575C77.0806 9.625 77.0299 9.65 76.954 9.65C76.8781 9.65 76.7768 9.625 76.6755 9.575C76.5743 9.525 76.4477 9.5 76.3212 9.45C76.1946 9.4 76.0427 9.375 75.8655 9.325C75.6883 9.3 75.5111 9.275 75.3086 9.275C75.0808 9.275 74.8529 9.325 74.6251 9.425C74.3973 9.525 74.1695 9.675 73.9163 9.875C73.6632 10.1 73.4101 10.375 73.1316 10.725C72.8532 11.075 72.5494 11.5 72.2203 12.025V20.25C72.2203 20.325 72.195 20.375 72.1697 20.425C72.1444 20.475 72.0684 20.525 71.9925 20.55C71.9165 20.575 71.79 20.625 71.6381 20.625C71.4862 20.65 71.2837 20.65 71.0559 20.65C70.828 20.65 70.6508 20.65 70.499 20.625C70.3471 20.6 70.2205 20.575 70.1446 20.55C70.0433 20.525 69.9927 20.475 69.9674 20.425C69.9421 20.375 69.9167 20.3 69.9167 20.25V7.75C69.9167 7.675 69.9421 7.625 69.9674 7.575C69.9927 7.525 70.0433 7.475 70.1446 7.425C70.2205 7.375 70.3471 7.35 70.4736 7.35C70.6002 7.325 70.7774 7.325 71.0052 7.325C71.2078 7.325 71.3849 7.325 71.5115 7.35C71.6381 7.375 71.7647 7.4 71.8153 7.425C71.8912 7.475 71.9419 7.525 71.9672 7.575C71.9925 7.625 72.0178 7.7 72.0178 7.75V9.575C72.3722 9.075 72.7013 8.675 73.005 8.35C73.3088 8.025 73.5873 7.8 73.8657 7.6C74.1442 7.425 74.3973 7.3 74.6758 7.225C74.9542 7.15 75.2073 7.125 75.4858 7.125C75.6124 7.125 75.7389 7.125 75.8908 7.15C76.0427 7.175 76.1946 7.2 76.3718 7.225C76.549 7.25 76.7009 7.3 76.8274 7.35C76.954 7.4 77.0553 7.45 77.1059 7.5C77.1565 7.55 77.2071 7.6 77.2071 7.625C77.2325 7.675 77.2325 7.725 77.2578 7.775C77.2831 7.85 77.2831 7.925 77.2831 8.05C77.3084 8.175 77.3084 8.35 77.3084 8.55Z" fill="black"/>
<path d="M91.1044 13.45C91.1044 13.8 91.0031 14.075 90.8259 14.225C90.6487 14.375 90.4209 14.45 90.1931 14.45H81.8648C81.8648 15.15 81.9408 15.775 82.0674 16.325C82.2192 16.875 82.4471 17.35 82.7761 17.75C83.1052 18.15 83.5356 18.45 84.0671 18.675C84.5987 18.9 85.2316 19 85.991 19C86.5985 19 87.1301 18.95 87.6111 18.85C88.092 18.75 88.4971 18.65 88.8261 18.525C89.1805 18.4 89.459 18.3 89.6615 18.2C89.8893 18.1 90.0412 18.05 90.1678 18.05C90.2437 18.05 90.2943 18.075 90.345 18.1C90.3956 18.125 90.4462 18.175 90.4715 18.25C90.4969 18.325 90.5222 18.4 90.5475 18.525C90.5728 18.65 90.5728 18.775 90.5728 18.95C90.5728 19.075 90.5728 19.175 90.5475 19.25C90.5475 19.35 90.5222 19.425 90.5222 19.475C90.4969 19.55 90.4969 19.6 90.4462 19.675C90.4209 19.725 90.3703 19.775 90.3197 19.825C90.269 19.875 90.1171 19.95 89.864 20.075C89.6109 20.2 89.2818 20.3 88.8768 20.425C88.4717 20.525 88.0161 20.625 87.4845 20.725C86.9529 20.825 86.396 20.85 85.7885 20.85C84.7506 20.85 83.8393 20.7 83.0546 20.425C82.2699 20.15 81.6117 19.7 81.0801 19.15C80.5485 18.575 80.1435 17.875 79.865 17.025C79.5866 16.175 79.46 15.175 79.46 14.05C79.46 12.975 79.6119 12 79.8904 11.15C80.1688 10.3 80.5738 9.575 81.1054 8.975C81.637 8.375 82.2699 7.925 83.0293 7.6C83.7887 7.275 84.624 7.125 85.5353 7.125C86.5226 7.125 87.3833 7.275 88.0667 7.6C88.7755 7.925 89.3324 8.35 89.7881 8.875C90.2437 9.4 90.5728 10.025 90.7753 10.75C90.9778 11.475 91.0791 12.225 91.0791 13.05V13.45H91.1044ZM88.7755 12.775C88.8008 11.575 88.5224 10.625 87.9655 9.95C87.3833 9.275 86.5479 8.925 85.4341 8.925C84.8519 8.925 84.3456 9.025 83.9153 9.25C83.4849 9.475 83.1305 9.75 82.8268 10.1C82.523 10.45 82.3205 10.85 82.1433 11.325C81.9914 11.8 81.8902 12.275 81.8648 12.8H88.7755V12.775Z" fill="black"/>
<path d="M97.6607 20.225C97.6607 20.3 97.6354 20.35 97.6101 20.4C97.5847 20.45 97.5088 20.5 97.4329 20.525C97.3569 20.55 97.2303 20.6 97.0785 20.6C96.9266 20.625 96.7241 20.625 96.4962 20.625C96.2684 20.625 96.0912 20.625 95.9393 20.6C95.7875 20.575 95.6609 20.55 95.5849 20.525C95.4837 20.5 95.4331 20.45 95.4077 20.4C95.3824 20.35 95.3571 20.275 95.3571 20.225V1.67501C95.3571 1.60001 95.3824 1.52501 95.4077 1.47501C95.4331 1.42501 95.509 1.37501 95.5849 1.32501C95.6862 1.30001 95.7875 1.25001 95.9393 1.25001C96.0912 1.22501 96.2684 1.22501 96.4962 1.22501C96.7241 1.22501 96.9266 1.22501 97.0785 1.25001C97.2303 1.27501 97.3569 1.30001 97.4329 1.32501C97.5088 1.35001 97.5847 1.40001 97.6101 1.47501C97.6354 1.52501 97.6607 1.60001 97.6607 1.67501V20.225Z" fill="black"/>
<path d="M105.255 3.52502C105.255 4.05002 105.154 4.42502 104.951 4.62502C104.749 4.82502 104.369 4.92502 103.812 4.92502C103.28 4.92502 102.901 4.82502 102.698 4.65002C102.496 4.45002 102.394 4.10002 102.394 3.57502C102.394 3.05002 102.496 2.67502 102.698 2.47502C102.901 2.27502 103.28 2.17502 103.837 2.17502C104.369 2.17502 104.749 2.27502 104.951 2.45002C105.154 2.62502 105.255 3.00002 105.255 3.52502ZM105.002 20.225C105.002 20.3 104.976 20.35 104.951 20.4C104.926 20.45 104.85 20.5 104.774 20.525C104.698 20.55 104.571 20.6 104.419 20.6C104.268 20.625 104.065 20.625 103.837 20.625C103.609 20.625 103.432 20.625 103.28 20.6C103.128 20.575 103.002 20.55 102.926 20.525C102.825 20.5 102.774 20.45 102.749 20.4C102.723 20.35 102.698 20.275 102.698 20.225V7.72502C102.698 7.65002 102.723 7.60002 102.749 7.55002C102.774 7.50002 102.85 7.45002 102.926 7.40002C103.027 7.37502 103.128 7.32502 103.28 7.32502C103.432 7.30002 103.609 7.30002 103.837 7.30002C104.065 7.30002 104.268 7.30002 104.419 7.32502C104.571 7.35002 104.698 7.37502 104.774 7.40002C104.85 7.42502 104.926 7.47502 104.951 7.55002C104.976 7.60002 105.002 7.67502 105.002 7.72502V20.225Z" fill="black"/>
<path d="M119.532 20.25C119.532 20.35 119.506 20.45 119.431 20.5C119.355 20.55 119.253 20.6 119.127 20.625C119 20.65 118.798 20.675 118.545 20.675C118.291 20.675 118.114 20.65 117.962 20.625C117.81 20.6 117.709 20.55 117.659 20.5C117.583 20.45 117.557 20.35 117.557 20.25V19C117 19.575 116.393 20.025 115.709 20.35C115.026 20.675 114.317 20.825 113.558 20.825C112.9 20.825 112.292 20.75 111.76 20.575C111.229 20.4 110.773 20.15 110.393 19.825C110.014 19.5 109.71 19.1 109.508 18.625C109.305 18.15 109.204 17.625 109.204 17.025C109.204 16.325 109.356 15.7 109.634 15.2C109.913 14.675 110.343 14.25 110.874 13.9C111.406 13.55 112.09 13.3 112.874 13.125C113.659 12.95 114.545 12.875 115.532 12.875H117.279V11.9C117.279 11.425 117.228 11 117.127 10.625C117.026 10.25 116.849 9.94999 116.621 9.69999C116.393 9.44999 116.089 9.27499 115.735 9.14999C115.38 9.02499 114.925 8.97499 114.393 8.97499C113.811 8.97499 113.305 9.04999 112.849 9.17499C112.393 9.29999 111.988 9.44999 111.659 9.62499C111.305 9.77499 111.026 9.92499 110.799 10.075C110.571 10.2 110.393 10.275 110.292 10.275C110.216 10.275 110.14 10.25 110.09 10.225C110.039 10.2 109.988 10.125 109.938 10.05C109.887 9.97499 109.862 9.87499 109.837 9.77499C109.811 9.64999 109.811 9.52499 109.811 9.39999C109.811 9.17499 109.837 8.97499 109.862 8.84999C109.887 8.72499 109.963 8.59999 110.09 8.47499C110.216 8.34999 110.444 8.22499 110.748 8.04999C111.052 7.89999 111.406 7.74999 111.811 7.59999C112.216 7.47499 112.646 7.34999 113.127 7.27499C113.608 7.17499 114.089 7.14999 114.57 7.14999C115.482 7.14999 116.241 7.24999 116.899 7.44999C117.532 7.64999 118.064 7.94999 118.443 8.34999C118.848 8.74999 119.127 9.22499 119.304 9.82499C119.481 10.4 119.582 11.1 119.582 11.875V20.25H119.532ZM117.228 14.55H115.254C114.621 14.55 114.064 14.6 113.583 14.7C113.102 14.8 112.722 14.975 112.419 15.175C112.115 15.375 111.887 15.625 111.735 15.925C111.583 16.225 111.507 16.55 111.507 16.925C111.507 17.575 111.71 18.1 112.14 18.475C112.545 18.85 113.153 19.05 113.887 19.05C114.494 19.05 115.051 18.9 115.583 18.6C116.114 18.3 116.646 17.825 117.228 17.2V14.55Z" fill="black"/>
<path d="M45.6661 34.825C45.6661 34.925 45.6408 35 45.6155 35.075C45.5902 35.15 45.5395 35.225 45.4889 35.275C45.4383 35.325 45.3623 35.35 45.2864 35.375C45.2104 35.4 45.1345 35.4 45.0586 35.4H44.3498C44.1979 35.4 44.0713 35.375 43.9701 35.35C43.8688 35.325 43.7676 35.275 43.6663 35.2C43.565 35.125 43.4891 35.025 43.4132 34.875C43.3372 34.75 43.236 34.575 43.1347 34.375L41.0843 30.6C40.9577 30.375 40.8565 30.125 40.7299 29.875C40.6033 29.625 40.5021 29.35 40.4008 29.125C40.4261 29.425 40.4261 29.725 40.4514 30.025C40.4514 30.325 40.4514 30.625 40.4514 30.95V35.175C40.4514 35.225 40.4514 35.25 40.4261 35.3C40.4008 35.35 40.3502 35.35 40.2996 35.375C40.2489 35.4 40.173 35.425 40.0717 35.425C39.9705 35.425 39.8439 35.45 39.692 35.45C39.5401 35.45 39.4136 35.45 39.3123 35.425C39.2111 35.425 39.1351 35.4 39.0845 35.375C39.0339 35.35 38.9832 35.325 38.9579 35.3C38.9326 35.275 38.9326 35.225 38.9326 35.175V27.9C38.9326 27.7 38.9832 27.55 39.1098 27.45C39.2364 27.35 39.363 27.3 39.5401 27.3H40.4261C40.578 27.3 40.7299 27.325 40.8312 27.35C40.9324 27.375 41.0337 27.425 41.1349 27.475C41.2109 27.525 41.3121 27.625 41.3881 27.725C41.464 27.825 41.5399 27.975 41.6159 28.125L43.2107 31.075C43.3119 31.25 43.3879 31.425 43.4891 31.6C43.5904 31.775 43.6663 31.95 43.7422 32.125C43.8182 32.3 43.9194 32.475 43.9954 32.625C44.0713 32.8 44.1473 32.95 44.2232 33.125C44.1979 32.825 44.1979 32.525 44.1979 32.2C44.1979 31.875 44.1979 31.575 44.1979 31.3V27.5C44.1979 27.45 44.2232 27.425 44.2485 27.375C44.2738 27.325 44.3245 27.3 44.3751 27.275C44.4257 27.25 44.5017 27.225 44.6029 27.225C44.7042 27.225 44.8307 27.2 44.9826 27.2C45.1345 27.2 45.2358 27.2 45.337 27.225C45.4383 27.225 45.5142 27.25 45.5648 27.275C45.6155 27.3 45.6661 27.325 45.6661 27.375C45.6914 27.4 45.6914 27.45 45.6914 27.5V34.825H45.6661Z" fill="#E74D87"/>
<path d="M55.1335 34.75C55.1335 34.875 55.1335 34.975 55.1082 35.05C55.1082 35.125 55.0829 35.2 55.0575 35.25C55.0322 35.3 55.0069 35.325 54.9816 35.35C54.9563 35.375 54.9057 35.375 54.8804 35.375H50.7542C50.6023 35.375 50.5011 35.325 50.3998 35.25C50.2986 35.175 50.2479 35.025 50.2479 34.85V27.8C50.2479 27.625 50.2986 27.475 50.3998 27.4C50.5011 27.325 50.6023 27.275 50.7542 27.275H54.855C54.8803 27.275 54.931 27.275 54.9563 27.3C54.9816 27.325 55.0069 27.35 55.0322 27.4C55.0575 27.45 55.0575 27.525 55.0829 27.6C55.0829 27.675 55.1082 27.775 55.1082 27.9C55.1082 28.025 55.1082 28.125 55.0829 28.2C55.0829 28.275 55.0575 28.35 55.0322 28.4C55.0069 28.45 54.9816 28.475 54.9563 28.5C54.931 28.525 54.8803 28.525 54.855 28.525H51.9186V30.5H54.3994C54.45 30.5 54.4753 30.5 54.5006 30.525C54.526 30.55 54.5513 30.575 54.5766 30.625C54.6019 30.675 54.6019 30.75 54.6272 30.825C54.6272 30.9 54.6525 31 54.6525 31.125C54.6525 31.25 54.6525 31.35 54.6272 31.425C54.6272 31.5 54.6019 31.575 54.5766 31.625C54.5513 31.675 54.526 31.7 54.5006 31.725C54.4753 31.75 54.4247 31.75 54.3994 31.75H51.9186V34.025H54.8804C54.9057 34.025 54.9563 34.025 54.9816 34.05C55.0069 34.075 55.0322 34.1 55.0575 34.15C55.0829 34.2 55.0829 34.275 55.1082 34.35C55.1335 34.525 55.1335 34.625 55.1335 34.75Z" fill="#E74D87"/>
<path d="M64.9046 27.975C64.9046 28.1 64.9046 28.2 64.8793 28.275C64.854 28.35 64.854 28.425 64.8287 28.475C64.8033 28.525 64.778 28.575 64.7527 28.6C64.7274 28.625 64.6768 28.65 64.6515 28.65H62.601V35.175C62.601 35.225 62.5757 35.25 62.5504 35.3C62.5251 35.35 62.4745 35.35 62.4238 35.375C62.3479 35.4 62.272 35.425 62.1707 35.425C62.0694 35.425 61.9176 35.45 61.7657 35.45C61.6138 35.45 61.4619 35.45 61.3607 35.425C61.2594 35.425 61.1581 35.4 61.1075 35.375C61.0316 35.35 61.0063 35.325 60.981 35.3C60.9556 35.275 60.9303 35.225 60.9303 35.175V28.65H58.8799C58.8293 28.65 58.804 28.65 58.7787 28.6C58.7533 28.55 58.728 28.525 58.7027 28.475C58.6774 28.425 58.6774 28.35 58.6521 28.275C58.6268 28.2 58.6268 28.075 58.6268 27.975C58.6268 27.85 58.6268 27.75 58.6521 27.65C58.6521 27.575 58.6774 27.5 58.7027 27.45C58.728 27.4 58.7533 27.35 58.7787 27.325C58.804 27.3 58.8546 27.3 58.8799 27.3H64.6515C64.7021 27.3 64.7274 27.3 64.7527 27.325C64.778 27.35 64.8033 27.375 64.8287 27.45C64.854 27.525 64.854 27.575 64.8793 27.65C64.8793 27.725 64.9046 27.85 64.9046 27.975Z" fill="#E74D87"/>
<path d="M77.3337 34.975C77.3084 35.075 77.2831 35.15 77.2324 35.225C77.1818 35.275 77.1312 35.325 77.0299 35.375C76.9287 35.4 76.8274 35.425 76.6755 35.45C76.5236 35.45 76.3464 35.475 76.1439 35.475C75.8908 35.475 75.7136 35.475 75.5617 35.45C75.4098 35.45 75.3086 35.425 75.2073 35.375C75.1314 35.35 75.0554 35.3 75.0301 35.225C75.0048 35.175 74.9542 35.075 74.9289 34.975L73.6125 29.85H73.5872L72.3469 34.975C72.3215 35.075 72.2962 35.15 72.2456 35.2C72.195 35.25 72.1443 35.3 72.0684 35.35C71.9925 35.375 71.8659 35.4 71.7393 35.425C71.5874 35.425 71.4102 35.45 71.1824 35.45C70.9293 35.45 70.7521 35.45 70.6002 35.425C70.4483 35.425 70.3471 35.4 70.2458 35.35C70.1699 35.325 70.0939 35.275 70.0686 35.2C70.018 35.15 69.9927 35.05 69.9674 34.95L68.0941 27.875C68.0435 27.725 68.0435 27.6 68.0182 27.525C68.0182 27.45 68.0435 27.375 68.0941 27.325C68.1448 27.275 68.246 27.25 68.3473 27.25C68.4738 27.25 68.6257 27.225 68.8535 27.225C69.0561 27.225 69.2079 27.225 69.3345 27.225C69.4611 27.225 69.537 27.25 69.5876 27.275C69.6383 27.3 69.6889 27.325 69.7142 27.375C69.7395 27.425 69.7648 27.475 69.7648 27.55L71.2077 33.75L72.7013 27.6C72.7266 27.525 72.7519 27.45 72.7772 27.4C72.8025 27.35 72.8531 27.3 72.9291 27.275C73.005 27.25 73.081 27.225 73.2075 27.225C73.3341 27.225 73.486 27.2 73.6632 27.2C73.8657 27.2 74.0176 27.2 74.1441 27.225C74.2707 27.25 74.3467 27.25 74.4226 27.275C74.4985 27.3 74.5238 27.35 74.5745 27.4C74.5998 27.45 74.6251 27.525 74.6504 27.6L76.1946 33.75L77.6375 27.575C77.6375 27.5 77.6628 27.45 77.6881 27.4C77.7134 27.35 77.7387 27.325 77.8146 27.275C77.8653 27.25 77.9665 27.225 78.0678 27.225C78.169 27.225 78.3209 27.2 78.5234 27.2C78.7006 27.2 78.8525 27.2 78.9538 27.225C79.055 27.225 79.131 27.275 79.1816 27.3C79.2322 27.325 79.2575 27.425 79.2322 27.5C79.2322 27.6 79.2069 27.7 79.1563 27.875L77.3337 34.975Z" fill="#E74D87"/>
<path d="M90.4968 31.25C90.4968 31.925 90.4209 32.525 90.2437 33.05C90.0665 33.575 89.8134 34.025 89.4843 34.4C89.1552 34.775 88.7249 35.05 88.2439 35.25C87.7629 35.45 87.1807 35.55 86.5479 35.55C85.915 35.55 85.3581 35.475 84.8772 35.3C84.3962 35.125 84.0165 34.875 83.6874 34.55C83.3583 34.225 83.1305 33.775 82.9786 33.25C82.8267 32.725 82.7508 32.1 82.7508 31.4C82.7508 30.75 82.8267 30.15 83.0039 29.625C83.1811 29.1 83.4343 28.65 83.7633 28.3C84.0924 27.925 84.4974 27.65 85.0037 27.45C85.4847 27.25 86.0669 27.15 86.7251 27.15C87.3579 27.15 87.8895 27.225 88.3705 27.4C88.8514 27.575 89.2311 27.825 89.5602 28.15C89.8893 28.5 90.1171 28.925 90.2943 29.425C90.4209 29.95 90.4968 30.55 90.4968 31.25ZM88.7502 31.325C88.7502 30.9 88.7249 30.525 88.6489 30.175C88.573 29.825 88.4717 29.525 88.2945 29.275C88.1426 29.025 87.9148 28.825 87.6364 28.7C87.3579 28.575 87.0288 28.5 86.6238 28.5C86.2188 28.5 85.8644 28.575 85.5859 28.725C85.3075 28.875 85.0797 29.075 84.9278 29.325C84.7506 29.575 84.6493 29.875 84.5734 30.225C84.4975 30.575 84.4721 30.925 84.4721 31.3C84.4721 31.75 84.4975 32.15 84.5734 32.5C84.6493 32.85 84.7506 33.15 84.9278 33.4C85.0797 33.65 85.3075 33.85 85.5859 33.975C85.8644 34.1 86.1935 34.175 86.5985 34.175C87.0035 34.175 87.3579 34.1 87.6364 33.95C87.9148 33.8 88.1426 33.6 88.2945 33.325C88.4717 33.075 88.573 32.775 88.6489 32.425C88.7249 32.1 88.7502 31.725 88.7502 31.325Z" fill="#E74D87"/>
<path d="M100.825 35.175C100.825 35.225 100.825 35.25 100.8 35.3C100.774 35.325 100.749 35.35 100.673 35.375C100.597 35.4 100.521 35.4 100.395 35.425C100.268 35.425 100.116 35.425 99.8883 35.425C99.7111 35.425 99.5592 35.425 99.4579 35.425C99.3567 35.425 99.2807 35.4 99.2048 35.375C99.1542 35.35 99.1035 35.325 99.0782 35.275C99.0529 35.25 99.0276 35.2 99.0023 35.15L98.2682 33.35C98.1669 33.15 98.091 32.975 98.015 32.8C97.9391 32.65 97.8378 32.5 97.7366 32.4C97.6353 32.3 97.5088 32.225 97.3822 32.15C97.2556 32.1 97.0784 32.075 96.9012 32.075H96.3696V35.15C96.3696 35.2 96.3443 35.225 96.319 35.275C96.2937 35.325 96.2431 35.325 96.1924 35.35C96.1165 35.375 96.0406 35.4 95.9393 35.4C95.838 35.4 95.6862 35.425 95.5343 35.425C95.3824 35.425 95.2305 35.425 95.1293 35.4C95.028 35.375 94.9267 35.375 94.8761 35.35C94.8002 35.325 94.7749 35.3 94.7496 35.275C94.7242 35.25 94.7242 35.2 94.7242 35.15V27.8C94.7242 27.625 94.7749 27.475 94.8761 27.4C94.9774 27.325 95.0786 27.275 95.2305 27.275H97.3569C97.5847 27.275 97.7619 27.275 97.8885 27.3C98.0404 27.3 98.1669 27.325 98.2682 27.325C98.5973 27.375 98.901 27.45 99.1542 27.575C99.4073 27.7 99.6351 27.825 99.8376 28.025C100.015 28.2 100.167 28.425 100.268 28.675C100.369 28.925 100.42 29.2 100.42 29.525C100.42 29.8 100.395 30.05 100.319 30.275C100.243 30.5 100.141 30.7 100.015 30.875C99.8883 31.05 99.7111 31.2 99.5086 31.325C99.306 31.45 99.0782 31.55 98.8251 31.65C98.9516 31.7 99.0529 31.775 99.1795 31.875C99.2807 31.95 99.382 32.05 99.4832 32.175C99.5845 32.3 99.6604 32.425 99.7617 32.575C99.8629 32.725 99.9389 32.9 100.015 33.1L100.698 34.7C100.774 34.85 100.8 34.975 100.825 35.05C100.8 35.075 100.825 35.125 100.825 35.175ZM98.6732 29.675C98.6732 29.4 98.6226 29.175 98.496 29C98.3694 28.825 98.1669 28.675 97.8885 28.6C97.8125 28.575 97.7113 28.55 97.61 28.55C97.5088 28.55 97.3569 28.525 97.1544 28.525H96.3949V30.825H97.2556C97.4834 30.825 97.7113 30.8 97.8885 30.75C98.0657 30.7 98.2175 30.625 98.3441 30.5C98.4707 30.4 98.5466 30.275 98.6226 30.125C98.6479 30.025 98.6732 29.85 98.6732 29.675Z" fill="#E74D87"/>
<path d="M110.849 35.15C110.849 35.2 110.849 35.225 110.824 35.275C110.799 35.3 110.748 35.35 110.697 35.375C110.647 35.4 110.545 35.425 110.419 35.425C110.292 35.425 110.166 35.45 109.988 35.45C109.71 35.45 109.508 35.45 109.406 35.425C109.28 35.4 109.204 35.375 109.153 35.325C109.103 35.275 109.052 35.225 109.027 35.175L106.546 31.325V35.175C106.546 35.225 106.521 35.25 106.495 35.3C106.47 35.325 106.419 35.35 106.369 35.375C106.318 35.4 106.217 35.425 106.115 35.425C106.014 35.425 105.862 35.45 105.71 35.45C105.559 35.45 105.407 35.45 105.305 35.425C105.204 35.425 105.103 35.4 105.052 35.375C105.002 35.35 104.951 35.325 104.926 35.3C104.9 35.275 104.875 35.225 104.875 35.175V27.55C104.875 27.5 104.9 27.475 104.926 27.425C104.951 27.375 105.002 27.375 105.052 27.35C105.128 27.325 105.204 27.325 105.305 27.3C105.407 27.3 105.559 27.275 105.71 27.275C105.888 27.275 106.014 27.275 106.115 27.3C106.217 27.325 106.318 27.325 106.369 27.35C106.445 27.375 106.47 27.4 106.495 27.425C106.521 27.45 106.546 27.5 106.546 27.55V31L108.951 27.55C108.976 27.5 109.027 27.45 109.052 27.425C109.103 27.4 109.153 27.35 109.229 27.35C109.305 27.325 109.381 27.325 109.482 27.3C109.583 27.3 109.735 27.275 109.887 27.275C110.064 27.275 110.191 27.275 110.318 27.3C110.419 27.325 110.52 27.325 110.571 27.35C110.647 27.375 110.672 27.4 110.697 27.425C110.723 27.45 110.748 27.5 110.748 27.55C110.748 27.625 110.723 27.7 110.697 27.775C110.672 27.85 110.596 27.975 110.469 28.125L108.217 31.025L110.672 34.675C110.773 34.85 110.824 34.95 110.849 35.025C110.874 35.1 110.849 35.125 110.849 35.15Z" fill="#E74D87"/>
<path d="M119.557 32.975C119.557 33.4 119.481 33.775 119.304 34.1C119.152 34.425 118.924 34.7 118.646 34.9C118.367 35.125 118.038 35.275 117.684 35.375C117.304 35.475 116.924 35.55 116.494 35.55C116.216 35.55 115.937 35.525 115.709 35.475C115.456 35.425 115.254 35.375 115.077 35.3C114.899 35.225 114.747 35.175 114.621 35.1C114.494 35.025 114.418 34.975 114.342 34.9C114.266 34.825 114.241 34.775 114.216 34.675C114.191 34.575 114.191 34.425 114.191 34.225C114.191 34.1 114.191 33.975 114.191 33.9C114.191 33.825 114.216 33.75 114.241 33.675C114.266 33.6 114.292 33.575 114.317 33.55C114.342 33.525 114.393 33.525 114.418 33.525C114.469 33.525 114.57 33.55 114.672 33.625C114.773 33.7 114.925 33.775 115.077 33.85C115.254 33.925 115.456 34 115.684 34.075C115.912 34.15 116.19 34.175 116.494 34.175C116.697 34.175 116.874 34.15 117.051 34.1C117.203 34.05 117.355 33.975 117.456 33.9C117.557 33.825 117.659 33.7 117.709 33.575C117.76 33.45 117.81 33.3 117.81 33.15C117.81 32.975 117.76 32.8 117.659 32.675C117.557 32.55 117.431 32.425 117.254 32.325C117.102 32.225 116.899 32.125 116.697 32.025C116.494 31.925 116.266 31.85 116.064 31.75C115.836 31.65 115.633 31.525 115.431 31.4C115.228 31.275 115.051 31.125 114.874 30.95C114.722 30.775 114.57 30.575 114.469 30.325C114.368 30.075 114.317 29.8 114.317 29.45C114.317 29.05 114.393 28.725 114.545 28.425C114.697 28.125 114.899 27.875 115.127 27.7C115.38 27.5 115.659 27.35 116.013 27.275C116.342 27.175 116.697 27.125 117.076 27.125C117.279 27.125 117.456 27.15 117.659 27.175C117.861 27.2 118.038 27.25 118.215 27.3C118.393 27.35 118.545 27.4 118.671 27.475C118.798 27.55 118.899 27.6 118.924 27.625C118.975 27.675 119 27.7 119 27.725C119.025 27.75 119.025 27.8 119.051 27.85C119.051 27.9 119.076 27.95 119.076 28.025C119.076 28.1 119.076 28.2 119.076 28.3C119.076 28.425 119.076 28.525 119.076 28.6C119.076 28.675 119.051 28.75 119.051 28.8C119.051 28.85 119.025 28.9 119 28.925C118.975 28.95 118.924 28.975 118.899 28.975C118.874 28.975 118.772 28.95 118.671 28.875C118.57 28.8 118.443 28.75 118.291 28.675C118.139 28.6 117.962 28.55 117.785 28.475C117.608 28.4 117.38 28.4 117.152 28.4C116.975 28.4 116.823 28.425 116.671 28.475C116.545 28.525 116.418 28.575 116.342 28.65C116.241 28.725 116.19 28.825 116.14 28.925C116.089 29.025 116.064 29.15 116.064 29.275C116.064 29.45 116.114 29.6 116.216 29.75C116.317 29.875 116.443 30 116.621 30.1C116.798 30.2 116.975 30.3 117.178 30.4C117.38 30.5 117.608 30.575 117.836 30.675C118.064 30.775 118.266 30.9 118.494 31.025C118.696 31.15 118.899 31.3 119.051 31.475C119.228 31.65 119.355 31.85 119.456 32.1C119.506 32.35 119.557 32.625 119.557 32.975Z" fill="#E74D87"/>
<path d="M29.4653 6.97501L18.96 27.7L17.6943 25.2L26.9339 6.97501H24.4531L16.454 22.775L8.45481 6.97501H5.97405L15.2136 25.225L13.9479 27.725L3.46799 6.97501H1.26569V35.45H3.46799V11.85L15.4414 35.5H17.4665L29.44 11.85V35.45H31.6423V6.97501H29.4653ZM16.454 32.625L15.1883 30.125L16.454 27.625L17.7197 30.125L16.454 32.625Z" fill="url(#paint0_linear)"/>
<defs>
<linearGradient id="paint0_linear" x1="1.26569" y1="21.2346" x2="31.661" y2="21.2346" gradientUnits="userSpaceOnUse">
<stop stop-color="#6D2E87"/>
<stop offset="1" stop-color="#E94E85"/>
</linearGradient>
</defs>
</svg>
