<svg width="843" height="581" viewBox="0 0 843 581" fill="none" xmlns="http://www.w3.org/2000/svg">
<path d="M472.765 317.906C464.353 325.383 444.351 336.973 433.509 323.327C422.106 308.933 436.313 288.183 444.912 281.08C454.072 273.602 468.466 269.677 479.121 280.332C491.085 292.109 480.43 311.176 472.765 317.906Z" fill="#773288"/>
<path d="M294.991 380.715C324.9 358.657 307.702 428.384 339.855 432.683C370.512 436.796 450.52 347.628 519.311 370.434C535.761 375.855 537.257 376.603 535.761 377.164C540.808 374.921 541.93 366.135 527.723 356.975C485.663 330.056 418.928 348.937 415.376 323.514C410.142 287.996 522.115 199.016 409.768 187.987C316.862 178.827 410.703 142.375 392.57 79.3785C373.877 14.1387 254.987 -1.56371 207.693 0.118692C73.2876 5.35283 -0.925091 113.214 0.00957701 209.858C1.31811 331.552 121.143 508.952 294.991 380.715Z" fill="#773288"/>
<path d="M667.55 557.368C668.859 554.564 666.802 555.872 670.728 556.059C675.027 556.246 674.467 561.293 673.719 564.097C671.663 571.575 674.654 577.37 665.868 578.304C663.998 578.491 645.679 579.239 649.604 575.687C651.287 574.192 658.577 572.136 660.634 571.575C665.12 570.266 665.494 561.48 667.55 557.368Z" fill="#E6A583"/>
<path d="M672.41 572.322C672.037 575.874 670.915 578.491 665.681 579.052C663.811 579.239 641.192 580.547 647.174 576.248C649.418 574.566 658.577 572.135 660.634 571.575C660.82 571.575 661.194 571.388 661.381 571.201C661.007 572.135 660.82 573.257 662.129 573.818C663.438 574.752 671.85 574.565 672.41 572.322Z" fill="#3B2F4E"/>
<path d="M723.443 556.433C722.882 553.442 722.135 555.685 725.126 553.442C728.49 551.012 731.294 555.125 732.416 557.929C735.407 565.219 740.454 566.714 734.098 572.883C732.79 574.192 726.247 582.417 725.312 579.052C724.752 576.809 725.686 577.744 726.808 576.061C729.799 572.136 724.378 560.92 723.443 556.433Z" fill="#E6A583"/>
<path d="M736.528 565.219C734.472 564.845 730.92 572.696 729.238 572.883C728.116 573.07 727.929 572.509 727.743 572.135C727.743 572.322 727.743 573.444 726.995 574.753C725.873 576.622 718.957 580.548 723.443 580.734C731.668 581.108 733.164 576.996 736.902 572.883C740.454 568.958 738.398 568.21 736.528 565.219Z" fill="#3B2F4E"/>
<path d="M726.995 567.649C720.265 565.967 710.171 541.105 707.18 534.375C704.002 527.645 691.104 499.605 691.477 491.567C691.851 483.529 717.461 451.376 716.9 459.228C716.34 467.079 713.723 489.885 716.9 499.418C718.957 505.587 739.519 559.237 735.594 563.537C734.098 565.219 729.425 568.397 726.995 567.649Z" fill="#3B2F4E"/>
<path d="M695.59 498.297C691.291 506.522 680.262 565.967 674.093 570.079C671.102 572.135 657.269 573.257 658.017 565.032C658.764 556.807 676.149 453.993 683.439 455.863C690.543 457.732 716.153 440.534 717.648 446.89C722.135 465.957 712.414 465.77 695.59 498.297Z" fill="#514269"/>
<path d="M669.045 395.67C673.719 395.296 672.41 396.044 673.345 396.979C674.84 398.661 674.093 400.343 672.597 401.652C671.289 402.774 669.793 403.334 668.298 404.082C666.428 404.83 664.372 405.578 662.503 406.512C660.073 407.447 657.642 408.382 655.399 409.69C654.838 410.064 654.278 410.251 653.717 410.625C653.343 410.812 652.969 410.999 652.595 410.999C651.848 410.999 652.034 409.69 652.221 409.316C652.221 408.755 653.904 397.166 669.045 395.67Z" fill="#F3A132"/>
<path d="M623.434 425.766C623.247 424.645 623.807 422.028 624.929 421.841C626.238 421.654 626.798 423.149 627.733 424.832C628.481 425.953 630.35 427.823 630.537 427.636C630.911 427.449 629.602 426.514 629.416 426.14C629.042 425.766 627.546 425.206 628.294 424.645C629.416 423.897 633.154 428.01 634.089 428.757C634.837 429.318 635.584 430.066 635.771 431.188C635.958 432.309 633.902 432.683 633.154 432.683C629.789 433.244 626.238 431.374 624.368 428.57C623.807 427.823 623.621 426.888 623.434 425.766Z" fill="#D9806F"/>
<path d="M631.472 433.618C631.285 431.748 635.584 426.701 638.762 428.757C641.94 430.814 655.026 442.03 658.203 440.908C666.989 437.917 667.55 406.699 681.383 413.055C693.347 418.663 670.728 450.442 660.26 452.311C649.978 454.367 631.659 435.674 631.472 433.618Z" fill="#F19921"/>
<path d="M648.67 405.017C647.548 403.895 646.24 403.335 644.744 404.082C644.557 404.082 644.557 404.269 644.37 404.269C643.249 402.026 641.005 400.904 638.575 400.718C635.397 400.718 632.033 402.026 629.602 403.895C627.546 405.391 625.864 407.634 625.864 410.438C625.864 411.373 626.051 412.494 626.238 413.429C626.425 414.364 626.612 415.298 626.985 416.233C627.359 416.981 628.107 417.728 628.855 418.102C629.416 418.476 630.163 418.85 630.537 419.411C630.911 419.972 631.098 420.719 631.098 421.467C631.098 422.402 630.911 424.832 632.406 425.019C633.715 425.206 634.837 424.271 636.145 424.832C636.706 425.206 637.267 425.58 637.828 425.954C638.575 426.327 639.323 426.701 640.071 426.888C644.557 427.823 644.931 419.598 646.426 419.037C647.922 418.476 652.221 421.28 652.595 422.963C652.595 423.15 657.082 412.307 658.203 410.251C654.839 409.13 651.287 407.821 648.67 405.017Z" fill="#FFB79A"/>
<path d="M574.483 406.078L574.04 406.68L599.036 425.069L599.479 424.467L574.483 406.078Z" fill="#3B2F4E"/>
<path d="M601.749 422.589L601.376 422.215L600.815 422.963C600.441 423.336 599.88 423.897 599.319 424.645C598.759 425.393 598.385 426.14 598.198 426.701L597.637 427.449L598.011 427.823C598.385 428.01 599.506 427.075 600.441 425.58C601.563 424.271 602.123 422.963 601.749 422.589Z" fill="#514269"/>
<path d="M600.254 425.393C599.319 426.888 598.198 427.823 597.824 427.636C597.45 427.449 598.011 426.14 598.946 424.645C599.88 423.149 601.002 422.215 601.376 422.402C601.75 422.589 601.189 423.897 600.254 425.393Z" fill="#3B2F4E"/>
<path d="M597.076 423.15C597.263 422.776 597.637 422.776 598.011 422.963L599.693 424.084C600.067 424.271 600.067 424.645 599.88 425.019C599.693 425.393 599.319 425.393 598.945 425.206L597.263 424.084C596.889 423.897 596.889 423.523 597.076 423.15Z" fill="#514269"/>
<path d="M558.942 409.316L565.11 400.157L566.793 401.839L565.671 409.877L558.942 409.316Z" fill="#514269"/>
<path d="M565.671 409.877C565.671 410.064 565.297 410.251 565.11 410.251H557.446C557.072 410.251 556.885 410.064 556.885 409.877V408.195C556.885 408.008 557.072 407.821 557.446 407.821H565.11C565.484 407.821 565.671 408.008 565.671 408.195V409.877Z" fill="#514269"/>
<path d="M567.728 410.999V405.765C567.728 404.643 566.793 403.521 565.484 403.521C564.363 403.521 563.241 404.456 563.241 405.765V410.999C563.241 411.56 563.615 411.933 564.176 411.933H566.606C567.167 411.933 567.728 411.56 567.728 410.999Z" fill="#3B2F4E"/>
<path d="M565.484 404.082C566.232 404.082 566.98 404.83 566.98 405.578C566.98 406.325 566.232 407.073 565.484 407.073C564.737 407.073 563.989 406.325 563.989 405.578C563.989 404.83 564.737 404.082 565.484 404.082Z" fill="#525250"/>
<path d="M566.606 408.382C566.793 408.382 566.98 408.569 566.98 408.756C566.98 408.943 566.793 409.129 566.606 409.129C566.419 409.129 566.232 408.943 566.232 408.756C566.045 408.569 566.232 408.382 566.606 408.382Z" fill="#514269"/>
<path d="M564.363 408.382C564.176 408.382 563.989 408.569 563.989 408.756C563.989 408.943 564.176 409.129 564.363 409.129C564.55 409.129 564.737 408.943 564.737 408.756C564.924 408.569 564.737 408.382 564.363 408.382Z" fill="#514269"/>
<path d="M561.185 398.1C560.998 398.474 560.437 398.474 559.876 398.1L558.755 397.539C558.194 397.166 557.82 396.792 558.007 396.418L559.129 394.175C559.316 393.801 559.876 393.801 560.437 393.988L561.559 394.548C562.12 394.922 562.493 395.296 562.306 395.67L561.185 398.1Z" fill="#3B2F4E"/>
<path d="M575.392 407.073C575.205 407.447 574.644 407.447 574.083 407.073L572.962 406.512C572.401 406.139 572.027 405.765 572.214 405.391L573.336 403.148C573.522 402.774 574.083 402.774 574.644 403.148L575.766 403.708C576.326 404.082 576.7 404.456 576.513 404.83L575.392 407.073Z" fill="#3B2F4E"/>
<path d="M566.98 411.186C566.98 411.373 566.606 411.56 566.232 411.56H556.511C556.138 411.56 555.764 411.373 555.764 411.186V409.503C555.764 409.316 556.138 409.129 556.511 409.129H566.232C566.606 409.129 566.98 409.316 566.98 409.503V411.186Z" fill="#3B2F4E"/>
<path d="M566.419 414.737C566.419 415.111 566.045 415.485 565.671 415.485H556.698C556.325 415.485 555.951 415.111 555.951 414.737V411.933C555.951 411.56 556.325 411.186 556.698 411.186H565.671C566.045 411.186 566.419 411.56 566.419 411.933V414.737Z" fill="#3B2F4E"/>
<path d="M603.993 399.035C603.619 398.848 603.245 398.848 603.058 399.222L596.141 410.064C595.954 410.438 595.954 410.812 596.328 410.999L597.263 411.56C597.637 411.747 598.011 411.747 598.198 411.373L605.114 400.531C605.301 400.157 605.301 399.783 604.927 399.596L603.993 399.035Z" fill="#3B2F4E"/>
<path d="M544.548 367.63C544.921 367.817 545.108 368.378 544.735 368.752L537.07 380.716C536.883 381.089 536.323 381.089 535.949 380.902L519.312 370.247C518.938 370.06 518.751 369.499 519.125 369.126L526.789 357.162C526.976 356.788 527.537 356.788 527.911 356.975L544.548 367.63Z" fill="#EA5289"/>
<path d="M609.227 410.812C610.535 411.56 611.47 412.494 611.283 412.868L605.114 422.402C604.927 422.776 603.806 422.215 602.497 421.467L536.323 379.22C535.014 378.472 534.079 377.538 534.266 377.164L540.435 367.63C540.622 367.256 541.744 367.817 543.052 368.565L609.227 410.812Z" fill="#EA5289"/>
<path d="M545.482 369.126C545.109 368.939 544.735 368.939 544.548 369.313L537.631 380.155C537.444 380.529 537.444 380.902 537.818 381.089L538.753 381.65C539.127 381.837 539.501 381.837 539.687 381.463L546.604 370.621C546.791 370.247 546.791 369.873 546.417 369.686L545.482 369.126Z" fill="#3B2F4E"/>
<path d="M563.615 380.715C563.241 380.528 562.867 380.528 562.68 380.902L555.764 391.744C555.577 392.118 555.577 392.492 555.951 392.679L556.885 393.24C557.259 393.427 557.633 393.427 557.82 393.053L564.736 382.211C564.923 381.837 564.923 381.463 564.55 381.276L563.615 380.715Z" fill="#3B2F4E"/>
<path d="M577.074 389.314C576.7 389.127 576.327 389.127 576.14 389.501L569.223 400.343C569.036 400.717 569.036 401.091 569.41 401.278L570.345 401.839C570.718 402.026 571.092 402.026 571.279 401.652L578.196 390.81C578.383 390.436 578.383 390.062 578.009 389.875L577.074 389.314Z" fill="#3B2F4E"/>
<path d="M600.441 404.269C600.067 404.082 599.693 404.082 599.506 404.456L592.59 415.298C592.403 415.672 592.403 416.046 592.777 416.233L593.711 416.794C594.085 416.981 594.459 416.981 594.646 416.607L601.562 405.765C601.749 405.391 601.749 405.017 601.376 404.83L600.441 404.269Z" fill="#3B2F4E"/>
<path d="M597.824 392.305C598.011 392.305 598.011 392.492 597.824 392.679L595.581 396.231C595.581 396.418 595.394 396.418 595.207 396.231L589.786 392.679C589.599 392.679 589.599 392.492 589.786 392.305L592.029 388.753C592.029 388.567 592.216 388.567 592.403 388.753L597.824 392.305Z" fill="#EA5289"/>
<path d="M612.031 401.652C612.405 401.839 612.592 402.026 612.405 402.213L610.348 405.391C610.348 405.391 609.975 405.391 609.788 405.204L594.833 395.67C594.459 395.483 594.272 395.296 594.459 395.109L596.515 391.931C596.515 391.931 596.889 391.931 597.076 392.118L612.031 401.652Z" fill="#EA5289"/>
<path d="M598.198 392.492C598.011 392.492 598.011 392.492 597.824 392.492L595.581 396.044C595.581 396.231 595.581 396.231 595.581 396.418L595.954 396.605C596.141 396.605 596.141 396.605 596.328 396.605L598.572 393.053C598.572 392.866 598.572 392.866 598.572 392.679L598.198 392.492Z" fill="#3B2F4E"/>
<path d="M604.18 396.231C603.993 396.231 603.993 396.231 603.806 396.231L601.562 399.783C601.562 399.97 601.562 399.97 601.562 400.157L601.936 400.344C602.123 400.344 602.123 400.344 602.31 400.344L604.553 396.792C604.553 396.605 604.553 396.605 604.553 396.418L604.18 396.231Z" fill="#3B2F4E"/>
<path d="M608.479 399.035C608.292 399.035 608.292 399.035 608.105 399.035L605.862 402.587C605.862 402.774 605.862 402.774 605.862 402.961L606.236 403.148C606.423 403.148 606.423 403.148 606.61 403.148L608.853 399.596C608.853 399.409 608.853 399.409 608.853 399.222L608.479 399.035Z" fill="#3B2F4E"/>
<path d="M565.858 380.155C566.045 380.155 565.858 380.529 565.858 380.715C565.671 380.902 565.484 381.089 565.484 381.089L563.802 379.968C563.615 379.968 563.802 379.594 563.802 379.407C563.989 379.22 564.176 379.033 564.176 379.033L565.858 380.155Z" fill="#3B2F4E"/>
<path d="M565.297 379.033C565.484 379.22 565.484 379.407 565.484 379.594L563.428 382.585C563.241 382.772 563.054 382.772 562.867 382.772C562.68 382.585 562.68 382.398 562.68 382.211L564.737 379.033C564.924 379.033 565.11 378.846 565.297 379.033Z" fill="#3B2F4E"/>
<path d="M498.375 579.239L553.334 412.307C553.894 410.438 555.951 409.503 557.82 410.064C559.689 410.625 560.624 412.681 560.063 414.55C560.063 414.55 560.063 414.55 560.063 414.737L499.871 579.613C499.684 579.987 499.31 580.173 498.749 580.173C498.375 579.987 498.188 579.613 498.375 579.239Z" fill="#3B2F4E"/>
<path d="M624.555 579.239L569.597 412.307C569.036 410.438 566.98 409.503 565.11 410.064C563.241 410.625 562.306 412.681 562.867 414.55C562.867 414.55 562.867 414.55 562.867 414.737L622.873 579.987C623.06 580.36 623.434 580.547 623.994 580.547C624.555 579.987 624.742 579.613 624.555 579.239Z" fill="#3B2F4E"/>
<path d="M559.316 568.21L558.381 415.859C558.381 414.177 559.689 412.868 561.372 412.868C563.054 412.868 564.363 414.177 564.363 415.859L560.624 568.21C560.624 568.584 560.25 568.958 559.876 568.958C559.502 568.771 559.316 568.584 559.316 568.21Z" fill="#3B2F4E"/>
<path d="M614.087 422.215C612.966 423.897 611.47 425.392 610.162 425.206C608.853 425.019 605.114 423.149 604.18 422.588C605.862 420.906 610.909 412.307 611.096 412.494C611.47 412.868 617.826 416.607 614.087 422.215Z" fill="#3B2F4E"/>
<path d="M606.049 424.645C606.049 423.336 607.17 422.215 608.479 422.215C609.787 422.215 610.909 423.336 610.909 424.645C610.909 425.953 609.787 427.075 608.479 427.075C607.17 427.075 606.049 425.953 606.049 424.645Z" fill="#3B2F4E"/>
<path d="M607.544 424.645C607.544 424.084 607.918 423.71 608.479 423.71C609.04 423.71 609.414 424.084 609.414 424.645C609.414 425.206 609.04 425.58 608.479 425.58C607.918 425.58 607.544 425.206 607.544 424.645Z" fill="#514269"/>
<path d="M561.532 397.237L560.708 398.485L574.435 407.549L575.259 406.301L561.532 397.237Z" fill="#3B2F4E"/>
<path d="M566.606 399.783L563.802 404.269C563.241 405.204 563.428 406.699 564.363 407.26C565.297 407.821 566.793 407.634 567.354 406.699L570.158 402.213C570.345 401.839 570.345 401.278 569.784 400.904L567.728 399.596C567.541 399.222 566.98 399.409 566.606 399.783Z" fill="#3B2F4E"/>
<path d="M564.737 406.886C563.989 406.512 563.802 405.578 564.363 404.83C564.737 404.082 565.671 403.895 566.419 404.456C567.167 404.83 567.354 405.765 566.793 406.512C566.232 407.073 565.297 407.26 564.737 406.886Z" fill="#514269"/>
<path d="M566.232 402.587C566.045 402.4 566.045 402.213 566.045 402.026C566.232 401.839 566.419 401.839 566.606 401.839C566.793 402.026 566.793 402.213 566.793 402.4C566.606 402.774 566.419 402.774 566.232 402.587Z" fill="#514269"/>
<path d="M567.914 403.708C568.101 403.895 568.475 403.708 568.475 403.521C568.662 403.334 568.475 402.961 568.288 402.961C568.101 402.774 567.728 402.961 567.728 403.147C567.541 403.334 567.728 403.708 567.914 403.708Z" fill="#514269"/>
<path d="M560.811 465.209C568.288 465.209 575.392 465.396 580.813 465.957C583.617 466.144 585.673 466.518 586.982 466.705C585.673 466.892 583.617 467.079 580.813 467.453C575.205 467.827 568.101 468.2 560.811 468.2C553.334 468.2 546.23 468.013 540.809 467.453C538.005 467.266 535.949 466.892 534.64 466.705C535.949 466.518 538.005 466.331 540.809 465.957C546.417 465.396 553.521 465.209 560.811 465.209ZM560.811 463.714C543.987 463.714 530.341 465.023 530.341 466.518C530.341 468.013 543.987 469.322 560.811 469.322C577.635 469.322 591.281 468.013 591.281 466.518C591.281 465.023 577.635 463.714 560.811 463.714Z" fill="#3B2F4E"/>
<path d="M564.923 488.389C564.923 488.763 564.55 489.137 564.176 489.137H557.446C557.072 489.137 556.698 488.763 556.698 488.389V481.66C556.698 481.286 557.072 480.912 557.446 480.912H564.176C564.55 480.912 564.923 481.286 564.923 481.66V488.389Z" fill="#3B2F4E"/>
<path d="M565.297 483.155C565.297 482.968 565.484 482.781 565.858 482.781C566.232 482.781 566.419 482.968 566.419 483.155V486.894C566.419 487.081 566.232 487.268 565.858 487.268C565.484 487.268 565.297 487.081 565.297 486.894V483.155Z" fill="#3B2F4E"/>
<path d="M563.054 485.398C562.867 485.398 562.68 485.211 562.68 485.025C562.68 484.838 562.867 484.651 563.054 484.651H566.793C566.98 484.651 567.167 484.838 567.167 485.025C567.167 485.211 566.98 485.398 566.793 485.398H563.054Z" fill="#3B2F4E"/>
<path d="M528.472 482.594C528.658 482.221 529.032 482.034 529.406 482.221L535.762 484.651C536.136 484.838 536.323 485.211 536.136 485.585L533.706 491.941C533.519 492.315 533.145 492.502 532.771 492.315L526.415 489.885C526.041 489.698 525.854 489.324 526.041 488.95L528.472 482.594Z" fill="#3B2F4E"/>
<path d="M526.228 487.455C526.228 487.642 525.854 487.641 525.481 487.641C525.107 487.455 524.92 487.268 525.107 487.081L526.415 483.529C526.415 483.342 526.789 483.342 527.163 483.342C527.537 483.529 527.724 483.716 527.537 483.903L526.228 487.455Z" fill="#3B2F4E"/>
<path d="M529.219 486.146C529.406 486.146 529.406 486.333 529.406 486.52C529.406 486.707 529.219 486.707 529.032 486.707L525.481 485.398C525.294 485.398 525.294 485.211 525.294 485.025C525.294 484.838 525.481 484.838 525.667 484.838L529.219 486.146Z" fill="#3B2F4E"/>
<path d="M597.076 488.389C597.263 488.763 597.076 489.137 596.702 489.324L590.346 491.941C589.973 492.128 589.599 491.941 589.412 491.567L586.795 485.211C586.608 484.838 586.795 484.464 587.169 484.277L593.524 481.66C593.898 481.473 594.272 481.66 594.459 482.034L597.076 488.389Z" fill="#3B2F4E"/>
<path d="M595.394 483.342C595.394 483.155 595.581 482.968 595.768 482.781C596.141 482.594 596.328 482.781 596.515 482.968L598.011 486.52C598.011 486.707 597.824 486.894 597.637 487.081C597.263 487.268 597.076 487.081 596.889 486.894L595.394 483.342Z" fill="#3B2F4E"/>
<path d="M594.272 486.333C594.085 486.333 593.898 486.333 593.898 486.146C593.898 485.959 593.898 485.772 594.085 485.772L597.637 484.277C597.824 484.277 598.011 484.277 598.011 484.464C598.011 484.651 598.011 484.837 597.824 484.837L594.272 486.333Z" fill="#3B2F4E"/>
<path d="M617.265 427.262C616.704 427.262 616.33 427.075 615.956 426.888L611.844 423.897C610.909 423.149 610.535 421.654 611.283 420.719C612.031 419.785 613.526 419.411 614.461 420.158L618.573 423.149C619.508 423.897 619.882 425.393 619.134 426.327C618.573 426.888 617.826 427.262 617.265 427.262Z" fill="#3B2F4E"/>
<path d="M629.416 424.832L617.639 427.262C617.452 427.262 617.265 427.262 617.265 427.262C616.143 427.262 615.209 426.514 615.022 425.392C614.835 424.084 615.583 422.962 616.891 422.588L628.668 420.158H628.855C627.546 420.719 628.294 424.645 629.416 424.832Z" fill="#3B2F4E"/>
<path d="M629.416 424.832C628.294 424.645 627.546 420.719 628.668 420.346C629.789 420.532 630.537 424.458 629.416 424.832Z" fill="#514269"/>
<path d="M618.947 422.215L616.891 422.028L614.087 426.701L619.882 428.01L618.947 422.215Z" fill="#514269"/>
<path opacity="0.2" d="M353.689 33.393C341.725 26.1026 327.892 20.1207 313.498 15.4474C300.412 30.0282 286.579 44.4221 270.877 58.0682C227.321 95.6419 225.452 39.7487 202.272 0.492676C189.935 1.24041 177.971 2.92281 166.755 5.16602C180.027 39.3749 161.521 82.3696 112.918 90.0339C79.457 95.4549 66.7455 80.3133 65.25 58.2552C22.0683 99.1936 -0.55062 156.395 0.0101805 209.858C0.197114 221.261 1.31872 233.225 3.37498 245.189C13.8433 233.599 23.1899 222.009 31.0412 212.288C84.1303 144.992 137.593 160.882 214.61 143.871C280.784 129.477 318.358 83.3043 353.689 33.393Z" fill="#4F3061"/>
<path d="M307.329 258.835C330.322 233.786 372.943 230.608 406.217 236.963C422.854 240.141 439.117 241.45 455.194 241.076C458.932 232.103 460.802 223.317 459.68 215.84C430.144 218.831 397.244 212.662 419.489 189.108C416.498 188.548 413.134 188.174 409.769 187.8C405.282 187.426 401.17 186.865 397.431 186.304C390.141 191.912 382.103 196.96 373.13 201.072C332.004 219.018 278.728 209.484 234.986 216.401C179.093 225.374 127.873 247.993 83.1957 275.846C62.2591 288.931 43.7527 301.642 25.994 313.606C29.9196 321.644 34.2191 329.309 38.7055 336.973C74.036 310.802 111.423 283.323 154.417 264.256C214.797 237.711 292.001 260.704 250.314 315.289L250.127 315.476L249.94 315.663C249.754 315.849 249.754 316.036 249.567 316.036C249.38 316.223 249.38 316.223 249.193 316.41C249.193 316.597 249.006 316.597 249.006 316.784C232.182 337.908 202.085 352.301 172.176 361.274C141.332 370.621 118.9 384.641 95.7203 398.661C104.506 404.643 113.666 409.877 123.386 413.99C128.247 407.447 135.724 402.4 150.492 400.156C271.625 381.837 252.931 318.28 307.329 258.835Z" fill="#6F3280"/>
<path d="M480.803 342.02C470.335 340.712 460.241 339.964 451.081 339.216C446.221 342.955 441.547 346.32 436.687 349.684C416.872 363.331 372.756 375.107 393.505 342.02C400.796 330.243 409.395 317.158 419.489 304.82C424.723 293.231 433.696 279.771 441.921 265.938C427.714 274.537 415.003 284.632 404.348 298.278C388.084 319.588 382.663 346.694 361.353 365.761C348.641 376.977 331.817 383.893 314.806 389.875C317.797 401.091 319.667 416.42 327.144 425.206C327.892 423.336 328.639 421.467 329.574 419.598C339.669 397.353 367.896 385.95 391.823 382.772C425.845 378.659 455.007 365.387 480.803 342.02Z" fill="#6F3280"/>
<path d="M622.499 405.391C621.564 409.129 616.517 409.503 616.704 412.307C616.891 417.354 624.929 417.354 628.294 414.364C630.163 412.681 631.098 410.625 631.846 408.382C632.22 407.26 632.406 405.204 633.528 404.83C636.332 404.082 637.828 406.325 638.762 406.512C638.575 405.951 638.575 404.082 639.136 403.521C639.884 403.147 641.379 402.774 642.127 404.83C644.37 410.251 649.417 406.512 649.044 405.017C648.296 402.961 643.436 394.735 631.098 393.988C623.994 393.801 623.434 401.465 622.499 405.391Z" fill="#3B2F4E"/>
<path d="M610.722 422.402C612.031 422.215 612.405 424.084 613.339 425.953C613.9 427.262 615.583 429.318 615.956 429.318C616.33 429.131 615.209 428.01 614.835 427.636C614.461 427.262 612.965 426.327 613.9 425.953C615.209 425.206 618.573 430.066 619.508 431.001C620.256 431.748 621.004 432.683 621.004 433.805C621.004 435.113 618.947 435.113 618.013 435.113C614.274 435.3 610.535 432.87 609.227 429.692C608.292 426.14 609.414 422.402 610.722 422.402Z" fill="#FFB79A"/>
<path d="M651.661 429.131C650.726 424.271 651.1 411.373 658.39 407.073C661.942 405.017 684.935 394.549 704.002 416.046C717.087 431.001 720.452 451.75 718.77 454.928C716.9 458.293 682.692 461.471 681.757 456.611C678.579 449.507 672.036 442.777 664.185 442.591C656.334 442.404 651.661 429.131 651.661 429.131Z" fill="#F3A132"/>
<path d="M616.143 435.674C616.143 433.618 621.377 428.944 624.368 431.561C627.546 434.179 640.632 442.777 644.183 442.03C653.717 439.973 657.456 411.933 671.102 420.532C682.879 427.823 666.802 450.442 644.931 454.367C634.089 456.05 616.143 437.73 616.143 435.674Z" fill="#F3A132"/>
<path d="M648.483 415.298C646.987 412.307 644.931 411.373 646.053 413.803C647.174 416.42 646.614 418.289 645.679 420.345C645.866 419.785 646.24 419.224 646.427 419.224C647.174 418.85 649.044 419.598 650.352 420.719C650.539 419.037 649.418 416.981 648.483 415.298Z" fill="#F28F7C"/>
<path d="M652.408 412.681C658.203 403.708 670.354 403.335 672.223 398.287C673.158 395.483 668.298 395.67 668.859 395.67C673.158 394.923 682.505 396.044 681.383 400.904C680.262 405.952 668.672 408.195 665.307 409.69C649.417 416.794 652.408 429.505 651.848 429.879C651.1 430.44 648.296 419.037 652.408 412.681Z" fill="#F19921"/>
<path d="M630.35 416.233C630.537 416.046 632.967 415.298 632.22 415.859C629.976 417.168 630.537 419.411 629.976 419.411C628.668 419.224 629.976 416.607 630.35 416.233Z" fill="#3B2F4E"/>
<path d="M798.03 580.921H492.019C491.459 580.921 490.898 580.361 490.898 579.8C490.898 579.239 491.459 578.678 492.019 578.678H797.843C798.404 578.678 798.964 579.239 798.964 579.8C799.151 580.361 798.591 580.921 798.03 580.921Z" fill="#6F3280"/>
<path d="M815.601 580.921H806.255C805.694 580.921 805.133 580.361 805.133 579.8C805.133 579.239 805.694 578.678 806.255 578.678H815.601C816.162 578.678 816.723 579.239 816.723 579.8C816.723 580.361 816.162 580.921 815.601 580.921Z" fill="#773288"/>
<path d="M824.2 580.921H822.331C821.77 580.921 821.209 580.361 821.209 579.8C821.209 579.239 821.77 578.678 822.331 578.678H824.2C824.761 578.678 825.322 579.239 825.322 579.8C825.322 580.361 824.761 580.921 824.2 580.921Z" fill="#773288"/>
<path opacity="0.5" d="M171.054 329.122C171.054 327.813 172.176 326.692 173.485 326.692C174.793 326.692 175.915 327.813 175.915 329.122C175.915 330.43 174.793 331.552 173.485 331.552C172.176 331.552 171.054 330.43 171.054 329.122Z" fill="white"/>
<path opacity="0.5" d="M283.962 306.877C283.962 305.568 285.084 304.447 286.392 304.447C287.701 304.447 288.823 305.568 288.823 306.877C288.823 308.185 287.701 309.307 286.392 309.307C284.897 309.307 283.962 308.185 283.962 306.877Z" fill="white"/>
<path opacity="0.5" d="M382.85 233.038C382.85 231.729 383.972 230.608 385.28 230.608C386.589 230.608 387.71 231.729 387.71 233.038C387.71 234.346 386.589 235.468 385.28 235.468C383.972 235.468 382.85 234.346 382.85 233.038Z" fill="white"/>
<path opacity="0.5" d="M366.587 368.939C366.587 367.63 367.709 366.509 369.017 366.509C370.326 366.509 371.447 367.63 371.447 368.939C371.447 370.247 370.326 371.369 369.017 371.369C367.709 371.369 366.587 370.434 366.587 368.939Z" fill="white"/>
<path opacity="0.5" d="M129.742 288.37C129.742 287.062 130.864 285.94 132.172 285.94C133.481 285.94 134.602 287.062 134.602 288.37C134.602 289.679 133.481 290.8 132.172 290.8C130.864 290.8 129.742 289.679 129.742 288.37Z" fill="white"/>
<path opacity="0.5" d="M254.801 149.292C254.801 147.983 255.922 146.861 257.231 146.861C258.539 146.861 259.661 147.983 259.661 149.292C259.661 150.6 258.539 151.722 257.231 151.722C255.922 151.722 254.801 150.6 254.801 149.292Z" fill="white"/>
<path opacity="0.5" d="M244.893 67.2278C244.893 65.9193 246.015 64.7977 247.323 64.7977C248.632 64.7977 249.753 65.9193 249.753 67.2278C249.753 68.5364 248.632 69.658 247.323 69.658C246.015 69.658 244.893 68.5364 244.893 67.2278Z" fill="white"/>
<path opacity="0.5" d="M342.473 158.077C342.473 156.769 343.594 155.647 344.903 155.647C346.211 155.647 347.333 156.769 347.333 158.077C347.333 159.386 346.211 160.508 344.903 160.508C343.594 160.321 342.473 159.386 342.473 158.077Z" fill="white"/>
<path opacity="0.5" d="M222.461 360.901C222.461 359.966 223.209 359.031 224.331 359.031C225.265 359.031 226.2 359.779 226.2 360.901C226.2 361.835 225.452 362.77 224.331 362.77C223.396 362.77 222.461 362.022 222.461 360.901Z" fill="#F8C233"/>
<path opacity="0.5" d="M406.591 275.846C406.591 274.911 407.338 273.976 408.46 273.976C409.395 273.976 410.329 274.724 410.329 275.846C410.329 276.967 409.582 277.715 408.46 277.715C407.338 277.715 406.591 276.78 406.591 275.846Z" fill="#F8C233"/>
<path opacity="0.5" d="M344.903 402.213C344.903 401.278 345.65 400.343 346.772 400.343C347.707 400.343 348.641 401.091 348.641 402.213C348.641 403.147 347.894 404.082 346.772 404.082C345.65 403.895 344.903 403.147 344.903 402.213Z" fill="#F8C233"/>
<path opacity="0.5" d="M335.556 303.699C335.556 302.764 336.304 301.83 337.425 301.83C338.36 301.83 339.295 302.577 339.295 303.699C339.295 304.634 338.547 305.568 337.425 305.568C336.491 305.381 335.556 304.634 335.556 303.699Z" fill="white"/>
<path opacity="0.5" d="M148.248 44.048C148.248 43.1134 148.996 42.1787 150.118 42.1787C151.052 42.1787 151.987 42.9264 151.987 44.048C151.987 44.9827 151.239 45.9174 150.118 45.9174C148.996 45.9174 148.248 44.9827 148.248 44.048Z" fill="white"/>
<path opacity="0.5" d="M92.1685 97.3241C92.1685 96.3895 92.9162 95.4548 94.0378 95.4548C94.9725 95.4548 95.9071 96.2025 95.9071 97.3241C95.9071 98.2588 95.1594 99.1935 94.0378 99.1935C93.1031 99.1935 92.1685 98.4457 92.1685 97.3241Z" fill="white"/>
<path opacity="0.5" d="M111.236 112.653C111.236 111.718 111.983 110.784 113.105 110.784C114.04 110.784 114.974 111.531 114.974 112.653C114.974 113.588 114.227 114.522 113.105 114.522C111.983 114.335 111.236 113.588 111.236 112.653Z" fill="white"/>
<path opacity="0.5" d="M167.69 53.0209C167.69 52.0863 168.437 51.1516 169.559 51.1516C170.494 51.1516 171.428 51.8993 171.428 53.0209C171.428 53.9556 170.681 54.8903 169.559 54.8903C168.624 54.7033 167.69 53.9556 167.69 53.0209Z" fill="white"/>
<path opacity="0.5" d="M237.977 32.2713C237.977 31.3367 238.724 30.402 239.846 30.402C240.781 30.402 241.715 31.1497 241.715 32.2713C241.715 33.206 240.967 34.1407 239.846 34.1407C238.724 34.1407 237.977 33.3929 237.977 32.2713Z" fill="white"/>
<path opacity="0.5" d="M44.6874 237.15C49.3607 236.216 49.9215 235.281 50.6693 228.551C51.417 235.468 51.7909 236.216 56.6511 237.15C51.9778 238.085 51.417 238.833 50.6693 245.749C49.9215 239.02 49.3607 238.085 44.6874 237.15Z" fill="white"/>
<path opacity="0.5" d="M32.9105 252.479C37.5839 251.544 38.1447 250.61 38.8924 243.88C39.6401 250.797 40.014 251.544 44.8743 252.479C40.2009 253.414 39.6401 254.348 38.8924 261.078C38.1447 254.161 37.5839 253.414 32.9105 252.479Z" fill="white"/>
<path opacity="0.5" d="M421.359 219.766C426.032 218.831 426.593 218.083 427.34 211.167C428.088 218.083 428.462 218.831 433.322 219.766C428.649 220.7 428.088 221.635 427.34 228.365C426.593 221.448 426.032 220.7 421.359 219.766Z" fill="white"/>
<path opacity="0.5" d="M325.648 397.166C330.322 396.231 330.883 395.483 331.63 388.567C332.378 395.483 332.752 396.231 337.612 397.166C332.939 398.1 332.378 399.035 331.63 405.765C330.883 399.035 330.322 398.287 325.648 397.166Z" fill="white"/>
<path opacity="0.5" d="M68.054 290.987C70.1102 290.613 70.2972 290.426 70.671 288.37C71.0449 290.426 71.2318 290.613 73.2881 290.987C71.2318 291.361 71.0449 291.548 70.671 293.604C70.4841 291.361 70.1102 291.174 68.054 290.987Z" fill="white"/>
<path opacity="0.5" d="M110.301 67.2278C112.357 66.8539 112.544 66.667 112.918 64.6107C113.292 66.667 113.479 66.8539 115.535 67.2278C113.479 67.6017 113.292 67.7886 112.918 69.8448C112.731 67.7886 112.357 67.6017 110.301 67.2278Z" fill="white"/>
<path opacity="0.5" d="M126.938 59.0027C128.994 58.6288 129.181 58.4419 129.555 56.3856C129.929 58.4419 130.116 58.6288 132.172 59.0027C130.116 59.3765 129.929 59.5635 129.555 61.6197C129.368 59.5635 128.994 59.3765 126.938 59.0027Z" fill="white"/>
<path opacity="0.5" d="M124.321 73.0227C126.377 72.6489 126.564 72.4619 126.938 70.4056C127.312 72.4619 127.499 72.6489 129.555 73.0227C127.499 73.3966 127.312 73.5835 126.938 75.6398C126.751 73.5835 126.377 73.2097 124.321 73.0227Z" fill="white"/>
<path opacity="0.5" d="M210.871 348.002C212.927 347.628 213.114 347.441 213.488 345.385C213.862 347.441 214.049 347.628 216.105 348.002C214.049 348.376 213.862 348.563 213.488 350.619C213.114 348.563 212.927 348.376 210.871 348.002Z" fill="white"/>
<path opacity="0.5" d="M154.23 375.481C156.287 375.108 156.474 374.921 156.847 372.864C157.221 374.921 157.408 375.108 159.464 375.481C157.408 375.855 157.221 376.042 156.847 378.098C156.474 376.042 156.287 375.668 154.23 375.481Z" fill="white"/>
<path opacity="0.5" d="M114.414 397.166C116.47 396.792 116.657 396.605 117.031 394.548C117.405 396.605 117.591 396.792 119.648 397.166C117.591 397.539 117.405 397.726 117.031 399.783C116.844 397.726 116.47 397.539 114.414 397.166Z" fill="white"/>
<path opacity="0.5" d="M389.767 314.354C391.823 313.98 392.01 313.793 392.384 311.737C392.758 313.793 392.945 313.98 395.001 314.354C392.945 314.728 392.758 314.915 392.384 316.971C392.197 314.728 391.823 314.541 389.767 314.354Z" fill="white"/>
<path opacity="0.5" d="M378.925 92.4639C380.981 92.09 381.168 91.9031 381.542 89.8468C381.916 91.9031 382.102 92.09 384.159 92.4639C382.102 92.8378 381.916 93.0247 381.542 95.081C381.168 92.8378 380.981 92.6508 378.925 92.4639Z" fill="white"/>
<path opacity="0.5" d="M278.354 32.2713C280.411 31.8974 280.598 31.7105 280.971 29.6542C281.345 31.7105 281.532 31.8974 283.589 32.2713C281.532 32.6451 281.345 32.8321 280.971 34.8883C280.785 32.8321 280.411 32.6451 278.354 32.2713Z" fill="white"/>
<path opacity="0.5" d="M335.93 415.485C337.986 415.111 338.173 414.924 338.547 412.868C338.921 414.924 339.108 415.111 341.164 415.485C339.108 415.859 338.921 416.046 338.547 418.102C338.173 416.046 337.986 415.859 335.93 415.485Z" fill="white"/>
<path opacity="0.5" d="M471.644 296.222C471.644 295.287 472.391 294.352 473.513 294.352C474.635 294.352 475.382 295.1 475.382 296.222C475.382 297.343 474.635 298.091 473.513 298.091C472.391 298.091 471.644 297.156 471.644 296.222Z" fill="#F8C233"/>
<path opacity="0.5" d="M452.203 291.174C456.876 290.239 457.437 289.305 458.185 282.575C458.932 289.492 459.306 290.239 464.166 291.174C459.493 292.109 458.932 292.857 458.185 299.773C457.624 293.043 457.063 292.296 452.203 291.174Z" fill="white"/>
<path opacity="0.5" d="M462.671 309.494C464.727 309.12 464.914 308.933 465.288 306.877C465.662 308.933 465.849 309.12 467.905 309.494C465.849 309.868 465.662 310.054 465.288 312.111C464.914 310.054 464.727 309.868 462.671 309.494Z" fill="white"/>
<path opacity="0.5" d="M326.396 227.617C328.453 227.243 328.639 227.056 329.013 225C329.387 227.056 329.574 227.243 331.63 227.617C329.574 227.991 329.387 228.178 329.013 230.234C328.639 227.991 328.453 227.804 326.396 227.617Z" fill="white"/>
<path d="M403.6 168.172C412.012 156.769 389.58 144.805 382.85 156.769C376.307 168.172 396.309 178.08 403.6 168.172Z" fill="#773288"/>
<path d="M428.462 164.807C432.201 158.452 417.807 154.339 415.003 160.695C412.386 167.05 425.097 170.415 428.462 164.807Z" fill="#773288"/>
<path d="M791.674 518.298C790.178 515.121 788.87 505.213 790.926 486.52C792.982 467.639 792.982 456.05 787.374 456.05C783.262 456.05 779.71 457.171 776.719 459.414C771.672 455.302 752.605 460.91 751.296 454.367C745.501 465.77 747.744 490.445 749.24 503.157C750.175 510.634 752.605 521.663 752.792 525.776C752.979 528.954 755.97 552.694 755.783 565.032H764.568C765.129 557.181 765.316 547.647 765.316 545.03C765.503 540.17 762.886 527.458 762.699 523.719C762.512 519.981 767.373 475.304 769.616 475.304C770.55 475.304 769.616 475.304 769.616 475.304C769.616 487.454 776.532 509.886 777.467 513.999C778.402 518.672 780.458 527.271 782.14 530.449C784.757 535.496 786.44 554.19 786.627 565.032H795.226C795.226 562.041 795.413 558.489 795.599 554.19C797.095 535.87 793.169 521.476 791.674 518.298Z" fill="#EA5289"/>
<path d="M700.263 359.031C698.207 358.096 693.16 355.292 692.599 356.788C692.225 357.91 698.955 359.779 698.394 360.34C697.833 360.9 696.338 362.022 696.338 362.583C696.338 363.144 695.59 366.322 697.646 366.508C699.703 366.695 700.263 365.013 698.955 364.826C697.646 364.639 697.833 363.331 698.394 362.957C698.955 362.583 700.45 362.396 699.703 362.77C699.142 363.331 697.646 365.948 699.329 366.882C701.198 367.817 702.694 367.443 701.946 366.882C701.198 366.322 700.076 365.574 700.824 365.2C701.572 364.826 701.572 365.761 703.441 366.695C705.311 367.63 706.058 367.256 707.554 367.443C709.049 367.63 720.826 378.472 726.621 381.276C732.416 384.08 746.436 391.931 746.436 391.931C746.436 391.931 753.353 383.519 748.305 382.211C743.258 380.902 736.902 377.164 733.725 375.107C730.547 373.051 713.723 366.135 709.797 363.704C706.806 362.209 702.32 359.966 700.263 359.031Z" fill="#FFB79A"/>
<path d="M766.438 388.006C761.764 387.071 713.723 362.957 712.04 365.2C710.545 367.443 708.115 371.369 709.423 372.49C710.732 373.612 755.596 395.109 758.774 403.708C761.204 409.69 766.438 388.006 766.438 388.006Z" fill="#F19921"/>
<path d="M770.177 354.358C772.794 353.984 777.28 354.171 779.523 355.479C783.636 358.096 778.776 362.209 776.158 364.078C772.607 366.508 762.699 369.873 761.017 363.891C760.082 359.779 763.634 355.292 770.177 354.358Z" fill="#3B2F4E"/>
<path d="M761.951 366.882C761.578 370.06 759.334 370.995 758.961 371.743C758.774 372.117 758.961 373.425 759.895 373.612C761.204 374.173 760.643 374.734 760.456 375.481C760.269 376.042 761.391 376.416 761.951 376.603C760.83 376.79 760.643 377.351 760.643 377.538C760.643 377.911 761.765 378.846 761.578 379.594C761.391 380.155 761.391 382.024 762.512 382.772C764.008 383.706 767.933 382.398 768.494 383.519C769.055 384.454 772.233 387.632 770.924 390.249C770.55 391.184 766.064 400.343 767.746 400.343C771.111 400.343 775.971 391.184 778.402 391.745C784.944 393.053 783.075 396.231 781.953 391.558C781.019 387.819 781.019 380.342 783.262 379.22C785.505 378.098 790.365 373.051 787.935 365.013C785.318 356.975 780.271 356.414 774.663 356.601C770.55 356.414 762.886 357.723 761.951 366.882Z" fill="#FFB79A"/>
<path d="M776.906 372.116C776.158 373.612 774.85 374.36 774.102 373.986C773.354 373.612 773.354 372.116 774.102 370.621C774.85 369.125 776.158 368.378 776.906 368.752C777.654 369.312 777.654 370.808 776.906 372.116Z" fill="#F28F7C"/>
<path d="M772.607 381.837C771.672 382.211 770.55 382.585 769.616 382.585C769.055 382.585 768.307 382.585 767.559 382.772C767.933 382.772 768.12 382.958 768.307 383.145C768.868 384.08 772.046 387.258 770.737 389.875C770.737 389.875 770.737 389.875 770.737 390.062C770.924 389.688 771.111 389.127 771.298 388.753C771.485 388.006 771.485 387.258 771.672 386.697C772.046 385.576 772.794 384.641 773.354 383.893C773.541 383.519 775.037 382.024 774.85 381.463C774.663 380.902 772.98 381.65 772.607 381.837Z" fill="#F28F7C"/>
<path d="M766.438 388.006C766.812 387.445 771.111 389.314 771.111 389.314C771.111 389.314 766.251 399.969 767.746 399.969C770.177 399.969 775.224 389.314 780.084 389.688C784.944 389.875 794.478 391.557 794.665 393.614C794.852 395.483 797.656 402.213 794.291 405.764C783.262 417.915 788.683 451.376 790.926 457.545C792.982 463.714 743.258 467.266 750.175 453.993C756.156 442.403 760.082 424.645 754.848 414.363C751.109 406.512 759.521 403.708 766.438 388.006Z" fill="#F3A132"/>
<path d="M767.933 453.246C768.12 451.75 770.177 451.75 772.42 451.376C773.915 451.002 776.719 449.881 776.532 449.507C776.532 449.133 774.85 449.881 774.476 450.255C773.915 450.442 772.607 451.937 772.42 450.815C772.046 449.133 778.028 446.89 779.149 446.142C780.084 445.581 781.206 445.021 782.514 445.394C783.823 445.768 783.449 447.825 783.075 448.759C782.327 452.685 778.776 456.237 775.037 456.61C771.298 456.984 767.746 454.554 767.933 453.246Z" fill="#FFB79A"/>
<path d="M792.795 391.931C800.46 390.436 807.937 424.084 803.077 431.188C798.217 438.291 786.253 453.433 782.514 449.694C778.962 445.955 778.215 445.581 781.766 441.282C786.627 435.3 794.478 428.757 794.665 425.206C794.852 422.215 781.019 394.175 792.795 391.931Z" fill="#F3A132"/>
<path d="M833.547 364.452C815.788 358.844 800.086 384.641 789.992 363.331C783.262 349.311 771.672 349.871 766.812 355.293C766.251 355.853 764.942 359.966 765.129 361.648C765.503 365.574 769.429 368.565 772.981 369.873C774.476 370.434 774.476 368.939 775.785 368.191C777.093 367.443 778.215 368.378 778.215 369.499C778.215 370.621 777.467 372.117 777.28 373.238C772.981 393.427 800.834 407.447 820.275 402.4C845.324 396.231 849.249 369.313 833.547 364.452Z" fill="#3B2F4E"/>
<path d="M754.287 552.694C753.726 553.442 756.717 570.827 755.035 571.948C751.67 574.192 744.193 575.313 743.445 576.996C742.697 578.678 763.073 579.987 763.634 575.687C764.008 572.696 766.625 553.442 766.251 552.694C765.877 551.947 754.848 551.947 754.287 552.694Z" fill="#3B2F4E"/>
<path d="M785.318 552.694C784.757 553.442 787.748 570.827 786.066 571.948C782.701 574.192 775.224 575.313 774.476 576.996C773.728 578.678 794.104 579.987 794.665 575.687C795.039 572.696 797.656 553.442 797.282 552.694C796.908 551.947 785.879 551.947 785.318 552.694Z" fill="#3B2F4E"/>
<path d="M785.318 553.629C785.505 557.181 787.375 569.331 786.44 571.575C789.618 576.248 792.422 559.798 792.609 555.685C792.422 551.947 787.188 553.255 785.318 553.629Z" fill="#3B2F4E"/>
<path d="M785.692 572.509C785.505 572.509 785.318 572.509 785.318 572.509C783.075 573.631 780.084 574.566 777.654 575.313C777.467 576.061 778.028 576.435 780.458 576.061C784.57 575.687 788.309 572.696 785.692 572.509Z" fill="#3B2F4E"/>
<path d="M174.374 214.096H180.974V221.752C180.974 222.427 180.739 223.013 180.27 223.512C179.83 224.011 179.184 224.26 178.334 224.26H174.374V239H162.494V224.26H136.71C135.859 224.26 135.082 223.996 134.378 223.468C133.703 222.94 133.278 222.28 133.102 221.488L131.694 214.756L161.35 174.892H174.374V214.096ZM162.494 197.376C162.494 196.349 162.523 195.249 162.582 194.076C162.67 192.873 162.787 191.641 162.934 190.38L145.994 214.096H162.494V197.376ZM231.757 206.924C231.757 212.527 231.155 217.381 229.953 221.488C228.75 225.595 227.078 228.997 224.937 231.696C222.825 234.395 220.302 236.404 217.369 237.724C214.465 239.044 211.311 239.704 207.909 239.704C204.506 239.704 201.353 239.044 198.449 237.724C195.574 236.404 193.081 234.395 190.969 231.696C188.857 228.997 187.199 225.595 185.997 221.488C184.823 217.381 184.237 212.527 184.237 206.924C184.237 201.321 184.823 196.467 185.997 192.36C187.199 188.253 188.857 184.851 190.969 182.152C193.081 179.453 195.574 177.459 198.449 176.168C201.353 174.848 204.506 174.188 207.909 174.188C211.311 174.188 214.465 174.848 217.369 176.168C220.302 177.459 222.825 179.453 224.937 182.152C227.078 184.851 228.75 188.253 229.953 192.36C231.155 196.467 231.757 201.321 231.757 206.924ZM217.677 206.924C217.677 202.495 217.398 198.872 216.841 196.056C216.283 193.211 215.535 190.981 214.597 189.368C213.687 187.755 212.646 186.655 211.473 186.068C210.299 185.452 209.111 185.144 207.909 185.144C206.706 185.144 205.518 185.452 204.345 186.068C203.201 186.655 202.174 187.755 201.265 189.368C200.385 190.981 199.666 193.211 199.109 196.056C198.581 198.872 198.317 202.495 198.317 206.924C198.317 211.383 198.581 215.02 199.109 217.836C199.666 220.652 200.385 222.881 201.265 224.524C202.174 226.137 203.201 227.252 204.345 227.868C205.518 228.455 206.706 228.748 207.909 228.748C209.111 228.748 210.299 228.455 211.473 227.868C212.646 227.252 213.687 226.137 214.597 224.524C215.535 222.881 216.283 220.652 216.841 217.836C217.398 215.02 217.677 211.383 217.677 206.924ZM276.467 214.096H283.067V221.752C283.067 222.427 282.833 223.013 282.363 223.512C281.923 224.011 281.278 224.26 280.427 224.26H276.467V239H264.587V224.26H238.803C237.953 224.26 237.175 223.996 236.471 223.468C235.797 222.94 235.371 222.28 235.195 221.488L233.787 214.756L263.443 174.892H276.467V214.096ZM264.587 197.376C264.587 196.349 264.617 195.249 264.675 194.076C264.763 192.873 264.881 191.641 265.027 190.38L248.087 214.096H264.587V197.376Z" fill="white"/>
<path d="M190.57 254.71C191.176 254.71 191.736 254.813 192.25 255.02C192.763 255.22 193.206 255.513 193.58 255.9C193.953 256.28 194.243 256.753 194.45 257.32C194.663 257.88 194.77 258.52 194.77 259.24C194.77 259.52 194.74 259.707 194.68 259.8C194.62 259.893 194.506 259.94 194.34 259.94H187.6C187.613 260.58 187.7 261.137 187.86 261.61C188.02 262.083 188.24 262.48 188.52 262.8C188.8 263.113 189.133 263.35 189.52 263.51C189.906 263.663 190.34 263.74 190.82 263.74C191.266 263.74 191.65 263.69 191.97 263.59C192.296 263.483 192.576 263.37 192.81 263.25C193.043 263.13 193.236 263.02 193.39 262.92C193.55 262.813 193.686 262.76 193.8 262.76C193.946 262.76 194.06 262.817 194.14 262.93L194.64 263.58C194.42 263.847 194.156 264.08 193.85 264.28C193.543 264.473 193.213 264.633 192.86 264.76C192.513 264.887 192.153 264.98 191.78 265.04C191.406 265.107 191.036 265.14 190.67 265.14C189.97 265.14 189.323 265.023 188.73 264.79C188.143 264.55 187.633 264.203 187.2 263.75C186.773 263.29 186.44 262.723 186.2 262.05C185.96 261.377 185.84 260.603 185.84 259.73C185.84 259.023 185.946 258.363 186.16 257.75C186.38 257.137 186.693 256.607 187.1 256.16C187.506 255.707 188.003 255.353 188.59 255.1C189.176 254.84 189.836 254.71 190.57 254.71ZM190.61 256.02C189.75 256.02 189.073 256.27 188.58 256.77C188.086 257.263 187.78 257.95 187.66 258.83H193.17C193.17 258.417 193.113 258.04 193 257.7C192.886 257.353 192.72 257.057 192.5 256.81C192.28 256.557 192.01 256.363 191.69 256.23C191.376 256.09 191.016 256.02 190.61 256.02ZM197.048 265V254.87H198.068C198.261 254.87 198.395 254.907 198.468 254.98C198.541 255.053 198.591 255.18 198.618 255.36L198.738 256.94C199.085 256.233 199.511 255.683 200.018 255.29C200.531 254.89 201.131 254.69 201.818 254.69C202.098 254.69 202.351 254.723 202.578 254.79C202.805 254.85 203.015 254.937 203.208 255.05L202.978 256.38C202.931 256.547 202.828 256.63 202.668 256.63C202.575 256.63 202.431 256.6 202.238 256.54C202.045 256.473 201.775 256.44 201.428 256.44C200.808 256.44 200.288 256.62 199.868 256.98C199.455 257.34 199.108 257.863 198.828 258.55V265H197.048ZM205.114 265V254.87H206.134C206.328 254.87 206.461 254.907 206.534 254.98C206.608 255.053 206.658 255.18 206.684 255.36L206.804 256.94C207.151 256.233 207.578 255.683 208.084 255.29C208.598 254.89 209.198 254.69 209.884 254.69C210.164 254.69 210.418 254.723 210.644 254.79C210.871 254.85 211.081 254.937 211.274 255.05L211.044 256.38C210.998 256.547 210.894 256.63 210.734 256.63C210.641 256.63 210.498 256.6 210.304 256.54C210.111 256.473 209.841 256.44 209.494 256.44C208.874 256.44 208.354 256.62 207.934 256.98C207.521 257.34 207.174 257.863 206.894 258.55V265H205.114ZM217.281 254.71C218.021 254.71 218.687 254.833 219.281 255.08C219.881 255.327 220.387 255.677 220.801 256.13C221.221 256.583 221.541 257.133 221.761 257.78C221.987 258.42 222.101 259.137 222.101 259.93C222.101 260.73 221.987 261.45 221.761 262.09C221.541 262.73 221.221 263.277 220.801 263.73C220.387 264.183 219.881 264.533 219.281 264.78C218.687 265.02 218.021 265.14 217.281 265.14C216.541 265.14 215.871 265.02 215.271 264.78C214.677 264.533 214.171 264.183 213.751 263.73C213.331 263.277 213.007 262.73 212.781 262.09C212.554 261.45 212.441 260.73 212.441 259.93C212.441 259.137 212.554 258.42 212.781 257.78C213.007 257.133 213.331 256.583 213.751 256.13C214.171 255.677 214.677 255.327 215.271 255.08C215.871 254.833 216.541 254.71 217.281 254.71ZM217.281 263.75C218.281 263.75 219.027 263.417 219.521 262.75C220.014 262.077 220.261 261.14 220.261 259.94C220.261 258.733 220.014 257.793 219.521 257.12C219.027 256.447 218.281 256.11 217.281 256.11C216.774 256.11 216.334 256.197 215.961 256.37C215.587 256.543 215.274 256.793 215.021 257.12C214.774 257.447 214.587 257.85 214.461 258.33C214.341 258.803 214.281 259.34 214.281 259.94C214.281 260.54 214.341 261.077 214.461 261.55C214.587 262.023 214.774 262.423 215.021 262.75C215.274 263.07 215.587 263.317 215.961 263.49C216.334 263.663 216.774 263.75 217.281 263.75ZM224.294 265V254.87H225.314C225.507 254.87 225.641 254.907 225.714 254.98C225.787 255.053 225.837 255.18 225.864 255.36L225.984 256.94C226.331 256.233 226.757 255.683 227.264 255.29C227.777 254.89 228.377 254.69 229.064 254.69C229.344 254.69 229.597 254.723 229.824 254.79C230.051 254.85 230.261 254.937 230.454 255.05L230.224 256.38C230.177 256.547 230.074 256.63 229.914 256.63C229.821 256.63 229.677 256.6 229.484 256.54C229.291 256.473 229.021 256.44 228.674 256.44C228.054 256.44 227.534 256.62 227.114 256.98C226.701 257.34 226.354 257.863 226.074 258.55V265H224.294Z" fill="white"/>
</svg>
