<svg width="20" height="23" viewBox="0 0 20 23" fill="none" xmlns="http://www.w3.org/2000/svg">
<path fill-rule="evenodd" clip-rule="evenodd" d="M6.25 1.59998H13.75C17.2013 1.59998 20 4.39873 20 7.84998V15.35C20 18.8012 17.2013 21.6 13.75 21.6H6.25C2.79875 21.6 0 18.8012 0 15.35V7.84998C0 4.39873 2.79875 1.59998 6.25 1.59998ZM13.75 19.725C16.1625 19.725 18.125 17.7625 18.125 15.35V7.84998C18.125 5.43748 16.1625 3.47498 13.75 3.47498H6.25C3.8375 3.47498 1.875 5.43748 1.875 7.84998V15.35C1.875 17.7625 3.8375 19.725 6.25 19.725H13.75ZM5 11.6C5 8.83873 7.23875 6.59998 10 6.59998C12.7612 6.59998 15 8.83873 15 11.6C15 14.3612 12.7612 16.6 10 16.6C7.23875 16.6 5 14.3612 5 11.6ZM6.875 11.6C6.875 13.3225 8.2775 14.725 10 14.725C11.7225 14.725 13.125 13.3225 13.125 11.6C13.125 9.87623 11.7225 8.47498 10 8.47498C8.2775 8.47498 6.875 9.87623 6.875 11.6ZM16.0412 6.22502C16.0412 6.59298 15.743 6.89127 15.375 6.89127C15.007 6.89127 14.7087 6.59298 14.7087 6.22502C14.7087 5.85706 15.007 5.55877 15.375 5.55877C15.743 5.55877 16.0412 5.85706 16.0412 6.22502Z" fill="white"/>
</svg>
