<svg width="20" height="23" viewBox="0 0 20 23" fill="none" xmlns="http://www.w3.org/2000/svg">
<path fill-rule="evenodd" clip-rule="evenodd" d="M4.375 2.4898C4.375 3.69931 3.39562 4.6798 2.1875 4.6798C0.979377 4.6798 0 3.69931 0 2.4898C0 1.2803 0.979377 0.299805 2.1875 0.299805C3.39562 0.299805 4.375 1.2803 4.375 2.4898ZM0 7.1748H4.4725V22.2998H0V7.1748ZM16.655 7.35218C16.6392 7.34668 16.6236 7.34103 16.6081 7.33537C16.5769 7.32407 16.5458 7.31276 16.5125 7.30268C16.4525 7.28755 16.3925 7.27518 16.3312 7.26418C16.0938 7.21193 15.8337 7.1748 15.5287 7.1748C12.9212 7.1748 11.2675 9.26068 10.7225 10.0664V7.1748H6.25V22.2998H10.7225V14.0498C10.7225 14.0498 14.1025 8.87155 15.5287 12.6748V22.2998H20V12.0932C20 9.80793 18.5763 7.90355 16.655 7.35218Z" fill="white"/>
</svg>
