<svg width="133" height="39" viewBox="0 0 133 39" fill="none" xmlns="http://www.w3.org/2000/svg">
<path d="M63.3087 21.0542C63.3087 21.1373 63.2804 21.1927 63.2522 21.2481C63.224 21.3035 63.1392 21.3589 63.0545 21.3866C62.9698 21.4143 62.8286 21.4697 62.6591 21.4697C62.4896 21.4974 62.2919 21.4974 62.0378 21.4974C61.7836 21.4974 61.5576 21.4974 61.3882 21.4697C61.2187 21.442 61.0775 21.4143 60.9928 21.3866C60.8798 21.3589 60.8233 21.3035 60.7951 21.2481C60.7668 21.1927 60.7386 21.1096 60.7386 21.0542V12.6325C60.7386 12.0508 60.6821 11.5244 60.5691 11.0258C60.4562 10.5548 60.2867 10.1393 60.0608 9.77916C59.8348 9.41902 59.5242 9.1697 59.1853 8.97578C58.8181 8.78186 58.4227 8.69875 57.9426 8.69875C57.3495 8.69875 56.7564 8.92037 56.135 9.36362C55.5419 9.80686 54.8641 10.4717 54.1581 11.3582V21.0265C54.1581 21.1096 54.1298 21.165 54.1016 21.2204C54.0733 21.2758 53.9886 21.3312 53.9039 21.3589C53.7909 21.3866 53.6779 21.442 53.5085 21.442C53.339 21.4697 53.1413 21.4697 52.8871 21.4697C52.6329 21.4697 52.4353 21.4697 52.2658 21.442C52.0963 21.4143 51.9551 21.3866 51.8704 21.3589C51.7574 21.3312 51.7009 21.2758 51.6727 21.2204C51.6445 21.165 51.6162 21.0819 51.6162 21.0265V12.6325C51.6162 12.0508 51.5597 11.5244 51.4468 11.0258C51.3338 10.5548 51.1643 10.1393 50.9384 9.77916C50.7124 9.41902 50.43 9.1697 50.0629 8.97578C49.724 8.78186 49.3003 8.69875 48.8202 8.69875C48.2271 8.69875 47.634 8.92037 47.0127 9.36362C46.4196 9.80686 45.7417 10.4717 45.0357 11.3582V21.0265C45.0357 21.1096 45.0074 21.165 44.9792 21.2204C44.9509 21.2758 44.8662 21.3312 44.7815 21.3589C44.6968 21.3866 44.5555 21.442 44.3861 21.442C44.2166 21.4697 43.9907 21.4697 43.7365 21.4697C43.4823 21.4697 43.2846 21.4697 43.1152 21.442C42.9457 21.4143 42.8045 21.3866 42.7198 21.3589C42.6068 21.3312 42.5503 21.2758 42.5221 21.2204C42.4938 21.165 42.4656 21.0819 42.4656 21.0265V7.1751C42.4656 7.092 42.4938 7.03659 42.5221 6.98119C42.5503 6.92578 42.6068 6.87037 42.7198 6.81497C42.8045 6.75956 42.9457 6.73186 43.0869 6.73186C43.2281 6.70416 43.4258 6.70416 43.68 6.70416C43.906 6.70416 44.1037 6.70416 44.2449 6.73186C44.3861 6.75956 44.5273 6.78727 44.5838 6.81497C44.6685 6.87037 44.725 6.92578 44.7532 6.98119C44.7815 7.03659 44.8097 7.1197 44.8097 7.1751V9.00348C45.6005 8.1447 46.3631 7.47983 47.1256 7.092C47.8599 6.67646 48.6225 6.48254 49.385 6.48254C49.9781 6.48254 50.4865 6.53794 50.9666 6.67646C51.4185 6.81497 51.8421 7.00889 52.2093 7.23051C52.5765 7.47983 52.8589 7.75686 53.1131 8.08929C53.3673 8.42172 53.565 8.78186 53.7344 9.1974C54.2145 8.69875 54.6382 8.25551 55.0618 7.92308C55.4855 7.56294 55.8809 7.28591 56.2763 7.06429C56.6717 6.84267 57.0388 6.70416 57.4342 6.59335C57.8014 6.48254 58.1685 6.45483 58.5639 6.45483C59.4677 6.45483 60.2302 6.62105 60.8516 6.92578C61.4729 7.23051 61.9813 7.64605 62.3484 8.1724C62.7438 8.69875 62.998 9.30821 63.1675 10.0008C63.3369 10.6933 63.4217 11.4413 63.4217 12.217V21.0542H63.3087Z" fill="white"/>
<path d="M71.7247 2.54868C71.7247 3.13044 71.6118 3.54598 71.3858 3.7676C71.1599 3.98922 70.7363 4.10003 70.1149 4.10003C69.5218 4.10003 69.0982 3.98922 68.8722 3.7953C68.6463 3.57368 68.5333 3.18584 68.5333 2.60409C68.5333 2.02233 68.6463 1.60679 68.8722 1.38517C69.0982 1.16355 69.5218 1.05273 70.1432 1.05273C70.7363 1.05273 71.1599 1.16355 71.3858 1.35746C71.6118 1.55138 71.7247 1.96692 71.7247 2.54868ZM71.4423 21.0541C71.4423 21.1372 71.4141 21.1926 71.3858 21.248C71.3576 21.3034 71.2729 21.3588 71.1881 21.3865C71.1034 21.4142 70.9622 21.4696 70.7927 21.4696C70.6233 21.4973 70.3973 21.4973 70.1432 21.4973C69.889 21.4973 69.6913 21.4973 69.5218 21.4696C69.3524 21.4419 69.2112 21.4142 69.1264 21.3865C69.0135 21.3588 68.957 21.3034 68.9287 21.248C68.9005 21.1926 68.8722 21.1095 68.8722 21.0541V7.20273C68.8722 7.11963 68.9005 7.06422 68.9287 7.00882C68.957 6.95341 69.0417 6.898 69.1264 6.8426C69.2394 6.8149 69.3524 6.75949 69.5218 6.75949C69.6913 6.73179 69.889 6.73179 70.1432 6.73179C70.3973 6.73179 70.6233 6.73179 70.7927 6.75949C70.9622 6.78719 71.1034 6.8149 71.1881 6.8426C71.2729 6.8703 71.3576 6.92571 71.3858 7.00882C71.4141 7.06422 71.4423 7.14733 71.4423 7.20273V21.0541Z" fill="white"/>
<path d="M85.2531 8.1169C85.2531 8.33852 85.2531 8.53244 85.2249 8.69865C85.2249 8.86487 85.1966 8.97568 85.1684 9.05879C85.1401 9.1419 85.1119 9.225 85.0554 9.25271C84.9989 9.30811 84.9424 9.33582 84.8577 9.33582C84.773 9.33582 84.66 9.30811 84.547 9.25271C84.4341 9.1973 84.2928 9.1696 84.1516 9.11419C84.0104 9.05879 83.841 9.03109 83.6433 8.97568C83.4456 8.94798 83.2479 8.92027 83.0219 8.92027C82.7677 8.92027 82.5136 8.97568 82.2594 9.08649C82.0052 9.1973 81.751 9.36352 81.4686 9.58514C81.1861 9.83446 80.9037 10.1392 80.593 10.527C80.2824 10.9149 79.9435 11.3858 79.5763 11.9676V21.0818C79.5763 21.1649 79.5481 21.2203 79.5198 21.2757C79.4916 21.3311 79.4069 21.3865 79.3221 21.4142C79.2374 21.4419 79.0962 21.4973 78.9267 21.4973C78.7573 21.525 78.5313 21.525 78.2771 21.525C78.023 21.525 77.8253 21.525 77.6558 21.4973C77.4863 21.4696 77.3451 21.4419 77.2604 21.4142C77.1474 21.3865 77.0909 21.3311 77.0627 21.2757C77.0345 21.2203 77.0062 21.1372 77.0062 21.0818V7.23041C77.0062 7.1473 77.0345 7.0919 77.0627 7.03649C77.0909 6.98108 77.1474 6.92568 77.2604 6.87027C77.3451 6.81487 77.4863 6.78717 77.6276 6.78717C77.7688 6.75946 77.9665 6.75946 78.2207 6.75946C78.4466 6.75946 78.6443 6.75946 78.7855 6.78717C78.9267 6.81487 79.0679 6.84257 79.1244 6.87027C79.2092 6.92568 79.2656 6.98108 79.2939 7.03649C79.3221 7.0919 79.3504 7.175 79.3504 7.23041V9.25271C79.7458 8.69865 80.1129 8.25541 80.4518 7.89527C80.7907 7.53514 81.1014 7.28581 81.4121 7.06419C81.7228 6.87027 82.0052 6.73176 82.3159 6.64865C82.6265 6.56554 82.909 6.53784 83.2196 6.53784C83.3608 6.53784 83.502 6.53784 83.6715 6.56554C83.841 6.59325 84.0104 6.62095 84.2081 6.64865C84.4058 6.67636 84.5753 6.73176 84.7165 6.78717C84.8577 6.84257 84.9707 6.89798 85.0272 6.95338C85.0836 7.00879 85.1401 7.06419 85.1401 7.0919C85.1684 7.1473 85.1684 7.20271 85.1966 7.25811C85.2249 7.34122 85.2249 7.42433 85.2249 7.56284C85.2531 7.70136 85.2531 7.89527 85.2531 8.1169Z" fill="white"/>
<path d="M100.645 13.5466C100.645 13.9345 100.532 14.2392 100.335 14.4054C100.137 14.5716 99.8828 14.6547 99.6286 14.6547H90.3367C90.3367 15.4304 90.4215 16.123 90.5627 16.7324C90.7321 17.3419 90.9863 17.8682 91.3535 18.3115C91.7206 18.7547 92.2008 19.0872 92.7939 19.3365C93.387 19.5858 94.093 19.6966 94.9403 19.6966C95.6181 19.6966 96.2112 19.6412 96.7478 19.5304C97.2844 19.4196 97.7363 19.3088 98.1035 19.1703C98.4989 19.0318 98.8096 18.921 99.0355 18.8101C99.2897 18.6993 99.4591 18.6439 99.6004 18.6439C99.6851 18.6439 99.7416 18.6716 99.798 18.6993C99.8545 18.727 99.911 18.7824 99.9393 18.8655C99.9675 18.9487 99.9957 19.0318 100.024 19.1703C100.052 19.3088 100.052 19.4473 100.052 19.6412C100.052 19.7797 100.052 19.8905 100.024 19.9737C100.024 20.0845 99.9957 20.1676 99.9957 20.223C99.9675 20.3061 99.9675 20.3615 99.911 20.4446C99.8828 20.5 99.8263 20.5554 99.7698 20.6108C99.7133 20.6662 99.5439 20.7493 99.2614 20.8878C98.979 21.0264 98.6119 21.1372 98.16 21.2757C97.7081 21.3865 97.1997 21.4973 96.6066 21.6081C96.0135 21.7189 95.3922 21.7466 94.7144 21.7466C93.5564 21.7466 92.5397 21.5804 91.6642 21.2757C90.7886 20.971 90.0543 20.4723 89.4612 19.8628C88.8681 19.2257 88.4162 18.45 88.1056 17.5081C87.7949 16.5662 87.6537 15.4581 87.6537 14.2115C87.6537 13.0203 87.8231 11.9399 88.1338 10.998C88.4445 10.0561 88.8964 9.25271 89.4895 8.58784C90.0826 7.92298 90.7886 7.42433 91.6359 7.06419C92.4832 6.70406 93.4152 6.53784 94.4319 6.53784C95.5334 6.53784 96.4936 6.70406 97.2562 7.06419C98.047 7.42433 98.6683 7.89527 99.1767 8.47703C99.6851 9.05879 100.052 9.75136 100.278 10.5547C100.504 11.3581 100.617 12.1892 100.617 13.1034V13.5466H100.645ZM98.047 12.7987C98.0752 11.4689 97.7646 10.4162 97.1432 9.66825C96.4937 8.92027 95.5616 8.53244 94.319 8.53244C93.6694 8.53244 93.1045 8.64325 92.6244 8.89257C92.1443 9.1419 91.7489 9.44663 91.41 9.83446C91.0711 10.2223 90.8451 10.6655 90.6474 11.1919C90.478 11.7182 90.365 12.2446 90.3367 12.8264H98.047V12.7987Z" fill="white"/>
<path d="M107.96 21.0541C107.96 21.1372 107.932 21.1926 107.904 21.248C107.875 21.3034 107.791 21.3588 107.706 21.3865C107.621 21.4142 107.48 21.4696 107.311 21.4696C107.141 21.4973 106.915 21.4973 106.661 21.4973C106.407 21.4973 106.209 21.4973 106.04 21.4696C105.87 21.4419 105.729 21.4142 105.644 21.3865C105.531 21.3588 105.475 21.3034 105.446 21.248C105.418 21.1926 105.39 21.1095 105.39 21.0541V0.498649C105.39 0.41554 105.418 0.332432 105.446 0.277027C105.475 0.221622 105.559 0.166216 105.644 0.110811C105.757 0.0831081 105.87 0.0277027 106.04 0.0277027C106.209 -2.68322e-08 106.407 0 106.661 0C106.915 0 107.141 -2.68322e-08 107.311 0.0277027C107.48 0.0554054 107.621 0.0831081 107.706 0.110811C107.791 0.138514 107.875 0.193919 107.904 0.277027C107.932 0.332432 107.96 0.41554 107.96 0.498649V21.0541Z" fill="white"/>
<path d="M116.433 2.54868C116.433 3.13044 116.32 3.54598 116.094 3.7676C115.868 3.98922 115.445 4.10003 114.823 4.10003C114.23 4.10003 113.806 3.98922 113.58 3.7953C113.355 3.57368 113.242 3.18584 113.242 2.60409C113.242 2.02233 113.355 1.60679 113.58 1.38517C113.806 1.16355 114.23 1.05273 114.851 1.05273C115.445 1.05273 115.868 1.16355 116.094 1.35746C116.32 1.55138 116.433 1.96692 116.433 2.54868ZM116.151 21.0541C116.151 21.1372 116.122 21.1926 116.094 21.248C116.066 21.3034 115.981 21.3588 115.896 21.3865C115.812 21.4142 115.67 21.4696 115.501 21.4696C115.332 21.4973 115.106 21.4973 114.851 21.4973C114.597 21.4973 114.4 21.4973 114.23 21.4696C114.061 21.4419 113.919 21.4142 113.835 21.3865C113.722 21.3588 113.665 21.3034 113.637 21.248C113.609 21.1926 113.58 21.1095 113.58 21.0541V7.20273C113.58 7.11963 113.609 7.06422 113.637 7.00882C113.665 6.95341 113.75 6.898 113.835 6.8426C113.948 6.8149 114.061 6.75949 114.23 6.75949C114.4 6.73179 114.597 6.73179 114.851 6.73179C115.106 6.73179 115.332 6.73179 115.501 6.75949C115.67 6.78719 115.812 6.8149 115.896 6.8426C115.981 6.8703 116.066 6.92571 116.094 7.00882C116.122 7.06422 116.151 7.14733 116.151 7.20273V21.0541Z" fill="white"/>
<path d="M132.362 21.0816C132.362 21.1925 132.334 21.3033 132.249 21.3587C132.164 21.4141 132.051 21.4695 131.91 21.4972C131.769 21.5249 131.543 21.5526 131.26 21.5526C130.978 21.5526 130.78 21.5249 130.611 21.4972C130.441 21.4695 130.328 21.4141 130.272 21.3587C130.187 21.3033 130.159 21.1925 130.159 21.0816V19.6965C129.538 20.3337 128.86 20.8323 128.097 21.1925C127.335 21.5526 126.544 21.7188 125.696 21.7188C124.962 21.7188 124.284 21.6357 123.691 21.4418C123.098 21.2479 122.59 20.9708 122.166 20.6107C121.743 20.2506 121.404 19.8073 121.178 19.281C120.952 18.7546 120.839 18.1729 120.839 17.508C120.839 16.7323 121.008 16.0398 121.319 15.4857C121.63 14.9039 122.11 14.433 122.703 14.0452C123.296 13.6573 124.058 13.3803 124.934 13.1864C125.809 12.9925 126.798 12.9093 127.899 12.9093H129.848V11.8289C129.848 11.3026 129.792 10.8316 129.679 10.4161C129.566 10.0006 129.368 9.66813 129.114 9.39111C128.86 9.11408 128.521 8.92016 128.125 8.78165C127.73 8.64313 127.222 8.58773 126.629 8.58773C125.979 8.58773 125.414 8.67084 124.906 8.80935C124.397 8.94786 123.945 9.11408 123.578 9.308C123.183 9.47421 122.872 9.64043 122.618 9.80665C122.364 9.94516 122.166 10.0283 122.053 10.0283C121.968 10.0283 121.884 10.0006 121.827 9.97286C121.771 9.94516 121.714 9.86205 121.658 9.77894C121.601 9.69584 121.573 9.58502 121.545 9.47421C121.517 9.3357 121.517 9.19719 121.517 9.05867C121.517 8.80935 121.545 8.58773 121.573 8.44921C121.601 8.3107 121.686 8.17219 121.827 8.03367C121.968 7.89516 122.223 7.75665 122.562 7.56273C122.9 7.39651 123.296 7.23029 123.748 7.06408C124.2 6.92556 124.68 6.78705 125.216 6.70394C125.753 6.59313 126.29 6.56543 126.826 6.56543C127.843 6.56543 128.69 6.67624 129.425 6.89786C130.131 7.11948 130.724 7.45192 131.147 7.89516C131.599 8.3384 131.91 8.86475 132.108 9.52962C132.305 10.1668 132.418 10.9425 132.418 11.8012V21.0816H132.362ZM129.792 14.7654H127.589C126.883 14.7654 126.261 14.8208 125.725 14.9316C125.188 15.0425 124.764 15.2364 124.426 15.458C124.087 15.6796 123.832 15.9566 123.663 16.2891C123.494 16.6215 123.409 16.9816 123.409 17.3972C123.409 18.1175 123.635 18.6992 124.115 19.1148C124.567 19.5303 125.245 19.7519 126.064 19.7519C126.741 19.7519 127.363 19.5857 127.956 19.2533C128.549 18.9208 129.142 18.3945 129.792 17.7019V14.7654Z" fill="white"/>
<path d="M49.9498 37.2323C49.9498 37.3431 49.9216 37.4262 49.8933 37.5093C49.8651 37.5924 49.8086 37.6755 49.7521 37.7309C49.6956 37.7863 49.6109 37.814 49.5262 37.8417C49.4414 37.8694 49.3567 37.8695 49.272 37.8695H48.4812C48.3117 37.8695 48.1705 37.8417 48.0575 37.814C47.9446 37.7863 47.8316 37.7309 47.7186 37.6478C47.6057 37.5647 47.5209 37.4539 47.4362 37.2877C47.3515 37.1492 47.2385 36.9553 47.1255 36.7336L44.8379 32.5505C44.6967 32.3012 44.5837 32.0242 44.4425 31.7471C44.3013 31.4701 44.1883 31.1654 44.0753 30.9161C44.1036 31.2485 44.1036 31.5809 44.1318 31.9134C44.1318 32.2458 44.1318 32.5782 44.1318 32.9384V37.6201C44.1318 37.6755 44.1318 37.7032 44.1036 37.7586C44.0753 37.814 44.0188 37.814 43.9624 37.8417C43.9059 37.8694 43.8211 37.8972 43.7082 37.8972C43.5952 37.8972 43.454 37.9249 43.2845 37.9249C43.1151 37.9249 42.9739 37.9249 42.8609 37.8972C42.7479 37.8972 42.6632 37.8694 42.6067 37.8417C42.5502 37.814 42.4937 37.7863 42.4655 37.7586C42.4373 37.7309 42.4373 37.6755 42.4373 37.6201V29.5586C42.4373 29.337 42.4937 29.1708 42.635 29.06C42.7762 28.9492 42.9174 28.8938 43.1151 28.8938H44.1036C44.273 28.8938 44.4425 28.9215 44.5555 28.9492C44.6684 28.9769 44.7814 29.0323 44.8944 29.0877C44.9791 29.1431 45.0921 29.2539 45.1768 29.3647C45.2615 29.4755 45.3463 29.6417 45.431 29.808L47.2103 33.0769C47.3232 33.2708 47.408 33.4647 47.5209 33.6586C47.6339 33.8526 47.7186 34.0465 47.8034 34.2404C47.8881 34.4343 48.0011 34.6282 48.0858 34.7944C48.1705 34.9884 48.2552 35.1546 48.34 35.3485C48.3117 35.0161 48.3117 34.6836 48.3117 34.3235C48.3117 33.9634 48.3117 33.6309 48.3117 33.3262V29.1154C48.3117 29.06 48.34 29.0323 48.3682 28.9769C48.3965 28.9215 48.4529 28.8938 48.5094 28.8661C48.5659 28.8384 48.6506 28.8107 48.7636 28.8107C48.8766 28.8107 49.0178 28.783 49.1873 28.783C49.3567 28.783 49.4697 28.783 49.5827 28.8107C49.6956 28.8107 49.7804 28.8384 49.8368 28.8661C49.8933 28.8938 49.9498 28.9215 49.9498 28.9769C49.9781 29.0046 49.9781 29.06 49.9781 29.1154V37.2323H49.9498Z" fill="#EA5289"/>
<path d="M60.5126 37.1493C60.5126 37.2878 60.5126 37.3986 60.4844 37.4817C60.4844 37.5649 60.4561 37.648 60.4279 37.7034C60.3996 37.7588 60.3714 37.7865 60.3431 37.8142C60.3149 37.8419 60.2584 37.8419 60.2302 37.8419H55.6266C55.4572 37.8419 55.3442 37.7865 55.2312 37.7034C55.1183 37.6203 55.0618 37.454 55.0618 37.2601V29.448C55.0618 29.254 55.1183 29.0878 55.2312 29.0047C55.3442 28.9216 55.4572 28.8662 55.6266 28.8662H60.2019C60.2302 28.8662 60.2867 28.8662 60.3149 28.8939C60.3432 28.9216 60.3714 28.9493 60.3996 29.0047C60.4279 29.0601 60.4279 29.1432 60.4561 29.2263C60.4561 29.3095 60.4844 29.4203 60.4844 29.5588C60.4844 29.6973 60.4844 29.8081 60.4561 29.8912C60.4561 29.9743 60.4279 30.0574 60.3996 30.1128C60.3714 30.1682 60.3432 30.1959 60.3149 30.2236C60.2867 30.2513 60.2302 30.2513 60.2019 30.2513H56.9258V32.4399H59.6936C59.7501 32.4399 59.7783 32.4399 59.8065 32.4676C59.8348 32.4953 59.863 32.523 59.8913 32.5784C59.9195 32.6338 59.9195 32.7169 59.9478 32.8C59.9478 32.8831 59.976 32.9939 59.976 33.1324C59.976 33.2709 59.976 33.3817 59.9478 33.4649C59.9478 33.548 59.9195 33.6311 59.8913 33.6865C59.863 33.7419 59.8348 33.7696 59.8065 33.7973C59.7783 33.825 59.7218 33.825 59.6936 33.825H56.9258V36.3459H60.2302C60.2584 36.3459 60.3149 36.3459 60.3431 36.3736C60.3714 36.4013 60.3996 36.429 60.4279 36.4845C60.4561 36.5399 60.4561 36.623 60.4844 36.7061C60.5126 36.9 60.5126 37.0108 60.5126 37.1493Z" fill="#EA5289"/>
<path d="M71.4142 29.6418C71.4142 29.7803 71.4142 29.8911 71.386 29.9742C71.3577 30.0573 71.3577 30.1404 71.3295 30.1958C71.3013 30.2512 71.273 30.3066 71.2448 30.3343C71.2165 30.362 71.16 30.3897 71.1318 30.3897H68.8441V37.6202C68.8441 37.6756 68.8159 37.7033 68.7877 37.7587C68.7594 37.8141 68.7029 37.8141 68.6464 37.8418C68.5617 37.8695 68.477 37.8972 68.364 37.8972C68.251 37.8972 68.0816 37.9249 67.9121 37.9249C67.7427 37.9249 67.5732 37.9249 67.4602 37.8972C67.3473 37.8972 67.2343 37.8695 67.1778 37.8418C67.0931 37.8141 67.0648 37.7864 67.0366 37.7587C67.0084 37.731 66.9801 37.6756 66.9801 37.6202V30.3897H64.6925C64.636 30.3897 64.6077 30.3897 64.5795 30.3343C64.5512 30.2789 64.523 30.2512 64.4948 30.1958C64.4665 30.1404 64.4665 30.0573 64.4383 29.9742C64.41 29.8911 64.41 29.7526 64.41 29.6418C64.41 29.5033 64.41 29.3924 64.4383 29.2816C64.4383 29.1985 64.4665 29.1154 64.4948 29.06C64.523 29.0046 64.5512 28.9492 64.5795 28.9215C64.6077 28.8938 64.6642 28.8938 64.6925 28.8938H71.1318C71.1883 28.8938 71.2165 28.8938 71.2448 28.9215C71.273 28.9492 71.3013 28.9769 71.3295 29.06C71.3577 29.1431 71.3577 29.1985 71.386 29.2816C71.386 29.3647 71.4142 29.5033 71.4142 29.6418Z" fill="#EA5289"/>
<path d="M85.2814 37.3985C85.2531 37.5093 85.2249 37.5924 85.1684 37.6755C85.1119 37.7309 85.0554 37.7863 84.9425 37.8417C84.8295 37.8695 84.7165 37.8972 84.5471 37.9249C84.3776 37.9249 84.1799 37.9526 83.954 37.9526C83.6715 37.9526 83.4738 37.9526 83.3044 37.9249C83.1349 37.9249 83.022 37.8972 82.909 37.8417C82.8243 37.814 82.7395 37.7586 82.7113 37.6755C82.6831 37.6201 82.6266 37.5093 82.5983 37.3985L81.1297 31.7194H81.1015L79.7176 37.3985C79.6893 37.5093 79.6611 37.5924 79.6046 37.6478C79.5481 37.7032 79.4916 37.7586 79.4069 37.814C79.3222 37.8417 79.181 37.8695 79.0397 37.8972C78.8703 37.8972 78.6726 37.9249 78.4184 37.9249C78.136 37.9249 77.9383 37.9249 77.7688 37.8972C77.5994 37.8972 77.4864 37.8695 77.3734 37.814C77.2887 37.7863 77.204 37.7309 77.1757 37.6478C77.1192 37.5924 77.091 37.4816 77.0627 37.3708L74.9728 29.5309C74.9163 29.3647 74.9163 29.2262 74.8881 29.1431C74.8881 29.06 74.9163 28.9769 74.9728 28.9215C75.0293 28.8661 75.1422 28.8384 75.2552 28.8384C75.3964 28.8384 75.5659 28.8107 75.8201 28.8107C76.046 28.8107 76.2155 28.8107 76.3567 28.8107C76.4979 28.8107 76.5826 28.8384 76.6391 28.8661C76.6956 28.8938 76.7521 28.9215 76.7803 28.9769C76.8086 29.0323 76.8368 29.0877 76.8368 29.1708L78.4466 36.0411L80.113 29.2262C80.1412 29.1431 80.1694 29.06 80.1977 29.0046C80.2259 28.9492 80.2824 28.8938 80.3672 28.8661C80.4519 28.8384 80.5366 28.8107 80.6778 28.8107C80.819 28.8107 80.9885 28.783 81.1862 28.783C81.4121 28.783 81.5816 28.783 81.7228 28.8107C81.864 28.8384 81.9487 28.8384 82.0335 28.8661C82.1182 28.8938 82.1464 28.9492 82.2029 29.0046C82.2312 29.06 82.2594 29.1431 82.2877 29.2262L84.0105 36.0411L85.6203 29.1985C85.6203 29.1154 85.6485 29.06 85.6768 29.0046C85.705 28.9492 85.7333 28.9215 85.818 28.8661C85.8745 28.8384 85.9875 28.8107 86.1004 28.8107C86.2134 28.8107 86.3829 28.783 86.6088 28.783C86.8065 28.783 86.9759 28.783 87.0889 28.8107C87.2019 28.8107 87.2866 28.8661 87.3431 28.8938C87.3996 28.9215 87.4278 29.0323 87.3996 29.1154C87.3996 29.2262 87.3714 29.337 87.3149 29.5309L85.2814 37.3985Z" fill="#EA5289"/>
<path d="M99.9676 33.2708C99.9676 34.0188 99.8828 34.6836 99.6851 35.2654C99.4874 35.8471 99.205 36.3458 98.8379 36.7613C98.4707 37.1769 97.9906 37.4816 97.454 37.7032C96.9174 37.9248 96.2678 38.0356 95.5617 38.0356C94.8557 38.0356 94.2343 37.9525 93.6977 37.7586C93.1611 37.5647 92.7375 37.2877 92.3703 36.9275C92.0031 36.5674 91.749 36.0688 91.5795 35.487C91.41 34.9052 91.3253 34.2127 91.3253 33.437C91.3253 32.7167 91.41 32.0519 91.6077 31.4701C91.8054 30.8884 92.0879 30.3897 92.455 30.0019C92.8222 29.5863 93.2741 29.2816 93.8389 29.06C94.3755 28.8384 95.0251 28.7275 95.7594 28.7275C96.4655 28.7275 97.0586 28.8106 97.5952 29.0046C98.1318 29.1985 98.5554 29.4755 98.9226 29.8356C99.2897 30.2235 99.5439 30.6944 99.7416 31.2485C99.8829 31.8302 99.9676 32.4951 99.9676 33.2708ZM98.0188 33.3539C98.0188 32.8829 97.9906 32.4674 97.9059 32.0796C97.8211 31.6917 97.7082 31.3593 97.5105 31.0823C97.341 30.8052 97.0868 30.5836 96.7762 30.4451C96.4655 30.3066 96.0983 30.2235 95.6465 30.2235C95.1946 30.2235 94.7992 30.3066 94.4885 30.4728C94.1778 30.639 93.9236 30.8606 93.7542 31.1377C93.5565 31.4147 93.4435 31.7471 93.3588 32.135C93.2741 32.5228 93.2458 32.9106 93.2458 33.3262C93.2458 33.8248 93.2741 34.2681 93.3588 34.6559C93.4435 35.0438 93.5565 35.3762 93.7542 35.6532C93.9236 35.9302 94.1778 36.1519 94.4885 36.2904C94.7992 36.4289 95.1663 36.512 95.6182 36.512C96.0701 36.512 96.4655 36.4289 96.7762 36.2627C97.0868 36.0965 97.341 35.8748 97.5105 35.5701C97.7082 35.2931 97.8211 34.9606 97.9059 34.5728C97.9906 34.2127 98.0188 33.7971 98.0188 33.3539Z" fill="#EA5289"/>
<path d="M111.491 37.6203C111.491 37.6757 111.491 37.7034 111.462 37.7588C111.434 37.7865 111.406 37.8142 111.321 37.8419C111.236 37.8696 111.152 37.8696 111.01 37.8973C110.869 37.8973 110.7 37.8973 110.446 37.8973C110.248 37.8973 110.078 37.8973 109.965 37.8973C109.852 37.8973 109.768 37.8696 109.683 37.8419C109.627 37.8142 109.57 37.7865 109.542 37.7311C109.514 37.7034 109.485 37.648 109.457 37.5926L108.638 35.598C108.525 35.3763 108.44 35.1824 108.356 34.9885C108.271 34.8223 108.158 34.6561 108.045 34.5453C107.932 34.4345 107.791 34.3513 107.65 34.2682C107.508 34.2128 107.311 34.1851 107.113 34.1851H106.52V37.5926C106.52 37.648 106.492 37.6757 106.463 37.7311C106.435 37.7865 106.379 37.7865 106.322 37.8142C106.237 37.8419 106.153 37.8696 106.04 37.8696C105.927 37.8696 105.757 37.8973 105.588 37.8973C105.418 37.8973 105.249 37.8973 105.136 37.8696C105.023 37.8419 104.91 37.8419 104.854 37.8142C104.769 37.7865 104.741 37.7588 104.712 37.7311C104.684 37.7034 104.684 37.648 104.684 37.5926V29.448C104.684 29.254 104.741 29.0878 104.854 29.0047C104.967 28.9216 105.079 28.8662 105.249 28.8662H107.621C107.876 28.8662 108.073 28.8662 108.214 28.8939C108.384 28.8939 108.525 28.9216 108.638 28.9216C109.005 28.977 109.344 29.0601 109.627 29.1986C109.909 29.3372 110.163 29.4757 110.389 29.6973C110.587 29.8912 110.756 30.1405 110.869 30.4176C110.982 30.6946 111.039 30.9993 111.039 31.3595C111.039 31.6642 111.01 31.9412 110.926 32.1905C110.841 32.4399 110.728 32.6615 110.587 32.8554C110.446 33.0493 110.248 33.2155 110.022 33.354C109.796 33.4926 109.542 33.6034 109.259 33.7142C109.401 33.7696 109.514 33.8527 109.655 33.9635C109.768 34.0466 109.881 34.1574 109.994 34.2959C110.107 34.4345 110.191 34.573 110.304 34.7392C110.417 34.9054 110.502 35.0993 110.587 35.3209L111.349 37.0939C111.434 37.2601 111.462 37.3986 111.491 37.4817C111.462 37.5094 111.491 37.5649 111.491 37.6203ZM109.09 31.5257C109.09 31.2209 109.033 30.9716 108.892 30.7777C108.751 30.5838 108.525 30.4176 108.214 30.3345C108.13 30.3068 108.017 30.279 107.904 30.279C107.791 30.279 107.621 30.2513 107.395 30.2513H106.548V32.8H107.508C107.763 32.8 108.017 32.7723 108.214 32.7169C108.412 32.6615 108.582 32.5784 108.723 32.4399C108.864 32.329 108.949 32.1905 109.033 32.0243C109.062 31.9135 109.09 31.7196 109.09 31.5257Z" fill="#EA5289"/>
<path d="M122.675 37.5926C122.675 37.648 122.675 37.6757 122.646 37.7311C122.618 37.7588 122.562 37.8142 122.505 37.8419C122.449 37.8696 122.336 37.8973 122.195 37.8973C122.053 37.8973 121.912 37.925 121.714 37.925C121.404 37.925 121.178 37.925 121.065 37.8973C120.924 37.8696 120.839 37.8419 120.782 37.7865C120.726 37.7311 120.669 37.6757 120.641 37.6203L117.873 33.354V37.6203C117.873 37.6757 117.845 37.7034 117.817 37.7588C117.789 37.7865 117.732 37.8142 117.676 37.8419C117.619 37.8696 117.506 37.8973 117.393 37.8973C117.28 37.8973 117.111 37.925 116.941 37.925C116.772 37.925 116.602 37.925 116.49 37.8973C116.377 37.8973 116.264 37.8696 116.207 37.8419C116.151 37.8142 116.094 37.7865 116.066 37.7588C116.038 37.7311 116.009 37.6757 116.009 37.6203V29.1709C116.009 29.1155 116.038 29.0878 116.066 29.0324C116.094 28.977 116.151 28.977 116.207 28.9493C116.292 28.9216 116.377 28.9216 116.49 28.8939C116.602 28.8939 116.772 28.8662 116.941 28.8662C117.139 28.8662 117.28 28.8662 117.393 28.8939C117.506 28.9216 117.619 28.9216 117.676 28.9493C117.76 28.977 117.789 29.0047 117.817 29.0324C117.845 29.0601 117.873 29.1155 117.873 29.1709V32.9939L120.556 29.1709C120.585 29.1155 120.641 29.0601 120.669 29.0324C120.726 29.0047 120.782 28.9493 120.867 28.9493C120.952 28.9216 121.037 28.9216 121.15 28.8939C121.263 28.8939 121.432 28.8662 121.601 28.8662C121.799 28.8662 121.94 28.8662 122.082 28.8939C122.195 28.9216 122.307 28.9216 122.364 28.9493C122.449 28.977 122.477 29.0047 122.505 29.0324C122.533 29.0601 122.562 29.1155 122.562 29.1709C122.562 29.254 122.533 29.3372 122.505 29.4203C122.477 29.5034 122.392 29.6419 122.251 29.8081L119.737 33.0216L122.477 37.0662C122.59 37.2601 122.646 37.3709 122.675 37.454C122.703 37.5372 122.675 37.5649 122.675 37.5926Z" fill="#EA5289"/>
<path d="M132.39 35.1824C132.39 35.6533 132.305 36.0689 132.108 36.429C131.938 36.7891 131.684 37.0939 131.373 37.3155C131.063 37.5648 130.696 37.731 130.3 37.8418C129.877 37.9526 129.453 38.0358 128.973 38.0358C128.662 38.0358 128.351 38.0081 128.097 37.9526C127.815 37.8972 127.589 37.8418 127.391 37.7587C127.194 37.6756 127.024 37.6202 126.883 37.5371C126.742 37.454 126.657 37.3986 126.572 37.3155C126.487 37.2324 126.459 37.177 126.431 37.0662C126.403 36.9554 126.403 36.7891 126.403 36.5675C126.403 36.429 126.403 36.2905 126.403 36.2074C126.403 36.1243 126.431 36.0412 126.459 35.9581C126.487 35.8749 126.516 35.8472 126.544 35.8195C126.572 35.7918 126.629 35.7918 126.657 35.7918C126.713 35.7918 126.826 35.8195 126.939 35.9027C127.052 35.9858 127.222 36.0689 127.391 36.152C127.589 36.2351 127.815 36.3182 128.069 36.4013C128.323 36.4844 128.634 36.5121 128.973 36.5121C129.199 36.5121 129.396 36.4844 129.594 36.429C129.764 36.3736 129.933 36.2905 130.046 36.2074C130.159 36.1243 130.272 35.9858 130.328 35.8472C130.385 35.7087 130.441 35.5425 130.441 35.3763C130.441 35.1824 130.385 34.9885 130.272 34.8499C130.159 34.7114 130.018 34.5729 129.82 34.4621C129.651 34.3513 129.425 34.2405 129.199 34.1297C128.973 34.0189 128.719 33.9358 128.493 33.8249C128.238 33.7141 128.013 33.5756 127.787 33.4371C127.561 33.2986 127.363 33.1324 127.165 32.9385C126.996 32.7445 126.826 32.5229 126.713 32.2459C126.6 31.9689 126.544 31.6641 126.544 31.2763C126.544 30.8331 126.629 30.4729 126.798 30.1405C126.968 29.8081 127.193 29.531 127.448 29.3371C127.73 29.1155 128.041 28.9493 128.436 28.8662C128.803 28.7554 129.199 28.7 129.622 28.7C129.848 28.7 130.046 28.7277 130.272 28.7554C130.498 28.7831 130.696 28.8385 130.893 28.8939C131.091 28.9493 131.26 29.0047 131.402 29.0878C131.543 29.1709 131.656 29.2263 131.684 29.254C131.741 29.3094 131.769 29.3371 131.769 29.3648C131.797 29.3925 131.797 29.4479 131.825 29.5033C131.825 29.5587 131.854 29.6141 131.854 29.6972C131.854 29.7804 131.854 29.8912 131.854 30.002C131.854 30.1405 131.854 30.2513 131.854 30.3344C131.854 30.4175 131.825 30.5006 131.825 30.556C131.825 30.6114 131.797 30.6668 131.769 30.6945C131.741 30.7222 131.684 30.75 131.656 30.75C131.628 30.75 131.515 30.7222 131.402 30.6391C131.289 30.556 131.147 30.5006 130.978 30.4175C130.809 30.3344 130.611 30.279 130.413 30.1959C130.215 30.1128 129.961 30.1128 129.707 30.1128C129.509 30.1128 129.34 30.1405 129.17 30.1959C129.029 30.2513 128.888 30.3067 128.803 30.3898C128.69 30.4729 128.634 30.5837 128.577 30.6945C128.521 30.8054 128.493 30.9439 128.493 31.0824C128.493 31.2763 128.549 31.4425 128.662 31.6087C128.775 31.7472 128.916 31.8858 129.114 31.9966C129.312 32.1074 129.509 32.2182 129.735 32.329C129.961 32.4398 130.215 32.5229 130.47 32.6337C130.724 32.7445 130.95 32.8831 131.204 33.0216C131.43 33.1601 131.656 33.3263 131.825 33.5202C132.023 33.7141 132.164 33.9358 132.277 34.2128C132.334 34.4898 132.39 34.7945 132.39 35.1824Z" fill="#EA5289"/>
<path d="M31.8745 6.37158L20.1537 29.3371L18.7416 26.5669L29.0502 6.37158H26.2824L17.3577 23.8797L8.43303 6.37158H5.66525L15.9738 26.5946L14.5617 29.3648L2.86922 6.37158H0.412109V37.925H2.86922V11.7736L16.228 37.9804H18.4874L31.8462 11.7736V37.925H34.3033V6.37158H31.8745ZM17.3577 34.7946L15.9456 32.0243L17.3577 29.254L18.7699 32.0243L17.3577 34.7946Z" fill="url(#paint0_linear)"/>
<defs>
<linearGradient id="paint0_linear" x1="0.412109" y1="22.1728" x2="34.3243" y2="22.1728" gradientUnits="userSpaceOnUse">
<stop stop-color="#6D2E87"/>
<stop offset="1" stop-color="#EA5289"/>
</linearGradient>
</defs>
</svg>