<svg width="78" height="78" viewBox="0 0 78 78" fill="none" xmlns="http://www.w3.org/2000/svg">
<circle cx="39" cy="39" r="39" fill="#FCAA0B"/>
<path d="M24 33.5305V39.3279C24 41.1154 25.4493 42.613 27.2852 42.613H28.5896L30.2322 52.0821C30.3288 52.6135 30.8119 53 31.3433 53H35.6914C36.0295 53 36.3194 52.8551 36.561 52.6135C36.7542 52.372 36.8508 52.0338 36.8025 51.6956L35.2083 42.613H39.0732V30.2453H27.2852C25.4493 30.2453 24 31.6947 24 33.5305Z" fill="white"/>
<path d="M52.3789 25.0894C51.9617 24.9404 51.4402 24.9776 51.0752 25.2013L41.2189 29.939V42.7129L51.0752 47.4134C51.2838 47.5252 51.5445 47.5998 51.8574 47.5998C52.0138 47.5998 52.2224 47.5625 52.3789 47.5252C52.7961 47.3761 53.0568 47.078 53.0568 46.7426V25.8721C53.0568 25.5367 52.7961 25.2385 52.3789 25.0894Z" fill="white"/>
</svg>
