<svg width="447" height="336" viewBox="0 0 447 336" fill="none" xmlns="http://www.w3.org/2000/svg">
<path d="M274.948 5.39903C351.988 31.0788 327.999 70.1804 398.499 106.027C468.999 141.873 448.599 240.953 422.501 272.527C396.402 304.1 346.936 335.027 290.104 335.027C233.271 335.027 206.08 299.369 152.443 302.611C21.681 310.515 -24.6421 199.143 12.2565 124.116C37.5154 72.7559 87.8706 71.464 122.553 47.076C155.118 24.1776 216.137 -14.2048 274.948 5.39903Z" fill="black"/>
<mask id="mask0" mask-type="alpha" maskUnits="userSpaceOnUse" x="0" y="0" width="447" height="336">
<path d="M274.948 5.39928C351.988 31.079 327.999 70.1806 398.499 106.027C468.999 141.874 448.599 240.954 422.501 272.527C396.402 304.101 346.936 335.027 290.104 335.027C233.271 335.027 206.08 299.369 152.443 302.611C21.681 310.515 -24.6421 199.143 12.2565 124.116C37.5154 72.7561 87.8706 71.4643 122.553 47.0762C155.118 24.1778 216.137 -14.2045 274.948 5.39928Z" fill="black"/>
</mask>
<g mask="url(#mask0)">
<path d="M333.264 210.622L334.073 211.495L335.322 211.914L334.295 212.722L333.863 213.933L333.032 212.937L331.784 212.518L332.81 211.711L333.264 210.622Z" fill="#FEA7AF" fill-opacity="0.4"/>
<path d="M247.275 276.596L247.958 277.491L249.206 277.91L248.18 278.718L247.874 279.908L247.042 278.912L245.794 278.493L246.821 277.685L247.275 276.596Z" fill="#FEA7AF" fill-opacity="0.5"/>
<path opacity="0.29" d="M198.787 219.059L199.596 219.932L200.844 220.351L199.818 221.159L199.386 222.37L198.554 221.374L197.306 220.955L198.332 220.148L198.787 219.059Z" fill="white"/>
<path opacity="0.29" d="M176.711 54.051L177.521 54.9243L178.769 55.3433L177.743 56.1507L177.31 57.3624L176.479 56.3665L175.231 55.9474L176.257 55.14L176.711 54.051Z" fill="white"/>
<path opacity="0.29" d="M332.429 4.08078L333.261 5.0767L334.382 5.51734L333.482 6.30315L333.05 7.51482L332.219 6.51888L330.971 6.09982L331.997 5.29244L332.429 4.08078Z" fill="white"/>
<path opacity="0.29" d="M290.173 302.462L291.814 304.332L294.184 305.191L292.258 306.785L291.371 309.085L289.731 307.216L287.361 306.356L289.287 304.763L290.173 302.462Z" fill="#FEA7AF"/>
<path opacity="0.29" d="M220.711 177.514L221.394 178.409L222.642 178.828L221.594 179.513L221.288 180.703L220.456 179.707L219.357 179.389L220.257 178.603L220.711 177.514Z" fill="white"/>
<path opacity="0.29" d="M340.703 98.4668L342.046 100.134L344.119 100.792L342.423 102.219L341.745 104.231L340.275 102.586L338.18 101.805L339.898 100.501L340.703 98.4668Z" fill="#FEA7AF"/>
<path d="M384.178 145.812L386.16 148.129L389.08 149.147L386.671 150.949L385.62 153.784L383.764 151.446L380.867 150.549L383.254 148.625L384.178 145.812Z" fill="white" fill-opacity="0.2"/>
<path opacity="0.33" d="M264.276 67.6694L265.449 69.1127L267.396 69.7919L265.782 70.9524L265.186 72.6978L264.013 71.2544L262.215 70.6764L263.68 69.4148L264.276 67.6694Z" fill="#FEA7AF"/>
<path d="M16.9059 306.217L15.7508 306.839L15.1085 307.96L14.4679 306.838L13.3138 306.215L14.4689 305.593L15.1112 304.473L15.7518 305.594L16.9059 306.217Z" fill="#FEA7AF" fill-opacity="0.4"/>
<path opacity="0.29" d="M29.2711 33.2192L28.116 33.8414L27.4737 34.9619L26.8331 33.8409L25.679 33.2178L26.8341 32.5956L27.4764 31.4751L28.117 32.5961L29.2711 33.2192Z" fill="white"/>
<path opacity="0.29" d="M120.367 311.182L119.212 311.804L118.57 312.8L117.929 311.804L116.775 311.181L117.93 310.559L118.572 309.438L119.213 310.559L120.367 311.182Z" fill="white"/>
<path opacity="0.29" d="M422.979 63.4662L423.792 64.4276L425.046 64.8889L424.015 65.7779L423.581 67.112L422.746 66.0155L421.492 65.5542L422.523 64.6652L422.979 63.4662Z" fill="white"/>
<path opacity="0.29" d="M445.006 17.7241L445.692 18.7093L446.945 19.1706L445.892 19.9246L445.585 21.2348L444.75 20.1384L443.645 19.7884L444.549 18.9231L445.006 17.7241Z" fill="white"/>
<path d="M218.012 70.9531L216.206 72.0493L215.303 73.8312L214.273 72.0485L212.47 70.951L214.275 69.992L215.307 68.0729L216.208 69.9927L218.012 70.9531Z" fill="#FEA7AF" fill-opacity="0.5"/>
<path d="M240.27 159.442L239.11 160.128L238.464 161.361L237.821 160.127L236.662 159.441L237.822 158.756L238.467 157.522L239.111 158.756L240.27 159.442Z" fill="#FEA7AF" fill-opacity="0.4"/>
<path opacity="0.29" d="M344.199 164.897L343.038 165.582L342.393 166.679L341.75 165.582L340.59 164.896L341.751 164.211L342.396 162.977L343.039 164.211L344.199 164.897Z" fill="white"/>
<path opacity="0.29" d="M151.041 11.8376L148.849 13.2078L147.559 15.538L146.272 13.2068L144.082 11.8349L146.274 10.4647L147.564 8.13442L148.851 10.4657L151.041 11.8376Z" fill="#FEA7AF"/>
<path opacity="0.29" d="M7.63288 328.346L5.31221 329.579L4.15052 332.047L2.86363 329.579L0.544853 328.344L2.86558 326.974L4.15615 324.506L5.31416 326.975L7.63288 328.346Z" fill="white"/>
<path opacity="0.29" d="M64.2594 86.7982L63.228 87.3462L62.5827 88.58L62.0681 87.3458L60.9087 86.7969L62.0691 86.1119L62.5854 85.0152L63.229 86.1123L64.2594 86.7982Z" fill="#FEA7AF"/>
<path opacity="0.29" d="M198.556 237.933L197.396 238.619L196.88 239.715L196.236 238.618L195.206 237.932L196.237 237.384L196.882 236.15L197.397 237.385L198.556 237.933Z" fill="#FEA7AF"/>
<path opacity="0.29" d="M95.4069 309.872L94.3754 310.557L93.7302 311.654L93.2155 310.556L92.0562 309.871L93.2164 309.323L93.7328 308.089L94.3763 309.323L95.4069 309.872Z" fill="white"/>
<path opacity="0.29" d="M240.29 266.048L239.258 266.596L238.613 267.83L238.098 266.596L236.939 266.047L238.099 265.362L238.616 264.265L239.259 265.363L240.29 266.048Z" fill="white"/>
<path opacity="0.29" d="M162.304 118.095L160.37 119.191L159.338 121.247L158.179 119.19L156.247 118.092L158.181 116.859L159.343 114.803L160.372 116.86L162.304 118.095Z" fill="#FEA7AF"/>
<path d="M53.4422 244.184L52.4108 244.732L51.8946 245.692L51.3798 244.732L50.4781 244.183L51.3807 243.635L51.8969 242.676L52.4116 243.636L53.4422 244.184Z" fill="white"/>
<path d="M157.675 273.008L156.643 273.556L156.127 274.516L155.612 273.556L154.71 273.007L155.613 272.459L156.129 271.362L156.644 272.459L157.675 273.008Z" fill="white" fill-opacity="0.6"/>
<path opacity="0.33" d="M12.0951 215.241L10.8059 215.926L10.1606 217.159L9.51715 215.925L8.22892 215.239L9.51828 214.417L10.1636 213.183L10.807 214.417L12.0951 215.241Z" fill="#FEA7AF"/>
<path opacity="0.33" d="M149.346 211.18L148.057 211.865L147.412 213.236L146.768 211.865L145.48 211.179L146.769 210.494L147.415 209.26L148.058 210.494L149.346 211.18Z" fill="#FEA7AF"/>
<path opacity="0.33" d="M121.077 101.49L119.787 102.175L119.142 103.545L118.499 102.174L117.21 101.488L118.5 100.803L119.145 99.5693L119.788 100.803L121.077 101.49Z" fill="#FEA7AF"/>
<path opacity="0.33" d="M412.709 252.73L411.549 253.415L410.904 254.649L410.131 253.415L408.972 252.729L410.133 251.907L410.907 250.673L411.55 251.907L412.709 252.73Z" fill="#FEA7AF"/>
</g>
<g opacity="0.7" clip-path="url(#clip0)">
<path d="M341.034 155.796C349.131 155.69 356.176 161.801 362.379 166.331C368.899 171.177 375.208 176.339 380.255 182.766C385.197 189.087 388.772 196.777 389.193 204.784C389.613 211.737 387.3 218.796 382.568 224.063C380.255 226.486 377.521 228.488 374.261 229.647C370.581 230.911 366.691 230.911 362.8 230.595C355.44 229.963 347.974 228.488 341.139 232.281C335.356 235.441 330.835 241.025 324.21 242.394C320.109 243.237 315.798 242.078 311.697 242.394C308.753 242.605 306.124 243.764 303.811 245.45C299.29 248.716 296.03 253.667 291.088 256.512C288.459 258.092 285.41 258.724 282.466 257.776C279.311 256.722 276.682 253.983 275.631 250.823C275.105 249.242 275 247.557 275.315 245.871C275.421 245.239 274.474 244.923 274.264 245.555C273.107 251.56 277.734 258.092 283.938 259.04C289.931 259.988 294.663 255.458 298.554 251.56C300.762 249.348 302.97 247.135 305.599 245.45C309.068 243.343 312.749 243.132 316.639 243.448C320.53 243.764 324.21 243.869 327.89 242.289C331.045 240.92 333.779 238.707 336.513 236.6C339.457 234.388 342.611 232.281 346.292 231.333C350.498 230.279 354.809 230.806 359.015 231.227C363.116 231.649 367.216 232.07 371.317 231.438C374.682 230.911 377.837 229.436 380.465 227.435C385.828 223.326 389.193 216.899 390.139 210.157C391.191 202.256 388.772 194.249 384.776 187.401C380.465 180.132 374.261 174.232 367.742 168.965C364.482 166.436 361.118 164.013 357.753 161.59C354.388 159.167 350.918 156.849 346.922 155.585C344.925 155.058 343.032 154.742 341.034 154.742C340.403 154.742 340.403 155.796 341.034 155.796Z" fill="white"/>
</g>
<path d="M244.961 144.921C270.344 144.921 290.921 124.344 290.921 98.9607C290.921 73.5773 270.344 53 244.961 53C219.577 53 199 73.5773 199 98.9607C199 124.344 219.577 144.921 244.961 144.921Z" fill="url(#paint0_linear)"/>
<path d="M273.244 62.742C270.494 60.6208 267.509 58.8138 264.366 57.321C262.795 57.6353 260.595 57.5567 257.452 57.0853C248.339 55.7497 247.71 59.9923 238.361 61.485C230.19 62.8206 229.012 61.9564 220.762 59.9137C217.62 61.8778 214.713 64.1562 212.12 66.8274C218.798 68.0059 219.898 75.6268 227.755 76.5695C239.382 77.9837 244.803 67.7702 251.717 64.3134C258.788 60.7779 264.916 67.1417 273.244 62.742Z" fill="url(#paint1_linear)"/>
<path d="M285.108 76.4126C283.693 76.5697 282.122 76.7268 280.394 76.6483C272.694 76.5697 269.944 71.5415 261.616 73.4271C250.224 76.0197 244.961 83.4049 235.454 84.2691C227.362 85.0547 223.041 82.305 217.384 76.4911C214.006 73.0342 210.47 71.8558 208.113 71.5415C205.992 74.2913 204.264 77.3553 202.85 80.5765C203.242 80.7336 203.557 80.8908 203.95 81.0479C216.206 86.3118 214.006 93.0684 222.491 98.9608C231.447 105.167 247.553 100.689 256.431 94.3254C266.33 87.2546 273.794 92.2828 283.301 95.7396C286.05 96.761 288.643 96.9967 290.921 96.8395C290.607 89.4544 288.486 82.5407 285.108 76.4126Z" fill="url(#paint2_linear)"/>
<path d="M280.551 103.125C272.93 103.125 267.588 98.7251 259.26 99.5108C251.01 100.296 243.861 105.089 231.369 105.246C219.034 105.403 218.641 97.7824 207.642 94.2469C204.892 93.3827 200.807 94.6397 199.157 95.6611C199.079 96.761 199 97.8609 199 98.9608C199 102.103 199.314 105.168 199.943 108.153C202.535 106.11 206.935 103.989 212.592 105.875C221.863 109.017 227.676 122.688 245.039 115.538C262.402 108.389 260.36 112.16 272.301 112.16C283.379 112.16 285.815 106.346 290.214 107.603C290.686 105.01 291 102.418 291 99.6679C286.915 98.9608 285.579 103.125 280.551 103.125Z" fill="url(#paint3_linear)"/>
<path d="M268.609 113.495C255.096 115.067 253.525 122.452 240.797 124.73C228.07 127.087 227.363 121.038 217.935 117.188C211.964 114.752 206.307 116.402 203.086 117.816C204.579 121.116 206.386 124.18 208.586 127.009C213.614 126.066 221.156 127.009 229.484 130.623C245.04 137.379 256.746 127.873 268.374 123.237C278.587 119.152 279.609 121.902 285.03 121.823C286.444 119.388 287.622 116.795 288.565 114.045C282.437 118.366 278.037 112.395 268.609 113.495Z" fill="url(#paint4_linear)"/>
<path d="M244.96 145C256.117 145 266.33 141.072 274.265 134.472C265.466 131.33 263.109 138.558 255.017 140.129C247.946 141.543 245.667 137.536 233.411 135.101C227.362 133.844 222.098 135.808 219.112 137.065C226.497 142.014 235.375 145 244.96 145Z" fill="url(#paint5_linear)"/>
<g style="mix-blend-mode:overlay" opacity="0.2">
<path d="M276.387 78.3766C274.03 83.8762 263.738 83.1691 254.467 71.9343C248.575 64.7848 233.333 66.4347 234.826 60.6209C236.24 54.807 249.046 54.7285 257.767 57.3211C269.788 60.8566 279.765 70.2844 276.387 78.3766Z" fill="white"/>
</g>
<g style="mix-blend-mode:overlay" opacity="0.2">
<path d="M281.494 110.117C288.407 114.517 273.166 144.607 239.304 140.286C206.385 136.201 194.05 98.3321 208.035 85.8402C211.649 82.619 227.205 82.069 231.526 97.2322C236.947 116.481 238.911 125.201 250.775 126.537C270.337 128.737 276.073 106.739 281.494 110.117Z" fill="black" fill-opacity="0.9"/>
</g>
<g style="mix-blend-mode:overlay" opacity="0.2">
<path d="M285.972 85.6045C286.757 88.9828 285.972 93.1468 283.379 94.5609C280.865 95.9751 279.136 93.6967 277.408 90.7112C275.68 87.6472 276.387 85.5259 278.037 83.169C281.101 78.7693 285.029 81.5191 285.972 85.6045Z" fill="white"/>
</g>
<g style="mix-blend-mode:overlay" opacity="0.2">
<path d="M207.721 97.2323C211.177 95.4253 217.07 105.167 221.077 118.681C225.083 131.958 240.482 134.394 237.654 136.908C234.826 139.5 220.92 132.037 214.399 124.416C205.285 113.81 202.692 99.8249 207.721 97.2323Z" fill="white"/>
</g>
<mask id="mask1" mask-type="alpha" maskUnits="userSpaceOnUse" x="199" y="53" width="92" height="92">
<path d="M244.961 144.921C270.344 144.921 290.921 124.344 290.921 98.9607C290.921 73.5773 270.344 53 244.961 53C219.577 53 199 73.5773 199 98.9607C199 124.344 219.577 144.921 244.961 144.921Z" fill="url(#paint6_linear)"/>
</mask>
<g mask="url(#mask1)">
</g>
<g clip-path="url(#clip1)">
<mask id="mask2" mask-type="alpha" maskUnits="userSpaceOnUse" x="340" y="156" width="8" height="6">
<path d="M343.873 157.115C345.216 157.908 347.705 161.725 347.705 161.725C347.705 161.725 343.125 161.39 341.782 160.597C340.439 159.804 339.82 158.391 340.394 157.425C340.976 156.472 342.528 156.332 343.873 157.115Z" fill="url(#paint7_linear)"/>
</mask>
<g mask="url(#mask2)">
<path d="M343.873 157.115C345.216 157.908 347.705 161.725 347.705 161.725C347.705 161.725 343.125 161.39 341.782 160.597C340.439 159.804 339.82 158.391 340.394 157.425C340.976 156.472 342.528 156.332 343.873 157.115Z" fill="url(#paint8_linear)" fill-opacity="0.8"/>
</g>
<mask id="mask3" mask-type="alpha" maskUnits="userSpaceOnUse" x="340" y="156" width="6" height="5">
<path d="M342.765 156.967C343.649 157.524 345.143 160.288 345.143 160.288C345.143 160.288 341.974 160.147 341.09 159.59C340.203 159.042 339.864 158.01 340.324 157.28C340.793 156.552 341.878 156.419 342.765 156.967Z" fill="url(#paint9_linear)"/>
</mask>
<g mask="url(#mask3)">
<path d="M342.765 156.967C343.649 157.524 345.143 160.288 345.143 160.288C345.143 160.288 341.974 160.147 341.09 159.59C340.203 159.042 339.864 158.01 340.324 157.28C340.793 156.552 341.878 156.419 342.765 156.967Z" fill="url(#paint10_linear)"/>
</g>
<mask id="mask4" mask-type="alpha" maskUnits="userSpaceOnUse" x="340" y="156" width="4" height="4">
<path d="M342.153 157.116C342.693 157.457 343.522 159.274 343.522 159.274C343.522 159.274 341.498 159.313 340.956 158.982C340.416 158.641 340.238 157.947 340.575 157.44C340.904 156.921 341.613 156.775 342.153 157.116Z" fill="url(#paint11_linear)"/>
</mask>
<g mask="url(#mask4)">
<path d="M342.153 157.116C342.693 157.457 343.522 159.274 343.522 159.274C343.522 159.274 341.498 159.313 340.956 158.982C340.416 158.641 340.238 157.947 340.575 157.44C340.904 156.921 341.613 156.775 342.153 157.116Z" fill="url(#paint12_linear)"/>
</g>
</g>
<path d="M332.214 167.453C331.153 165.286 329.012 160.855 328.935 160.472L330.03 158.177L337.179 161.587L337.951 170.189L332.214 167.453Z" fill="#FCAA0B"/>
<path d="M343.161 144.504C340.809 145.043 336.018 146.168 335.671 146.349L334.577 148.644L341.726 152.054L348.898 147.24L343.161 144.504Z" fill="#FCAA0B"/>
<path d="M311.498 143.465C311.492 143.449 311.489 143.441 311.489 143.441L311.522 143.457C312.196 143.22 319.641 140.691 325.928 142.243C332.52 143.87 336.323 146.118 338.147 147.746C339.971 149.374 342.369 153.66 342.369 153.66L338.848 161.041C338.848 161.041 334.008 161.874 331.595 161.482C329.182 161.089 325.042 159.548 319.629 155.449C314.467 151.54 311.747 144.163 311.506 143.49L311.473 143.474C311.473 143.474 311.481 143.471 311.498 143.465Z" fill="white"/>
<path fill-rule="evenodd" clip-rule="evenodd" d="M340.746 151.018C341.673 152.418 342.367 153.66 342.367 153.66L338.847 161.041C338.847 161.041 337.428 161.285 335.744 161.447C336.343 159.723 337.065 157.961 337.909 156.193C338.786 154.353 339.741 152.621 340.746 151.018Z" fill="#FCAA0B"/>
<path fill-rule="evenodd" clip-rule="evenodd" d="M315.714 151.347C313.087 147.769 311.682 143.955 311.513 143.48L311.479 143.464L311.504 143.456L311.495 143.431L311.529 143.447C312.004 143.28 315.842 141.975 320.268 141.762C320.4 143.563 320.079 145.422 319.246 147.169C318.418 148.905 317.185 150.318 315.714 151.347Z" fill="#FCAA0B"/>
<circle cx="326.616" cy="150.815" r="3.69809" transform="rotate(-64.5 326.616 150.815)" fill="#DA648E" stroke="#FCAA0B" stroke-width="1.3"/>
<path fill-rule="evenodd" clip-rule="evenodd" d="M330.908 157.47C330.909 157.614 330.878 157.761 330.812 157.899C330.58 158.387 329.996 158.593 329.509 158.361C329.021 158.128 328.814 157.545 329.047 157.057C329.279 156.57 329.863 156.363 330.351 156.596C330.572 156.701 330.735 156.879 330.826 157.088L331.915 156.823C331.897 156.65 331.925 156.471 332.005 156.302C332.238 155.815 332.822 155.608 333.309 155.841C333.796 156.073 334.003 156.657 333.771 157.144C333.538 157.632 332.954 157.839 332.467 157.606C332.276 157.515 332.127 157.369 332.032 157.197L330.908 157.47Z" fill="#3B2F4E"/>
<g clip-path="url(#clip2)">
<path d="M224.903 279.232C225.435 279.301 225.355 279.519 225.701 279.629C226.614 279.883 227.958 279.844 228.478 279.692C228.839 279.591 228.856 279.335 229.42 279.23C230.086 279.1 230.22 279.242 230.584 279.389C230.984 279.564 232.323 279.37 233.117 278.977C233.556 278.75 233.725 278.286 234.199 278.133C234.868 277.912 234.994 277.988 235.263 277.931C238.204 277.374 239.131 272.643 235.717 270.434C234.218 269.458 223.444 269.482 220.948 273.429C220.187 274.621 220.308 275.854 220.518 276.548C221.004 278.222 222.076 279.012 224.144 279.405C224.437 279.45 224.371 279.163 224.903 279.232Z" fill="url(#paint13_linear)"/>
<path d="M220.773 275.049C221.102 278.968 230.394 278.301 234.17 276.562C237.312 275.12 238.647 273.163 236.399 269.754C236.082 269.268 236.142 268.131 236.142 268.131L228.503 267.281C228.512 267.3 220.357 269.971 220.773 275.049Z" fill="url(#paint14_linear)"/>
<path opacity="0.5" d="M236.381 270.056C236.18 271.914 233.788 273.211 231.018 272.919C228.256 272.645 226.153 270.911 226.345 269.034C226.546 267.176 228.938 265.879 231.708 266.171C234.478 266.463 236.573 268.179 236.381 270.056Z" fill="black"/>
<path d="M266.32 287.953C266.787 287.689 266.854 287.93 267.198 287.792C268.091 287.466 269.144 286.658 269.488 286.226C269.736 285.93 269.595 285.724 269.984 285.294C270.458 284.801 270.632 284.833 271.021 284.742C271.456 284.653 272.422 283.704 272.839 282.944C273.072 282.519 272.93 282.019 273.208 281.641C273.62 281.064 273.768 281.04 273.957 280.862C276.024 278.721 274.016 274.318 269.953 274.516C268.175 274.598 259.411 280.879 259.701 285.541C259.789 286.948 260.59 287.887 261.184 288.334C262.562 289.388 263.895 289.423 265.797 288.536C266.058 288.414 265.825 288.206 266.32 287.953Z" fill="url(#paint15_linear)"/>
<path d="M260.524 286.967C263.097 289.953 270.269 284.007 272.314 280.406C274.02 277.393 273.968 275.042 270.136 273.593C269.608 273.387 268.964 272.443 268.964 272.443L262.25 276.207C262.26 276.18 257.195 283.089 260.524 286.967Z" fill="url(#paint16_linear)"/>
<path opacity="0.5" d="M270.869 274.337C271.546 276.081 270 278.317 267.386 279.333C264.79 280.34 262.13 279.747 261.453 278.004C260.777 276.261 262.322 274.024 264.936 273.009C267.532 272.002 270.192 272.594 270.869 274.337Z" fill="black"/>
<path d="M270.491 272.455C271.434 274.527 270.032 277.217 267.356 278.442C264.662 279.675 261.71 278.993 260.767 276.921C259.823 274.85 261.225 272.16 263.901 270.935C266.587 269.682 269.539 270.365 270.491 272.455Z" fill="url(#paint17_linear)"/>
<path d="M237.254 267.545C237.363 269.824 235.089 271.813 232.122 271.974C229.173 272.127 226.674 270.419 226.565 268.14C226.455 265.86 228.73 263.872 231.697 263.71C234.636 263.539 237.126 265.274 237.254 267.545Z" fill="url(#paint18_linear)"/>
<path d="M232.551 270.168C232.292 270.198 232.007 270.218 231.731 270.211C229.048 270.104 226.95 267.847 227.083 265.161C227.157 263.519 227.71 255.161 231.667 250.646C237.612 243.87 249.985 243.915 251.355 243.932C254.04 243.993 256.184 246.205 256.116 248.884C256.049 251.563 253.844 253.7 251.159 253.64C248.188 253.599 241.322 254.358 238.982 257.033C237.746 258.423 236.926 262.946 236.805 265.56C236.709 267.935 234.86 269.86 232.551 270.168Z" fill="url(#paint19_linear)"/>
<path d="M264.132 209.104L262.848 208.933L262.363 208.865C261.126 208.696 259.955 209.739 259.738 211.221L255.06 243.404C254.842 244.886 255.669 246.22 256.906 246.39L257.391 246.457L258.675 246.628L273.875 248.794L279.332 211.27L264.132 209.104Z" fill="url(#paint20_linear)"/>
<path d="M275.304 248.987L272.262 248.55C271.19 248.394 270.464 247.42 270.623 246.35L275.519 212.686C275.678 211.616 276.656 210.888 277.728 211.045L280.77 211.481C284.031 211.952 286.3 214.966 285.829 218.241L282.082 243.949C281.621 247.195 278.566 249.457 275.304 248.987Z" fill="url(#paint21_linear)"/>
<path d="M247.703 228.553C247.638 228.56 247.573 228.568 247.509 228.575C246.587 228.643 238.301 229.181 233.529 224.89C229.592 221.364 228.197 214.525 227.959 213.188C227.564 210.928 229.071 208.755 231.336 208.355C233.593 207.936 235.776 209.452 236.171 211.711C236.562 213.815 237.753 217.49 239.117 218.71C240.794 220.213 245.139 220.426 246.873 220.297C249.169 220.108 251.171 221.822 251.354 224.113C251.502 226.329 249.891 228.279 247.703 228.553Z" fill="url(#paint22_linear)"/>
<path d="M253.177 225.977C252.385 229.197 249.976 231.384 247.774 230.85C245.572 230.315 244.427 227.274 245.219 224.054C246.01 220.834 248.419 218.648 250.621 219.182C252.804 219.725 253.95 222.766 253.177 225.977Z" fill="url(#paint23_linear)"/>
<path d="M255.2 244.583C256.82 248.104 255.675 252.077 252.627 253.476C249.597 254.866 245.819 253.143 244.208 249.641C242.589 246.119 243.734 242.147 246.782 240.748C249.812 239.357 253.581 241.062 255.2 244.583Z" fill="url(#paint24_linear)"/>
<path d="M261.66 255.124L252.568 253.933C247.609 253.281 244.133 248.748 244.8 243.799L247.805 221.468C248.017 219.877 249.475 218.767 251.069 218.973L268.649 221.274C270.244 221.481 271.352 222.933 271.141 224.524L267.642 250.569C267.246 253.469 264.565 255.511 261.66 255.124Z" fill="url(#paint25_linear)"/>
<path d="M266.974 249.478C267.185 253.339 264.229 256.641 260.405 256.863C256.571 257.067 253.308 254.109 253.097 250.248C252.885 246.386 255.841 243.085 259.666 242.863C263.499 242.659 266.763 245.617 266.974 249.478Z" fill="url(#paint26_linear)"/>
<path opacity="0.5" d="M268.32 221.156C268.166 222.336 264.234 222.813 259.56 222.186C254.894 221.579 251.219 220.125 251.383 218.918C251.536 217.737 255.469 217.261 260.143 217.887C264.817 218.513 268.492 219.967 268.32 221.156Z" fill="black"/>
<path d="M265.229 277.579C263.299 277.822 261.348 276.9 260.359 275.121C259.616 273.77 255.825 266.759 255.06 262.297C254.145 257.022 255.226 250.431 255.358 249.691C255.811 247.059 258.337 245.27 260.974 245.715C263.611 246.159 265.397 248.675 264.944 251.307C264.688 252.852 264.103 257.537 264.641 260.59C265.021 262.72 267.346 267.609 268.895 270.394C270.189 272.732 269.322 275.693 266.975 276.99C266.423 277.316 265.829 277.502 265.229 277.579Z" fill="url(#paint27_linear)"/>
<path d="M264.657 227.028C264.481 230.255 266.582 233.008 269.375 233.154C272.168 233.3 274.567 230.801 274.734 227.555C274.909 224.328 272.808 221.575 270.015 221.429C267.223 221.283 264.823 223.782 264.657 227.028Z" fill="url(#paint28_linear)"/>
<path opacity="0.5" d="M284.399 227.98C280.317 225.019 276.21 223.857 273.97 223.386L272.756 231.69C274.078 232.091 275.952 232.847 277.836 234.208C280.062 235.818 281.642 238.769 282.511 240.875L284.399 227.98Z" fill="black"/>
<path d="M288.907 242.078C287.255 242.283 285.548 241.495 284.709 239.941C284.028 238.675 281.648 235.033 279.036 233.423C276.206 231.688 272.093 231.388 270.878 231.412C268.567 231.471 266.659 229.668 266.606 227.363C266.553 225.057 268.365 223.149 270.675 223.09C271.412 223.063 278.029 222.986 283.453 226.34C288.434 229.425 291.724 235.312 292.082 235.982C293.164 238.012 292.411 240.535 290.374 241.621C289.898 241.865 289.406 242.027 288.907 242.078Z" fill="url(#paint29_linear)"/>
<path opacity="0.5" d="M291.335 234.77C292.069 236.441 290.949 238.569 288.816 239.496C286.691 240.442 284.353 239.858 283.619 238.187C282.885 236.515 284.004 234.387 286.137 233.46C288.262 232.514 290.582 233.107 291.335 234.77Z" fill="black"/>
<path d="M274.596 213.433C273.183 220.336 267.053 222.674 260.375 221.693C248.301 219.902 248.775 216.83 249.813 209.853C251.129 201.184 256.915 197.377 263.607 198.194C271.455 199.15 275.914 206.958 274.596 213.433Z" fill="url(#paint30_linear)"/>
<path d="M270.908 214.971C269.083 220.551 262.367 222.801 253.711 219.868C246.822 217.56 247.791 212.967 248.384 209.614C249.413 203.885 253.473 198.032 260.566 199.317C267.833 200.635 273.18 207.962 270.908 214.971Z" fill="url(#paint31_linear)"/>
<path d="M269.809 214.805C268.03 220.386 261.625 222.671 253.372 219.823C246.822 217.56 247.773 212.976 248.384 209.614C249.414 203.884 253.318 197.991 260.081 199.25C266.981 200.512 272.035 207.794 269.809 214.805Z" fill="url(#paint32_linear)"/>
<path d="M269.066 214.427C267.353 219.616 261.375 221.792 253.017 219.06C247.868 217.366 246.626 212.221 247.194 209.105C248.157 203.769 253.603 198.99 259.519 199.942C266.551 201.097 271.231 207.92 269.066 214.427Z" fill="url(#paint33_linear)"/>
<path d="M267.03 212.934C265.519 217.485 260.285 219.405 252.947 217.012C248.426 215.545 247.333 211.009 247.853 208.278C248.714 203.6 253.48 199.409 258.664 200.25C264.837 201.218 268.924 207.209 267.03 212.934Z" fill="white" fill-opacity="0.1"/>
<path d="M291.92 234.904C292.73 236.495 291.516 238.712 289.21 239.901C286.913 241.063 284.402 240.74 283.592 239.15C282.782 237.559 283.995 235.341 286.302 234.153C288.59 232.973 291.11 233.313 291.92 234.904Z" fill="url(#paint34_linear)"/>
<path opacity="0.5" d="M236.761 214.582C237.262 216.339 235.918 218.278 233.738 218.91C231.558 219.542 229.367 218.64 228.865 216.883C228.364 215.126 229.707 213.187 231.888 212.555C234.068 211.923 236.259 212.824 236.761 214.582Z" fill="black"/>
<path d="M237.223 213.868C237.691 215.505 236.082 217.41 233.605 218.135C231.127 218.86 228.738 218.119 228.251 216.491C227.783 214.854 229.393 212.949 231.87 212.224C234.347 211.499 236.736 212.24 237.223 213.868Z" fill="url(#paint35_linear)"/>
<path d="M274.672 243.444C274.718 244.419 273.976 245.262 273 245.311C272.023 245.359 271.18 244.621 271.134 243.646C271.088 242.672 271.83 241.829 272.807 241.78C273.802 241.724 274.627 242.47 274.672 243.444Z" fill="url(#paint36_linear)"/>
<path d="M274.089 243.604C274.122 244.357 273.542 245.012 272.787 245.048C272.031 245.083 271.376 244.506 271.343 243.753C271.309 242.999 271.889 242.344 272.645 242.309C273.4 242.273 274.036 242.859 274.089 243.604Z" fill="url(#paint37_linear)"/>
<path d="M226.659 212.346C226.808 215.15 229.194 217.296 232.032 217.149C234.842 216.992 236.99 214.588 236.86 211.775C236.71 208.971 234.325 206.826 231.487 206.972C228.676 207.129 226.509 209.542 226.659 212.346Z" fill="url(#paint38_linear)"/>
<path d="M232.889 208.762C233.469 208.741 233.916 208.238 233.887 207.641L233.716 204.304C233.696 203.725 233.193 203.28 232.594 203.311C232.014 203.332 231.567 203.835 231.596 204.432L231.767 207.769C231.806 208.339 232.308 208.784 232.889 208.762Z" fill="url(#paint39_linear)"/>
<path d="M234.952 212.506C235.576 212.871 236.374 212.635 236.742 212.011L238.642 208.636C239.01 208.012 238.775 207.217 238.151 206.852C237.526 206.487 236.728 206.723 236.361 207.347L234.461 210.722C234.102 211.364 234.318 212.168 234.952 212.506Z" fill="url(#paint40_linear)"/>
<path d="M230.781 208.772C231.329 208.584 231.614 207.977 231.427 207.43L230.331 204.253C230.145 203.706 229.536 203.424 228.988 203.612C228.44 203.8 228.156 204.408 228.342 204.954L229.448 208.104C229.625 208.678 230.233 208.96 230.781 208.772Z" fill="url(#paint41_linear)"/>
<path d="M228.822 209.731C229.309 209.413 229.457 208.756 229.14 208.27L227.474 205.721C227.157 205.236 226.499 205.09 226.011 205.408C225.524 205.726 225.376 206.383 225.693 206.868L227.359 209.418C227.685 209.922 228.334 210.049 228.822 209.731Z" fill="url(#paint42_linear)"/>
<path d="M227.942 211.544C228.223 211.028 228.039 210.39 227.542 210.102L224.898 208.62C224.381 208.34 223.741 208.525 223.451 209.023C223.169 209.539 223.353 210.177 223.851 210.465L226.495 211.947C227.011 212.227 227.66 212.06 227.942 211.544Z" fill="url(#paint43_linear)"/>
<path d="M294.101 238.706C293.61 235.948 290.958 234.108 288.174 234.614C285.409 235.111 283.557 237.762 284.057 240.538C284.548 243.296 287.2 245.137 289.984 244.63C292.768 244.124 294.592 241.463 294.101 238.706Z" fill="url(#paint44_linear)"/>
<path d="M288.374 243.028C287.81 243.133 287.408 243.682 287.52 244.264L288.106 247.565C288.209 248.128 288.759 248.528 289.342 248.414C289.906 248.31 290.308 247.76 290.196 247.179L289.61 243.877C289.498 243.296 288.938 242.923 288.374 243.028Z" fill="url(#paint45_linear)"/>
<path d="M286.058 240.398C285.345 240.232 284.642 240.673 284.493 241.376L283.621 245.154C283.453 245.866 283.893 246.566 284.597 246.712C285.31 246.878 286.013 246.437 286.162 245.734L287.034 241.956C287.183 241.253 286.743 240.553 286.058 240.398Z" fill="url(#paint46_linear)"/>
<path d="M290.539 242.946C289.991 243.134 289.679 243.732 289.874 244.297L290.943 247.464C291.129 248.011 291.728 248.32 292.294 248.124C292.843 247.936 293.154 247.338 292.959 246.773L291.891 243.606C291.695 243.041 291.087 242.759 290.539 242.946Z" fill="url(#paint47_linear)"/>
<path d="M291.975 241.644C291.496 241.98 291.367 242.628 291.684 243.114L293.397 245.619C293.733 246.096 294.382 246.223 294.87 245.905C295.349 245.568 295.478 244.92 295.161 244.434L293.448 241.93C293.112 241.453 292.462 241.326 291.975 241.644Z" fill="url(#paint48_linear)"/>
<path d="M292.685 239.615C292.269 240.036 292.286 240.706 292.698 241.102L294.872 243.233C295.293 243.648 295.965 243.629 296.363 243.217C296.78 242.796 296.763 242.126 296.351 241.729L294.176 239.598C293.756 239.184 293.102 239.194 292.685 239.615Z" fill="url(#paint49_linear)"/>
<path d="M246.406 240.04C246.019 240.085 245.636 239.947 245.388 239.61C245.273 239.46 242.748 236.09 243.538 232.282C244.338 228.447 247.799 227.738 249.506 227.893C250.121 227.945 250.556 228.489 250.502 229.103C250.447 229.716 249.901 230.152 249.286 230.099C248.974 230.064 246.282 229.939 245.696 232.724C245.119 235.527 247.111 238.241 247.129 238.278C247.492 238.765 247.407 239.46 246.9 239.833C246.768 239.939 246.582 240.026 246.406 240.04Z" fill="url(#paint50_linear)"/>
<path d="M249.695 223.528C248.925 223.435 248.201 223.976 248.087 224.753L247.259 230.524C247.145 231.302 247.685 232.022 248.445 232.143L258.552 233.562L259.784 224.955L249.695 223.528Z" fill="url(#paint51_linear)"/>
<path d="M259.812 224.965C259.042 224.872 258.318 225.413 258.203 226.19L257.375 231.961C257.261 232.739 257.801 233.46 258.561 233.58L259.812 224.965Z" fill="url(#paint52_linear)"/>
<path d="M256.44 231.221L248.376 230.094L249.033 225.466L257.106 226.612L256.44 231.221Z" fill="url(#paint53_linear)"/>
<path d="M256.439 231.221L248.935 230.173L249.601 225.563L257.105 226.612L256.439 231.221Z" fill="url(#paint54_linear)"/>
<g opacity="0.5">
<path opacity="0.5" d="M270.598 244.688C268.539 244.947 265.544 244.805 263.822 242.282C262.666 240.581 262.701 239.343 262.751 237.939C262.778 236.976 262.829 235.867 262.45 234.324C261.743 231.396 259.047 230.775 258.919 230.744C258.544 230.67 258.297 230.287 258.399 229.923C258.475 229.548 258.84 229.31 259.215 229.384C259.362 229.406 262.863 230.194 263.793 233.992C264.213 235.719 264.177 236.957 264.13 237.975C264.083 239.287 264.058 240.158 264.958 241.503C267.094 244.625 272.268 242.914 272.305 242.897C272.677 242.768 273.067 242.971 273.185 243.323C273.313 243.694 273.108 244.083 272.755 244.203C272.681 244.237 271.817 244.527 270.598 244.688Z" fill="black"/>
</g>
<path d="M271.883 244.813C270.553 244.981 268.172 244.937 266.371 242.926C264.917 241.319 264.77 239.396 264.63 237.538C264.522 236.186 264.43 234.917 263.876 233.681C262.734 231.182 259.146 231.181 259.1 231.18C258.492 231.192 257.983 230.683 257.972 230.077C257.962 229.47 258.455 228.969 259.063 228.957C259.265 228.953 264.123 228.951 265.872 232.751C266.609 234.331 266.728 235.949 266.835 237.347C266.954 238.966 267.07 240.383 268.015 241.436C269.655 243.25 272.132 242.525 272.226 242.481C272.82 242.295 273.436 242.641 273.612 243.215C273.789 243.788 273.467 244.414 272.873 244.6C272.845 244.636 272.464 244.746 271.883 244.813Z" fill="url(#paint55_linear)"/>
<path d="M246.176 233.654L245.182 241.018L246.993 241.396L249.088 235.712L246.176 233.654Z" fill="url(#paint56_linear)"/>
<path d="M261.446 200.423C260.827 200.215 260.187 200.06 259.528 199.961C258.694 199.829 257.867 199.807 257.064 199.887C255.697 201.045 253.413 203.061 252.905 204.067C252.164 205.544 254.434 204.96 253.311 206.593C252.188 208.225 250.695 209.894 249.86 213.361C249.547 214.638 249.448 215.838 249.447 216.857C250.34 217.798 251.504 218.59 253.007 219.088C253.081 219.099 253.144 219.137 253.217 219.148C253.022 216.977 253.018 213.268 254.649 210.29C255.96 207.891 257.515 206.307 256.882 205.584C256.401 205.039 259.728 201.949 261.446 200.423Z" fill="white" fill-opacity="0.4"/>
<path d="M263.639 203.179C264.577 204.167 264.422 204.76 263.826 205.332C263.23 205.904 262.212 206.107 261.283 205.138C260.346 204.149 260.451 203.353 261.047 202.781C261.643 202.209 262.71 202.209 263.639 203.179Z" fill="white" fill-opacity="0.4"/>
<path d="M265.579 206.461C265.691 207.042 265.424 207.347 265.073 207.421C264.721 207.494 264.334 207.2 264.11 206.67C263.894 206.16 264.35 205.676 264.702 205.603C265.035 205.538 265.448 205.888 265.579 206.461Z" fill="white" fill-opacity="0.4"/>
<path d="M273.221 214.232C272.648 216.559 270.946 218.167 269.411 217.797C267.876 217.426 267.102 215.231 267.656 212.913C268.229 210.587 269.931 208.979 271.466 209.349C273.001 209.719 273.794 211.906 273.221 214.232Z" fill="url(#paint57_linear)"/>
<path d="M273.988 214.418C273.488 216.461 271.984 217.863 270.623 217.525C269.262 217.187 268.554 215.278 269.054 213.234C269.554 211.191 271.057 209.789 272.418 210.127C273.779 210.465 274.469 212.383 273.988 214.418Z" fill="url(#paint58_linear)"/>
<path d="M271.961 211.969C271.733 211.917 271.483 211.966 271.249 212.097C271.758 212.313 272.003 213.081 271.796 213.902C271.588 214.722 271.019 215.304 270.478 215.263C270.628 215.487 270.816 215.648 271.063 215.691C271.749 215.847 272.514 215.15 272.764 214.129C273.006 213.088 272.656 212.143 271.961 211.969Z" fill="url(#paint59_linear)"/>
<path d="M262.184 263.115C262.296 265.303 260.248 266.461 257.88 266.593C255.512 266.724 253.727 265.769 253.615 263.581C253.503 261.393 254.366 260.176 256.734 260.045C259.111 259.932 262.072 260.927 262.184 263.115Z" fill="url(#paint60_linear)"/>
<path d="M261.161 263.162C261.26 265.175 259.463 266.239 257.381 266.35C255.298 266.461 253.732 265.585 253.615 263.581C253.516 261.568 254.274 260.468 256.357 260.357C258.439 260.245 261.063 261.149 261.161 263.162Z" fill="url(#paint61_linear)"/>
<path d="M259.43 264.852C259.406 265.383 258.245 265.766 256.811 265.711C255.396 265.647 254.269 265.177 254.293 264.645C254.318 264.113 255.338 264.452 256.753 264.516C258.178 264.553 259.455 264.32 259.43 264.852Z" fill="url(#paint62_linear)"/>
<path d="M254.323 261.984C254.321 261.442 255.456 261.003 256.892 260.967C258.309 260.939 259.475 261.346 259.478 261.888C259.481 262.429 258.44 262.145 257.014 262.154C255.605 262.2 254.345 262.517 254.323 261.984Z" fill="url(#paint63_linear)"/>
<path d="M259.553 263.459C259.527 264.037 258.302 264.088 256.758 264.039C255.232 263.981 253.994 263.857 254.019 263.279C254.045 262.702 255.289 262.642 256.814 262.7C258.331 262.739 259.57 262.863 259.553 263.459Z" fill="url(#paint64_linear)"/>
<path d="M236.962 253.382C235.23 254.732 233.266 253.929 231.996 252.326C230.718 250.705 230.614 248.875 232.364 247.516C234.096 246.165 235.515 246.092 236.785 247.695C238.044 249.325 238.693 252.031 236.962 253.382Z" fill="url(#paint65_linear)"/>
<path d="M235.941 252.07C234.341 253.314 232.71 252.785 231.734 251.52C230.74 250.264 230.783 248.751 232.383 247.507C233.983 246.263 235.202 246.102 236.177 247.367C237.153 248.631 237.522 250.835 235.941 252.07Z" fill="url(#paint66_linear)"/>
<path d="M233.819 251.951C233.369 252.251 232.556 251.725 232.004 250.784C231.451 249.842 231.351 248.848 231.801 248.548C232.251 248.247 232.402 249.105 232.954 250.047C233.525 250.979 234.27 251.65 233.819 251.951Z" fill="url(#paint67_linear)"/>
<path d="M233.979 247.035C234.402 246.724 235.272 247.178 235.899 248.085C236.518 248.973 236.682 249.96 236.26 250.27C235.837 250.58 235.612 249.757 234.993 248.869C234.348 247.971 233.537 247.354 233.979 247.035Z" fill="url(#paint68_linear)"/>
<path d="M235.018 251.211C234.53 251.529 233.973 250.771 233.348 249.772C232.742 248.765 232.316 247.9 232.804 247.582C233.291 247.264 233.849 248.022 234.474 249.021C235.079 250.028 235.497 250.874 235.018 251.211Z" fill="url(#paint69_linear)"/>
<path opacity="0.4" d="M254.712 200.396C254.303 200.541 253.884 200.714 253.501 200.915C249.08 204.289 250.501 204.803 250.851 205.409C251.342 206.266 249.448 207.511 248.207 210.353C247.823 211.233 247.59 212.292 247.486 213.336C247.805 214.409 248.318 215.46 249.073 216.397C249.004 215.909 248.955 215.366 248.945 214.76C248.914 211.674 249.336 209.803 250.731 207.682C252.126 205.561 251.566 205.822 251.04 204.597C250.495 203.38 254.712 200.396 254.712 200.396Z" fill="white"/>
<path opacity="0.2" d="M250.539 230.398L250.206 225.643L252.387 225.939L253.333 230.792L250.539 230.398Z" fill="white"/>
<path opacity="0.2" d="M253.44 226.104L254.332 230.937L255.303 231.072L255.062 226.32L253.44 226.104Z" fill="white"/>
<path d="M284.604 228.224C284.382 227.943 283.931 227.95 283.556 228.215L280.848 230.247C280.481 230.532 280.367 230.969 280.562 231.241L283.3 234.873L287.353 231.83L284.604 228.224Z" fill="url(#paint70_linear)"/>
<path d="M287.351 231.875C287.129 231.594 286.678 231.601 286.303 231.867L283.595 233.899C283.228 234.183 283.114 234.621 283.309 234.892L287.351 231.875Z" fill="url(#paint71_linear)"/>
<path d="M283.583 233.338L281.404 230.418L283.576 228.794L285.755 231.715L283.583 233.338Z" fill="url(#paint72_linear)"/>
<path d="M283.583 233.339L281.545 230.624L283.716 229L285.754 231.715L283.583 233.339Z" fill="url(#paint73_linear)"/>
<path opacity="0.2" d="M281.821 230.97L284.258 229.721L284.604 230.17L282.219 231.531L281.821 230.97Z" fill="white"/>
<path opacity="0.2" d="M282.448 231.831L285.019 230.723L285.56 231.444L283.087 232.665L282.448 231.831Z" fill="white"/>
<path opacity="0.5" d="M234.133 208.996C234.342 209.736 233.407 210.263 231.164 210.177C229.409 210.113 228.212 211.441 228.003 210.701C227.794 209.961 229 208.992 230.688 208.522C232.394 208.043 233.924 208.257 234.133 208.996Z" fill="black"/>
<path d="M272.943 223.571C272.87 223.56 272.805 223.567 272.722 223.583C271.856 223.625 271.165 223.993 271.153 224.406C271.14 224.864 271.957 225.253 272.913 225.259C273.392 225.262 273.845 225.164 274.181 225.007C274.517 224.851 274.688 224.635 274.685 224.433C274.717 223.965 273.9 223.577 272.943 223.571Z" fill="url(#paint74_linear)"/>
<path d="M272.946 223.185C271.557 223.177 270.446 223.717 270.445 224.396C270.444 225.076 271.56 225.619 272.93 225.636C274.319 225.644 275.43 225.104 275.431 224.424C275.451 223.737 274.334 223.193 272.946 223.185ZM274.279 225.12C273.981 225.259 273.592 225.35 273.177 225.385C273.112 225.393 273.02 225.39 272.947 225.379C271.88 225.379 271.037 224.935 271.034 224.393C271.031 223.851 271.872 223.414 272.948 223.433C274.015 223.433 274.858 223.877 274.861 224.419C274.853 224.694 274.652 224.946 274.279 225.12Z" fill="url(#paint75_linear)"/>
</g>
<g clip-path="url(#clip3)">
<path d="M125.419 206.164C124.977 205.947 124.928 206.155 124.607 206.063C123.78 205.795 122.771 205.085 122.451 204.705C122.225 204.445 122.342 204.24 121.964 203.874C121.52 203.438 121.346 203.478 120.993 203.407C120.598 203.338 119.672 202.511 119.264 201.809C119.043 201.413 119.148 200.972 118.863 200.615C118.463 200.107 118.328 200.102 118.151 199.922C116.183 198.006 117.869 193.917 121.6 193.955C123.241 193.968 131.472 199.443 131.383 203.726C131.362 205.024 130.645 205.906 130.133 206.331C128.914 207.366 127.693 207.427 125.912 206.681C125.665 206.566 125.86 206.38 125.419 206.164Z" fill="url(#paint76_linear)"/>
<path d="M130.697 205.055C128.461 207.887 121.689 202.67 119.68 199.428C118.007 196.733 117.977 194.559 121.423 193.089C121.912 192.879 122.442 191.978 122.442 191.978L128.717 195.197C128.701 195.207 133.587 201.38 130.697 205.055Z" fill="url(#paint77_linear)"/>
<path opacity="0.5" d="M121.284 193.33C120.496 194.854 121.67 197.057 123.938 198.237C126.189 199.426 128.676 199.164 129.48 197.63C130.267 196.107 129.094 193.903 126.826 192.724C124.559 191.545 122.088 191.797 121.284 193.33Z" fill="black"/>
<path d="M89.3148 191.862C89.0903 191.424 88.9176 191.574 88.724 191.294C88.206 190.593 87.8091 189.441 87.7648 188.937C87.7255 188.584 87.9377 188.499 87.8577 187.972C87.7444 187.355 87.5951 187.291 87.3435 187.025C87.0561 186.736 86.7974 185.522 86.8631 184.728C86.9002 184.285 87.2618 183.975 87.241 183.545C87.2177 182.895 87.1166 182.802 87.0624 182.569C86.5648 179.885 90.331 177.532 93.3394 179.741C94.658 180.705 98.1824 189.949 95.6003 193.369C94.8202 194.401 93.732 194.713 93.0509 194.754C91.463 194.864 90.4256 194.215 89.4194 192.573C89.2813 192.348 89.5651 192.307 89.3148 191.862Z" fill="url(#paint78_linear)"/>
<path d="M94.2482 194.043C90.7674 195.024 88.2914 186.843 88.5504 183.052C88.7711 179.884 90.0017 178.111 93.6669 178.943C94.1752 179.052 95.1463 178.656 95.1463 178.656L98.3768 184.936C98.383 184.91 98.7593 192.762 94.2482 194.043Z" fill="url(#paint79_linear)"/>
<path opacity="0.5" d="M92.7295 179.141C91.3289 180.132 91.3787 182.626 92.8647 184.727C94.3408 186.812 96.6761 187.706 98.0767 186.715C99.4774 185.724 99.4276 183.23 97.9416 181.129C96.4654 179.044 94.1302 178.15 92.7295 179.141Z" fill="black"/>
<path d="M93.9719 177.892C92.2011 179 91.9115 181.768 93.3382 184.06C94.7748 186.368 97.379 187.341 99.1498 186.234C100.921 185.127 101.21 182.358 99.7834 180.066C98.3629 177.748 95.7587 176.775 93.9719 177.892Z" fill="url(#paint80_linear)"/>
<path d="M121.888 190.967C120.65 192.656 121.383 195.328 123.571 196.955C125.749 198.565 128.527 198.524 129.765 196.835C131.003 195.147 130.269 192.474 128.081 190.847C125.919 189.227 123.136 189.294 121.888 190.967Z" fill="url(#paint81_linear)"/>
<path d="M124.158 195.356C124.341 195.509 124.549 195.67 124.764 195.804C126.871 197.081 129.618 196.416 130.878 194.294C131.652 193 135.461 186.325 134.72 180.867C133.604 172.672 124.114 166.441 123.057 165.76C120.972 164.447 118.211 165.054 116.906 167.138C115.602 169.222 116.206 171.973 118.291 173.286C120.584 174.76 125.454 178.817 125.89 182.049C126.131 183.739 124.468 187.615 123.237 189.675C122.108 191.541 122.547 193.951 124.158 195.356Z" fill="url(#paint82_linear)"/>
<path d="M130.919 132.642L131.987 133.161L132.393 133.356C133.425 133.852 133.792 135.244 133.208 136.487L120.49 163.48C119.906 164.723 118.598 165.326 117.565 164.829L117.159 164.635L116.091 164.116L103.364 158.075L118.192 126.602L130.919 132.642Z" fill="url(#paint83_linear)"/>
<path d="M102.173 157.499L104.722 158.705C105.621 159.129 106.67 158.752 107.09 157.852L120.392 129.616C120.812 128.717 120.432 127.665 119.533 127.242L116.985 126.036C114.251 124.743 110.989 125.901 109.691 128.645L99.5389 150.212C98.2475 152.93 99.4395 156.207 102.173 157.499Z" fill="url(#paint84_linear)"/>
<path d="M133.639 155.843C133.685 155.881 133.731 155.92 133.776 155.958C134.447 156.477 140.515 161.085 146.338 160.218C151.137 159.514 155.667 154.988 156.526 154.085C157.973 152.557 157.92 150.131 156.39 148.677C154.875 147.214 152.437 147.268 150.991 148.797C149.627 150.208 146.854 152.417 145.193 152.66C143.149 152.96 139.716 150.923 138.455 149.946C136.794 148.639 134.394 148.936 133.094 150.596C131.859 152.217 132.104 154.525 133.639 155.843Z" fill="url(#paint85_linear)"/>
<path d="M130.755 151.1C129.73 153.965 130.466 156.857 132.421 157.564C134.376 158.27 136.793 156.523 137.818 153.659C138.843 150.794 138.107 147.901 136.152 147.195C134.206 146.505 131.79 148.252 130.755 151.1Z" fill="url(#paint86_linear)"/>
<path d="M119.786 164.31C116.764 166.184 115.627 169.804 117.251 172.418C118.866 175.016 122.628 175.611 125.634 173.747C128.657 171.873 129.793 168.253 128.169 165.639C126.555 163.041 122.808 162.436 119.786 164.31Z" fill="url(#paint87_linear)"/>
<path d="M109.505 169.104L117.065 172.797C121.189 174.81 126.144 173.102 128.14 168.978L137.149 150.37C137.793 149.045 137.24 147.458 135.915 146.808L121.3 139.666C119.975 139.017 118.392 139.566 117.747 140.891L107.235 162.59C106.069 165.009 107.086 167.929 109.505 169.104Z" fill="url(#paint88_linear)"/>
<path d="M108.298 162.094C106.182 164.941 106.771 168.964 109.585 171.071C112.414 173.168 116.409 172.557 118.526 169.71C120.643 166.863 120.053 162.84 117.24 160.733C114.41 158.636 110.415 159.246 108.298 162.094Z" fill="url(#paint89_linear)"/>
<path opacity="0.5" d="M121.61 139.742C121.13 140.723 123.898 143.079 127.791 144.967C131.668 146.865 135.216 147.613 135.702 146.607C136.183 145.626 133.415 143.27 129.522 141.382C125.628 139.494 122.08 138.745 121.61 139.742Z" fill="black"/>
<path d="M95.4028 184.477C96.7559 185.641 98.7163 185.923 100.373 185.063C101.626 184.406 108.077 180.962 110.922 177.934C114.294 174.362 116.804 168.772 117.078 168.139C118.064 165.896 117.037 163.248 114.795 162.253C112.552 161.258 109.912 162.278 108.925 164.521C108.339 165.833 106.414 169.713 104.457 171.777C103.087 173.214 98.8318 175.777 96.2367 177.124C94.0625 178.257 93.2263 180.961 94.3644 183.143C94.6221 183.671 94.9822 184.115 95.4028 184.477Z" fill="url(#paint90_linear)"/>
<path d="M121.441 146.09C119.941 148.648 116.939 149.691 114.728 148.388C112.518 147.085 111.948 143.958 113.463 141.391C114.963 138.833 117.965 137.79 120.176 139.093C122.386 140.396 122.957 143.523 121.441 146.09Z" fill="url(#paint91_linear)"/>
<path opacity="0.5" d="M105.852 136.821C110.475 136.623 114.206 137.813 116.158 138.587L112.882 145.555C111.667 145.193 109.851 144.822 107.72 144.91C105.202 145.014 102.498 146.471 100.767 147.643L105.852 136.821Z" fill="black"/>
<path d="M95.2645 145.324C96.4252 146.318 98.1301 146.58 99.5591 145.815C100.721 145.191 104.386 143.61 107.2 143.701C110.244 143.807 113.543 145.66 114.46 146.294C116.198 147.509 118.571 147.096 119.779 145.359C120.988 143.622 120.568 141.245 118.83 140.029C118.28 139.635 113.256 136.226 107.408 136.045C102.035 135.883 96.5361 138.721 95.9228 139.053C94.0669 140.057 93.3654 142.369 94.3741 144.231C94.6145 144.66 94.9093 145.033 95.2645 145.324Z" fill="url(#paint92_linear)"/>
<path opacity="0.5" d="M97.1083 138.504C95.7003 139.411 95.4788 141.606 96.6417 143.395C97.7885 145.195 99.8733 145.932 101.281 145.025C102.689 144.118 102.911 141.923 101.748 140.133C100.601 138.334 98.5262 137.613 97.1083 138.504Z" fill="black"/>
<path d="M120.72 130.655C118.305 136.652 121.811 141.545 127.418 144.177C137.563 148.921 138.755 146.33 141.495 140.466C144.878 133.167 142.379 127.325 136.845 124.56C130.356 121.318 122.991 125.034 120.72 130.655Z" fill="url(#paint93_linear)"/>
<path d="M122.762 133.7C121.333 138.893 125.333 144.015 133.44 146.155C139.88 147.878 141.464 143.873 142.709 141.007C144.823 136.102 144.68 129.568 138.602 126.96C132.375 124.288 124.574 127.186 122.762 133.7Z" fill="url(#paint94_linear)"/>
<path d="M123.687 134.129C122.222 139.3 125.965 144.292 133.722 146.292C139.879 147.877 141.473 143.889 142.708 141.007C144.822 136.102 144.819 129.616 139.007 127.154C133.088 124.625 125.534 127.638 123.687 134.129Z" fill="url(#paint95_linear)"/>
<path d="M124.447 134.216C123.13 139.053 126.602 143.746 134.38 145.888C139.178 147.2 142.733 143.892 143.876 141.22C145.842 136.65 144.096 130.236 139.088 127.968C133.122 125.291 126.086 128.141 124.447 134.216Z" fill="url(#paint96_linear)"/>
<path d="M126.762 134.105C125.613 138.352 128.646 142.472 135.472 144.357C139.673 145.524 142.807 142.607 143.792 140.254C145.502 136.239 143.978 130.619 139.586 128.638C134.373 126.252 128.212 128.765 126.762 134.105Z" fill="white" fill-opacity="0.1"/>
<path d="M96.592 138.31C95.1667 139.117 94.9723 141.428 96.135 143.506C97.304 145.557 99.3888 146.583 100.814 145.776C102.239 144.969 102.434 142.658 101.271 140.58C100.118 138.519 98.0172 137.503 96.592 138.31Z" fill="url(#paint97_linear)"/>
<path opacity="0.5" d="M149.087 150.694C147.813 151.785 147.859 153.949 149.207 155.536C150.555 157.124 152.688 157.544 153.962 156.453C155.235 155.363 155.189 153.199 153.841 151.611C152.493 150.024 150.36 149.604 149.087 150.694Z" fill="black"/>
<path d="M149.094 149.915C147.907 150.93 148.174 153.202 149.702 155.012C151.23 156.821 153.433 157.464 154.63 156.464C155.817 155.449 155.55 153.177 154.022 151.368C152.494 149.558 150.291 148.915 149.094 149.915Z" fill="url(#paint98_linear)"/>
<path d="M105.464 153.579C104.935 154.301 105.076 155.322 105.799 155.853C106.521 156.385 107.541 156.247 108.069 155.525C108.597 154.803 108.457 153.782 107.734 153.25C107.001 152.703 105.992 152.856 105.464 153.579Z" fill="url(#paint99_linear)"/>
<path d="M105.83 153.996C105.423 154.556 105.535 155.351 106.095 155.76C106.655 156.17 107.448 156.06 107.855 155.501C108.263 154.941 108.151 154.146 107.591 153.736C107.031 153.327 106.247 153.452 105.83 153.996Z" fill="url(#paint100_linear)"/>
<path d="M157.947 154.1C156.413 156.169 153.501 156.603 151.404 155.053C149.333 153.51 148.907 150.583 150.432 148.497C151.966 146.428 154.878 145.994 156.975 147.543C159.046 149.087 159.481 152.03 157.947 154.1Z" fill="url(#paint101_linear)"/>
<path d="M154.995 148.203C154.562 147.892 154.475 147.282 154.8 146.839L156.62 144.373C156.929 143.94 157.538 143.854 157.981 144.181C158.414 144.491 158.501 145.102 158.177 145.545L156.356 148.011C156.038 148.428 155.428 148.513 154.995 148.203Z" fill="url(#paint102_linear)"/>
<path d="M151.52 150.023C150.858 149.986 150.367 149.401 150.402 148.737L150.657 145.193C150.692 144.529 151.274 144.04 151.937 144.077C152.599 144.113 153.09 144.698 153.055 145.362L152.8 148.906C152.749 149.579 152.177 150.085 151.52 150.023Z" fill="url(#paint103_linear)"/>
<path d="M156.603 149.277C156.279 148.856 156.369 148.247 156.789 147.924L159.236 146.048C159.655 145.724 160.264 145.816 160.588 146.238C160.912 146.659 160.822 147.268 160.402 147.591L157.961 149.442C157.536 149.791 156.927 149.699 156.603 149.277Z" fill="url(#paint104_linear)"/>
<path d="M157.616 151.003C157.404 150.513 157.624 149.936 158.113 149.725L160.678 148.618C161.167 148.407 161.744 148.629 161.956 149.119C162.168 149.609 161.948 150.187 161.46 150.398L158.894 151.505C158.39 151.725 157.828 151.493 157.616 151.003Z" fill="url(#paint105_linear)"/>
<path d="M157.372 152.837C157.418 152.299 157.882 151.904 158.408 151.936L161.182 152.14C161.718 152.188 162.114 152.654 162.085 153.182C162.039 153.719 161.575 154.114 161.048 154.083L158.275 153.878C157.738 153.83 157.326 153.374 157.372 152.837Z" fill="url(#paint106_linear)"/>
<path d="M92.9969 140.114C94.7691 138.253 97.7302 138.188 99.6037 139.985C101.467 141.766 101.542 144.732 99.7534 146.603C97.9811 148.464 95.02 148.529 93.1465 146.732C91.273 144.935 91.2246 141.975 92.9969 140.114Z" fill="url(#paint107_linear)"/>
<path d="M95.1903 146.321C95.5689 146.687 95.5983 147.311 95.2182 147.699L93.0979 149.928C92.7338 150.306 92.1108 150.334 91.7223 149.952C91.3436 149.586 91.3142 148.962 91.6943 148.574L93.8146 146.345C94.1947 145.957 94.8116 145.955 95.1903 146.321Z" fill="url(#paint108_linear)"/>
<path d="M98.2949 145.482C98.924 145.716 99.2384 146.409 98.9964 147.023L97.7505 150.355C97.5183 150.984 96.8273 151.297 96.2142 151.053C95.5851 150.818 95.2707 150.125 95.5127 149.512L96.7586 146.18C97.0006 145.566 97.6916 145.254 98.2949 145.482Z" fill="url(#paint109_linear)"/>
<path d="M93.5747 145.162C93.899 145.584 93.8347 146.199 93.3991 146.532L90.9778 148.414C90.5582 148.738 89.9438 148.672 89.6096 148.234C89.2853 147.813 89.3496 147.198 89.7852 146.864L92.2065 144.982C92.6421 144.649 93.2503 144.741 93.5747 145.162Z" fill="url(#paint110_linear)"/>
<path d="M93.1363 143.438C93.3323 143.938 93.1026 144.5 92.614 144.711L90.0351 145.76C89.5366 145.954 88.9753 145.723 88.7632 145.233C88.5672 144.733 88.7969 144.171 89.2855 143.96L91.8644 142.911C92.3629 142.717 92.9242 142.948 93.1363 143.438Z" fill="url(#paint111_linear)"/>
<path d="M93.6199 141.526C93.7259 142.059 93.3729 142.563 92.8571 142.658L90.1143 143.187C89.5825 143.292 89.078 142.937 88.9819 142.42C88.876 141.887 89.229 141.383 89.7447 141.288L92.4876 140.759C93.0194 140.654 93.514 140.993 93.6199 141.526Z" fill="url(#paint112_linear)"/>
<path d="M128.813 165.288C129.087 165.519 129.45 165.606 129.81 165.474C129.974 165.418 133.613 164.118 134.937 160.805C136.267 157.465 133.977 155.17 132.593 154.424C132.096 154.153 131.488 154.349 131.219 154.846C130.95 155.343 131.147 155.953 131.644 156.224C131.901 156.354 134.023 157.622 133.062 160.049C132.084 162.487 129.185 163.554 129.153 163.574C128.629 163.762 128.341 164.337 128.541 164.879C128.588 165.028 128.686 165.189 128.813 165.288Z" fill="url(#paint113_linear)"/>
<path d="M134.659 150.989C135.296 151.307 135.576 152.088 135.269 152.741L132.981 157.576C132.674 158.228 131.896 158.506 131.253 158.213L122.802 154.181L126.218 146.972L134.659 150.989Z" fill="url(#paint114_linear)"/>
<path d="M126.192 146.965C126.828 147.284 127.108 148.065 126.802 148.717L124.513 153.552C124.207 154.205 123.428 154.483 122.785 154.19L126.192 146.965Z" fill="url(#paint115_linear)"/>
<path d="M125.603 153.459L132.343 156.681L134.184 152.807L127.428 149.595L125.603 153.459Z" fill="url(#paint116_linear)"/>
<path d="M125.603 153.459L131.876 156.458L133.701 152.594L127.428 149.595L125.603 153.459Z" fill="url(#paint117_linear)"/>
<g opacity="0.5">
<path opacity="0.5" d="M107.951 156.594C109.395 157.834 111.759 159.242 114.354 158.184C116.1 157.468 116.7 156.503 117.373 155.404C117.839 154.653 118.363 153.779 119.434 152.79C121.458 150.908 123.835 151.798 123.948 151.839C124.273 151.973 124.655 151.805 124.762 151.474C124.894 151.149 124.735 150.782 124.41 150.648C124.287 150.591 121.209 149.421 118.574 151.855C117.378 152.965 116.778 153.93 116.299 154.733C115.671 155.76 115.249 156.44 113.879 157.013C110.664 158.319 107.572 154.39 107.552 154.358C107.333 154.072 106.932 154.03 106.663 154.239C106.378 154.458 106.337 154.859 106.546 155.129C106.586 155.194 107.1 155.853 107.951 156.594Z" fill="black"/>
</g>
<path d="M106.905 156.039C107.838 156.84 109.682 158.013 112.078 157.386C114.004 156.892 115.09 155.496 116.138 154.145C116.906 153.165 117.619 152.241 118.668 151.576C120.808 150.243 123.554 152.059 123.589 152.081C124.048 152.398 124.696 152.267 125.011 151.808C125.326 151.349 125.202 150.716 124.744 150.4C124.591 150.294 120.875 147.832 117.613 149.854C116.249 150.689 115.338 151.867 114.548 152.883C113.637 154.061 112.831 155.087 111.575 155.413C109.401 155.971 107.873 154.161 107.824 154.081C107.464 153.637 106.817 153.59 106.391 153.94C105.966 154.289 105.895 154.93 106.255 155.374C106.259 155.416 106.494 155.692 106.905 156.039Z" fill="url(#paint118_linear)"/>
<path d="M132.224 160.519L129.255 166.656L127.678 166.028L128.953 160.619L132.224 160.519Z" fill="url(#paint119_linear)"/>
<path d="M137.369 127.361C137.949 127.515 138.517 127.721 139.072 127.979C139.776 128.3 140.42 128.702 140.994 129.17C141.453 130.749 142.18 133.447 142.059 134.474C141.878 135.98 140.437 134.383 140.469 136.201C140.502 138.019 140.799 140.051 139.683 143.127C139.275 144.262 138.743 145.231 138.228 146.011C137.068 146.279 135.777 146.295 134.374 145.915C134.312 145.886 134.244 145.884 134.183 145.855C135.432 144.292 137.313 141.457 137.573 138.352C137.785 135.853 137.398 133.854 138.248 133.62C138.892 133.447 137.912 129.398 137.369 127.361Z" fill="white" fill-opacity="0.4"/>
<path d="M134.296 128.359C133.078 128.64 132.897 129.172 133.063 129.911C133.229 130.651 133.905 131.322 135.107 131.05C136.325 130.769 136.647 130.107 136.481 129.367C136.314 128.628 135.498 128.087 134.296 128.359Z" fill="white" fill-opacity="0.4"/>
<path d="M131.15 129.888C130.77 130.275 130.82 130.644 131.051 130.878C131.283 131.113 131.729 131.083 132.168 130.792C132.591 130.51 132.488 129.909 132.256 129.675C132.034 129.457 131.54 129.516 131.15 129.888Z" fill="white" fill-opacity="0.4"/>
<path d="M121.367 131.963C120.627 134.033 121.115 136.126 122.477 136.62C123.839 137.114 125.543 135.826 126.293 133.772C127.032 131.702 126.545 129.61 125.183 129.116C123.821 128.622 122.107 129.894 121.367 131.963Z" fill="url(#paint120_linear)"/>
<path d="M120.686 131.716C120.034 133.533 120.474 135.367 121.687 135.798C122.899 136.228 124.409 135.126 125.061 133.309C125.713 131.493 125.273 129.659 124.06 129.228C122.848 128.798 121.348 129.916 120.686 131.716Z" fill="url(#paint121_linear)"/>
<path d="M123.477 130.869C123.678 130.945 123.845 131.109 123.957 131.328C123.458 131.235 122.882 131.699 122.625 132.432C122.368 133.165 122.509 133.899 122.944 134.141C122.716 134.237 122.49 134.264 122.279 134.172C121.676 133.944 121.443 133.024 121.769 132.115C122.111 131.197 122.858 130.651 123.477 130.869Z" fill="url(#paint122_linear)"/>
<path d="M105.057 174.952C103.864 176.57 104.844 178.493 106.589 179.793C108.335 181.093 110.184 181.266 111.378 179.649C112.571 178.032 112.527 176.664 110.782 175.364C109.02 174.074 106.251 173.335 105.057 174.952Z" fill="url(#paint123_linear)"/>
<path d="M105.816 175.506C104.721 176.996 105.557 178.721 107.094 179.86C108.63 181 110.273 181.123 111.377 179.649C112.472 178.159 112.449 176.933 110.912 175.793C109.375 174.653 106.91 174.016 105.816 175.506Z" fill="url(#paint124_linear)"/>
<path d="M106.284 177.676C106.034 178.095 106.728 178.976 107.853 179.66C108.968 180.327 110.069 180.539 110.319 180.119C110.57 179.7 109.617 179.442 108.502 178.775C107.393 178.082 106.535 177.257 106.284 177.676Z" fill="url(#paint125_linear)"/>
<path d="M111.644 178.068C111.92 177.655 111.274 176.744 110.194 175.989C109.123 175.25 108.025 174.971 107.749 175.384C107.472 175.797 108.412 176.107 109.499 176.836C110.553 177.584 111.358 178.465 111.644 178.068Z" fill="url(#paint126_linear)"/>
<path d="M106.896 176.549C106.623 177.004 107.534 177.663 108.741 178.408C109.937 179.136 110.947 179.668 111.22 179.213C111.493 178.758 110.572 178.083 109.375 177.355C108.195 176.616 107.184 176.084 106.896 176.549Z" fill="url(#paint127_linear)"/>
<path d="M129.284 180.279C129.925 182.189 131.835 182.569 133.618 181.986C135.417 181.392 136.423 180.045 135.772 178.119C135.131 176.209 134.083 175.434 132.3 176.018C130.511 176.627 128.643 178.369 129.284 180.279Z" fill="url(#paint128_linear)"/>
<path d="M130.728 179.792C131.323 181.554 132.839 181.975 134.226 181.502C135.622 181.044 136.356 179.864 135.762 178.103C135.167 176.341 134.316 175.6 132.929 176.074C131.543 176.547 130.144 178.046 130.728 179.792Z" fill="url(#paint129_linear)"/>
<path d="M132.413 180.775C132.605 181.233 133.493 181.242 134.393 180.802C135.292 180.361 135.873 179.651 135.68 179.194C135.488 178.736 134.939 179.316 134.039 179.756C133.13 180.181 132.22 180.317 132.413 180.775Z" fill="url(#paint130_linear)"/>
<path d="M134.78 176.933C134.614 176.481 133.718 176.388 132.779 176.764C131.856 177.131 131.23 177.802 131.397 178.254C131.563 178.705 132.152 178.189 133.075 177.823C134.024 177.463 134.956 177.401 134.78 176.933Z" fill="url(#paint131_linear)"/>
<path d="M131.87 179.602C132.082 180.092 132.893 179.794 133.876 179.347C134.85 178.883 135.613 178.437 135.401 177.947C135.189 177.457 134.379 177.754 133.395 178.202C132.422 178.666 131.674 179.102 131.87 179.602Z" fill="url(#paint132_linear)"/>
<path opacity="0.4" d="M142.536 130.749C142.775 131.068 143.008 131.412 143.199 131.76C144.873 136.58 143.526 136.254 142.951 136.54C142.141 136.948 142.96 138.86 142.47 141.662C142.318 142.53 141.96 143.458 141.511 144.309C140.724 144.969 139.799 145.513 138.747 145.848C139.047 145.509 139.359 145.119 139.674 144.66C141.26 142.315 141.885 140.67 141.892 138.341C141.899 136.011 142.195 136.494 143.218 135.823C144.25 135.168 142.536 130.749 142.536 130.749Z" fill="white"/>
<path opacity="0.2" d="M130.535 155.818L133.198 152.349L131.38 151.47L128.198 154.704L130.535 155.818Z" fill="white"/>
<path opacity="0.2" d="M130.49 151.063L127.36 154.31L126.549 153.922L129.139 150.408L130.49 151.063Z" fill="white"/>
<path d="M105.572 136.904C105.884 136.801 106.226 137.035 106.379 137.428L107.421 140.354C107.558 140.757 107.424 141.15 107.137 141.259L103.202 142.652L101.643 138.271L105.572 136.904Z" fill="url(#paint133_linear)"/>
<path d="M101.621 138.306C101.933 138.203 102.275 138.437 102.427 138.83L103.47 141.756C103.607 142.16 103.473 142.552 103.186 142.661L101.621 138.306Z" fill="url(#paint134_linear)"/>
<path d="M103.763 141.334L106.91 140.203L106.07 137.861L102.924 138.992L103.763 141.334Z" fill="url(#paint135_linear)"/>
<path d="M103.763 141.334L106.698 140.289L105.858 137.947L102.924 138.992L103.763 141.334Z" fill="url(#paint136_linear)"/>
<path opacity="0.2" d="M106.31 140.415L105.079 138.224L104.586 138.393L105.722 140.642L106.31 140.415Z" fill="white"/>
<path opacity="0.2" d="M105.395 140.755L103.989 138.605L103.21 138.883L104.484 141.07L105.395 140.755Z" fill="white"/>
<path opacity="0.5" d="M153.925 147.751C153.391 148.212 153.84 149.088 155.599 150.158C156.974 150.998 157.218 152.62 157.752 152.16C158.287 151.7 157.855 150.348 156.802 149.133C155.739 147.902 154.46 147.291 153.925 147.751Z" fill="black"/>
<path d="M116.851 139.249C116.913 139.277 116.959 139.316 117.014 139.37C117.656 139.841 117.998 140.472 117.798 140.794C117.576 141.152 116.755 141.035 116.019 140.556C115.652 140.316 115.355 140.011 115.177 139.721C114.999 139.431 114.977 139.179 115.082 139.026C115.295 138.653 116.116 138.769 116.851 139.249Z" fill="url(#paint137_linear)"/>
<path d="M117.045 138.953C118.112 139.65 118.687 140.625 118.344 141.146C118.001 141.666 116.872 141.516 115.815 140.835C114.748 140.138 114.172 139.163 114.515 138.642C114.849 138.106 115.978 138.256 117.045 138.953ZM115.044 139.758C115.202 140.015 115.454 140.282 115.754 140.519C115.799 140.557 115.871 140.602 115.932 140.631C116.749 141.171 117.619 141.258 117.895 140.845C118.172 140.432 117.75 139.672 116.917 139.141C116.101 138.601 115.231 138.514 114.955 138.927C114.821 139.141 114.847 139.436 115.044 139.758Z" fill="url(#paint138_linear)"/>
</g>
<defs>
<linearGradient id="paint0_linear" x1="199" y1="98.9852" x2="290.97" y2="98.9852" gradientUnits="userSpaceOnUse">
<stop stop-color="#F3A132"/>
<stop offset="0.4583" stop-color="#E74D87"/>
<stop offset="1" stop-color="#763187"/>
</linearGradient>
<linearGradient id="paint1_linear" x1="222.995" y1="44.6042" x2="297.897" y2="121.163" gradientUnits="userSpaceOnUse">
<stop stop-color="#F3A132"/>
<stop offset="0.4583" stop-color="#E74D87"/>
<stop offset="1" stop-color="#763187"/>
</linearGradient>
<linearGradient id="paint2_linear" x1="216.766" y1="50.6989" x2="291.668" y2="127.258" gradientUnits="userSpaceOnUse">
<stop stop-color="#F3A132"/>
<stop offset="0.4583" stop-color="#E74D87"/>
<stop offset="1" stop-color="#763187"/>
</linearGradient>
<linearGradient id="paint3_linear" x1="204.815" y1="62.3916" x2="279.717" y2="138.951" gradientUnits="userSpaceOnUse">
<stop stop-color="#F3A132"/>
<stop offset="0.4583" stop-color="#E74D87"/>
<stop offset="1" stop-color="#763187"/>
</linearGradient>
<linearGradient id="paint4_linear" x1="198.062" y1="68.9984" x2="272.964" y2="145.557" gradientUnits="userSpaceOnUse">
<stop stop-color="#F3A132"/>
<stop offset="0.4583" stop-color="#E74D87"/>
<stop offset="1" stop-color="#763187"/>
</linearGradient>
<linearGradient id="paint5_linear" x1="189.562" y1="77.3139" x2="264.464" y2="153.873" gradientUnits="userSpaceOnUse">
<stop stop-color="#F59F2F"/>
<stop offset="0.4583" stop-color="#D6407A"/>
<stop offset="1" stop-color="#763187"/>
</linearGradient>
<linearGradient id="paint6_linear" x1="221.989" y1="59.1542" x2="267.982" y2="138.816" gradientUnits="userSpaceOnUse">
<stop/>
<stop offset="1" stop-color="#808080"/>
</linearGradient>
<linearGradient id="paint7_linear" x1="340.395" y1="157.428" x2="347.654" y2="161.801" gradientUnits="userSpaceOnUse">
<stop stop-color="white"/>
<stop offset="1"/>
</linearGradient>
<linearGradient id="paint8_linear" x1="340.395" y1="157.428" x2="347.654" y2="161.801" gradientUnits="userSpaceOnUse">
<stop stop-color="#773288"/>
<stop offset="1" stop-color="#DA648E"/>
</linearGradient>
<linearGradient id="paint9_linear" x1="340.325" y1="157.28" x2="345.107" y2="160.343" gradientUnits="userSpaceOnUse">
<stop stop-color="white"/>
<stop offset="0.9742" stop-color="#070707"/>
<stop offset="1"/>
</linearGradient>
<linearGradient id="paint10_linear" x1="340.325" y1="157.28" x2="345.107" y2="160.343" gradientUnits="userSpaceOnUse">
<stop stop-color="white"/>
<stop offset="0.9742" stop-color="#EDEDED"/>
<stop offset="1" stop-color="#ED6511"/>
</linearGradient>
<linearGradient id="paint11_linear" x1="340.573" y1="157.434" x2="343.5" y2="159.309" gradientUnits="userSpaceOnUse">
<stop stop-color="white"/>
<stop offset="0.4883" stop-color="#828282"/>
<stop offset="1"/>
</linearGradient>
<linearGradient id="paint12_linear" x1="340.573" y1="157.434" x2="343.5" y2="159.309" gradientUnits="userSpaceOnUse">
<stop stop-color="#FF4D4D"/>
<stop offset="0.4883" stop-color="#FFD000"/>
<stop offset="1" stop-color="#FFCC00"/>
</linearGradient>
<linearGradient id="paint13_linear" x1="220.344" y1="275.338" x2="237.893" y2="274.409" gradientUnits="userSpaceOnUse">
<stop stop-color="#E74D87"/>
<stop offset="1" stop-color="#763187"/>
</linearGradient>
<linearGradient id="paint14_linear" x1="220.674" y1="273.024" x2="237.493" y2="272.134" gradientUnits="userSpaceOnUse">
<stop stop-color="white"/>
<stop offset="1" stop-color="#BEC8CF"/>
</linearGradient>
<linearGradient id="paint15_linear" x1="259.513" y1="282.243" x2="274.93" y2="281.427" gradientUnits="userSpaceOnUse">
<stop stop-color="#EA5289"/>
<stop offset="1" stop-color="#763187"/>
</linearGradient>
<linearGradient id="paint16_linear" x1="259.204" y1="280.461" x2="273.519" y2="279.703" gradientUnits="userSpaceOnUse">
<stop stop-color="white"/>
<stop offset="1" stop-color="#BEC8CF"/>
</linearGradient>
<linearGradient id="paint17_linear" x1="260.421" y1="274.975" x2="270.826" y2="274.424" gradientUnits="userSpaceOnUse">
<stop stop-color="#89A4CD"/>
<stop offset="1" stop-color="#763187"/>
</linearGradient>
<linearGradient id="paint18_linear" x1="226.558" y1="268.137" x2="237.253" y2="267.571" gradientUnits="userSpaceOnUse">
<stop stop-color="#89A8CF"/>
<stop offset="1" stop-color="#763187"/>
</linearGradient>
<linearGradient id="paint19_linear" x1="226.676" y1="257.852" x2="256.532" y2="256.272" gradientUnits="userSpaceOnUse">
<stop stop-color="white"/>
<stop offset="1" stop-color="#BEC8CF"/>
</linearGradient>
<linearGradient id="paint20_linear" x1="269.792" y1="210.488" x2="264.053" y2="247.937" gradientUnits="userSpaceOnUse">
<stop stop-color="#7D94A3"/>
<stop offset="1" stop-color="#425561"/>
</linearGradient>
<linearGradient id="paint21_linear" x1="281.271" y1="211.995" x2="275.79" y2="248.448" gradientUnits="userSpaceOnUse">
<stop stop-color="#E3F4FF"/>
<stop offset="1" stop-color="#B7C1C7"/>
</linearGradient>
<linearGradient id="paint22_linear" x1="228.222" y1="219.069" x2="251.006" y2="217.864" gradientUnits="userSpaceOnUse">
<stop stop-color="white"/>
<stop offset="1" stop-color="#BEC8CF"/>
</linearGradient>
<linearGradient id="paint23_linear" x1="248.875" y1="219.165" x2="249.523" y2="230.877" gradientUnits="userSpaceOnUse">
<stop stop-color="#89A8CF"/>
<stop offset="1" stop-color="#763187"/>
</linearGradient>
<linearGradient id="paint24_linear" x1="243.516" y1="247.455" x2="255.877" y2="246.801" gradientUnits="userSpaceOnUse">
<stop stop-color="#89A8CF"/>
<stop offset="1" stop-color="#593156"/>
</linearGradient>
<linearGradient id="paint25_linear" x1="245.82" y1="233.962" x2="268.382" y2="239.644" gradientUnits="userSpaceOnUse">
<stop stop-color="white"/>
<stop offset="0.7044" stop-color="#E6EDF2"/>
<stop offset="1" stop-color="#BFC8CF"/>
</linearGradient>
<linearGradient id="paint26_linear" x1="253.09" y1="250.246" x2="266.97" y2="249.511" gradientUnits="userSpaceOnUse">
<stop stop-color="#89A8CF"/>
<stop offset="1" stop-color="#773288"/>
</linearGradient>
<linearGradient id="paint27_linear" x1="254.882" y1="262.044" x2="268.9" y2="261.302" gradientUnits="userSpaceOnUse">
<stop stop-color="white"/>
<stop offset="1" stop-color="#BEC8CF"/>
</linearGradient>
<linearGradient id="paint28_linear" x1="269.383" y1="221.433" x2="270.031" y2="233.137" gradientUnits="userSpaceOnUse">
<stop stop-color="#89A8CF"/>
<stop offset="1" stop-color="#763187"/>
</linearGradient>
<linearGradient id="paint29_linear" x1="266.918" y1="233.295" x2="292.257" y2="231.954" gradientUnits="userSpaceOnUse">
<stop stop-color="white"/>
<stop offset="1" stop-color="#BEC8CF"/>
</linearGradient>
<linearGradient id="paint30_linear" x1="263.508" y1="198.548" x2="261.257" y2="221.379" gradientUnits="userSpaceOnUse">
<stop stop-color="white"/>
<stop offset="1" stop-color="#BEC8CF"/>
</linearGradient>
<linearGradient id="paint31_linear" x1="262.99" y1="200.218" x2="257.723" y2="219.22" gradientUnits="userSpaceOnUse">
<stop stop-color="#E3F4FF"/>
<stop offset="1" stop-color="#B7C1C7"/>
</linearGradient>
<linearGradient id="paint32_linear" x1="268.412" y1="204.667" x2="247.323" y2="217.872" gradientUnits="userSpaceOnUse">
<stop stop-color="white"/>
<stop offset="1" stop-color="#BEC8CF"/>
</linearGradient>
<linearGradient id="paint33_linear" x1="250.29" y1="203.254" x2="266.566" y2="218.093" gradientUnits="userSpaceOnUse">
<stop stop-color="#F3A132"/>
<stop offset="0.44375" stop-color="#CD4A89"/>
<stop offset="1" stop-color="#763289"/>
</linearGradient>
<linearGradient id="paint34_linear" x1="283.262" y1="237.194" x2="292.205" y2="236.576" gradientUnits="userSpaceOnUse">
<stop stop-color="#89A8CF"/>
<stop offset="1" stop-color="#763187"/>
</linearGradient>
<linearGradient id="paint35_linear" x1="228.137" y1="215.43" x2="237.329" y2="214.943" gradientUnits="userSpaceOnUse">
<stop stop-color="#89A8CF"/>
<stop offset="1" stop-color="#763187"/>
</linearGradient>
<linearGradient id="paint36_linear" x1="273.169" y1="241.84" x2="272.663" y2="245.242" gradientUnits="userSpaceOnUse">
<stop stop-color="white"/>
<stop offset="1" stop-color="#BEC8CF"/>
</linearGradient>
<linearGradient id="paint37_linear" x1="273.077" y1="242.35" x2="272.211" y2="245.511" gradientUnits="userSpaceOnUse">
<stop stop-color="#E3F4FF"/>
<stop offset="1" stop-color="#B7C1C7"/>
</linearGradient>
<linearGradient id="paint38_linear" x1="232.671" y1="216.848" x2="230.147" y2="203.791" gradientUnits="userSpaceOnUse">
<stop stop-color="white"/>
<stop offset="1" stop-color="#BEC8CF"/>
</linearGradient>
<linearGradient id="paint39_linear" x1="234.736" y1="216.449" x2="232.213" y2="203.391" gradientUnits="userSpaceOnUse">
<stop stop-color="white"/>
<stop offset="1" stop-color="#BEC8CF"/>
</linearGradient>
<linearGradient id="paint40_linear" x1="237.726" y1="215.872" x2="235.203" y2="202.814" gradientUnits="userSpaceOnUse">
<stop stop-color="white"/>
<stop offset="1" stop-color="#BEC8CF"/>
</linearGradient>
<linearGradient id="paint41_linear" x1="231.952" y1="216.987" x2="229.429" y2="203.929" gradientUnits="userSpaceOnUse">
<stop stop-color="white"/>
<stop offset="1" stop-color="#BEC8CF"/>
</linearGradient>
<linearGradient id="paint42_linear" x1="229.32" y1="217.496" x2="226.797" y2="204.438" gradientUnits="userSpaceOnUse">
<stop stop-color="white"/>
<stop offset="1" stop-color="#BEC8CF"/>
</linearGradient>
<linearGradient id="paint43_linear" x1="227.157" y1="217.914" x2="224.633" y2="204.856" gradientUnits="userSpaceOnUse">
<stop stop-color="white"/>
<stop offset="1" stop-color="#BEC8CF"/>
</linearGradient>
<linearGradient id="paint44_linear" x1="291.488" y1="247.827" x2="287.65" y2="234.772" gradientUnits="userSpaceOnUse">
<stop stop-color="white"/>
<stop offset="1" stop-color="#BEC8CF"/>
</linearGradient>
<linearGradient id="paint45_linear" x1="289.633" y1="248.372" x2="285.794" y2="235.318" gradientUnits="userSpaceOnUse">
<stop stop-color="white"/>
<stop offset="1" stop-color="#BEC8CF"/>
</linearGradient>
<linearGradient id="paint46_linear" x1="287.921" y1="248.989" x2="282.037" y2="236.721" gradientUnits="userSpaceOnUse">
<stop stop-color="white"/>
<stop offset="1" stop-color="#BEC8CF"/>
</linearGradient>
<linearGradient id="paint47_linear" x1="292.11" y1="247.902" x2="288.271" y2="234.847" gradientUnits="userSpaceOnUse">
<stop stop-color="white"/>
<stop offset="1" stop-color="#BEC8CF"/>
</linearGradient>
<linearGradient id="paint48_linear" x1="294.386" y1="247.092" x2="290.548" y2="234.038" gradientUnits="userSpaceOnUse">
<stop stop-color="white"/>
<stop offset="1" stop-color="#BEC8CF"/>
</linearGradient>
<linearGradient id="paint49_linear" x1="296.013" y1="246.496" x2="292.175" y2="233.442" gradientUnits="userSpaceOnUse">
<stop stop-color="white"/>
<stop offset="1" stop-color="#BEC8CF"/>
</linearGradient>
<linearGradient id="paint50_linear" x1="243.393" y1="234.194" x2="250.764" y2="233.803" gradientUnits="userSpaceOnUse">
<stop stop-color="#7D94A3"/>
<stop offset="1" stop-color="#425561"/>
</linearGradient>
<linearGradient id="paint51_linear" x1="253.64" y1="224.899" x2="253.15" y2="239.358" gradientUnits="userSpaceOnUse">
<stop stop-color="white"/>
<stop offset="1" stop-color="#BEC8CF"/>
</linearGradient>
<linearGradient id="paint52_linear" x1="258.969" y1="225.358" x2="257.962" y2="233.894" gradientUnits="userSpaceOnUse">
<stop stop-color="#E3F4FF"/>
<stop offset="1" stop-color="#B7C1C7"/>
</linearGradient>
<linearGradient id="paint53_linear" x1="248.288" y1="228.598" x2="257.194" y2="228.127" gradientUnits="userSpaceOnUse">
<stop stop-color="#7D94A3"/>
<stop offset="1" stop-color="#425561"/>
</linearGradient>
<linearGradient id="paint54_linear" x1="248.855" y1="228.623" x2="257.197" y2="228.182" gradientUnits="userSpaceOnUse">
<stop stop-color="#85D0DE"/>
<stop offset="1" stop-color="#6292B3"/>
</linearGradient>
<linearGradient id="paint55_linear" x1="258.343" y1="237.294" x2="273.295" y2="236.503" gradientUnits="userSpaceOnUse">
<stop stop-color="#7D94A3"/>
<stop offset="1" stop-color="#425561"/>
</linearGradient>
<linearGradient id="paint56_linear" x1="245.009" y1="237.173" x2="267.572" y2="242.855" gradientUnits="userSpaceOnUse">
<stop stop-color="white"/>
<stop offset="1" stop-color="#BEC8CF"/>
</linearGradient>
<linearGradient id="paint57_linear" x1="269.466" y1="209.749" x2="271.583" y2="217.966" gradientUnits="userSpaceOnUse">
<stop stop-color="#E3F4FF"/>
<stop offset="1" stop-color="#B7C1C7"/>
</linearGradient>
<linearGradient id="paint58_linear" x1="271.474" y1="209.8" x2="271.594" y2="219.475" gradientUnits="userSpaceOnUse">
<stop stop-color="white"/>
<stop offset="1" stop-color="#BEC8CF"/>
</linearGradient>
<linearGradient id="paint59_linear" x1="271.78" y1="215.962" x2="271.452" y2="211.72" gradientUnits="userSpaceOnUse">
<stop stop-color="#E3F4FF"/>
<stop offset="1" stop-color="#B7C1C7"/>
</linearGradient>
<linearGradient id="paint60_linear" x1="253.614" y1="263.532" x2="262.191" y2="263.078" gradientUnits="userSpaceOnUse">
<stop stop-color="#E3F4FF"/>
<stop offset="1" stop-color="#B7C1C7"/>
</linearGradient>
<linearGradient id="paint61_linear" x1="259.863" y1="261.304" x2="253.971" y2="265.668" gradientUnits="userSpaceOnUse">
<stop stop-color="white"/>
<stop offset="1" stop-color="#BEC8CF"/>
</linearGradient>
<linearGradient id="paint62_linear" x1="254.306" y1="265.112" x2="259.431" y2="264.841" gradientUnits="userSpaceOnUse">
<stop stop-color="#7D94A3"/>
<stop offset="1" stop-color="#425561"/>
</linearGradient>
<linearGradient id="paint63_linear" x1="254.316" y1="261.796" x2="259.459" y2="261.524" gradientUnits="userSpaceOnUse">
<stop stop-color="#7D94A3"/>
<stop offset="1" stop-color="#425561"/>
</linearGradient>
<linearGradient id="paint64_linear" x1="254.023" y1="263.509" x2="259.539" y2="263.217" gradientUnits="userSpaceOnUse">
<stop stop-color="#7D94A3"/>
<stop offset="1" stop-color="#425561"/>
</linearGradient>
<linearGradient id="paint65_linear" x1="231.074" y1="250.496" x2="237.968" y2="250.131" gradientUnits="userSpaceOnUse">
<stop stop-color="#E3F4FF"/>
<stop offset="1" stop-color="#B7C1C7"/>
</linearGradient>
<linearGradient id="paint66_linear" x1="237.098" y1="248.962" x2="230.863" y2="250.503" gradientUnits="userSpaceOnUse">
<stop stop-color="white"/>
<stop offset="1" stop-color="#BEC8CF"/>
</linearGradient>
<linearGradient id="paint67_linear" x1="231.574" y1="250.325" x2="233.879" y2="250.203" gradientUnits="userSpaceOnUse">
<stop stop-color="#7D94A3"/>
<stop offset="1" stop-color="#425561"/>
</linearGradient>
<linearGradient id="paint68_linear" x1="233.926" y1="248.699" x2="236.428" y2="248.566" gradientUnits="userSpaceOnUse">
<stop stop-color="#7D94A3"/>
<stop offset="1" stop-color="#425561"/>
</linearGradient>
<linearGradient id="paint69_linear" x1="232.659" y1="249.464" x2="235.143" y2="249.333" gradientUnits="userSpaceOnUse">
<stop stop-color="#7D94A3"/>
<stop offset="1" stop-color="#425561"/>
</linearGradient>
<linearGradient id="paint70_linear" x1="285.186" y1="228.332" x2="282.853" y2="233.888" gradientUnits="userSpaceOnUse">
<stop stop-color="white"/>
<stop offset="1" stop-color="#BEC8CF"/>
</linearGradient>
<linearGradient id="paint71_linear" x1="282.991" y1="233.79" x2="287.549" y2="232.684" gradientUnits="userSpaceOnUse">
<stop stop-color="#E3F4FF"/>
<stop offset="1" stop-color="#B7C1C7"/>
</linearGradient>
<linearGradient id="paint72_linear" x1="281.667" y1="231.535" x2="285.491" y2="230.607" gradientUnits="userSpaceOnUse">
<stop stop-color="#7D94A3"/>
<stop offset="1" stop-color="#425561"/>
</linearGradient>
<linearGradient id="paint73_linear" x1="281.793" y1="231.625" x2="285.519" y2="230.721" gradientUnits="userSpaceOnUse">
<stop stop-color="#85D0DE"/>
<stop offset="1" stop-color="#6292B3"/>
</linearGradient>
<linearGradient id="paint74_linear" x1="270.452" y1="224.302" x2="275.215" y2="224.521" gradientUnits="userSpaceOnUse">
<stop offset="0.00396825" stop-color="#E74D87"/>
<stop offset="1" stop-color="#763289"/>
</linearGradient>
<linearGradient id="paint75_linear" x1="270.446" y1="224.48" x2="275.215" y2="224.358" gradientUnits="userSpaceOnUse">
<stop offset="0.00396825" stop-color="#EA5289"/>
<stop offset="1" stop-color="#763187"/>
</linearGradient>
<linearGradient id="paint76_linear" x1="130.879" y1="205.492" x2="117.922" y2="195.895" gradientUnits="userSpaceOnUse">
<stop stop-color="#E74D87"/>
<stop offset="1" stop-color="#763187"/>
</linearGradient>
<linearGradient id="paint77_linear" x1="131.799" y1="203.555" x2="119.381" y2="194.357" gradientUnits="userSpaceOnUse">
<stop stop-color="white"/>
<stop offset="1" stop-color="#BEC8CF"/>
</linearGradient>
<linearGradient id="paint78_linear" x1="97.4141" y1="190.94" x2="86.0319" y2="182.509" gradientUnits="userSpaceOnUse">
<stop stop-color="#EA5289"/>
<stop offset="1" stop-color="#763187"/>
</linearGradient>
<linearGradient id="paint79_linear" x1="98.5531" y1="189.733" x2="87.9843" y2="181.904" gradientUnits="userSpaceOnUse">
<stop stop-color="white"/>
<stop offset="1" stop-color="#BEC8CF"/>
</linearGradient>
<linearGradient id="paint80_linear" x1="100.4" y1="184.92" x2="92.7182" y2="179.23" gradientUnits="userSpaceOnUse">
<stop stop-color="#89A4CD"/>
<stop offset="1" stop-color="#763187"/>
</linearGradient>
<linearGradient id="paint81_linear" x1="129.771" y1="196.837" x2="121.875" y2="190.988" gradientUnits="userSpaceOnUse">
<stop stop-color="#89A8CF"/>
<stop offset="1" stop-color="#763187"/>
</linearGradient>
<linearGradient id="paint82_linear" x1="134.89" y1="188.908" x2="112.847" y2="172.58" gradientUnits="userSpaceOnUse">
<stop stop-color="white"/>
<stop offset="1" stop-color="#BEC8CF"/>
</linearGradient>
<linearGradient id="paint83_linear" x1="125.887" y1="130.835" x2="111.313" y2="162.393" gradientUnits="userSpaceOnUse">
<stop stop-color="#7D94A3"/>
<stop offset="1" stop-color="#425561"/>
</linearGradient>
<linearGradient id="paint84_linear" x1="116.341" y1="126.175" x2="102.074" y2="156.84" gradientUnits="userSpaceOnUse">
<stop stop-color="#E3F4FF"/>
<stop offset="1" stop-color="#B7C1C7"/>
</linearGradient>
<linearGradient id="paint85_linear" x1="153.346" y1="158.452" x2="136.525" y2="145.992" gradientUnits="userSpaceOnUse">
<stop stop-color="white"/>
<stop offset="1" stop-color="#BEC8CF"/>
</linearGradient>
<linearGradient id="paint86_linear" x1="137.496" y1="148.066" x2="131.069" y2="156.699" gradientUnits="userSpaceOnUse">
<stop stop-color="#89A8CF"/>
<stop offset="1" stop-color="#763187"/>
</linearGradient>
<linearGradient id="paint87_linear" x1="127.271" y1="172.426" x2="118.144" y2="165.665" gradientUnits="userSpaceOnUse">
<stop stop-color="#89A8CF"/>
<stop offset="1" stop-color="#593156"/>
</linearGradient>
<linearGradient id="paint88_linear" x1="132.342" y1="160.934" x2="112.202" y2="153.856" gradientUnits="userSpaceOnUse">
<stop stop-color="white"/>
<stop offset="0.7044" stop-color="#E6EDF2"/>
<stop offset="1" stop-color="#BFC8CF"/>
</linearGradient>
<linearGradient id="paint89_linear" x1="118.533" y1="169.712" x2="108.284" y2="162.121" gradientUnits="userSpaceOnUse">
<stop stop-color="#89A8CF"/>
<stop offset="1" stop-color="#773288"/>
</linearGradient>
<linearGradient id="paint90_linear" x1="111.187" y1="177.831" x2="100.837" y2="170.165" gradientUnits="userSpaceOnUse">
<stop stop-color="white"/>
<stop offset="1" stop-color="#BEC8CF"/>
</linearGradient>
<linearGradient id="paint91_linear" x1="120.658" y1="139.416" x2="114.235" y2="148.043" gradientUnits="userSpaceOnUse">
<stop stop-color="#89A8CF"/>
<stop offset="1" stop-color="#763187"/>
</linearGradient>
<linearGradient id="paint92_linear" x1="116.537" y1="149.74" x2="97.8287" y2="135.882" gradientUnits="userSpaceOnUse">
<stop stop-color="white"/>
<stop offset="1" stop-color="#BEC8CF"/>
</linearGradient>
<linearGradient id="paint93_linear" x1="136.742" y1="124.882" x2="126.902" y2="143.49" gradientUnits="userSpaceOnUse">
<stop stop-color="white"/>
<stop offset="1" stop-color="#BEC8CF"/>
</linearGradient>
<linearGradient id="paint94_linear" x1="136.292" y1="126.421" x2="130.699" y2="143.627" gradientUnits="userSpaceOnUse">
<stop stop-color="#E3F4FF"/>
<stop offset="1" stop-color="#B7C1C7"/>
</linearGradient>
<linearGradient id="paint95_linear" x1="129.89" y1="127.08" x2="139.338" y2="147.863" gradientUnits="userSpaceOnUse">
<stop stop-color="white"/>
<stop offset="1" stop-color="#BEC8CF"/>
</linearGradient>
<linearGradient id="paint96_linear" x1="144.471" y1="135.176" x2="124.503" y2="138.287" gradientUnits="userSpaceOnUse">
<stop stop-color="#F3A132"/>
<stop offset="0.44375" stop-color="#CD4A89"/>
<stop offset="1" stop-color="#763289"/>
</linearGradient>
<linearGradient id="paint97_linear" x1="102.057" y1="144.446" x2="95.527" y2="139.445" gradientUnits="userSpaceOnUse">
<stop stop-color="#89A8CF"/>
<stop offset="1" stop-color="#763187"/>
</linearGradient>
<linearGradient id="paint98_linear" x1="155.255" y1="155.71" x2="148.468" y2="150.684" gradientUnits="userSpaceOnUse">
<stop stop-color="#89A8CF"/>
<stop offset="1" stop-color="#763187"/>
</linearGradient>
<linearGradient id="paint99_linear" x1="107.426" y1="153.112" x2="106.091" y2="155.971" gradientUnits="userSpaceOnUse">
<stop stop-color="white"/>
<stop offset="1" stop-color="#BEC8CF"/>
</linearGradient>
<linearGradient id="paint100_linear" x1="107.238" y1="153.549" x2="106.301" y2="156.406" gradientUnits="userSpaceOnUse">
<stop stop-color="#E3F4FF"/>
<stop offset="1" stop-color="#B7C1C7"/>
</linearGradient>
<linearGradient id="paint101_linear" x1="151.068" y1="154.5" x2="159.611" y2="145.787" gradientUnits="userSpaceOnUse">
<stop stop-color="white"/>
<stop offset="1" stop-color="#BEC8CF"/>
</linearGradient>
<linearGradient id="paint102_linear" x1="149.689" y1="153.148" x2="158.232" y2="144.436" gradientUnits="userSpaceOnUse">
<stop stop-color="white"/>
<stop offset="1" stop-color="#BEC8CF"/>
</linearGradient>
<linearGradient id="paint103_linear" x1="147.694" y1="151.193" x2="156.237" y2="142.48" gradientUnits="userSpaceOnUse">
<stop stop-color="white"/>
<stop offset="1" stop-color="#BEC8CF"/>
</linearGradient>
<linearGradient id="paint104_linear" x1="151.547" y1="154.97" x2="160.09" y2="146.257" gradientUnits="userSpaceOnUse">
<stop stop-color="white"/>
<stop offset="1" stop-color="#BEC8CF"/>
</linearGradient>
<linearGradient id="paint105_linear" x1="153.303" y1="156.692" x2="161.846" y2="147.979" gradientUnits="userSpaceOnUse">
<stop stop-color="white"/>
<stop offset="1" stop-color="#BEC8CF"/>
</linearGradient>
<linearGradient id="paint106_linear" x1="154.746" y1="158.108" x2="163.29" y2="149.395" gradientUnits="userSpaceOnUse">
<stop stop-color="white"/>
<stop offset="1" stop-color="#BEC8CF"/>
</linearGradient>
<linearGradient id="paint107_linear" x1="90.3772" y1="148.416" x2="99.9249" y2="140.372" gradientUnits="userSpaceOnUse">
<stop stop-color="white"/>
<stop offset="1" stop-color="#BEC8CF"/>
</linearGradient>
<linearGradient id="paint108_linear" x1="91.5209" y1="149.772" x2="101.069" y2="141.728" gradientUnits="userSpaceOnUse">
<stop stop-color="white"/>
<stop offset="1" stop-color="#BEC8CF"/>
</linearGradient>
<linearGradient id="paint109_linear" x1="92.5184" y1="151.111" x2="103.233" y2="144.705" gradientUnits="userSpaceOnUse">
<stop stop-color="white"/>
<stop offset="1" stop-color="#BEC8CF"/>
</linearGradient>
<linearGradient id="paint110_linear" x1="89.8631" y1="148.158" x2="99.411" y2="140.114" gradientUnits="userSpaceOnUse">
<stop stop-color="white"/>
<stop offset="1" stop-color="#BEC8CF"/>
</linearGradient>
<linearGradient id="paint111_linear" x1="88.532" y1="146.386" x2="98.0798" y2="138.342" gradientUnits="userSpaceOnUse">
<stop stop-color="white"/>
<stop offset="1" stop-color="#BEC8CF"/>
</linearGradient>
<linearGradient id="paint112_linear" x1="87.5889" y1="145.106" x2="97.1367" y2="137.062" gradientUnits="userSpaceOnUse">
<stop stop-color="white"/>
<stop offset="1" stop-color="#BEC8CF"/>
</linearGradient>
<linearGradient id="paint113_linear" x1="134.08" y1="162.341" x2="128.638" y2="158.309" gradientUnits="userSpaceOnUse">
<stop stop-color="#7D94A3"/>
<stop offset="1" stop-color="#425561"/>
</linearGradient>
<linearGradient id="paint114_linear" x1="130.948" y1="150.04" x2="123.999" y2="161.351" gradientUnits="userSpaceOnUse">
<stop stop-color="white"/>
<stop offset="1" stop-color="#BEC8CF"/>
</linearGradient>
<linearGradient id="paint115_linear" x1="126.637" y1="147.692" x2="123.085" y2="154.734" gradientUnits="userSpaceOnUse">
<stop stop-color="#E3F4FF"/>
<stop offset="1" stop-color="#B7C1C7"/>
</linearGradient>
<linearGradient id="paint116_linear" x1="133.168" y1="155.581" x2="126.592" y2="150.71" gradientUnits="userSpaceOnUse">
<stop stop-color="#7D94A3"/>
<stop offset="1" stop-color="#425561"/>
</linearGradient>
<linearGradient id="paint117_linear" x1="132.721" y1="155.312" x2="126.563" y2="150.75" gradientUnits="userSpaceOnUse">
<stop stop-color="#85D0DE"/>
<stop offset="1" stop-color="#6292B3"/>
</linearGradient>
<linearGradient id="paint118_linear" x1="121.072" y1="157.143" x2="110.033" y2="148.966" gradientUnits="userSpaceOnUse">
<stop stop-color="#7D94A3"/>
<stop offset="1" stop-color="#425561"/>
</linearGradient>
<linearGradient id="paint119_linear" x1="131.334" y1="163.802" x2="111.193" y2="156.723" gradientUnits="userSpaceOnUse">
<stop stop-color="white"/>
<stop offset="1" stop-color="#BEC8CF"/>
</linearGradient>
<linearGradient id="paint120_linear" x1="126.511" y1="130.434" x2="120.729" y2="135.65" gradientUnits="userSpaceOnUse">
<stop stop-color="#E3F4FF"/>
<stop offset="1" stop-color="#B7C1C7"/>
</linearGradient>
<linearGradient id="paint121_linear" x1="124.948" y1="129.456" x2="119.957" y2="136.798" gradientUnits="userSpaceOnUse">
<stop stop-color="white"/>
<stop offset="1" stop-color="#BEC8CF"/>
</linearGradient>
<linearGradient id="paint122_linear" x1="121.594" y1="134.017" x2="123.993" y2="130.936" gradientUnits="userSpaceOnUse">
<stop stop-color="#E3F4FF"/>
<stop offset="1" stop-color="#B7C1C7"/>
</linearGradient>
<linearGradient id="paint123_linear" x1="111.403" y1="179.611" x2="105.07" y2="174.921" gradientUnits="userSpaceOnUse">
<stop stop-color="#E3F4FF"/>
<stop offset="1" stop-color="#B7C1C7"/>
</linearGradient>
<linearGradient id="paint124_linear" x1="107.75" y1="174.742" x2="110.048" y2="181.065" gradientUnits="userSpaceOnUse">
<stop stop-color="white"/>
<stop offset="1" stop-color="#BEC8CF"/>
</linearGradient>
<linearGradient id="paint125_linear" x1="110.073" y1="180.47" x2="106.289" y2="177.667" gradientUnits="userSpaceOnUse">
<stop stop-color="#7D94A3"/>
<stop offset="1" stop-color="#425561"/>
</linearGradient>
<linearGradient id="paint126_linear" x1="111.745" y1="177.928" x2="107.948" y2="175.115" gradientUnits="userSpaceOnUse">
<stop stop-color="#7D94A3"/>
<stop offset="1" stop-color="#425561"/>
</linearGradient>
<linearGradient id="paint127_linear" x1="111.101" y1="179.387" x2="107.029" y2="176.371" gradientUnits="userSpaceOnUse">
<stop stop-color="#7D94A3"/>
<stop offset="1" stop-color="#425561"/>
</linearGradient>
<linearGradient id="paint128_linear" x1="135.25" y1="181.052" x2="130.16" y2="177.282" gradientUnits="userSpaceOnUse">
<stop stop-color="#E3F4FF"/>
<stop offset="1" stop-color="#B7C1C7"/>
</linearGradient>
<linearGradient id="paint129_linear" x1="131.418" y1="176.828" x2="135.407" y2="181.164" gradientUnits="userSpaceOnUse">
<stop stop-color="white"/>
<stop offset="1" stop-color="#BEC8CF"/>
</linearGradient>
<linearGradient id="paint130_linear" x1="134.954" y1="180.668" x2="133.252" y2="179.408" gradientUnits="userSpaceOnUse">
<stop stop-color="#7D94A3"/>
<stop offset="1" stop-color="#425561"/>
</linearGradient>
<linearGradient id="paint131_linear" x1="133.978" y1="178.233" x2="132.131" y2="176.865" gradientUnits="userSpaceOnUse">
<stop stop-color="#7D94A3"/>
<stop offset="1" stop-color="#425561"/>
</linearGradient>
<linearGradient id="paint132_linear" x1="134.559" y1="179.46" x2="132.725" y2="178.102" gradientUnits="userSpaceOnUse">
<stop stop-color="#7D94A3"/>
<stop offset="1" stop-color="#425561"/>
</linearGradient>
<linearGradient id="paint133_linear" x1="105.072" y1="136.692" x2="104.044" y2="142.124" gradientUnits="userSpaceOnUse">
<stop stop-color="white"/>
<stop offset="1" stop-color="#BEC8CF"/>
</linearGradient>
<linearGradient id="paint134_linear" x1="103.987" y1="141.979" x2="101.06" y2="138.824" gradientUnits="userSpaceOnUse">
<stop stop-color="#E3F4FF"/>
<stop offset="1" stop-color="#B7C1C7"/>
</linearGradient>
<linearGradient id="paint135_linear" x1="106.143" y1="140.924" x2="103.687" y2="138.277" gradientUnits="userSpaceOnUse">
<stop stop-color="#7D94A3"/>
<stop offset="1" stop-color="#425561"/>
</linearGradient>
<linearGradient id="paint136_linear" x1="106" y1="140.929" x2="103.608" y2="138.351" gradientUnits="userSpaceOnUse">
<stop stop-color="#85D0DE"/>
<stop offset="1" stop-color="#6292B3"/>
</linearGradient>
<linearGradient id="paint137_linear" x1="118.387" y1="141.07" x2="114.632" y2="138.826" gradientUnits="userSpaceOnUse">
<stop offset="0.00396825" stop-color="#E74D87"/>
<stop offset="1" stop-color="#763289"/>
</linearGradient>
<linearGradient id="paint138_linear" x1="118.301" y1="141.209" x2="114.714" y2="138.701" gradientUnits="userSpaceOnUse">
<stop offset="0.00396825" stop-color="#EA5289"/>
<stop offset="1" stop-color="#763187"/>
</linearGradient>
<clipPath id="clip0">
<rect width="116.191" height="104.403" fill="white" transform="translate(274.16 154.742)"/>
</clipPath>
<clipPath id="clip1">
<rect width="4.16088" height="8.32176" fill="white" transform="translate(339.52 160.139) rotate(-75.5)"/>
</clipPath>
<clipPath id="clip2">
<rect width="84.8834" height="92.523" fill="white" transform="translate(194.039 219.909) rotate(-25)"/>
</clipPath>
<clipPath id="clip3">
<rect width="77.8821" height="84.8915" fill="white" transform="matrix(-0.522498 -0.85264 -0.85264 0.522498 179.074 176.405)"/>
</clipPath>
</defs>
</svg>
