<svg width="409" height="348" viewBox="0 0 409 348" fill="none" xmlns="http://www.w3.org/2000/svg">
<mask id="mask0" mask-type="alpha" maskUnits="userSpaceOnUse" x="0" y="0" width="409" height="349">
<rect width="408.109" height="348" fill="#C4C4C4"/>
</mask>
<g mask="url(#mask0)">
<path d="M341.98 361.199L82.6087 370.891C72.1407 367.402 76.4054 344.527 82.6087 337.161C88.8119 329.795 97.5664 325.624 106.258 325.142C114.012 303.431 128.745 296.453 148.808 297.615C148.243 295.521 147.942 293.319 147.942 291.047C147.942 277.143 159.214 265.871 173.118 265.871C176.212 265.871 179.176 266.43 181.915 267.451C183.452 237.184 185.706 192.431 185.706 190.892H213.07L220.659 278.162C229.164 271.166 240.056 266.966 251.928 266.966C278.398 266.966 299.992 287.845 301.137 314.033L301.185 314.033C316.288 314.033 343.919 325.824 341.98 361.199Z" fill="#DA648E"/>
<path fill-rule="evenodd" clip-rule="evenodd" d="M181.527 351.796C179.15 367.595 165.518 379.708 149.056 379.708C139.11 379.708 130.196 375.286 124.174 368.3C121.407 370.87 117.699 372.441 113.625 372.441C105.06 372.441 98.1167 365.498 98.1167 356.933C98.1167 348.368 105.06 341.425 113.625 341.425C114.65 341.425 115.651 341.524 116.621 341.714C119.095 326.028 132.674 314.033 149.056 314.033C154.082 314.033 158.844 315.162 163.103 317.18C162.509 315.139 162.191 312.981 162.191 310.749C162.191 298.291 172.101 288.148 184.468 287.773C186.219 252.844 189.292 192.516 190.105 190.891H210.355L214.173 303.786C218.477 290.668 230.822 281.195 245.38 281.195C263.516 281.195 278.218 295.897 278.218 314.033C278.218 316.657 277.91 319.21 277.329 321.656C279.067 321.398 280.849 321.265 282.662 321.265C301.933 321.265 317.555 336.366 317.555 354.995C317.555 373.623 301.933 388.725 282.662 388.725C263.391 388.725 247.769 373.623 247.769 354.995C247.769 353.916 247.821 352.849 247.924 351.796H181.527ZM165.476 289.951C169.104 289.951 172.044 287.011 172.044 283.384C172.044 279.757 169.104 276.816 165.476 276.816C161.849 276.816 158.909 279.757 158.909 283.384C158.909 287.011 161.849 289.951 165.476 289.951Z" fill="#BF4984"/>
</g>
<path d="M127.945 177.249C136.337 166.668 153.559 145.177 155.31 143.864H169.54V188.195L127.945 212.823V177.249Z" fill="#FCAA0B"/>
<path d="M270.242 177.249C261.85 166.668 244.629 145.177 242.878 143.864H228.648V188.195L270.242 212.823V177.249Z" fill="#FCAA0B"/>
<path d="M199.077 14.8051C199.145 14.7366 199.181 14.7019 199.181 14.7019V14.9091C202.001 17.7432 232.712 49.2578 240.02 84.7558C247.682 121.972 245.493 146.6 241.662 159.735C237.831 172.87 221.959 195.31 221.959 195.31H176.194C176.194 195.31 160.323 172.87 156.491 159.735C152.66 146.6 150.471 121.972 158.133 84.7558C165.442 49.2578 196.153 17.7432 198.973 14.9091V14.7019C198.973 14.7019 199.008 14.7366 199.077 14.8051Z" fill="white"/>
<path fill-rule="evenodd" clip-rule="evenodd" d="M231.523 180.756C226.679 188.808 222.08 195.309 222.08 195.309H176.315C176.315 195.309 171.664 188.734 166.79 180.619C176.943 179.49 187.584 178.891 198.548 178.891C209.951 178.891 221.004 179.539 231.523 180.756Z" fill="#FCAA0B"/>
<path fill-rule="evenodd" clip-rule="evenodd" d="M169.54 55.087C181.284 33.1962 197.167 16.9092 199.158 14.9089V14.7017C199.158 14.7017 199.193 14.7364 199.262 14.8049C199.33 14.7364 199.365 14.7017 199.365 14.7017V14.9089C201.353 16.9064 217.195 33.1509 228.934 54.9957C220.153 60.0029 209.989 62.8637 199.157 62.8637C188.391 62.8637 178.285 60.0377 169.54 55.087Z" fill="#FCAA0B"/>
<circle cx="199.059" cy="108.883" r="20.5588" fill="#DA648E" stroke="#FCAA0B" stroke-width="7"/>
<path fill-rule="evenodd" clip-rule="evenodd" d="M175.22 146.596C174.497 146.949 173.683 147.147 172.824 147.147C169.801 147.147 167.351 144.697 167.351 141.674C167.351 138.652 169.801 136.202 172.824 136.202C175.846 136.202 178.297 138.652 178.297 141.674C178.297 143.047 177.791 144.301 176.957 145.262L180.926 150.132C181.755 149.628 182.728 149.337 183.769 149.337C186.792 149.337 189.242 151.787 189.242 154.81C189.242 157.832 186.792 160.283 183.769 160.283C180.747 160.283 178.296 157.832 178.296 154.81C178.296 153.622 178.675 152.522 179.318 151.625L175.22 146.596Z" fill="#59397B"/>
</svg>
