<svg width="118" height="125" viewBox="0 0 118 125" fill="none" xmlns="http://www.w3.org/2000/svg">
<path d="M17.0333 94.2817C17.6172 94.5221 17.4598 94.7461 17.8205 94.9769C18.782 95.5433 20.3235 95.9093 20.961 95.895C21.4033 95.8906 21.5004 95.6036 22.1744 95.6565C22.9719 95.7121 23.0813 95.9136 23.4504 96.1919C23.8517 96.5137 25.4355 96.7005 26.4579 96.4957C27.0267 96.3708 27.3612 95.8948 27.9468 95.8652C28.7753 95.8172 28.896 95.9431 29.2189 95.9598C32.7362 96.2227 35.2338 91.1215 32.0222 87.5667C30.6136 85.9998 18.3463 82.7416 14.3023 86.4719C13.0728 87.5963 12.8345 89.0366 12.8619 89.8903C12.9039 91.9435 13.8831 93.169 16.1164 94.2471C16.4364 94.3869 16.4493 94.0412 17.0333 94.2817Z" fill="url(#paint0_linear)"/>
<path d="M13.6087 88.2624C12.7881 92.8225 23.5664 94.896 28.3932 94.0694C32.4083 93.386 34.5243 91.5656 33.0055 87.0009C32.7926 86.3516 33.2078 85.0764 33.2078 85.0764L24.7739 81.78C24.7781 81.8038 14.6845 82.3571 13.6087 88.2624Z" fill="url(#paint1_linear)"/>
<path opacity="0.5" d="M32.8928 87.3395C32.0979 89.393 28.9801 90.139 25.9171 88.962C22.8582 87.8087 20.994 85.1938 21.7847 83.1165C22.5796 81.0629 25.6974 80.3169 28.7604 81.494C31.8235 82.671 33.6835 85.2621 32.8928 87.3395Z" fill="black"/>
<path d="M61.5036 116.834C62.1159 116.677 62.1185 116.97 62.5524 116.918C63.6674 116.82 65.1128 116.222 65.6354 115.835C66.0077 115.573 65.9096 115.296 66.4842 114.925C67.174 114.509 67.3621 114.599 67.8324 114.614C68.3548 114.644 69.7427 113.86 70.4495 113.122C70.8444 112.709 70.835 112.097 71.2664 111.751C71.9113 111.221 72.0868 111.239 72.3565 111.093C75.3614 109.288 74.4191 103.665 69.7355 102.651C67.6872 102.202 55.7989 106.678 54.7067 112.071C54.3783 113.699 55.0036 115.012 55.5437 115.701C56.7894 117.321 58.2958 117.767 60.7309 117.338C61.0652 117.279 60.8632 116.971 61.5036 116.834Z" fill="url(#paint2_linear)"/>
<path d="M55.2095 113.945C57.227 118.127 67.2014 113.548 70.626 110.074C73.4856 107.165 74.1434 104.474 70.225 101.657C69.6875 101.261 69.2419 99.9904 69.2419 99.9904L60.4543 102.227C60.474 102.199 52.6031 108.517 55.2095 113.945Z" fill="url(#paint3_linear)"/>
<path opacity="0.5" d="M70.8321 102.727C71.0706 104.917 68.63 106.991 65.3454 107.35C62.0846 107.704 59.238 106.219 58.9995 104.029C58.761 101.838 61.2016 99.7646 64.4862 99.4062C67.747 99.052 70.5936 100.537 70.8321 102.727Z" fill="black"/>
<path d="M70.9756 100.47C71.4174 103.115 69.0017 105.748 65.5835 106.326C62.1414 106.909 58.9903 105.232 58.5485 102.587C58.1068 99.9422 60.5225 97.3085 63.9407 96.7303C67.3785 96.1241 70.5297 97.8008 70.9756 100.47Z" fill="url(#paint4_linear)"/>
<path d="M34.6513 84.7482C34.0807 87.3754 30.8865 88.9444 27.4608 88.2238C24.059 87.499 21.7357 84.7933 22.3063 82.1661C22.877 79.5388 26.0712 77.9698 29.4969 78.6904C32.8945 79.3915 35.1981 82.1252 34.6513 84.7482Z" fill="url(#paint5_linear)"/>
<path d="M28.5001 86.2989C28.1968 86.2543 27.8655 86.1901 27.5538 86.0978C24.5327 85.1587 22.8346 81.9503 23.8043 78.9338C24.3898 77.0889 27.5674 67.7467 33.4468 63.8154C42.2778 57.9163 56.3434 61.7405 57.8975 62.1779C60.9341 63.0652 62.6996 66.2372 61.8057 69.2649C60.9118 72.2926 57.7511 74.0519 54.7146 73.1645C51.3466 72.213 43.3016 70.9823 39.8231 73.3127C37.9926 74.5186 35.6805 79.4154 34.746 82.3521C33.9127 85.0256 31.2211 86.6532 28.5001 86.2989Z" fill="url(#paint6_linear)"/>
<path d="M83.0561 26.4408L81.6481 25.855L81.1161 25.6299C79.7601 25.0595 78.1096 25.8902 77.4105 27.5098L62.2741 62.7062C61.5751 64.3258 62.1087 66.096 63.4648 66.6664L63.9968 66.8915L65.4047 67.4773L82.0418 74.5767L99.6931 33.5402L83.0561 26.4408Z" fill="url(#paint7_linear)"/>
<path d="M83.6094 75.2325L80.2812 73.8079C79.1091 73.3032 78.5793 71.9738 79.087 70.8049L94.9225 33.9889C95.4302 32.8201 96.7646 32.2904 97.9367 32.7951L101.265 34.2198C104.833 35.7493 106.496 39.8716 104.961 43.4539L92.8586 71.5656C91.3437 75.1198 87.1777 76.762 83.6094 75.2325Z" fill="url(#paint8_linear)"/>
<path d="M58.4307 43.5633C58.3548 43.5521 58.279 43.5409 58.2032 43.5298C57.1334 43.3259 47.54 41.4115 43.4192 35.0733C40.0138 29.8601 40.5113 21.6528 40.6487 20.0586C40.888 17.3671 43.2653 15.3535 45.9654 15.5887C48.6612 15.8002 50.6829 18.1912 50.4436 20.8827C50.2466 23.395 50.4819 27.9407 51.6615 29.7442C53.1118 31.9661 57.9915 33.5341 60.0034 33.9153C62.6738 34.4011 64.43 36.9615 63.9393 39.6238C63.4319 42.1908 61.0042 43.919 58.4307 43.5633Z" fill="url(#paint9_linear)"/>
<path d="M65.4453 42.3018C63.5626 45.7246 60.1548 47.4785 57.8122 46.1989C55.4695 44.9194 55.0932 41.1099 56.9759 37.6871C58.8587 34.2643 62.2665 32.5105 64.6091 33.79C66.9279 35.0738 67.3042 38.8832 65.4453 42.3018Z" fill="url(#paint10_linear)"/>
<path d="M62.075 64.0903C62.844 68.591 60.3303 72.7629 56.4346 73.4252C52.5628 74.0834 48.7892 70.9711 48.0245 66.4942C47.2555 61.9936 49.7692 57.8217 53.6649 57.1593C57.5367 56.5011 61.3061 59.5897 62.075 64.0903Z" fill="url(#paint11_linear)"/>
<path d="M66.2112 78.0549L56.2277 73.9279C50.784 71.6743 48.2105 65.4558 50.478 60.0272L60.7073 35.5328C61.4332 33.7858 63.4305 32.9676 65.1824 33.6889L84.4853 41.6674C86.2372 42.3888 87.0558 44.3786 86.33 46.1256L74.407 74.6963C73.0721 77.8754 69.3991 79.3816 66.2112 78.0549Z" fill="url(#paint12_linear)"/>
<path d="M73.9796 73.2509C73.0425 77.709 68.672 80.5647 64.2523 79.6514C59.8284 78.7143 57.0163 74.3531 57.9534 69.8951C58.8904 65.437 63.2609 62.5813 67.6806 63.4946C72.1045 64.4317 74.9166 68.7928 73.9796 73.2509Z" fill="url(#paint13_linear)"/>
<path opacity="0.5" d="M84.1484 41.4325C83.6138 42.7287 78.9932 42.0716 73.8653 39.934C68.7416 37.8202 65.0029 35.0452 65.5571 33.721C66.0917 32.4247 70.7124 33.0818 75.8402 35.2194C80.9681 37.357 84.7068 40.132 84.1484 41.4325Z" fill="black"/>
<path d="M63.4253 104.696C61.155 104.385 59.2157 102.74 58.6332 100.414C58.1992 98.6505 56.0225 89.5165 56.5137 84.2049C57.08 77.9234 60.3205 70.7533 60.696 69.9511C62.0138 67.094 65.4339 65.8286 68.2989 67.1387C71.1639 68.4488 72.4293 71.8562 71.1115 74.7133C70.3492 76.3931 68.2545 81.5459 67.9359 85.1835C67.7192 87.7239 68.8744 93.9962 69.7873 97.6375C70.5475 100.692 68.658 103.798 65.5921 104.559C64.8646 104.761 64.1316 104.792 63.4253 104.696Z" fill="url(#paint14_linear)"/>
<path d="M78.1875 46.9971C77.004 50.6156 78.5556 54.3895 81.689 55.407C84.8224 56.4244 88.3147 54.3122 89.4941 50.67C90.6777 47.0516 89.126 43.2777 85.9927 42.2602C82.8593 41.2427 79.3669 43.3549 78.1875 46.9971Z" fill="url(#paint15_linear)"/>
<path opacity="0.5" d="M100.364 54.101C96.6215 49.487 92.3027 46.9123 89.8969 45.693L85.9837 54.7724C87.3662 55.6325 89.2678 57.0634 90.9962 59.1872C93.0388 61.6971 93.9375 65.5371 94.2837 68.1989L100.364 54.101Z" fill="black"/>
<path d="M101.195 71.5182C99.2522 71.2476 97.55 69.8306 97.0698 67.8057C96.6807 66.1571 95.0835 61.2874 92.6015 58.6587C89.9104 55.8216 85.3213 54.2268 83.9314 53.8832C81.2836 53.2462 79.6623 50.6129 80.3046 47.973C80.9468 45.3332 83.5907 43.714 86.2385 44.351C87.0851 44.5452 94.6381 46.4759 99.7874 51.9459C104.514 56.9752 106.463 64.6775 106.666 65.5494C107.279 68.1887 105.653 70.8304 103.004 71.4446C102.387 71.5779 101.778 71.6117 101.195 71.5182Z" fill="url(#paint16_linear)"/>
<path opacity="0.5" d="M106.186 63.9416C106.511 66.0674 104.589 68.148 101.878 68.5523C99.1722 68.9804 96.6892 67.603 96.3636 65.4772C96.038 63.3514 97.9605 61.2707 100.671 60.8664C103.377 60.4383 105.836 61.82 106.186 63.9416Z" fill="black"/>
<path d="M93.6445 34.5575C89.932 41.9826 82.2435 42.774 74.9427 39.6214C61.7491 33.9018 63.2259 30.5505 66.5342 22.9269C70.6751 13.4639 78.4196 10.8964 85.7865 13.8657C94.4253 17.3466 97.118 27.5917 93.6445 34.5575Z" fill="url(#paint17_linear)"/>
<path d="M88.9791 35.1841C85.2004 40.9772 76.8718 41.4891 67.9162 35.5128C60.7808 30.7855 63.2839 25.8551 64.9814 22.2196C67.8997 16.014 74.3039 10.5919 81.9835 14.2175C89.8512 17.9325 93.7011 27.8999 88.9791 35.1841Z" fill="url(#paint18_linear)"/>
<path d="M87.7789 34.6597C84.0522 40.4682 76.0676 41.1157 67.5443 35.3576C60.7809 30.7855 63.2601 25.8592 64.9815 22.2196C67.8998 16.0139 74.1398 10.4982 81.4515 13.9923C88.9191 17.5326 92.449 27.3602 87.7789 34.6597Z" fill="url(#paint19_linear)"/>
<path d="M87.0483 34.0036C83.517 39.3852 76.0505 40.0394 67.3726 34.3821C62.0295 30.8842 62.1858 24.6505 63.782 21.2782C66.5047 15.4995 74.1589 11.7214 80.6006 14.6085C88.2508 18.0675 91.4961 27.2584 87.0483 34.0036Z" fill="url(#paint20_linear)"/>
<path d="M85.1862 31.6827C82.0794 36.4006 75.5369 36.9901 67.9173 32.0293C63.2198 28.9817 63.3587 23.487 64.7833 20.5374C67.1896 15.4769 73.8913 12.161 79.5328 14.6986C86.2623 17.6823 89.0871 25.7453 85.1862 31.6827Z" fill="white" fill-opacity="0.1"/>
<path d="M106.81 64.2729C107.247 66.3301 105.19 68.4836 102.202 69.1329C99.2348 69.7543 96.4751 68.6219 96.0385 66.5647C95.6019 64.5076 97.6592 62.3541 100.646 61.7047C103.61 61.0596 106.374 62.2157 106.81 64.2729Z" fill="url(#paint21_linear)"/>
<path opacity="0.5" d="M50.2391 24.3285C50.274 26.481 48.1538 28.2776 45.4802 28.332C42.8066 28.3864 40.5879 26.6926 40.5529 24.54C40.518 22.3875 42.6383 20.5909 45.3119 20.5365C47.9855 20.4821 50.2042 22.1759 50.2391 24.3285Z" fill="black"/>
<path d="M50.9823 23.6578C51.0159 25.6634 48.6037 27.3397 45.5636 27.4097C42.5235 27.4797 40.0309 25.9077 39.9734 23.9064C39.9398 21.9008 42.352 20.2244 45.3921 20.1544C48.4322 20.0845 50.9248 21.6564 50.9823 23.6578Z" fill="url(#paint22_linear)"/>
<path d="M84.5802 68.7323C84.3351 69.8548 83.2337 70.5887 82.1077 70.3457C80.9817 70.1027 80.2467 69.0058 80.4919 67.8832C80.737 66.7606 81.8385 66.0267 82.9644 66.2697C84.1143 66.5085 84.8254 67.6097 84.5802 68.7323Z" fill="url(#paint23_linear)"/>
<path d="M83.867 68.7354C83.6754 69.6032 82.8157 70.1718 81.9452 69.9819C81.0748 69.792 80.5053 68.9357 80.6969 68.0679C80.8885 67.2 81.7483 66.6314 82.6187 66.8213C83.4892 67.0113 84.0348 67.8718 83.867 68.7354Z" fill="url(#paint24_linear)"/>
<path d="M39.4254 18.7043C38.7406 21.9404 40.801 25.1095 44.0751 25.8078C47.321 26.4865 50.4988 24.4053 51.2075 21.1649C51.8923 17.9288 49.8319 14.7597 46.5579 14.0615C43.3119 13.3827 40.1103 15.4682 39.4254 18.7043Z" fill="url(#paint25_linear)"/>
<path d="M47.6078 16.5255C48.2746 16.6777 48.9363 16.2422 49.0857 15.5535L49.9086 11.7043C50.0621 11.0394 49.6259 10.3804 48.9351 10.2324C48.2683 10.0802 47.6066 10.5157 47.4572 11.2044L46.6343 15.0536C46.5047 15.7142 46.9409 16.3732 47.6078 16.5255Z" fill="url(#paint26_linear)"/>
<path d="M48.8141 21.4151C49.4133 22.0208 50.3934 21.9952 51.0019 21.3973L54.1932 18.1362C54.8016 17.5383 54.7771 16.5614 54.1779 15.9557C53.5788 15.3499 52.5986 15.3756 51.9902 15.9735L48.7989 19.2345C48.1946 19.8562 48.1953 20.8373 48.8141 21.4151Z" fill="url(#paint27_linear)"/>
<path d="M45.2068 15.894C45.8879 15.8475 46.3966 15.2427 46.3508 14.5639L46.0729 10.6144C46.027 9.93568 45.4208 9.42931 44.7398 9.47581C44.0587 9.52231 43.5499 10.1272 43.5958 10.8059L43.8934 14.7274C43.9195 15.4342 44.5258 15.9405 45.2068 15.894Z" fill="url(#paint28_linear)"/>
<path d="M42.6845 16.3879C43.3362 16.1749 43.7046 15.4722 43.4917 14.8229L42.3737 11.414C42.1607 10.7647 41.4561 10.3983 40.8044 10.6114C40.1527 10.8244 39.7843 11.5272 39.9972 12.1765L41.1153 15.5853C41.3324 16.2584 42.0328 16.601 42.6845 16.3879Z" fill="url(#paint29_linear)"/>
<path d="M41.1303 18.1829C41.6081 17.6816 41.5933 16.8992 41.1148 16.4194L38.5582 13.9265C38.0559 13.4509 37.2709 13.4667 36.7889 13.9442C36.3112 14.4454 36.326 15.2278 36.8045 15.7076L39.3611 18.2005C39.8634 18.6761 40.6525 18.6841 41.1303 18.1829Z" fill="url(#paint30_linear)"/>
<path d="M108.134 69.2644C108.416 65.9767 105.959 63.0737 102.637 62.8009C99.3391 62.5239 96.4237 64.9759 96.146 68.2874C95.8641 71.5751 98.3207 74.4781 101.643 74.7509C104.965 75.0237 107.852 72.5521 108.134 69.2644Z" fill="url(#paint31_linear)"/>
<path d="M100.299 72.4368C99.6254 72.3839 99.0002 72.8866 98.9505 73.5822L98.6106 77.518C98.5567 78.1898 99.0604 78.8124 99.7582 78.861C100.432 78.9139 101.057 78.4112 101.107 77.7156L101.447 73.7798C101.497 73.0842 100.973 72.4896 100.299 72.4368Z" fill="url(#paint32_linear)"/>
<path d="M98.4653 68.7371C97.7045 68.3316 96.7706 68.6189 96.3867 69.3735L94.2423 73.4066C93.8345 74.1654 94.1217 75.096 94.8783 75.4777C95.639 75.8832 96.573 75.5959 96.9569 74.8413L99.1013 70.8082C99.4852 70.0537 99.198 69.1231 98.4653 68.7371Z" fill="url(#paint33_linear)"/>
<path d="M102.787 73.0038C102.106 73.0503 101.569 73.6356 101.619 74.3381L101.869 78.268C101.915 78.9468 102.502 79.4811 103.207 79.4304C103.888 79.3839 104.425 78.7987 104.374 78.0961L104.125 74.1662C104.075 73.4637 103.468 72.9573 102.787 73.0038Z" fill="url(#paint34_linear)"/>
<path d="M104.818 71.9588C104.171 72.1956 103.826 72.8942 104.039 73.5435L105.224 76.9159C105.461 77.561 106.162 77.9036 106.813 77.6905C107.461 77.4537 107.805 76.7551 107.593 76.1058L106.407 72.7334C106.17 72.0883 105.47 71.7457 104.818 71.9588Z" fill="url(#paint35_linear)"/>
<path d="M106.246 69.8672C105.644 70.2188 105.459 70.9873 105.807 71.5637L107.632 74.6517C107.984 75.252 108.754 75.435 109.333 75.0876C109.936 74.7361 110.12 73.9676 109.772 73.3911L107.948 70.3031C107.596 69.7029 106.849 69.5157 106.246 69.8672Z" fill="url(#paint36_linear)"/>
<path d="M53.4534 56.2399C52.9985 56.1729 52.6055 55.8988 52.4261 55.4398C52.3406 55.2341 50.4947 50.629 52.5548 46.5371C54.6347 42.4172 58.7894 42.6658 60.6846 43.3619C61.3682 43.6094 61.6976 44.3608 61.4486 45.0425C61.1996 45.7242 60.4453 46.0534 59.7616 45.806C59.4177 45.6704 56.3924 44.7075 54.8765 47.6977C53.3648 50.7116 54.8041 54.4072 54.8125 54.4548C55.0774 55.1195 54.7693 55.8852 54.0783 56.1542C53.8957 56.2355 53.6569 56.2776 53.4534 56.2399Z" fill="url(#paint37_linear)"/>
<path d="M62.2313 38.4531C61.3834 38.112 60.3946 38.5072 60.0275 39.3569L57.3254 45.6716C56.9583 46.5213 57.3535 47.5064 58.1817 47.8755L69.2502 52.5716L73.2759 43.1534L62.2313 38.4531Z" fill="url(#paint38_linear)"/>
<path d="M73.3042 43.1731C72.4563 42.832 71.4675 43.2271 71.1003 44.0768L68.3983 50.3915C68.0311 51.2413 68.4264 52.2264 69.2546 52.5955L73.3042 43.1731Z" fill="url(#paint39_linear)"/>
<path d="M67.5593 49.2638L58.727 45.5226L60.8862 40.4565L69.7227 44.2215L67.5593 49.2638Z" fill="url(#paint40_linear)"/>
<path d="M67.5593 49.2636L59.339 45.7825L61.5024 40.7402L69.7227 44.2214L67.5593 49.2636Z" fill="url(#paint41_linear)"/>
<g opacity="0.5">
<path opacity="0.5" d="M79.5644 68.9055C77.1424 68.5721 73.7774 67.4974 72.5877 64.1011C71.7905 61.8132 72.2085 60.4149 72.6927 58.8331C73.0179 57.7455 73.4134 56.4983 73.4527 54.6271C73.541 51.0791 70.6621 49.5507 70.526 49.4766C70.1217 49.278 69.9578 48.7673 70.1856 48.3837C70.3853 47.9805 70.874 47.8207 71.2783 48.0193C71.4383 48.0892 75.1818 50.0539 75.0829 54.6585C75.0336 56.7523 74.6156 58.1506 74.251 59.2943C73.7978 60.7724 73.5036 61.7564 74.1173 63.5616C75.597 67.7652 82.0059 67.3956 82.0537 67.3872C82.5157 67.3548 82.8974 67.7045 82.9251 68.1412C82.9571 68.6016 82.6058 68.9825 82.1676 69.0107C82.0721 69.0275 81.0007 69.0938 79.5644 68.9055Z" fill="black"/>
</g>
<path d="M80.9879 69.4393C79.4238 69.2244 76.7269 68.4489 75.2912 65.6112C74.1274 63.3389 74.5461 61.1064 74.9535 58.9494C75.2425 57.3776 75.5244 55.9051 75.2714 54.3307C74.7332 51.1385 70.6506 50.0431 70.5987 50.0278C69.9037 49.8559 69.4788 49.1214 69.652 48.4285C69.8253 47.7356 70.5389 47.3154 71.2338 47.4873C71.4655 47.5445 76.994 49.0228 77.8259 53.8803C78.1825 55.9025 77.8245 57.7809 77.52 59.4045C77.1619 61.2829 76.8616 62.9304 77.616 64.4163C78.9298 66.9812 81.9699 66.9112 82.0892 66.8901C82.8223 66.859 83.4172 67.441 83.4434 68.1477C83.4695 68.8545 82.913 69.4678 82.18 69.4989C82.1364 69.5311 81.6703 69.5397 80.9879 69.4393Z" fill="url(#paint42_linear)"/>
<path d="M55.1381 48.9028L51.7621 56.9798L53.7076 57.9614L57.8247 52.1331L55.1381 48.9028Z" fill="url(#paint43_linear)"/>
<path d="M82.6468 15.7441C82.0055 15.3175 81.3247 14.9469 80.6046 14.6324C79.6964 14.2283 78.7614 13.9516 77.8235 13.7981C75.9146 14.6989 72.7007 16.2959 71.8167 17.2858C70.5224 18.7405 73.2844 18.7686 71.5084 20.2838C69.7324 21.799 67.5254 23.2429 65.5175 26.9331C64.7722 28.291 64.2938 29.6264 63.9813 30.7854C64.7104 32.1287 65.7935 33.385 67.3528 34.4102C67.4328 34.4451 67.4932 34.5081 67.5732 34.543C68.0132 32.0124 69.1396 27.7908 71.9038 24.8994C74.1269 22.5695 76.3788 21.2403 75.8796 20.2244C75.4983 19.4576 80.2266 16.9558 82.6468 15.7441Z" fill="white" fill-opacity="0.4"/>
<path d="M84.3025 19.5486C85.0681 20.9591 84.711 21.5862 83.8583 22.0555C83.0056 22.5247 81.7855 22.4455 81.024 21.0589C80.2584 19.6485 80.6213 18.775 81.474 18.3057C82.3267 17.8365 83.541 18.162 84.3025 19.5486Z" fill="white" fill-opacity="0.4"/>
<path d="M85.508 23.8744C85.4583 24.57 85.0622 24.8361 84.6395 24.8125C84.2169 24.7889 83.8662 24.3356 83.7726 23.6652C83.6832 23.0187 84.3491 22.6069 84.7717 22.6305C85.1705 22.6583 85.5338 23.183 85.508 23.8744Z" fill="white" fill-opacity="0.4"/>
<path d="M91.8357 35.0483C90.4746 37.5206 88.0472 38.8317 86.4134 37.9423C84.7796 37.0529 84.5682 34.3182 85.9054 31.8502C87.2665 29.3779 89.6939 28.0668 91.3277 28.9562C92.9615 29.8456 93.1968 32.576 91.8357 35.0483Z" fill="url(#paint44_linear)"/>
<path d="M92.6522 35.4931C91.4599 37.6658 89.3219 38.8032 87.8762 38.0033C86.4305 37.2034 86.2062 34.8145 87.3985 32.6418C88.5909 30.4691 90.7289 29.3317 92.1746 30.1316C93.6203 30.9315 93.8207 33.3246 92.6522 35.4931Z" fill="url(#paint45_linear)"/>
<path d="M91.0921 32.0886C90.8479 31.96 90.5488 31.9391 90.2426 32.0176C90.7563 32.4177 90.8005 33.3666 90.314 34.2373C89.8275 35.1081 89.0029 35.5969 88.3993 35.3845C88.5015 35.6853 88.6671 35.926 88.9352 36.0504C89.6679 36.4364 90.7509 35.8774 91.3471 34.7911C91.9391 33.681 91.829 32.4984 91.0921 32.0886Z" fill="url(#paint46_linear)"/>
<path d="M64.3718 87.3082C63.8321 89.8319 61.1482 90.5259 58.4133 89.9534C55.6784 89.3808 53.9384 87.7497 54.4781 85.226C55.0177 82.7023 56.3708 81.5806 59.1057 82.1532C61.8448 82.7496 64.9114 84.7845 64.3718 87.3082Z" fill="url(#paint47_linear)"/>
<path d="M63.1938 87.0499C62.6922 89.3707 60.3228 90.0337 57.9192 89.5254C55.5157 89.0171 54.0002 87.5426 54.478 85.2261C54.9796 82.9054 56.1781 81.8845 58.5817 82.3929C60.9852 82.9012 63.6954 84.7292 63.1938 87.0499Z" fill="url(#paint48_linear)"/>
<path d="M60.7077 88.445C60.5177 89.0427 59.0797 89.1245 57.4653 88.6242C55.8747 88.1197 54.7352 87.2413 54.9252 86.6436C55.1152 86.0459 56.1735 86.7424 57.764 87.2469C59.3742 87.7234 60.8977 87.8473 60.7077 88.445Z" fill="url(#paint49_linear)"/>
<path d="M55.7714 83.6243C55.9333 83.007 57.3587 82.8538 59.0041 83.2506C60.6256 83.6515 61.8284 84.4697 61.6664 85.087C61.5045 85.7043 60.4069 85.0638 58.7812 84.639C57.1639 84.2619 55.6333 84.2374 55.7714 83.6243Z" fill="url(#paint50_linear)"/>
<path d="M61.2719 86.8982C61.0664 87.5477 59.6568 87.232 57.9146 86.7052C56.1963 86.1742 54.8248 85.6556 55.0303 85.0061C55.2358 84.3566 56.6692 84.668 58.3876 85.1991C60.1017 85.7063 61.4732 86.2249 61.2719 86.8982Z" fill="url(#paint51_linear)"/>
<path d="M38.637 68.542C36.2548 69.5508 34.2647 68.0374 33.3087 65.8265C32.3485 63.5918 32.7882 61.4783 35.1943 60.4653C37.5765 59.4565 39.2135 59.8056 40.1695 62.0165C41.1059 64.2554 41.0192 67.5332 38.637 68.542Z" fill="url(#paint52_linear)"/>
<path d="M37.8762 66.7384C35.6766 67.6659 33.9812 66.5666 33.2565 64.8301C32.508 63.0978 33.0189 61.3887 35.2186 60.4612C37.4182 59.5336 38.8545 59.7219 39.5792 61.4584C40.3039 63.195 40.052 65.8151 37.8762 66.7384Z" fill="url(#paint53_linear)"/>
<path d="M35.4981 65.9558C34.8941 66.1604 34.1295 65.314 33.7878 64.0741C33.4461 62.8343 33.6351 61.6725 34.239 61.4679C34.843 61.2633 34.7523 62.285 35.094 63.5249C35.4596 64.7605 36.102 65.7511 35.4981 65.9558Z" fill="url(#paint54_linear)"/>
<path d="M37.1787 60.4099C37.7546 60.1857 38.6064 60.9676 39.0436 62.1907C39.4766 63.3899 39.3634 64.5628 38.7875 64.787C38.2116 65.0112 38.2067 64.0063 37.7737 62.807C37.3127 61.5882 36.579 60.6383 37.1787 60.4099Z" fill="url(#paint55_linear)"/>
<path d="M37.0876 65.479C36.4359 65.6921 36.0323 64.6594 35.626 63.3328C35.2437 62.0019 35.0227 60.888 35.6743 60.675C36.326 60.4619 36.7297 61.4946 37.1359 62.8212C37.5183 64.152 37.7351 65.2422 37.0876 65.479Z" fill="url(#paint56_linear)"/>
<path opacity="0.4" d="M74.9928 13.6594C74.483 13.7002 73.9536 13.769 73.4564 13.8812C67.397 16.3724 68.8566 17.3906 69.0708 18.1869C69.3677 19.312 66.8325 20.1515 64.5543 23.0063C63.8487 23.8911 63.2609 25.025 62.8248 26.1813C62.8603 27.4997 63.1233 28.8515 63.6967 30.1487C63.7673 29.572 63.8773 28.9394 64.0505 28.2465C64.956 24.7262 66.0064 22.7257 68.2405 20.7373C70.4746 18.7489 69.7584 18.8752 69.5335 17.3203C69.2847 15.7697 74.9928 13.6594 74.9928 13.6594Z" fill="white"/>
<path opacity="0.2" d="M61.0952 46.5276L62.1665 41.0156L64.5585 42.0166L64.1554 47.8278L61.0952 46.5276Z" fill="white"/>
<path opacity="0.2" d="M65.7064 42.5255L65.2472 48.2975L66.3112 48.7477L67.4863 43.2665L65.7064 42.5255Z" fill="white"/>
<path d="M100.523 54.441C100.356 54.0534 99.8406 53.9235 99.3322 54.1113L95.6311 55.5979C95.1268 55.8095 94.8639 56.2729 95.0026 56.6409L97.0112 61.6098L102.551 59.382L100.523 54.441Z" fill="url(#paint57_linear)"/>
<path d="M102.536 59.4337C102.369 59.0461 101.854 58.9162 101.345 59.1039L97.644 60.5906C97.1398 60.8021 96.8768 61.2655 97.0156 61.6335L102.536 59.4337Z" fill="url(#paint58_linear)"/>
<path d="M97.8014 59.9497L96.212 55.9617L99.1785 54.7763L100.768 58.7643L97.8014 59.9497Z" fill="url(#paint59_linear)"/>
<path d="M97.8013 59.9495L96.31 56.2385L99.2765 55.0531L100.768 58.7641L97.8013 59.9495Z" fill="url(#paint60_linear)"/>
<path opacity="0.2" d="M96.5176 56.7173L99.6718 56.0385L99.9284 56.6556L96.7992 57.4772L96.5176 56.7173Z" fill="white"/>
<path opacity="0.2" d="M96.9703 57.8884L100.234 57.4111L100.629 58.3962L97.4427 59.0317L96.9703 57.8884Z" fill="white"/>
<path opacity="0.5" d="M48.9523 17.1718C48.9643 18.0773 47.7396 18.3913 45.2141 17.6101C43.2361 17.0022 41.4688 18.1479 41.4568 17.2424C41.4448 16.3368 43.1121 15.6013 45.1763 15.5808C47.2643 15.556 48.9404 16.2662 48.9523 17.1718Z" fill="black"/>
<path d="M88.6723 45.59C88.5923 45.5551 88.5164 45.5439 88.4167 45.5369C87.4185 45.3205 86.5197 45.528 86.3803 45.9941C86.2255 46.512 87.0366 47.2031 88.1232 47.5021C88.6665 47.6516 89.2127 47.6779 89.6425 47.6021C90.0722 47.5264 90.3335 47.3331 90.3913 47.1021C90.57 46.58 89.7589 45.889 88.6723 45.59Z" fill="url(#paint61_linear)"/>
<path d="M88.7922 45.1519C87.2142 44.7187 85.7859 44.9951 85.5775 45.7678C85.3692 46.5404 86.4735 47.4986 88.0277 47.936C89.6056 48.3691 91.0339 48.0928 91.2423 47.3201C91.4745 46.5432 90.3702 45.585 88.7922 45.1519ZM89.7198 47.7603C89.3378 47.8276 88.8674 47.8124 88.3845 47.7259C88.3086 47.7147 88.2048 47.684 88.1247 47.649C86.9104 47.3235 86.0867 46.5611 86.2486 45.9438C86.4106 45.3265 87.5004 45.0853 88.719 45.4346C89.9333 45.7602 90.757 46.5226 90.5951 47.1398C90.5022 47.4506 90.1973 47.6761 89.7198 47.7603Z" fill="url(#paint62_linear)"/>
<defs>
<linearGradient id="paint0_linear" x1="13.0335" y1="88.4599" x2="33.2861" y2="92.754" gradientUnits="userSpaceOnUse">
<stop stop-color="#E74D87"/>
<stop offset="1" stop-color="#763187"/>
</linearGradient>
<linearGradient id="paint1_linear" x1="14.1135" y1="85.9272" x2="33.5247" y2="90.0429" gradientUnits="userSpaceOnUse">
<stop stop-color="white"/>
<stop offset="1" stop-color="#BEC8CF"/>
</linearGradient>
<linearGradient id="paint2_linear" x1="55.4993" y1="108.26" x2="73.2912" y2="112.033" gradientUnits="userSpaceOnUse">
<stop stop-color="#EA5289"/>
<stop offset="1" stop-color="#763187"/>
</linearGradient>
<linearGradient id="paint3_linear" x1="55.6913" y1="106.138" x2="72.2119" y2="109.641" gradientUnits="userSpaceOnUse">
<stop stop-color="white"/>
<stop offset="1" stop-color="#BEC8CF"/>
</linearGradient>
<linearGradient id="paint4_linear" x1="58.7486" y1="100.267" x2="70.7563" y2="102.813" gradientUnits="userSpaceOnUse">
<stop stop-color="#89A4CD"/>
<stop offset="1" stop-color="#763187"/>
</linearGradient>
<linearGradient id="paint5_linear" x1="22.2994" y1="82.1611" x2="34.6424" y2="84.7781" gradientUnits="userSpaceOnUse">
<stop stop-color="#89A8CF"/>
<stop offset="1" stop-color="#763187"/>
</linearGradient>
<linearGradient id="paint6_linear" x1="25.5695" y1="70.4932" x2="60.0261" y2="77.7989" gradientUnits="userSpaceOnUse">
<stop stop-color="white"/>
<stop offset="1" stop-color="#BEC8CF"/>
</linearGradient>
<linearGradient id="paint7_linear" x1="89.0748" y1="29.7418" x2="71.126" y2="70.6062" gradientUnits="userSpaceOnUse">
<stop stop-color="#7D94A3"/>
<stop offset="1" stop-color="#425561"/>
</linearGradient>
<linearGradient id="paint8_linear" x1="101.678" y1="34.9568" x2="84.3273" y2="74.7671" gradientUnits="userSpaceOnUse">
<stop stop-color="#E3F4FF"/>
<stop offset="1" stop-color="#B7C1C7"/>
</linearGradient>
<linearGradient id="paint9_linear" x1="39.1545" y1="26.8319" x2="65.4489" y2="32.407" gradientUnits="userSpaceOnUse">
<stop stop-color="white"/>
<stop offset="1" stop-color="#BEC8CF"/>
</linearGradient>
<linearGradient id="paint10_linear" x1="62.6278" y1="33.2376" x2="59.7941" y2="46.7636" gradientUnits="userSpaceOnUse">
<stop stop-color="#89A8CF"/>
<stop offset="1" stop-color="#763187"/>
</linearGradient>
<linearGradient id="paint11_linear" x1="47.9024" y1="63.7963" x2="62.1686" y2="66.8211" gradientUnits="userSpaceOnUse">
<stop stop-color="#89A8CF"/>
<stop offset="1" stop-color="#593156"/>
</linearGradient>
<linearGradient id="paint12_linear" x1="54.6384" y1="49.1438" x2="78.5802" y2="62.4893" gradientUnits="userSpaceOnUse">
<stop stop-color="white"/>
<stop offset="0.7044" stop-color="#E6EDF2"/>
<stop offset="1" stop-color="#BFC8CF"/>
</linearGradient>
<linearGradient id="paint13_linear" x1="57.946" y1="69.8906" x2="73.9656" y2="73.2872" gradientUnits="userSpaceOnUse">
<stop stop-color="#89A8CF"/>
<stop offset="1" stop-color="#773288"/>
</linearGradient>
<linearGradient id="paint14_linear" x1="56.3874" y1="83.8631" x2="72.5651" y2="87.2932" gradientUnits="userSpaceOnUse">
<stop stop-color="white"/>
<stop offset="1" stop-color="#BEC8CF"/>
</linearGradient>
<linearGradient id="paint15_linear" x1="85.2721" y1="42.0719" x2="82.4405" y2="55.5883" gradientUnits="userSpaceOnUse">
<stop stop-color="#89A8CF"/>
<stop offset="1" stop-color="#763187"/>
</linearGradient>
<linearGradient id="paint16_linear" x1="78.8506" y1="54.8181" x2="108.094" y2="61.0185" gradientUnits="userSpaceOnUse">
<stop stop-color="white"/>
<stop offset="1" stop-color="#BEC8CF"/>
</linearGradient>
<linearGradient id="paint17_linear" x1="85.5652" y1="14.2389" x2="76.0428" y2="39.533" gradientUnits="userSpaceOnUse">
<stop stop-color="white"/>
<stop offset="1" stop-color="#BEC8CF"/>
</linearGradient>
<linearGradient id="paint18_linear" x1="84.4675" y1="15.981" x2="72.6797" y2="35.9985" gradientUnits="userSpaceOnUse">
<stop stop-color="#E3F4FF"/>
<stop offset="1" stop-color="#B7C1C7"/>
</linearGradient>
<linearGradient id="paint19_linear" x1="89.2801" y1="22.6971" x2="61.2556" y2="31.2935" gradientUnits="userSpaceOnUse">
<stop stop-color="white"/>
<stop offset="1" stop-color="#BEC8CF"/>
</linearGradient>
<linearGradient id="paint20_linear" x1="69.0888" y1="15.5632" x2="83.0859" y2="37.4124" gradientUnits="userSpaceOnUse">
<stop stop-color="#F3A132"/>
<stop offset="0.44375" stop-color="#CD4A89"/>
<stop offset="1" stop-color="#763289"/>
</linearGradient>
<linearGradient id="paint21_linear" x1="96.2597" y1="64.2384" x2="106.625" y2="66.2629" gradientUnits="userSpaceOnUse">
<stop stop-color="#89A8CF"/>
<stop offset="1" stop-color="#763187"/>
</linearGradient>
<linearGradient id="paint22_linear" x1="40.1673" y1="22.6643" x2="50.775" y2="24.9134" gradientUnits="userSpaceOnUse">
<stop stop-color="#89A8CF"/>
<stop offset="1" stop-color="#763187"/>
</linearGradient>
<linearGradient id="paint23_linear" x1="83.3592" y1="66.4476" x2="81.7452" y2="70.1644" gradientUnits="userSpaceOnUse">
<stop stop-color="white"/>
<stop offset="1" stop-color="#BEC8CF"/>
</linearGradient>
<linearGradient id="paint24_linear" x1="83.0985" y1="67.001" x2="81.1487" y2="70.3333" gradientUnits="userSpaceOnUse">
<stop stop-color="#E3F4FF"/>
<stop offset="1" stop-color="#B7C1C7"/>
</linearGradient>
<linearGradient id="paint25_linear" x1="44.8937" y1="25.6607" x2="46.0036" y2="10.0323" gradientUnits="userSpaceOnUse">
<stop stop-color="white"/>
<stop offset="1" stop-color="#BEC8CF"/>
</linearGradient>
<linearGradient id="paint26_linear" x1="47.3664" y1="25.8362" x2="48.4763" y2="10.2078" gradientUnits="userSpaceOnUse">
<stop stop-color="white"/>
<stop offset="1" stop-color="#BEC8CF"/>
</linearGradient>
<linearGradient id="paint27_linear" x1="50.9446" y1="26.0905" x2="52.0544" y2="10.4623" gradientUnits="userSpaceOnUse">
<stop stop-color="white"/>
<stop offset="1" stop-color="#BEC8CF"/>
</linearGradient>
<linearGradient id="paint28_linear" x1="44.0345" y1="25.5997" x2="45.1444" y2="9.97118" gradientUnits="userSpaceOnUse">
<stop stop-color="white"/>
<stop offset="1" stop-color="#BEC8CF"/>
</linearGradient>
<linearGradient id="paint29_linear" x1="40.8841" y1="25.3759" x2="41.9939" y2="9.74737" gradientUnits="userSpaceOnUse">
<stop stop-color="white"/>
<stop offset="1" stop-color="#BEC8CF"/>
</linearGradient>
<linearGradient id="paint30_linear" x1="38.2951" y1="25.192" x2="39.405" y2="9.56308" gradientUnits="userSpaceOnUse">
<stop stop-color="white"/>
<stop offset="1" stop-color="#BEC8CF"/>
</linearGradient>
<linearGradient id="paint31_linear" x1="102.38" y1="78.8466" x2="101.992" y2="62.8213" gradientUnits="userSpaceOnUse">
<stop stop-color="white"/>
<stop offset="1" stop-color="#BEC8CF"/>
</linearGradient>
<linearGradient id="paint32_linear" x1="100.102" y1="78.9018" x2="99.7147" y2="62.8765" gradientUnits="userSpaceOnUse">
<stop stop-color="white"/>
<stop offset="1" stop-color="#BEC8CF"/>
</linearGradient>
<linearGradient id="paint33_linear" x1="97.9664" y1="79.0816" x2="95.0117" y2="63.3275" gradientUnits="userSpaceOnUse">
<stop stop-color="white"/>
<stop offset="1" stop-color="#BEC8CF"/>
</linearGradient>
<linearGradient id="paint34_linear" x1="103.064" y1="79.1219" x2="102.676" y2="63.0963" gradientUnits="userSpaceOnUse">
<stop stop-color="white"/>
<stop offset="1" stop-color="#BEC8CF"/>
</linearGradient>
<linearGradient id="paint35_linear" x1="105.901" y1="78.8942" x2="105.513" y2="62.8686" gradientUnits="userSpaceOnUse">
<stop stop-color="white"/>
<stop offset="1" stop-color="#BEC8CF"/>
</linearGradient>
<linearGradient id="paint36_linear" x1="107.935" y1="78.7128" x2="107.547" y2="62.6872" gradientUnits="userSpaceOnUse">
<stop stop-color="white"/>
<stop offset="1" stop-color="#BEC8CF"/>
</linearGradient>
<linearGradient id="paint37_linear" x1="51.807" y1="48.6681" x2="60.3138" y2="50.4717" gradientUnits="userSpaceOnUse">
<stop stop-color="#7D94A3"/>
<stop offset="1" stop-color="#425561"/>
</linearGradient>
<linearGradient id="paint38_linear" x1="66.3015" y1="41.2154" x2="61.3359" y2="57.5206" gradientUnits="userSpaceOnUse">
<stop stop-color="white"/>
<stop offset="1" stop-color="#BEC8CF"/>
</linearGradient>
<linearGradient id="paint39_linear" x1="72.2261" y1="43.3629" x2="68.4769" y2="52.7697" gradientUnits="userSpaceOnUse">
<stop stop-color="#E3F4FF"/>
<stop offset="1" stop-color="#B7C1C7"/>
</linearGradient>
<linearGradient id="paint40_linear" x1="59.0835" y1="43.7939" x2="69.3614" y2="45.973" gradientUnits="userSpaceOnUse">
<stop stop-color="#7D94A3"/>
<stop offset="1" stop-color="#425561"/>
</linearGradient>
<linearGradient id="paint41_linear" x1="59.7214" y1="43.9945" x2="69.3481" y2="46.0356" gradientUnits="userSpaceOnUse">
<stop stop-color="#85D0DE"/>
<stop offset="1" stop-color="#6292B3"/>
</linearGradient>
<linearGradient id="paint42_linear" x1="67.8726" y1="56.7549" x2="85.1286" y2="60.4136" gradientUnits="userSpaceOnUse">
<stop stop-color="#7D94A3"/>
<stop offset="1" stop-color="#425561"/>
</linearGradient>
<linearGradient id="paint43_linear" x1="52.7379" y1="52.5517" x2="76.6807" y2="65.8976" gradientUnits="userSpaceOnUse">
<stop stop-color="white"/>
<stop offset="1" stop-color="#BEC8CF"/>
</linearGradient>
<linearGradient id="paint44_linear" x1="88.93" y1="28.8008" x2="88.8331" y2="38.7977" gradientUnits="userSpaceOnUse">
<stop stop-color="#E3F4FF"/>
<stop offset="1" stop-color="#B7C1C7"/>
</linearGradient>
<linearGradient id="paint45_linear" x1="91.1999" y1="29.4716" x2="88.386" y2="40.5175" gradientUnits="userSpaceOnUse">
<stop stop-color="white"/>
<stop offset="1" stop-color="#BEC8CF"/>
</linearGradient>
<linearGradient id="paint46_linear" x1="89.6677" y1="36.5776" x2="90.589" y2="31.6496" gradientUnits="userSpaceOnUse">
<stop stop-color="#E3F4FF"/>
<stop offset="1" stop-color="#B7C1C7"/>
</linearGradient>
<linearGradient id="paint47_linear" x1="54.4925" y1="85.17" x2="64.3911" y2="87.2687" gradientUnits="userSpaceOnUse">
<stop stop-color="#E3F4FF"/>
<stop offset="1" stop-color="#B7C1C7"/>
</linearGradient>
<linearGradient id="paint48_linear" x1="62.2824" y1="84.5394" x2="54.2469" y2="87.7089" gradientUnits="userSpaceOnUse">
<stop stop-color="white"/>
<stop offset="1" stop-color="#BEC8CF"/>
</linearGradient>
<linearGradient id="paint49_linear" x1="54.797" y1="87.1789" x2="60.7121" y2="88.4331" gradientUnits="userSpaceOnUse">
<stop stop-color="#7D94A3"/>
<stop offset="1" stop-color="#425561"/>
</linearGradient>
<linearGradient id="paint50_linear" x1="55.8197" y1="83.4085" x2="61.7553" y2="84.667" gradientUnits="userSpaceOnUse">
<stop stop-color="#7D94A3"/>
<stop offset="1" stop-color="#425561"/>
</linearGradient>
<linearGradient id="paint51_linear" x1="54.9647" y1="85.2688" x2="61.3301" y2="86.6185" gradientUnits="userSpaceOnUse">
<stop stop-color="#7D94A3"/>
<stop offset="1" stop-color="#425561"/>
</linearGradient>
<linearGradient id="paint52_linear" x1="32.8175" y1="63.4628" x2="40.774" y2="65.1498" gradientUnits="userSpaceOnUse">
<stop stop-color="#E3F4FF"/>
<stop offset="1" stop-color="#B7C1C7"/>
</linearGradient>
<linearGradient id="paint53_linear" x1="40.1402" y1="63.5538" x2="32.576" y2="63.4064" gradientUnits="userSpaceOnUse">
<stop stop-color="white"/>
<stop offset="1" stop-color="#BEC8CF"/>
</linearGradient>
<linearGradient id="paint54_linear" x1="33.4392" y1="63.4209" x2="36.0987" y2="63.9848" gradientUnits="userSpaceOnUse">
<stop stop-color="#7D94A3"/>
<stop offset="1" stop-color="#425561"/>
</linearGradient>
<linearGradient id="paint55_linear" x1="36.6116" y1="62.2874" x2="39.4988" y2="62.8996" gradientUnits="userSpaceOnUse">
<stop stop-color="#7D94A3"/>
<stop offset="1" stop-color="#425561"/>
</linearGradient>
<linearGradient id="paint56_linear" x1="34.9363" y1="62.7724" x2="37.8022" y2="63.38" gradientUnits="userSpaceOnUse">
<stop stop-color="#7D94A3"/>
<stop offset="1" stop-color="#425561"/>
</linearGradient>
<linearGradient id="paint57_linear" x1="101.152" y1="54.7417" x2="96.8026" y2="60.3518" gradientUnits="userSpaceOnUse">
<stop stop-color="white"/>
<stop offset="1" stop-color="#BEC8CF"/>
</linearGradient>
<linearGradient id="paint58_linear" x1="96.9901" y1="60.2827" x2="102.515" y2="60.4139" gradientUnits="userSpaceOnUse">
<stop stop-color="#E3F4FF"/>
<stop offset="1" stop-color="#B7C1C7"/>
</linearGradient>
<linearGradient id="paint59_linear" x1="96.1711" y1="57.3128" x2="100.806" y2="57.4229" gradientUnits="userSpaceOnUse">
<stop stop-color="#7D94A3"/>
<stop offset="1" stop-color="#425561"/>
</linearGradient>
<linearGradient id="paint60_linear" x1="96.2875" y1="57.4544" x2="100.802" y2="57.5615" gradientUnits="userSpaceOnUse">
<stop stop-color="#85D0DE"/>
<stop offset="1" stop-color="#6292B3"/>
</linearGradient>
<linearGradient id="paint61_linear" x1="85.6136" y1="45.6629" x2="90.9674" y2="47.3645" gradientUnits="userSpaceOnUse">
<stop offset="0.00396825" stop-color="#E74D87"/>
<stop offset="1" stop-color="#763289"/>
</linearGradient>
<linearGradient id="paint62_linear" x1="85.5535" y1="45.8637" x2="91.0171" y2="47.1782" gradientUnits="userSpaceOnUse">
<stop offset="0.00396825" stop-color="#EA5289"/>
<stop offset="1" stop-color="#763187"/>
</linearGradient>
</defs>
</svg>
