<svg width="93" height="45" viewBox="0 0 93 45" fill="none" xmlns="http://www.w3.org/2000/svg">
<path d="M1.81006 2.02096L1.94507 1.07784C1.94507 0.808383 2.08009 0.538922 2.35012 0.404192C2.48513 0.269461 2.75516 0.134731 3.02519 0.134731H14.0964C14.3664 0.134731 14.5015 0.269461 14.6365 0.404192C14.7715 0.538922 14.7715 0.808383 14.7715 1.07784L14.6365 2.02096C14.5015 2.29042 14.5015 2.55988 14.2314 2.69461C14.0964 2.96407 13.8264 2.96407 13.5563 2.96407H9.77593L7.48068 14.012C7.48068 14.2814 7.34567 14.5509 7.07564 14.6856C6.94062 14.8204 6.67059 14.9551 6.40056 14.9551H4.78038C4.51035 14.9551 4.37534 14.8204 4.24033 14.6856C4.10531 14.5509 4.10531 14.2814 4.10531 14.012L6.40056 2.96407H2.48513C2.2151 2.96407 2.08009 2.96407 1.94507 2.69461C1.81006 2.55988 1.81006 2.29042 1.81006 2.02096ZM13.2863 14.1467L15.8516 1.07784C15.8516 0.808383 15.9866 0.538922 16.2566 0.404192C16.5267 0.269461 16.6617 0.134731 16.9317 0.134731H24.3575C25.7077 0.134731 26.7878 0.538922 27.4629 1.48204C28.138 2.29042 28.408 3.50299 28.138 4.98503C27.7329 7.00599 26.3828 8.21856 23.9525 8.75748C24.2225 8.89221 24.4925 9.16168 24.7626 9.56587C25.0326 9.97006 25.3026 10.509 25.4377 11.1826L26.5178 14.1467C26.5178 14.4162 26.6528 14.5509 26.5178 14.6856V14.8204C26.3828 14.9551 26.2477 15.0898 25.9777 15.0898H23.6825C23.4124 15.0898 23.2774 14.9551 23.0074 14.8204C22.7374 14.6856 22.6023 14.4162 22.4673 14.1467L21.5222 11.4521C21.1172 10.3743 20.4421 9.7006 19.632 9.7006H17.4718L16.5267 14.1467C16.5267 14.4162 16.3917 14.6856 16.1216 14.8204C15.9866 14.9551 15.7166 15.0898 15.4466 15.0898H13.8264C13.6914 15.0898 13.5563 15.0898 13.4213 14.9551C13.2863 14.6856 13.1513 14.4162 13.2863 14.1467ZM18.2819 6.87126H22.0623C22.6023 6.87126 23.2774 6.73653 23.6825 6.46707C24.2225 6.1976 24.4925 5.79341 24.6276 5.11976C24.7626 4.44611 24.6276 4.04192 24.2225 3.77245C23.8175 3.50299 23.2774 3.36826 22.7374 3.36826H18.9569L18.2819 6.87126ZM27.4629 14.1467L31.7833 4.17665C32.9985 1.48204 35.1587 0.134731 38.5341 0.134731H43.3946C43.5296 0.134731 43.7997 0.269461 43.7997 0.404192C43.9347 0.673653 43.9347 0.808383 43.9347 1.07784L41.3694 14.1467C41.3694 14.4162 41.2344 14.5509 41.0994 14.6856C40.8293 14.9551 40.5593 15.0898 40.2893 15.0898H38.3991C38.129 15.0898 37.994 14.9551 37.859 14.8204C37.724 14.6856 37.724 14.4162 37.724 14.1467L38.2641 11.5868H32.0534L30.9733 14.1467C30.8382 14.4162 30.7032 14.6856 30.4332 14.8204C30.1632 14.9551 30.0282 15.0898 29.7581 15.0898H28.0029C27.7329 15.0898 27.5979 14.9551 27.4629 14.8204C27.4629 14.6856 27.3279 14.5509 27.4629 14.4162C27.4629 14.2814 27.4629 14.1467 27.4629 14.1467ZM33.4035 8.35329H39.0742L40.1543 2.96407H37.589C37.0489 2.96407 36.5089 3.0988 35.9688 3.50299C35.4287 3.90719 35.0237 4.44611 34.7537 4.98503L33.4035 8.35329ZM43.3946 14.012L45.9599 1.07784C45.9599 0.808383 46.0949 0.538922 46.365 0.404192C46.635 0.269461 46.77 0.134731 47.04 0.134731H57.5712C57.8412 0.134731 57.9762 0.269461 58.1112 0.404192C58.2463 0.538922 58.2463 0.808383 58.2463 1.07784L58.1112 2.02096C58.1112 2.29042 57.9762 2.55988 57.7062 2.69461C57.5712 2.82934 57.3012 2.96407 57.0311 2.96407H49.0653L48.2552 6.87126H54.7359C55.0059 6.87126 55.1409 7.00599 55.2759 7.14072C55.4109 7.27545 55.4109 7.54491 55.4109 7.81437L55.2759 8.75748C55.2759 9.02695 55.1409 9.29641 54.8709 9.43114C54.7359 9.56587 54.4658 9.7006 54.1958 9.7006H47.7151L46.77 14.1467C46.77 14.4162 46.635 14.6856 46.365 14.8204C46.0949 14.9551 45.9599 15.0898 45.6899 15.0898H43.9347C43.7997 15.0898 43.6647 15.0898 43.5296 14.9551C43.3946 14.6856 43.2596 14.4162 43.3946 14.012ZM56.7611 14.012L59.3264 1.07784C59.3264 0.808383 59.4614 0.538922 59.7314 0.404192C60.0015 0.269461 60.1365 0.134731 60.4065 0.134731H70.9377C71.2077 0.134731 71.3427 0.269461 71.4777 0.404192C71.6127 0.538922 71.6127 0.808383 71.6127 1.07784L71.4777 2.02096C71.4777 2.29042 71.3427 2.55988 71.0727 2.69461C70.9377 2.82934 70.6676 2.96407 70.3976 2.96407H62.4317L61.7566 6.87126H68.2374C68.5074 6.87126 68.6424 7.00599 68.7774 7.14072C68.9124 7.27545 68.9124 7.54491 68.9124 7.81437L68.7774 8.75748C68.7774 9.02695 68.6424 9.29641 68.3724 9.43114C68.2374 9.56587 67.9673 9.7006 67.6973 9.7006H61.2166L60.2715 14.1467C60.2715 14.4162 60.1365 14.6856 59.8664 14.8204C59.5964 14.9551 59.4614 15.0898 59.1914 15.0898H57.4362C57.3012 15.0898 57.1661 15.0898 57.0311 14.9551C56.7611 14.6856 56.7611 14.4162 56.7611 14.012ZM70.3976 14.1467L73.0979 1.07784C73.0979 0.808383 73.2329 0.538922 73.5029 0.404192C73.773 0.269461 73.908 0.134731 74.178 0.134731H75.9332C76.2032 0.134731 76.3382 0.269461 76.4733 0.404192C76.6083 0.673653 76.6083 0.808383 76.6083 1.07784L73.908 14.1467C73.908 14.4162 73.773 14.6856 73.5029 14.8204C73.2329 14.9551 73.0979 15.0898 72.8279 15.0898H71.0727C70.8026 15.0898 70.6676 14.9551 70.5326 14.8204C70.3976 14.6856 70.3976 14.4162 70.3976 14.1467ZM77.6884 13.3383C76.7433 12.1257 76.6083 10.2395 77.1483 7.67964C77.6884 5.11976 78.6335 3.0988 79.9837 1.88623C81.3338 0.673653 83.224 0 85.5193 0H87.6795C89.0296 0 90.2448 0.404192 91.0549 1.21257C92 2.02096 92.27 3.0988 92 4.58084C91.865 4.98503 91.7299 5.25449 91.4599 5.52395C91.1899 5.65868 90.9199 5.79341 90.7848 5.79341H89.7047C89.1646 5.79341 88.7596 5.38922 88.6246 4.58084C88.3546 3.50299 87.8145 2.82934 86.7344 2.82934H85.1142C83.7641 2.82934 82.819 3.0988 82.2789 3.77245C81.7388 4.44611 81.1988 5.65868 80.7937 7.41018C80.3887 9.16168 80.3887 10.3743 80.7937 11.0479C80.9287 11.7216 81.7388 12.1257 82.954 12.1257H84.8442C84.8442 12.1257 86.7344 11.7216 87.4095 10.6437C87.8145 9.83533 88.8946 9.7006 88.8946 9.7006H89.9747C90.1098 9.7006 90.2448 9.7006 90.2448 9.83533C90.3798 9.83533 90.5148 9.97006 90.5148 10.2395C90.6498 10.3743 90.6498 10.6437 90.5148 10.9132C90.2448 12.3952 89.4347 13.4731 88.2196 14.2814C87.0044 15.0898 85.7893 15.494 84.3041 15.494H82.0089C80.1187 15.2246 78.4985 14.6856 77.6884 13.3383Z" fill="#BA90C2"/>
<path d="M58.5163 31.9312L61.0815 18.8623C61.0815 18.5928 61.2166 18.3234 61.4866 18.1886C61.7566 18.0539 61.8916 17.9192 62.1617 17.9192H69.5875C70.9376 17.9192 72.0177 18.3234 72.6928 19.2665C73.3679 20.0749 73.6379 21.2874 73.3679 22.7695C72.9628 24.7904 71.6127 26.1377 69.1824 26.6767C69.4525 26.8114 69.7225 27.0809 69.9925 27.485C70.2626 27.8892 70.5326 28.4282 70.6676 29.1018L71.7477 32.2006C71.7477 32.4701 71.8827 32.6048 71.7477 32.7395V32.8743C71.6127 33.009 71.4777 33.1437 71.2077 33.1437H68.9124C68.6424 33.1437 68.5074 33.009 68.2373 32.8743C67.9673 32.7395 67.8323 32.4701 67.6973 32.2006L66.7522 29.3713C66.3471 28.2934 65.6721 27.6198 64.862 27.6198H62.7017L61.7566 32.0659C61.7566 32.3353 61.6216 32.6048 61.3516 32.7395C61.2166 32.8743 60.9465 33.009 60.6765 33.009H58.9213C58.7863 33.009 58.6513 33.009 58.5163 32.8743C58.5163 32.4701 58.3812 32.2006 58.5163 31.9312ZM63.5118 24.521H67.2922C67.8323 24.521 68.5074 24.3862 68.9124 24.1168C69.4525 23.8473 69.7225 23.4431 69.8575 22.7695C69.9925 22.0958 69.8575 21.6916 69.4525 21.4222C69.0474 21.1527 68.5074 21.018 67.9673 21.018H64.1869L63.5118 24.521ZM16.2566 19.6707L16.3916 18.7276C16.3916 18.4581 16.5267 18.1886 16.7967 18.0539C16.9317 17.9192 17.2017 17.7844 17.4718 17.7844H28.678C28.948 17.7844 29.083 17.9192 29.218 18.0539C29.3531 18.1886 29.3531 18.4581 29.3531 18.7276L29.218 19.6707C29.218 19.9401 29.083 20.2096 28.813 20.3443C28.678 20.4791 28.408 20.6138 28.1379 20.6138H24.2225L21.9272 31.7964C21.9272 32.0659 21.7922 32.3353 21.5222 32.4701C21.2522 32.6048 21.1172 32.7395 20.8471 32.7395H19.0919C18.8219 32.7395 18.6869 32.6048 18.5519 32.4701C18.4169 32.3353 18.4169 32.0659 18.4169 31.7964L20.7121 20.6138H16.9317C16.6617 20.6138 16.5267 20.4791 16.3916 20.3443C16.1216 20.0749 16.1216 19.9401 16.2566 19.6707ZM0.99995 28.9671C1.13497 28.5629 1.26998 28.2934 1.40499 28.024C1.67502 27.8892 1.81004 27.7545 2.08007 27.7545H3.16019C3.70025 27.7545 4.10529 28.024 4.24031 28.6976C4.37532 29.3713 4.91538 29.7755 5.9955 29.7755L9.10084 29.9102C10.181 29.9102 10.721 29.506 10.856 28.6976C10.856 28.2934 10.856 28.024 10.451 27.7545C10.181 27.485 9.77591 27.3503 9.23585 27.0809C8.69579 26.9461 8.02072 26.6767 7.48066 26.5419C6.9406 26.4072 6.13051 26.1377 5.45544 26.003C4.78036 25.8683 4.24031 25.5988 3.70025 25.3294C3.16019 25.0599 2.89016 24.521 2.62013 23.9821C2.3501 23.4431 2.21508 22.7695 2.3501 22.0958C2.62013 20.7485 3.16019 19.5359 4.24031 18.8623C5.18541 18.0539 6.80559 17.7844 8.83081 17.7844H11.1261C12.3412 17.7844 13.4213 18.1886 14.2314 18.8623C15.0415 19.5359 15.4465 20.4791 15.1765 21.6916C15.0415 22.0958 14.9065 22.3653 14.7715 22.6347C14.5014 22.7695 14.3664 22.9042 14.0964 22.9042H13.0163C12.4762 22.9042 12.2062 22.6347 11.9362 21.9611C11.8011 21.2874 11.2611 20.8833 10.181 20.8833H7.48066C6.40054 20.8833 5.86048 21.2874 5.72547 22.0958C5.59045 22.5 5.9955 22.9042 6.53556 23.0389C7.21063 23.3084 7.88571 23.4431 8.83081 23.8473C9.6409 24.1168 10.586 24.3862 11.5311 24.7904C12.4762 25.0599 13.1513 25.5988 13.6913 26.2725C14.2314 26.9461 14.3664 27.8892 14.2314 28.8324C13.9614 30.1797 13.4213 31.3922 12.3412 32.0659C11.3961 32.8743 9.77591 33.1437 7.75069 33.1437H5.05039C3.83526 33.1437 2.75514 32.7395 1.94505 32.0659C1.13496 30.988 0.864935 30.0449 0.99995 28.9671ZM73.7729 28.9671C73.908 28.5629 74.043 28.2934 74.178 28.024C74.448 27.8892 74.583 27.7545 74.8531 27.7545H75.9332C76.4732 27.7545 76.8783 28.024 77.0133 28.6976C77.1483 29.3713 77.6884 29.7755 78.7685 29.7755L81.8738 29.9102C82.9539 29.9102 83.494 29.506 83.629 28.6976C83.629 28.2934 83.629 28.024 83.224 27.7545C82.9539 27.485 82.5489 27.3503 82.0088 27.0809C81.4688 26.9461 80.7937 26.6767 80.2536 26.5419C79.5786 26.4072 78.9035 26.1377 78.2284 26.003C77.5534 25.8683 77.0133 25.5988 76.4732 25.1946C75.9332 24.9252 75.6631 24.3862 75.3931 23.8473C75.1231 23.3084 75.1231 22.6347 75.2581 21.9611C75.5281 20.6138 76.0682 19.4012 77.1483 18.7276C78.0934 17.9192 79.7136 17.6497 81.7388 17.6497H84.0341C85.2492 17.6497 86.3293 18.0539 87.1394 18.7276C87.9495 19.4012 88.3545 20.3443 88.0845 21.5569C87.9495 21.9611 87.8145 22.2306 87.6795 22.5C87.4094 22.6347 87.2744 22.7695 87.0044 22.7695H85.9243C85.3842 22.7695 85.1142 22.5 84.8442 21.8264C84.7091 21.1527 84.1691 20.7485 83.089 20.7485H80.3887C79.3085 20.7485 78.7685 21.1527 78.6335 21.9611C78.4985 22.3653 78.9035 22.7695 79.4436 22.9042C80.1186 23.1737 80.7937 23.3084 81.7388 23.7126C82.5489 23.9821 83.494 24.2515 84.4391 24.6557C85.3842 24.9252 86.0593 25.4641 86.5993 26.1377C87.1394 26.8114 87.2744 27.7545 87.1394 28.6976C86.8694 30.0449 86.3293 31.2575 85.2492 31.9312C84.3041 32.7395 82.6839 33.009 80.6587 33.009H77.9584C76.7433 33.009 75.6631 32.6048 74.8531 31.9312C73.908 30.988 73.6379 30.0449 73.7729 28.9671Z" fill="#BA90C2"/>
<path d="M44.3397 16.8413L45.0148 19.9401L48.5252 20.2096L45.4198 22.3653L45.5548 25.7335L42.9895 23.982L39.6142 25.7335L41.0993 22.3653L38.8041 20.2096L42.3145 19.9401L44.3397 16.8413Z" fill="#BA90C2"/>
<path d="M50.0103 24.9251L50.6854 28.0239L54.0608 28.2934L51.0905 30.4491L51.2255 33.6826L48.5252 31.9311L45.2848 33.6826L46.77 30.4491L44.4747 28.2934L47.9851 28.0239L50.0103 24.9251Z" fill="#BA90C2"/>
<path d="M34.6186 24.9251L35.4287 28.0239L38.8041 28.2934L35.6987 30.4491L35.9688 33.6826L33.2685 31.9311L30.0281 33.6826L31.3783 30.4491L29.218 28.2934L32.7284 28.0239L34.6186 24.9251Z" fill="#BA90C2"/>
<path d="M88.7596 32.0659C88.8946 32.0659 88.8946 32.0659 89.0296 32.0659L89.1646 31.9311V31.7964C89.1646 31.6617 89.0296 31.6617 88.8946 31.6617C88.7596 31.6617 88.7596 31.6617 88.6246 31.6617V32.2006H88.7596V32.0659ZM88.6246 32.2006H88.4896C88.4896 32.4701 88.4896 32.6048 88.4896 32.8742C88.3545 32.8742 88.3545 32.8742 88.2195 32.8742C88.2195 32.3353 88.2195 31.7964 88.2195 31.2575C88.3545 31.2575 88.6246 31.2575 88.8946 31.2575C89.1646 31.2575 89.4347 31.3922 89.4347 31.6617C89.4347 31.9311 89.2996 32.0659 89.0296 32.2006C89.1646 32.4701 89.4347 32.7395 89.5697 32.8742C89.4347 32.8742 89.2997 32.8742 89.1646 32.8742L88.6246 32.2006ZM88.7596 30.8533C88.0845 30.8533 87.5444 31.3922 87.5444 32.2006C87.5444 33.009 88.0845 33.4132 88.7596 33.4132C89.5697 33.4132 89.9747 32.8742 89.9747 32.0659C89.9747 31.2575 89.4347 30.8533 88.7596 30.8533ZM88.7596 33.6826C87.6795 33.6826 87.1394 33.009 87.1394 32.0659C87.1394 30.988 87.8145 30.4491 88.7596 30.4491C89.7047 30.4491 90.3798 31.1227 90.3798 32.0659C90.3798 33.009 89.7047 33.6826 88.7596 33.6826Z" fill="#BA90C2"/>
<path d="M1 40.9581H2.62018V45H3.43027V40.9581H5.05045V40.1497H1V40.9581Z" fill="#BA90C2"/>
<path d="M11.3961 42.1707H9.10086V40.1497H8.29077V45H9.10086V42.9791H11.3961V45H12.2062V40.1497H11.3961V42.1707Z" fill="#BA90C2"/>
<path d="M17.0667 42.9791H19.2269V42.1707H17.0667V40.9581H19.4969V40.1497H16.2566V45H19.4969V44.1916H17.0667V42.9791Z" fill="#BA90C2"/>
<path d="M30.7032 42.1707H28.408V40.1497H27.5979V45H28.408V42.9791H30.7032V45H31.6483V40.1497H30.7032V42.1707Z" fill="#BA90C2"/>
<path d="M36.3738 42.9791H38.534V42.1707H36.3738V40.9581H38.8041V40.1497H35.5637V45H38.8041V44.1916H36.3738V42.9791Z" fill="#BA90C2"/>
<path d="M43.6646 41.0928V41.2276L44.4747 43.2485H42.8546L43.6646 41.2276V41.0928ZM44.0697 40.1497H43.2596L41.2344 45H42.1795L42.5845 43.9222H44.8798L45.2848 45H46.2299L44.0697 40.1497Z" fill="#BA90C2"/>
<path d="M48.5251 40.9581H50.0103V45H50.9554V40.9581H52.5756V40.1497H48.5251V40.9581Z" fill="#BA90C2"/>
<path d="M59.7314 45H60.5415V40.1497H59.7314V45Z" fill="#BA90C2"/>
<path d="M65.9421 42.1706C65.267 42.0359 64.727 41.7665 64.727 41.3623C64.727 40.9581 65.132 40.8233 65.6721 40.8233C66.2121 40.8233 66.8872 40.9581 67.2922 41.2275H67.4273V40.4191C67.0222 40.1497 66.3471 40.015 65.6721 40.015C64.4569 40.015 63.7819 40.5539 63.7819 41.3623C63.7819 42.3054 64.727 42.5748 65.5371 42.8443C66.2121 42.979 66.7522 43.2485 66.7522 43.6527C66.7522 44.0569 66.3471 44.1916 65.6721 44.1916C64.997 44.1916 64.4569 44.0569 63.9169 43.7874H63.7819V44.5958C64.3219 44.8653 64.997 45 65.6721 45C66.2121 45 66.8872 44.8653 67.2922 44.5958C67.5623 44.3263 67.6973 44.0569 67.6973 43.6527C67.8323 42.7096 66.8872 42.4401 65.9421 42.1706Z" fill="#BA90C2"/>
<path d="M77.4183 40.9581C78.4984 40.9581 79.0385 41.7665 79.0385 42.5749C79.0385 43.3833 78.4984 44.1916 77.4183 44.1916C76.3382 44.1916 75.7981 43.3833 75.7981 42.5749C75.9331 41.7665 76.3382 40.9581 77.4183 40.9581ZM77.4183 40.1497C76.6082 40.1497 76.0681 40.4192 75.6631 40.9581C75.2581 41.3623 75.123 42.0359 75.123 42.5749C75.123 43.2485 75.3931 43.7874 75.6631 44.1916C76.0681 44.7306 76.7432 45 77.4183 45C78.2284 45 78.7685 44.7306 79.1735 44.1916C79.5785 43.7874 79.7136 43.1138 79.7136 42.5749C79.7136 42.0359 79.4435 41.3623 79.1735 40.9581C78.9035 40.4192 78.2284 40.1497 77.4183 40.1497Z" fill="#BA90C2"/>
<path d="M86.3294 43.1138C86.3294 43.2485 86.3294 43.3833 86.3294 43.518L83.8991 40.1497H83.089V45H83.8991V42.0359C83.8991 41.9012 83.8991 41.7665 83.8991 41.6318L86.3294 45H87.1394V40.1497H86.3294V43.1138Z" fill="#BA90C2"/>
<path d="M89.9747 44.1916C89.8397 44.1916 89.5697 44.3263 89.5697 44.5958C89.5697 44.8653 89.8397 45 89.9747 45C90.2448 45 90.3798 44.8653 90.3798 44.5958C90.3798 44.3263 90.1098 44.1916 89.9747 44.1916Z" fill="#BA90C2"/>
</svg>
